G75*
G70*
%OFA0B0*%
%FSLAX24Y24*%
%IPPOS*%
%LPD*%
%AMOC8*
5,1,8,0,0,1.08239X$1,22.5*
%
%ADD10R,0.0800X0.0800*%
%ADD11C,0.0800*%
%ADD12OC8,0.0740*%
%ADD13R,0.0950X0.0950*%
%ADD14C,0.0950*%
%ADD15C,0.0740*%
%ADD16OC8,0.0660*%
%ADD17C,0.0100*%
%ADD18C,0.0270*%
%ADD19C,0.0160*%
D10*
X006320Y002180D03*
X009820Y002180D03*
X003320Y007680D03*
X006820Y009180D03*
X003320Y010680D03*
X006820Y012180D03*
X020320Y010680D03*
X020320Y007680D03*
X021320Y002180D03*
X018320Y002180D03*
X025820Y002180D03*
D11*
X024442Y002180D03*
X019942Y002180D03*
X016942Y002180D03*
X008442Y002180D03*
X004942Y002180D03*
X006820Y007802D03*
X003320Y009058D03*
X006820Y010802D03*
X003320Y012058D03*
X020320Y012058D03*
X020320Y009058D03*
D12*
X026320Y008680D03*
X027320Y008680D03*
X027320Y007680D03*
X026320Y007680D03*
X026320Y009680D03*
X027320Y009680D03*
X027320Y010680D03*
X026320Y010680D03*
X026320Y011680D03*
X027320Y011680D03*
X027320Y012680D03*
X026320Y012680D03*
X026320Y013680D03*
X027320Y013680D03*
X027320Y014680D03*
X026320Y014680D03*
X026320Y015680D03*
X027320Y015680D03*
X027320Y016680D03*
X026320Y016680D03*
D13*
X019320Y017180D03*
X014320Y017180D03*
X008820Y017180D03*
X003820Y017180D03*
X014820Y002180D03*
D14*
X013442Y002180D03*
X012064Y002180D03*
X011576Y017180D03*
X010198Y017180D03*
X006576Y017180D03*
X005198Y017180D03*
X015698Y017180D03*
X017076Y017180D03*
X020698Y017180D03*
X022076Y017180D03*
D15*
X020820Y014180D03*
X019820Y014180D03*
X018820Y014180D03*
X017820Y014180D03*
X016820Y014180D03*
X015820Y014180D03*
X010820Y014180D03*
X009820Y014180D03*
X008820Y014180D03*
X007820Y014180D03*
X006820Y014180D03*
X005820Y014180D03*
D16*
X023320Y004680D03*
X027320Y004680D03*
D17*
X026840Y004680D01*
X026360Y004200D01*
X018962Y004200D01*
X016942Y002180D01*
X016315Y002807D01*
X012691Y002807D01*
X012064Y002180D01*
X009820Y002180D02*
X009270Y002180D01*
X008704Y001614D01*
X005864Y001614D01*
X005765Y001712D01*
X005765Y002641D01*
X011604Y008480D01*
X023600Y008480D01*
X025800Y010680D01*
X026320Y010680D01*
X026320Y009680D02*
X025800Y009680D01*
X024400Y008280D01*
X014542Y008280D01*
X008442Y002180D01*
X006220Y000200D02*
X006220Y000180D01*
X006220Y000200D01*
X006220Y000180D01*
X006220Y000200D01*
X006220Y000180D01*
X006220Y000200D01*
X006220Y000180D01*
X006220Y000200D01*
X005708Y001414D02*
X004942Y002180D01*
X005708Y001414D02*
X026074Y001414D01*
X028003Y003343D01*
X028003Y010997D01*
X027320Y011680D01*
X026320Y011680D02*
X025800Y011680D01*
X023847Y009727D01*
X020272Y009727D01*
X019759Y009619D02*
X020320Y009058D01*
X019759Y009619D02*
X019759Y011497D01*
X020320Y012058D01*
X020820Y014180D02*
X020295Y014705D01*
X011345Y014705D01*
X010820Y014180D01*
X009552Y014912D02*
X009552Y015823D01*
X008820Y016555D01*
X008820Y017180D01*
X010198Y017180D02*
X011698Y015680D01*
X026320Y015680D01*
X027320Y015680D02*
X027847Y016207D01*
X027847Y016898D01*
X027541Y017205D01*
X023895Y017205D01*
X023245Y016555D01*
X016323Y016555D01*
X015698Y017180D01*
X017076Y017180D02*
X017914Y018018D01*
X027010Y018018D01*
X028047Y016981D01*
X028047Y015407D01*
X027320Y014680D01*
X026320Y014680D02*
X025800Y014680D01*
X025568Y014912D01*
X009552Y014912D01*
X008820Y014180D01*
X008345Y013655D02*
X007820Y014180D01*
X007820Y015936D01*
X006576Y017180D01*
X005198Y017180D02*
X006820Y015558D01*
X006820Y014180D01*
X008320Y012680D01*
X026320Y012680D01*
X026320Y013680D02*
X025800Y013680D01*
X025775Y013655D01*
X008345Y013655D01*
X006820Y012180D02*
X006820Y011630D01*
X006270Y011080D01*
X006270Y010680D01*
X006270Y010280D01*
X006820Y009730D01*
X006820Y009180D01*
X006270Y010680D02*
X003870Y010680D01*
X003320Y010680D01*
X003870Y010680D02*
X003870Y008780D01*
X003320Y008230D01*
X003320Y007680D01*
X014820Y002180D02*
X015445Y002180D01*
X016004Y001621D01*
X020211Y001621D01*
X020770Y002180D01*
X021320Y002180D01*
X021870Y002180D01*
X022420Y002730D01*
X024720Y002730D01*
X025270Y002180D01*
X025820Y002180D01*
X025820Y002730D01*
X026061Y002730D01*
X027802Y004471D01*
X027802Y006678D01*
X027320Y007160D01*
X027320Y007420D01*
X027320Y007680D01*
X027320Y007420D02*
X027100Y007420D01*
X026840Y007680D01*
X026320Y007680D01*
X020320Y007680D01*
X016520Y000200D02*
X016520Y000180D01*
X016520Y000200D01*
X016520Y000180D01*
X016520Y000200D01*
X016520Y000180D01*
X016520Y000200D01*
X019320Y017180D02*
X019945Y017180D01*
X019945Y017336D01*
X020414Y017805D01*
X023915Y017805D01*
X024204Y017516D01*
D18*
X024204Y017516D03*
X020272Y009727D03*
D19*
X028320Y000180D02*
X000320Y000180D01*
X028320Y000180D01*
X028320Y000200D01*
X000320Y000200D01*
X000320Y000180D01*
X000550Y000660D02*
X000550Y019196D01*
X028320Y019196D01*
X028320Y000660D01*
X000550Y000660D01*
X000550Y000814D02*
X028320Y000814D01*
X028320Y000973D02*
X000550Y000973D01*
X000550Y001131D02*
X028320Y001131D01*
X028320Y001290D02*
X026275Y001290D01*
X026304Y001318D02*
X028233Y003247D01*
X028233Y011092D01*
X028098Y011227D01*
X027870Y011455D01*
X027870Y011908D01*
X027598Y012180D01*
X027870Y012452D01*
X027870Y012908D01*
X027598Y013180D01*
X027870Y013452D01*
X027870Y013908D01*
X027598Y014180D01*
X027870Y014452D01*
X027870Y014905D01*
X028142Y015177D01*
X028277Y015312D01*
X028277Y017076D01*
X027240Y018113D01*
X027105Y018248D01*
X017819Y018248D01*
X017347Y017777D01*
X017206Y017835D01*
X016946Y017835D01*
X016705Y017735D01*
X016521Y017551D01*
X016421Y017310D01*
X016421Y017050D01*
X016521Y016809D01*
X016545Y016785D01*
X016418Y016785D01*
X016295Y016909D01*
X016353Y017050D01*
X016353Y017310D01*
X016253Y017551D01*
X016069Y017735D01*
X015828Y017835D01*
X015568Y017835D01*
X015327Y017735D01*
X015143Y017551D01*
X015043Y017310D01*
X015043Y017050D01*
X015143Y016809D01*
X015327Y016625D01*
X015568Y016525D01*
X015828Y016525D01*
X015969Y016583D01*
X016228Y016325D01*
X023340Y016325D01*
X023475Y016460D01*
X023990Y016975D01*
X025837Y016975D01*
X025770Y016908D01*
X025770Y016452D01*
X026042Y016180D01*
X025772Y015910D01*
X011793Y015910D01*
X010795Y016909D01*
X010853Y017050D01*
X010853Y017310D01*
X010753Y017551D01*
X010569Y017735D01*
X010328Y017835D01*
X010068Y017835D01*
X009827Y017735D01*
X009643Y017551D01*
X009543Y017310D01*
X009543Y017050D01*
X009643Y016809D01*
X009827Y016625D01*
X010068Y016525D01*
X010328Y016525D01*
X010469Y016583D01*
X011603Y015450D01*
X025772Y015450D01*
X026042Y015180D01*
X025834Y014972D01*
X025798Y015008D01*
X025663Y015142D01*
X009782Y015142D01*
X009782Y015918D01*
X009175Y016525D01*
X009370Y016525D01*
X009475Y016630D01*
X009475Y017730D01*
X009370Y017835D01*
X008270Y017835D01*
X008165Y017730D01*
X008165Y016630D01*
X008270Y016525D01*
X008590Y016525D01*
X008590Y016460D01*
X009322Y015727D01*
X009322Y015008D01*
X009011Y014696D01*
X008929Y014730D01*
X008711Y014730D01*
X008508Y014646D01*
X008354Y014492D01*
X008320Y014410D01*
X008286Y014492D01*
X008132Y014646D01*
X008050Y014680D01*
X008050Y016031D01*
X007172Y016909D01*
X007231Y017050D01*
X007231Y017310D01*
X007131Y017551D01*
X006947Y017735D01*
X006706Y017835D01*
X006446Y017835D01*
X006205Y017735D01*
X006021Y017551D01*
X005921Y017310D01*
X005921Y017050D01*
X006021Y016809D01*
X006205Y016625D01*
X006446Y016525D01*
X006706Y016525D01*
X006847Y016583D01*
X007590Y015841D01*
X007590Y014680D01*
X007508Y014646D01*
X007354Y014492D01*
X007320Y014410D01*
X007286Y014492D01*
X007132Y014646D01*
X007050Y014680D01*
X007050Y015653D01*
X005795Y016909D01*
X005853Y017050D01*
X005853Y017310D01*
X005753Y017551D01*
X005569Y017735D01*
X005328Y017835D01*
X005068Y017835D01*
X004827Y017735D01*
X004643Y017551D01*
X004543Y017310D01*
X004543Y017050D01*
X004643Y016809D01*
X004827Y016625D01*
X005068Y016525D01*
X005328Y016525D01*
X005469Y016583D01*
X006590Y015463D01*
X006590Y014680D01*
X006508Y014646D01*
X006354Y014492D01*
X006320Y014410D01*
X006286Y014492D01*
X006132Y014646D01*
X005929Y014730D01*
X005711Y014730D01*
X005508Y014646D01*
X005354Y014492D01*
X005270Y014289D01*
X005270Y014071D01*
X005354Y013868D01*
X005508Y013714D01*
X005711Y013630D01*
X005929Y013630D01*
X006132Y013714D01*
X006286Y013868D01*
X006320Y013950D01*
X006354Y013868D01*
X006508Y013714D01*
X006711Y013630D01*
X006929Y013630D01*
X007011Y013664D01*
X008225Y012450D01*
X019892Y012450D01*
X019828Y012386D01*
X019740Y012173D01*
X019740Y011943D01*
X019781Y011844D01*
X019664Y011727D01*
X019529Y011592D01*
X007050Y011592D01*
X007050Y011600D02*
X007295Y011600D01*
X007400Y011705D01*
X007400Y012655D01*
X007295Y012760D01*
X006345Y012760D01*
X006240Y012655D01*
X006240Y011705D01*
X006345Y011600D01*
X006465Y011600D01*
X006040Y011175D01*
X006040Y010910D01*
X003900Y010910D01*
X003900Y011155D01*
X003795Y011260D01*
X002845Y011260D01*
X002740Y011155D01*
X002740Y010205D01*
X002845Y010100D01*
X003640Y010100D01*
X003640Y009553D01*
X003435Y009638D01*
X003205Y009638D01*
X002991Y009550D01*
X002828Y009386D01*
X002740Y009173D01*
X002740Y008943D01*
X002828Y008729D01*
X002991Y008566D01*
X003205Y008478D01*
X003243Y008478D01*
X003225Y008460D01*
X003090Y008325D01*
X003090Y008260D01*
X002845Y008260D01*
X002740Y008155D01*
X002740Y007205D01*
X002845Y007100D01*
X003795Y007100D01*
X003900Y007205D01*
X003900Y008155D01*
X003795Y008260D01*
X003675Y008260D01*
X004100Y008685D01*
X004100Y010450D01*
X006040Y010450D01*
X006040Y010185D01*
X006175Y010050D01*
X006465Y009760D01*
X006345Y009760D01*
X006240Y009655D01*
X006240Y008705D01*
X006345Y008600D01*
X007295Y008600D01*
X007400Y008705D01*
X007400Y009655D01*
X007295Y009760D01*
X007050Y009760D01*
X007050Y009825D01*
X006617Y010258D01*
X006705Y010222D01*
X006935Y010222D01*
X007149Y010310D01*
X007312Y010474D01*
X007400Y010687D01*
X007400Y010917D01*
X007312Y011131D01*
X007149Y011294D01*
X006935Y011382D01*
X006897Y011382D01*
X006915Y011400D01*
X006915Y011400D01*
X007050Y011535D01*
X007050Y011600D01*
X006949Y011434D02*
X019529Y011434D01*
X019529Y011592D02*
X019529Y009524D01*
X019781Y009272D01*
X019740Y009173D01*
X019740Y008943D01*
X019828Y008729D01*
X019848Y008710D01*
X011509Y008710D01*
X011374Y008575D01*
X005535Y002736D01*
X005535Y001912D01*
X005481Y001966D01*
X005522Y002065D01*
X005522Y002295D01*
X005434Y002509D01*
X005271Y002672D01*
X005057Y002760D01*
X004827Y002760D01*
X004614Y002672D01*
X004450Y002509D01*
X004362Y002295D01*
X004362Y002065D01*
X004450Y001851D01*
X004614Y001688D01*
X004827Y001600D01*
X005057Y001600D01*
X005156Y001641D01*
X005613Y001184D01*
X026169Y001184D01*
X026304Y001318D01*
X026434Y001448D02*
X028320Y001448D01*
X028320Y001607D02*
X026592Y001607D01*
X026751Y001765D02*
X028320Y001765D01*
X028320Y001924D02*
X026909Y001924D01*
X027068Y002082D02*
X028320Y002082D01*
X028320Y002241D02*
X027226Y002241D01*
X027385Y002399D02*
X028320Y002399D01*
X028320Y002558D02*
X027543Y002558D01*
X027702Y002716D02*
X028320Y002716D01*
X028320Y002875D02*
X027860Y002875D01*
X028019Y003033D02*
X028320Y003033D01*
X028320Y003192D02*
X028177Y003192D01*
X028233Y003350D02*
X028320Y003350D01*
X028320Y003509D02*
X028233Y003509D01*
X028233Y003667D02*
X028320Y003667D01*
X028320Y003826D02*
X028233Y003826D01*
X028233Y003984D02*
X028320Y003984D01*
X028320Y004143D02*
X028233Y004143D01*
X028233Y004301D02*
X028320Y004301D01*
X028320Y004460D02*
X028233Y004460D01*
X028233Y004618D02*
X028320Y004618D01*
X028320Y004777D02*
X028233Y004777D01*
X028233Y004935D02*
X028320Y004935D01*
X028320Y005094D02*
X028233Y005094D01*
X028233Y005252D02*
X028320Y005252D01*
X028320Y005411D02*
X028233Y005411D01*
X028233Y005569D02*
X028320Y005569D01*
X028320Y005728D02*
X028233Y005728D01*
X028233Y005886D02*
X028320Y005886D01*
X028320Y006045D02*
X028233Y006045D01*
X028233Y006203D02*
X028320Y006203D01*
X028320Y006362D02*
X028233Y006362D01*
X028233Y006520D02*
X028320Y006520D01*
X028320Y006679D02*
X028233Y006679D01*
X028233Y006837D02*
X028320Y006837D01*
X028320Y006996D02*
X028233Y006996D01*
X028233Y007154D02*
X028320Y007154D01*
X028320Y007313D02*
X028233Y007313D01*
X028233Y007471D02*
X028320Y007471D01*
X028320Y007630D02*
X028233Y007630D01*
X028233Y007788D02*
X028320Y007788D01*
X028320Y007947D02*
X028233Y007947D01*
X028233Y008105D02*
X028320Y008105D01*
X028320Y008264D02*
X028233Y008264D01*
X028233Y008422D02*
X028320Y008422D01*
X028320Y008581D02*
X028233Y008581D01*
X028233Y008739D02*
X028320Y008739D01*
X028320Y008898D02*
X028233Y008898D01*
X028233Y009056D02*
X028320Y009056D01*
X028320Y009215D02*
X028233Y009215D01*
X028233Y009373D02*
X028320Y009373D01*
X028320Y009532D02*
X028233Y009532D01*
X028233Y009690D02*
X028320Y009690D01*
X028320Y009849D02*
X028233Y009849D01*
X028233Y010007D02*
X028320Y010007D01*
X028320Y010166D02*
X028233Y010166D01*
X028233Y010324D02*
X028320Y010324D01*
X028320Y010483D02*
X028233Y010483D01*
X028233Y010641D02*
X028320Y010641D01*
X028320Y010800D02*
X028233Y010800D01*
X028233Y010958D02*
X028320Y010958D01*
X028320Y011117D02*
X028209Y011117D01*
X028320Y011275D02*
X028050Y011275D01*
X027892Y011434D02*
X028320Y011434D01*
X028320Y011592D02*
X027870Y011592D01*
X027870Y011751D02*
X028320Y011751D01*
X028320Y011909D02*
X027869Y011909D01*
X027710Y012068D02*
X028320Y012068D01*
X028320Y012226D02*
X027644Y012226D01*
X027802Y012385D02*
X028320Y012385D01*
X028320Y012543D02*
X027870Y012543D01*
X027870Y012702D02*
X028320Y012702D01*
X028320Y012860D02*
X027870Y012860D01*
X027759Y013019D02*
X028320Y013019D01*
X028320Y013177D02*
X027601Y013177D01*
X027753Y013336D02*
X028320Y013336D01*
X028320Y013494D02*
X027870Y013494D01*
X027870Y013653D02*
X028320Y013653D01*
X028320Y013811D02*
X027870Y013811D01*
X027808Y013970D02*
X028320Y013970D01*
X028320Y014128D02*
X027650Y014128D01*
X027704Y014287D02*
X028320Y014287D01*
X028320Y014445D02*
X027863Y014445D01*
X027870Y014604D02*
X028320Y014604D01*
X028320Y014762D02*
X027870Y014762D01*
X027886Y014921D02*
X028320Y014921D01*
X028320Y015079D02*
X028044Y015079D01*
X028203Y015238D02*
X028320Y015238D01*
X028320Y015396D02*
X028277Y015396D01*
X028277Y015555D02*
X028320Y015555D01*
X028320Y015713D02*
X028277Y015713D01*
X028277Y015872D02*
X028320Y015872D01*
X028320Y016030D02*
X028277Y016030D01*
X028277Y016189D02*
X028320Y016189D01*
X028320Y016347D02*
X028277Y016347D01*
X028277Y016506D02*
X028320Y016506D01*
X028320Y016664D02*
X028277Y016664D01*
X028277Y016823D02*
X028320Y016823D01*
X028320Y016981D02*
X028277Y016981D01*
X028320Y017140D02*
X028214Y017140D01*
X028320Y017298D02*
X028056Y017298D01*
X027897Y017457D02*
X028320Y017457D01*
X028320Y017615D02*
X027739Y017615D01*
X027580Y017774D02*
X028320Y017774D01*
X028320Y017932D02*
X027422Y017932D01*
X027263Y018091D02*
X028320Y018091D01*
X028320Y018249D02*
X000550Y018249D01*
X000550Y018091D02*
X017661Y018091D01*
X017503Y017932D02*
X000550Y017932D01*
X000550Y017774D02*
X003209Y017774D01*
X003165Y017730D02*
X003270Y017835D01*
X004370Y017835D01*
X004475Y017730D01*
X004475Y016630D01*
X004370Y016525D01*
X003270Y016525D01*
X003165Y016630D01*
X003165Y017730D01*
X003165Y017615D02*
X000550Y017615D01*
X000550Y017457D02*
X003165Y017457D01*
X003165Y017298D02*
X000550Y017298D01*
X000550Y017140D02*
X003165Y017140D01*
X003165Y016981D02*
X000550Y016981D01*
X000550Y016823D02*
X003165Y016823D01*
X003165Y016664D02*
X000550Y016664D01*
X000550Y016506D02*
X005547Y016506D01*
X005706Y016347D02*
X000550Y016347D01*
X000550Y016189D02*
X005864Y016189D01*
X006023Y016030D02*
X000550Y016030D01*
X000550Y015872D02*
X006181Y015872D01*
X006340Y015713D02*
X000550Y015713D01*
X000550Y015555D02*
X006498Y015555D01*
X006590Y015396D02*
X000550Y015396D01*
X000550Y015238D02*
X006590Y015238D01*
X006590Y015079D02*
X000550Y015079D01*
X000550Y014921D02*
X006590Y014921D01*
X006590Y014762D02*
X000550Y014762D01*
X000550Y014604D02*
X005466Y014604D01*
X005334Y014445D02*
X000550Y014445D01*
X000550Y014287D02*
X005270Y014287D01*
X005270Y014128D02*
X000550Y014128D01*
X000550Y013970D02*
X005312Y013970D01*
X005411Y013811D02*
X000550Y013811D01*
X000550Y013653D02*
X005656Y013653D01*
X005984Y013653D02*
X006656Y013653D01*
X006411Y013811D02*
X006229Y013811D01*
X006306Y014445D02*
X006334Y014445D01*
X006466Y014604D02*
X006174Y014604D01*
X007050Y014762D02*
X007590Y014762D01*
X007590Y014921D02*
X007050Y014921D01*
X007050Y015079D02*
X007590Y015079D01*
X007590Y015238D02*
X007050Y015238D01*
X007050Y015396D02*
X007590Y015396D01*
X007590Y015555D02*
X007050Y015555D01*
X006990Y015713D02*
X007590Y015713D01*
X007559Y015872D02*
X006832Y015872D01*
X006673Y016030D02*
X007401Y016030D01*
X007242Y016189D02*
X006515Y016189D01*
X006356Y016347D02*
X007084Y016347D01*
X006925Y016506D02*
X006198Y016506D01*
X006166Y016664D02*
X006039Y016664D01*
X006015Y016823D02*
X005881Y016823D01*
X005825Y016981D02*
X005949Y016981D01*
X005921Y017140D02*
X005853Y017140D01*
X005853Y017298D02*
X005921Y017298D01*
X005981Y017457D02*
X005792Y017457D01*
X005689Y017615D02*
X006085Y017615D01*
X006297Y017774D02*
X005477Y017774D01*
X004919Y017774D02*
X004431Y017774D01*
X004475Y017615D02*
X004707Y017615D01*
X004604Y017457D02*
X004475Y017457D01*
X004475Y017298D02*
X004543Y017298D01*
X004543Y017140D02*
X004475Y017140D01*
X004475Y016981D02*
X004571Y016981D01*
X004637Y016823D02*
X004475Y016823D01*
X004475Y016664D02*
X004788Y016664D01*
X006855Y017774D02*
X008209Y017774D01*
X008165Y017615D02*
X007067Y017615D01*
X007170Y017457D02*
X008165Y017457D01*
X008165Y017298D02*
X007231Y017298D01*
X007231Y017140D02*
X008165Y017140D01*
X008165Y016981D02*
X007202Y016981D01*
X007259Y016823D02*
X008165Y016823D01*
X008165Y016664D02*
X007417Y016664D01*
X007576Y016506D02*
X008590Y016506D01*
X008703Y016347D02*
X007734Y016347D01*
X007893Y016189D02*
X008861Y016189D01*
X009020Y016030D02*
X008050Y016030D01*
X008050Y015872D02*
X009178Y015872D01*
X009322Y015713D02*
X008050Y015713D01*
X008050Y015555D02*
X009322Y015555D01*
X009322Y015396D02*
X008050Y015396D01*
X008050Y015238D02*
X009322Y015238D01*
X009322Y015079D02*
X008050Y015079D01*
X008050Y014921D02*
X009235Y014921D01*
X009077Y014762D02*
X008050Y014762D01*
X008174Y014604D02*
X008466Y014604D01*
X008334Y014445D02*
X008306Y014445D01*
X007466Y014604D02*
X007174Y014604D01*
X007306Y014445D02*
X007334Y014445D01*
X007022Y013653D02*
X006984Y013653D01*
X007181Y013494D02*
X000550Y013494D01*
X000550Y013336D02*
X007339Y013336D01*
X007498Y013177D02*
X000550Y013177D01*
X000550Y013019D02*
X007656Y013019D01*
X007815Y012860D02*
X000550Y012860D01*
X000550Y012702D02*
X006287Y012702D01*
X006240Y012543D02*
X003655Y012543D01*
X003649Y012550D02*
X003435Y012638D01*
X003205Y012638D01*
X002991Y012550D01*
X002828Y012386D01*
X002740Y012173D01*
X002740Y011943D01*
X002828Y011729D01*
X002991Y011566D01*
X003205Y011478D01*
X003435Y011478D01*
X003649Y011566D01*
X003812Y011729D01*
X003900Y011943D01*
X003900Y012173D01*
X003812Y012386D01*
X003649Y012550D01*
X003813Y012385D02*
X006240Y012385D01*
X006240Y012226D02*
X003878Y012226D01*
X003900Y012068D02*
X006240Y012068D01*
X006240Y011909D02*
X003886Y011909D01*
X003820Y011751D02*
X006240Y011751D01*
X006457Y011592D02*
X003674Y011592D01*
X002966Y011592D02*
X000550Y011592D01*
X000550Y011434D02*
X006298Y011434D01*
X006140Y011275D02*
X000550Y011275D01*
X000550Y011117D02*
X002740Y011117D01*
X002740Y010958D02*
X000550Y010958D01*
X000550Y010800D02*
X002740Y010800D01*
X002740Y010641D02*
X000550Y010641D01*
X000550Y010483D02*
X002740Y010483D01*
X002740Y010324D02*
X000550Y010324D01*
X000550Y010166D02*
X002780Y010166D01*
X003640Y010007D02*
X000550Y010007D01*
X000550Y009849D02*
X003640Y009849D01*
X003640Y009690D02*
X000550Y009690D01*
X000550Y009532D02*
X002973Y009532D01*
X002823Y009373D02*
X000550Y009373D01*
X000550Y009215D02*
X002757Y009215D01*
X002740Y009056D02*
X000550Y009056D01*
X000550Y008898D02*
X002759Y008898D01*
X002824Y008739D02*
X000550Y008739D01*
X000550Y008581D02*
X002977Y008581D01*
X003187Y008422D02*
X000550Y008422D01*
X000550Y008264D02*
X003090Y008264D01*
X002740Y008105D02*
X000550Y008105D01*
X000550Y007947D02*
X002740Y007947D01*
X002740Y007788D02*
X000550Y007788D01*
X000550Y007630D02*
X002740Y007630D01*
X002740Y007471D02*
X000550Y007471D01*
X000550Y007313D02*
X002740Y007313D01*
X002791Y007154D02*
X000550Y007154D01*
X000550Y006996D02*
X009795Y006996D01*
X009953Y007154D02*
X003849Y007154D01*
X003900Y007313D02*
X006489Y007313D01*
X006491Y007310D02*
X006705Y007222D01*
X006935Y007222D01*
X007149Y007310D01*
X007312Y007474D01*
X007400Y007687D01*
X007400Y007917D01*
X007312Y008131D01*
X007149Y008294D01*
X006935Y008382D01*
X006705Y008382D01*
X006491Y008294D01*
X006328Y008131D01*
X006240Y007917D01*
X006240Y007687D01*
X006328Y007474D01*
X006491Y007310D01*
X006331Y007471D02*
X003900Y007471D01*
X003900Y007630D02*
X006264Y007630D01*
X006240Y007788D02*
X003900Y007788D01*
X003900Y007947D02*
X006252Y007947D01*
X006318Y008105D02*
X003900Y008105D01*
X003679Y008264D02*
X006461Y008264D01*
X007179Y008264D02*
X011063Y008264D01*
X011221Y008422D02*
X003837Y008422D01*
X003996Y008581D02*
X011380Y008581D01*
X011700Y008250D02*
X014187Y008250D01*
X008656Y002719D01*
X008557Y002760D01*
X008327Y002760D01*
X008114Y002672D01*
X007950Y002509D01*
X007862Y002295D01*
X007862Y002065D01*
X007950Y001851D01*
X007958Y001844D01*
X006900Y001844D01*
X006900Y002655D01*
X006795Y002760D01*
X006210Y002760D01*
X011700Y008250D01*
X011555Y008105D02*
X014042Y008105D01*
X013883Y007947D02*
X011396Y007947D01*
X011238Y007788D02*
X013725Y007788D01*
X013566Y007630D02*
X011079Y007630D01*
X010921Y007471D02*
X013408Y007471D01*
X013249Y007313D02*
X010762Y007313D01*
X010604Y007154D02*
X013091Y007154D01*
X012932Y006996D02*
X010445Y006996D01*
X010287Y006837D02*
X012774Y006837D01*
X012615Y006679D02*
X010128Y006679D01*
X009970Y006520D02*
X012457Y006520D01*
X012298Y006362D02*
X009811Y006362D01*
X009653Y006203D02*
X012140Y006203D01*
X011981Y006045D02*
X009494Y006045D01*
X009336Y005886D02*
X011823Y005886D01*
X011664Y005728D02*
X009177Y005728D01*
X009019Y005569D02*
X011506Y005569D01*
X011347Y005411D02*
X008860Y005411D01*
X008702Y005252D02*
X011189Y005252D01*
X011030Y005094D02*
X008543Y005094D01*
X008385Y004935D02*
X010872Y004935D01*
X010713Y004777D02*
X008226Y004777D01*
X008068Y004618D02*
X010555Y004618D01*
X010396Y004460D02*
X007909Y004460D01*
X007751Y004301D02*
X010238Y004301D01*
X010079Y004143D02*
X007592Y004143D01*
X007434Y003984D02*
X009921Y003984D01*
X009762Y003826D02*
X007275Y003826D01*
X007117Y003667D02*
X009604Y003667D01*
X009445Y003509D02*
X006958Y003509D01*
X006800Y003350D02*
X009287Y003350D01*
X009128Y003192D02*
X006641Y003192D01*
X006483Y003033D02*
X008970Y003033D01*
X008811Y002875D02*
X006324Y002875D01*
X005832Y003033D02*
X000550Y003033D01*
X000550Y002875D02*
X005674Y002875D01*
X005535Y002716D02*
X005164Y002716D01*
X005385Y002558D02*
X005535Y002558D01*
X005535Y002399D02*
X005479Y002399D01*
X005522Y002241D02*
X005535Y002241D01*
X005522Y002082D02*
X005535Y002082D01*
X005524Y001924D02*
X005535Y001924D01*
X005190Y001607D02*
X005073Y001607D01*
X004811Y001607D02*
X000550Y001607D01*
X000550Y001765D02*
X004537Y001765D01*
X004421Y001924D02*
X000550Y001924D01*
X000550Y002082D02*
X004362Y002082D01*
X004362Y002241D02*
X000550Y002241D01*
X000550Y002399D02*
X004405Y002399D01*
X004499Y002558D02*
X000550Y002558D01*
X000550Y002716D02*
X004720Y002716D01*
X005991Y003192D02*
X000550Y003192D01*
X000550Y003350D02*
X006149Y003350D01*
X006308Y003509D02*
X000550Y003509D01*
X000550Y003667D02*
X006466Y003667D01*
X006625Y003826D02*
X000550Y003826D01*
X000550Y003984D02*
X006783Y003984D01*
X006942Y004143D02*
X000550Y004143D01*
X000550Y004301D02*
X007100Y004301D01*
X007259Y004460D02*
X000550Y004460D01*
X000550Y004618D02*
X007417Y004618D01*
X007576Y004777D02*
X000550Y004777D01*
X000550Y004935D02*
X007734Y004935D01*
X007893Y005094D02*
X000550Y005094D01*
X000550Y005252D02*
X008051Y005252D01*
X008210Y005411D02*
X000550Y005411D01*
X000550Y005569D02*
X008368Y005569D01*
X008527Y005728D02*
X000550Y005728D01*
X000550Y005886D02*
X008685Y005886D01*
X008844Y006045D02*
X000550Y006045D01*
X000550Y006203D02*
X009002Y006203D01*
X009161Y006362D02*
X000550Y006362D01*
X000550Y006520D02*
X009319Y006520D01*
X009478Y006679D02*
X000550Y006679D01*
X000550Y006837D02*
X009636Y006837D01*
X010112Y007313D02*
X007151Y007313D01*
X007309Y007471D02*
X010270Y007471D01*
X010429Y007630D02*
X007376Y007630D01*
X007400Y007788D02*
X010587Y007788D01*
X010746Y007947D02*
X007388Y007947D01*
X007322Y008105D02*
X010904Y008105D01*
X012949Y006362D02*
X027572Y006362D01*
X027572Y006520D02*
X013107Y006520D01*
X013266Y006679D02*
X027476Y006679D01*
X027572Y006583D02*
X027572Y005150D01*
X027531Y005190D01*
X027109Y005190D01*
X026829Y004910D01*
X026745Y004910D01*
X026265Y004430D01*
X023791Y004430D01*
X023830Y004469D01*
X023830Y004891D01*
X023531Y005190D01*
X023109Y005190D01*
X022810Y004891D01*
X022810Y004469D01*
X022849Y004430D01*
X018867Y004430D01*
X017156Y002719D01*
X017057Y002760D01*
X016827Y002760D01*
X016728Y002719D01*
X016545Y002903D01*
X016410Y003037D01*
X012596Y003037D01*
X012335Y002777D01*
X012194Y002835D01*
X011934Y002835D01*
X011693Y002735D01*
X011509Y002551D01*
X011409Y002310D01*
X011409Y002050D01*
X011509Y001809D01*
X011674Y001644D01*
X010338Y001644D01*
X010400Y001705D01*
X010400Y002655D01*
X010295Y002760D01*
X009347Y002760D01*
X014637Y008050D01*
X019740Y008050D01*
X019740Y007205D01*
X019845Y007100D01*
X020795Y007100D01*
X020900Y007205D01*
X020900Y007450D01*
X025772Y007450D01*
X026092Y007130D01*
X026548Y007130D01*
X026806Y007388D01*
X027005Y007190D01*
X027032Y007190D01*
X027090Y007132D01*
X027090Y007065D01*
X027572Y006583D01*
X027318Y006837D02*
X013424Y006837D01*
X013583Y006996D02*
X027159Y006996D01*
X027068Y007154D02*
X026572Y007154D01*
X026730Y007313D02*
X026882Y007313D01*
X027612Y007194D02*
X027773Y007032D01*
X027773Y007355D01*
X027612Y007194D01*
X027651Y007154D02*
X027773Y007154D01*
X027773Y007313D02*
X027730Y007313D01*
X027773Y008005D02*
X027598Y008180D01*
X027773Y008355D01*
X027773Y008005D01*
X027773Y008105D02*
X027673Y008105D01*
X027681Y008264D02*
X027773Y008264D01*
X027042Y008180D02*
X026820Y007958D01*
X026598Y008180D01*
X026820Y008402D01*
X027042Y008180D01*
X026967Y008105D02*
X026673Y008105D01*
X026681Y008264D02*
X026959Y008264D01*
X026042Y008180D02*
X025772Y007910D01*
X020900Y007910D01*
X020900Y008050D01*
X024495Y008050D01*
X024630Y008185D01*
X025834Y009388D01*
X026042Y009180D01*
X025770Y008908D01*
X025770Y008452D01*
X026042Y008180D01*
X025967Y008105D02*
X024550Y008105D01*
X024709Y008264D02*
X025959Y008264D01*
X025800Y008422D02*
X024867Y008422D01*
X025026Y008581D02*
X025770Y008581D01*
X025770Y008739D02*
X025184Y008739D01*
X025343Y008898D02*
X025770Y008898D01*
X025918Y009056D02*
X025501Y009056D01*
X025660Y009215D02*
X026008Y009215D01*
X025849Y009373D02*
X025818Y009373D01*
X025485Y009690D02*
X025135Y009690D01*
X024977Y009532D02*
X025326Y009532D01*
X025168Y009373D02*
X024818Y009373D01*
X024660Y009215D02*
X025009Y009215D01*
X024851Y009056D02*
X024501Y009056D01*
X024343Y008898D02*
X024692Y008898D01*
X024534Y008739D02*
X024184Y008739D01*
X024026Y008581D02*
X024375Y008581D01*
X024305Y008510D02*
X023955Y008510D01*
X025834Y010388D01*
X026042Y010180D01*
X025772Y009910D01*
X025705Y009910D01*
X024305Y008510D01*
X023692Y008898D02*
X020881Y008898D01*
X020900Y008943D02*
X020812Y008729D01*
X020792Y008710D01*
X023505Y008710D01*
X025570Y010775D01*
X025570Y010775D01*
X025705Y010910D01*
X025772Y010910D01*
X026042Y011180D01*
X025834Y011388D01*
X024077Y009631D01*
X023942Y009497D01*
X020702Y009497D01*
X020812Y009386D01*
X020900Y009173D01*
X020900Y008943D01*
X020900Y009056D02*
X023851Y009056D01*
X024009Y009215D02*
X020883Y009215D01*
X020817Y009373D02*
X024168Y009373D01*
X024326Y009532D02*
X023977Y009532D01*
X024135Y009690D02*
X024485Y009690D01*
X024643Y009849D02*
X024294Y009849D01*
X024452Y010007D02*
X024802Y010007D01*
X024960Y010166D02*
X024611Y010166D01*
X024769Y010324D02*
X025119Y010324D01*
X025277Y010483D02*
X024928Y010483D01*
X025086Y010641D02*
X025436Y010641D01*
X025594Y010800D02*
X025245Y010800D01*
X025403Y010958D02*
X025820Y010958D01*
X025979Y011117D02*
X025562Y011117D01*
X025720Y011275D02*
X025947Y011275D01*
X025387Y011592D02*
X020674Y011592D01*
X020649Y011566D02*
X020812Y011729D01*
X020900Y011943D01*
X020900Y012173D01*
X020812Y012386D01*
X020748Y012450D01*
X025772Y012450D01*
X026042Y012180D01*
X025772Y011910D01*
X025705Y011910D01*
X023751Y009957D01*
X020488Y009957D01*
X020451Y009994D01*
X020335Y010042D01*
X020210Y010042D01*
X020094Y009994D01*
X020005Y009905D01*
X019989Y009866D01*
X019989Y010100D01*
X020795Y010100D01*
X020900Y010205D01*
X020900Y011155D01*
X020795Y011260D01*
X019989Y011260D01*
X019989Y011402D01*
X020106Y011519D01*
X020205Y011478D01*
X020435Y011478D01*
X020649Y011566D01*
X020820Y011751D02*
X025545Y011751D01*
X025704Y011909D02*
X020886Y011909D01*
X020900Y012068D02*
X025930Y012068D01*
X025996Y012226D02*
X020878Y012226D01*
X020813Y012385D02*
X025838Y012385D01*
X025772Y012910D02*
X008415Y012910D01*
X007684Y013641D01*
X007711Y013630D01*
X007929Y013630D01*
X008011Y013664D01*
X008250Y013425D01*
X025797Y013425D01*
X026042Y013180D01*
X025772Y012910D01*
X025881Y013019D02*
X008307Y013019D01*
X008148Y013177D02*
X026039Y013177D01*
X025887Y013336D02*
X007990Y013336D01*
X007831Y013494D02*
X008181Y013494D01*
X008022Y013653D02*
X007984Y013653D01*
X007973Y012702D02*
X007353Y012702D01*
X007400Y012543D02*
X008132Y012543D01*
X007400Y012385D02*
X019827Y012385D01*
X019762Y012226D02*
X007400Y012226D01*
X007400Y012068D02*
X019740Y012068D01*
X019754Y011909D02*
X007400Y011909D01*
X007400Y011751D02*
X019687Y011751D01*
X020021Y011434D02*
X025228Y011434D01*
X025070Y011275D02*
X019989Y011275D01*
X019529Y011275D02*
X007167Y011275D01*
X007318Y011117D02*
X019529Y011117D01*
X019529Y010958D02*
X007383Y010958D01*
X007400Y010800D02*
X019529Y010800D01*
X019529Y010641D02*
X007381Y010641D01*
X007315Y010483D02*
X019529Y010483D01*
X019529Y010324D02*
X007162Y010324D01*
X006868Y010007D02*
X019529Y010007D01*
X019529Y009849D02*
X007027Y009849D01*
X007365Y009690D02*
X019529Y009690D01*
X019529Y009532D02*
X007400Y009532D01*
X007400Y009373D02*
X019680Y009373D01*
X019757Y009215D02*
X007400Y009215D01*
X007400Y009056D02*
X019740Y009056D01*
X019759Y008898D02*
X007400Y008898D01*
X007400Y008739D02*
X019824Y008739D01*
X019740Y007947D02*
X014534Y007947D01*
X014375Y007788D02*
X019740Y007788D01*
X019740Y007630D02*
X014217Y007630D01*
X014058Y007471D02*
X019740Y007471D01*
X019740Y007313D02*
X013900Y007313D01*
X013741Y007154D02*
X019791Y007154D01*
X020849Y007154D02*
X026068Y007154D01*
X025910Y007313D02*
X020900Y007313D01*
X020900Y007947D02*
X025809Y007947D01*
X026820Y008958D02*
X026598Y009180D01*
X026820Y009402D01*
X027042Y009180D01*
X026820Y008958D01*
X026722Y009056D02*
X026918Y009056D01*
X027008Y009215D02*
X026632Y009215D01*
X026791Y009373D02*
X026849Y009373D01*
X027598Y009180D02*
X027773Y009005D01*
X027773Y009355D01*
X027598Y009180D01*
X027632Y009215D02*
X027773Y009215D01*
X027773Y009056D02*
X027722Y009056D01*
X027773Y010005D02*
X027598Y010180D01*
X027773Y010355D01*
X027773Y010005D01*
X027771Y010007D02*
X027773Y010007D01*
X027773Y010166D02*
X027612Y010166D01*
X027742Y010324D02*
X027773Y010324D01*
X027042Y010180D02*
X026820Y009958D01*
X026598Y010180D01*
X026820Y010402D01*
X027042Y010180D01*
X027028Y010166D02*
X026612Y010166D01*
X026742Y010324D02*
X026898Y010324D01*
X026869Y010007D02*
X026771Y010007D01*
X026028Y010166D02*
X025611Y010166D01*
X025769Y010324D02*
X025898Y010324D01*
X025869Y010007D02*
X025452Y010007D01*
X025294Y009849D02*
X025643Y009849D01*
X024436Y010641D02*
X020900Y010641D01*
X020900Y010483D02*
X024277Y010483D01*
X024119Y010324D02*
X020900Y010324D01*
X020860Y010166D02*
X023960Y010166D01*
X023802Y010007D02*
X020418Y010007D01*
X020126Y010007D02*
X019989Y010007D01*
X019529Y010166D02*
X006710Y010166D01*
X006376Y009849D02*
X004100Y009849D01*
X004100Y010007D02*
X006218Y010007D01*
X006059Y010166D02*
X004100Y010166D01*
X004100Y010324D02*
X006040Y010324D01*
X006275Y009690D02*
X004100Y009690D01*
X004100Y009532D02*
X006240Y009532D01*
X006240Y009373D02*
X004100Y009373D01*
X004100Y009215D02*
X006240Y009215D01*
X006240Y009056D02*
X004100Y009056D01*
X004100Y008898D02*
X006240Y008898D01*
X006240Y008739D02*
X004100Y008739D01*
X003900Y010958D02*
X006040Y010958D01*
X006040Y011117D02*
X003900Y011117D01*
X002820Y011751D02*
X000550Y011751D01*
X000550Y011909D02*
X002754Y011909D01*
X002740Y012068D02*
X000550Y012068D01*
X000550Y012226D02*
X002762Y012226D01*
X002827Y012385D02*
X000550Y012385D01*
X000550Y012543D02*
X002985Y012543D01*
X009195Y016506D02*
X010547Y016506D01*
X010706Y016347D02*
X009353Y016347D01*
X009512Y016189D02*
X010864Y016189D01*
X011023Y016030D02*
X009670Y016030D01*
X009782Y015872D02*
X011181Y015872D01*
X011340Y015713D02*
X009782Y015713D01*
X009782Y015555D02*
X011498Y015555D01*
X011673Y016030D02*
X025892Y016030D01*
X026034Y016189D02*
X011515Y016189D01*
X011356Y016347D02*
X016206Y016347D01*
X016047Y016506D02*
X011198Y016506D01*
X011205Y016625D02*
X011446Y016525D01*
X011706Y016525D01*
X011947Y016625D01*
X012131Y016809D01*
X012231Y017050D01*
X012231Y017310D01*
X012131Y017551D01*
X011947Y017735D01*
X011706Y017835D01*
X011446Y017835D01*
X011205Y017735D01*
X011021Y017551D01*
X010921Y017310D01*
X010921Y017050D01*
X011021Y016809D01*
X011205Y016625D01*
X011166Y016664D02*
X011039Y016664D01*
X011015Y016823D02*
X010881Y016823D01*
X010825Y016981D02*
X010949Y016981D01*
X010921Y017140D02*
X010853Y017140D01*
X010853Y017298D02*
X010921Y017298D01*
X010981Y017457D02*
X010792Y017457D01*
X010689Y017615D02*
X011085Y017615D01*
X011297Y017774D02*
X010477Y017774D01*
X009919Y017774D02*
X009431Y017774D01*
X009475Y017615D02*
X009707Y017615D01*
X009604Y017457D02*
X009475Y017457D01*
X009475Y017298D02*
X009543Y017298D01*
X009543Y017140D02*
X009475Y017140D01*
X009475Y016981D02*
X009571Y016981D01*
X009637Y016823D02*
X009475Y016823D01*
X009475Y016664D02*
X009788Y016664D01*
X009782Y015396D02*
X025826Y015396D01*
X025985Y015238D02*
X009782Y015238D01*
X010045Y014682D02*
X010595Y014682D01*
X010508Y014646D01*
X010354Y014492D01*
X010320Y014410D01*
X010286Y014492D01*
X010132Y014646D01*
X010045Y014682D01*
X010174Y014604D02*
X010466Y014604D01*
X010334Y014445D02*
X010306Y014445D01*
X010320Y013950D02*
X010293Y013885D01*
X010347Y013885D01*
X010320Y013950D01*
X009347Y013885D02*
X009293Y013885D01*
X009320Y013950D01*
X009347Y013885D01*
X011293Y013885D02*
X011370Y014071D01*
X011370Y014289D01*
X011336Y014371D01*
X011440Y014475D01*
X015347Y014475D01*
X015270Y014289D01*
X015270Y014071D01*
X015347Y013885D01*
X011293Y013885D01*
X011328Y013970D02*
X015312Y013970D01*
X015270Y014128D02*
X011370Y014128D01*
X011370Y014287D02*
X015270Y014287D01*
X015334Y014445D02*
X011410Y014445D01*
X011986Y016664D02*
X013665Y016664D01*
X013665Y016630D02*
X013770Y016525D01*
X014870Y016525D01*
X014975Y016630D01*
X014975Y017730D01*
X014870Y017835D01*
X013770Y017835D01*
X013665Y017730D01*
X013665Y016630D01*
X013665Y016823D02*
X012137Y016823D01*
X012202Y016981D02*
X013665Y016981D01*
X013665Y017140D02*
X012231Y017140D01*
X012231Y017298D02*
X013665Y017298D01*
X013665Y017457D02*
X012170Y017457D01*
X012067Y017615D02*
X013665Y017615D01*
X013709Y017774D02*
X011855Y017774D01*
X014931Y017774D02*
X015419Y017774D01*
X015207Y017615D02*
X014975Y017615D01*
X014975Y017457D02*
X015104Y017457D01*
X015043Y017298D02*
X014975Y017298D01*
X014975Y017140D02*
X015043Y017140D01*
X015071Y016981D02*
X014975Y016981D01*
X014975Y016823D02*
X015137Y016823D01*
X015288Y016664D02*
X014975Y016664D01*
X016325Y016981D02*
X016449Y016981D01*
X016421Y017140D02*
X016353Y017140D01*
X016353Y017298D02*
X016421Y017298D01*
X016481Y017457D02*
X016292Y017457D01*
X016189Y017615D02*
X016585Y017615D01*
X016797Y017774D02*
X015977Y017774D01*
X016381Y016823D02*
X016515Y016823D01*
X017607Y016785D02*
X017631Y016809D01*
X017731Y017050D01*
X017731Y017310D01*
X017672Y017451D01*
X018009Y017788D01*
X018724Y017788D01*
X018665Y017730D01*
X018665Y016785D01*
X017607Y016785D01*
X017637Y016823D02*
X018665Y016823D01*
X018665Y016981D02*
X017702Y016981D01*
X017731Y017140D02*
X018665Y017140D01*
X018665Y017298D02*
X017731Y017298D01*
X017678Y017457D02*
X018665Y017457D01*
X018665Y017615D02*
X017836Y017615D01*
X017995Y017774D02*
X018709Y017774D01*
X019916Y017788D02*
X020072Y017788D01*
X019975Y017692D01*
X019975Y017730D01*
X019916Y017788D01*
X019931Y017774D02*
X020057Y017774D01*
X020071Y016981D02*
X020143Y016809D01*
X020167Y016785D01*
X019975Y016785D01*
X019975Y016950D01*
X020040Y016950D01*
X020071Y016981D01*
X020071Y016981D01*
X020137Y016823D02*
X019975Y016823D01*
X021229Y016785D02*
X021253Y016809D01*
X021353Y017050D01*
X021353Y017310D01*
X021253Y017551D01*
X021229Y017575D01*
X021545Y017575D01*
X021521Y017551D01*
X021421Y017310D01*
X021421Y017050D01*
X021521Y016809D01*
X021545Y016785D01*
X021229Y016785D01*
X021259Y016823D02*
X021515Y016823D01*
X021449Y016981D02*
X021325Y016981D01*
X021353Y017140D02*
X021421Y017140D01*
X021421Y017298D02*
X021353Y017298D01*
X021292Y017457D02*
X021481Y017457D01*
X022607Y017575D02*
X023819Y017575D01*
X023889Y017505D01*
X023889Y017453D01*
X023896Y017435D01*
X023800Y017435D01*
X023150Y016785D01*
X022607Y016785D01*
X022631Y016809D01*
X022731Y017050D01*
X022731Y017310D01*
X022631Y017551D01*
X022607Y017575D01*
X022670Y017457D02*
X023889Y017457D01*
X023663Y017298D02*
X022731Y017298D01*
X022731Y017140D02*
X023504Y017140D01*
X023346Y016981D02*
X022702Y016981D01*
X022637Y016823D02*
X023187Y016823D01*
X023521Y016506D02*
X025770Y016506D01*
X025770Y016664D02*
X023679Y016664D01*
X023838Y016823D02*
X025770Y016823D01*
X025875Y016347D02*
X023362Y016347D01*
X024511Y017435D02*
X024519Y017453D01*
X024519Y017578D01*
X024471Y017694D01*
X024382Y017783D01*
X024369Y017788D01*
X026915Y017788D01*
X027268Y017435D01*
X024511Y017435D01*
X024519Y017457D02*
X027247Y017457D01*
X027088Y017615D02*
X024504Y017615D01*
X024392Y017774D02*
X026930Y017774D01*
X026837Y016975D02*
X026803Y016975D01*
X026820Y016958D01*
X026837Y016975D01*
X026820Y016402D02*
X027042Y016180D01*
X026820Y015958D01*
X026598Y016180D01*
X026820Y016402D01*
X026765Y016347D02*
X026875Y016347D01*
X027034Y016189D02*
X026606Y016189D01*
X026748Y016030D02*
X026892Y016030D01*
X026820Y015402D02*
X027042Y015180D01*
X026820Y014958D01*
X026598Y015180D01*
X026820Y015402D01*
X026814Y015396D02*
X026826Y015396D01*
X026985Y015238D02*
X026655Y015238D01*
X026699Y015079D02*
X026941Y015079D01*
X026820Y014402D02*
X027042Y014180D01*
X026820Y013958D01*
X026598Y014180D01*
X026820Y014402D01*
X026704Y014287D02*
X026936Y014287D01*
X026990Y014128D02*
X026650Y014128D01*
X026808Y013970D02*
X026832Y013970D01*
X026820Y013402D02*
X027042Y013180D01*
X026820Y012958D01*
X026598Y013180D01*
X026820Y013402D01*
X026753Y013336D02*
X026887Y013336D01*
X027039Y013177D02*
X026601Y013177D01*
X026759Y013019D02*
X026881Y013019D01*
X026820Y012402D02*
X027042Y012180D01*
X026820Y011958D01*
X026598Y012180D01*
X026820Y012402D01*
X026802Y012385D02*
X026838Y012385D01*
X026996Y012226D02*
X026644Y012226D01*
X026710Y012068D02*
X026930Y012068D01*
X026820Y011402D02*
X027042Y011180D01*
X026820Y010958D01*
X026598Y011180D01*
X026820Y011402D01*
X026693Y011275D02*
X026947Y011275D01*
X026979Y011117D02*
X026661Y011117D01*
X026820Y010958D02*
X026820Y010958D01*
X024911Y011117D02*
X020900Y011117D01*
X020900Y010958D02*
X024753Y010958D01*
X024594Y010800D02*
X020900Y010800D01*
X020816Y008739D02*
X023534Y008739D01*
X027572Y006203D02*
X012790Y006203D01*
X012632Y006045D02*
X027572Y006045D01*
X027572Y005886D02*
X012473Y005886D01*
X012315Y005728D02*
X027572Y005728D01*
X027572Y005569D02*
X012156Y005569D01*
X011998Y005411D02*
X027572Y005411D01*
X027572Y005252D02*
X011839Y005252D01*
X011681Y005094D02*
X023012Y005094D01*
X022854Y004935D02*
X011522Y004935D01*
X011364Y004777D02*
X022810Y004777D01*
X022810Y004618D02*
X011205Y004618D01*
X011047Y004460D02*
X022819Y004460D01*
X023821Y004460D02*
X026294Y004460D01*
X026453Y004618D02*
X023830Y004618D01*
X023830Y004777D02*
X026611Y004777D01*
X026854Y004935D02*
X023786Y004935D01*
X023628Y005094D02*
X027012Y005094D01*
X026882Y004397D02*
X027109Y004170D01*
X027175Y004170D01*
X025965Y002960D01*
X025725Y002960D01*
X025590Y002825D01*
X025590Y002760D01*
X025345Y002760D01*
X025240Y002655D01*
X025240Y002535D01*
X024950Y002825D01*
X024815Y002960D01*
X022325Y002960D01*
X021900Y002535D01*
X021900Y002655D01*
X021795Y002760D01*
X020845Y002760D01*
X020740Y002655D01*
X020740Y002410D01*
X020675Y002410D01*
X020522Y002257D01*
X020522Y002295D01*
X020434Y002509D01*
X020271Y002672D01*
X020057Y002760D01*
X019827Y002760D01*
X019614Y002672D01*
X019450Y002509D01*
X019362Y002295D01*
X019362Y002065D01*
X019450Y001851D01*
X019451Y001851D01*
X018900Y001851D01*
X018900Y002655D01*
X018795Y002760D01*
X017847Y002760D01*
X019057Y003970D01*
X026455Y003970D01*
X026590Y004105D01*
X026882Y004397D01*
X026786Y004301D02*
X026978Y004301D01*
X027148Y004143D02*
X026628Y004143D01*
X026469Y003984D02*
X026989Y003984D01*
X026831Y003826D02*
X018913Y003826D01*
X018754Y003667D02*
X026672Y003667D01*
X026514Y003509D02*
X018596Y003509D01*
X018437Y003350D02*
X026355Y003350D01*
X026197Y003192D02*
X018279Y003192D01*
X018120Y003033D02*
X026038Y003033D01*
X025639Y002875D02*
X024901Y002875D01*
X025059Y002716D02*
X025301Y002716D01*
X025240Y002558D02*
X025218Y002558D01*
X025022Y002103D02*
X025175Y001950D01*
X025240Y001950D01*
X025240Y001705D01*
X025302Y001644D01*
X024663Y001644D01*
X024771Y001688D01*
X024934Y001851D01*
X025022Y002065D01*
X025022Y002103D01*
X025022Y002082D02*
X025043Y002082D01*
X024964Y001924D02*
X025240Y001924D01*
X025240Y001765D02*
X024847Y001765D01*
X024221Y001644D02*
X021838Y001644D01*
X021900Y001705D01*
X021900Y001950D01*
X021965Y001950D01*
X022515Y002500D01*
X023947Y002500D01*
X023862Y002295D01*
X023862Y002065D01*
X023950Y001851D01*
X024114Y001688D01*
X024221Y001644D01*
X024037Y001765D02*
X021900Y001765D01*
X021900Y001924D02*
X023921Y001924D01*
X023862Y002082D02*
X022097Y002082D01*
X022256Y002241D02*
X023862Y002241D01*
X023905Y002399D02*
X022414Y002399D01*
X022081Y002716D02*
X021839Y002716D01*
X021900Y002558D02*
X021922Y002558D01*
X022239Y002875D02*
X017962Y002875D01*
X017740Y002653D02*
X017740Y001851D01*
X017433Y001851D01*
X017434Y001851D01*
X017522Y002065D01*
X017522Y002295D01*
X017481Y002394D01*
X017740Y002653D01*
X017740Y002558D02*
X017645Y002558D01*
X017740Y002399D02*
X017486Y002399D01*
X017522Y002241D02*
X017740Y002241D01*
X017740Y002082D02*
X017522Y002082D01*
X017464Y001924D02*
X017740Y001924D01*
X018900Y001924D02*
X019421Y001924D01*
X019362Y002082D02*
X018900Y002082D01*
X018900Y002241D02*
X019362Y002241D01*
X019405Y002399D02*
X018900Y002399D01*
X018900Y002558D02*
X019499Y002558D01*
X019720Y002716D02*
X018839Y002716D01*
X017945Y003509D02*
X010096Y003509D01*
X010254Y003667D02*
X018104Y003667D01*
X018262Y003826D02*
X010413Y003826D01*
X010571Y003984D02*
X018421Y003984D01*
X018579Y004143D02*
X010730Y004143D01*
X010888Y004301D02*
X018738Y004301D01*
X017787Y003350D02*
X009937Y003350D01*
X009779Y003192D02*
X017628Y003192D01*
X017470Y003033D02*
X016414Y003033D01*
X016573Y002875D02*
X017311Y002875D01*
X016403Y002394D02*
X016362Y002295D01*
X016362Y002065D01*
X016450Y001851D01*
X016451Y001851D01*
X016099Y001851D01*
X015540Y002410D01*
X015475Y002410D01*
X015475Y002577D01*
X016219Y002577D01*
X016403Y002394D01*
X016398Y002399D02*
X015551Y002399D01*
X015475Y002558D02*
X016239Y002558D01*
X016362Y002241D02*
X015710Y002241D01*
X015868Y002082D02*
X016362Y002082D01*
X016421Y001924D02*
X016027Y001924D01*
X015656Y001644D02*
X015475Y001644D01*
X015475Y001825D01*
X015656Y001644D01*
X015535Y001765D02*
X015475Y001765D01*
X014165Y001765D02*
X013953Y001765D01*
X013997Y001809D02*
X013832Y001644D01*
X014165Y001644D01*
X014165Y002577D01*
X013971Y002577D01*
X013997Y002551D01*
X014097Y002310D01*
X014097Y002050D01*
X013997Y001809D01*
X014045Y001924D02*
X014165Y001924D01*
X014165Y002082D02*
X014097Y002082D01*
X014097Y002241D02*
X014165Y002241D01*
X014165Y002399D02*
X014060Y002399D01*
X013991Y002558D02*
X014165Y002558D01*
X013052Y001644D02*
X012454Y001644D01*
X012619Y001809D01*
X012719Y002050D01*
X012719Y002310D01*
X012661Y002451D01*
X012787Y002577D01*
X012913Y002577D01*
X012887Y002551D01*
X012787Y002310D01*
X012787Y002050D01*
X012887Y001809D01*
X013052Y001644D01*
X012931Y001765D02*
X012575Y001765D01*
X012667Y001924D02*
X012839Y001924D01*
X012787Y002082D02*
X012719Y002082D01*
X012719Y002241D02*
X012787Y002241D01*
X012824Y002399D02*
X012682Y002399D01*
X012767Y002558D02*
X012893Y002558D01*
X012433Y002875D02*
X009462Y002875D01*
X009620Y003033D02*
X012592Y003033D01*
X011674Y002716D02*
X010339Y002716D01*
X010400Y002558D02*
X011515Y002558D01*
X011446Y002399D02*
X010400Y002399D01*
X010400Y002241D02*
X011409Y002241D01*
X011409Y002082D02*
X010400Y002082D01*
X010400Y001924D02*
X011461Y001924D01*
X011553Y001765D02*
X010400Y001765D01*
X009302Y001644D02*
X009059Y001644D01*
X009240Y001825D01*
X009240Y001705D01*
X009302Y001644D01*
X009240Y001765D02*
X009180Y001765D01*
X009022Y002257D02*
X009022Y002295D01*
X008981Y002394D01*
X009240Y002653D01*
X009240Y002410D01*
X009175Y002410D01*
X009040Y002275D01*
X009022Y002257D01*
X009040Y002275D02*
X009040Y002275D01*
X008986Y002399D02*
X009164Y002399D01*
X009145Y002558D02*
X009240Y002558D01*
X008220Y002716D02*
X006839Y002716D01*
X006900Y002558D02*
X007999Y002558D01*
X007905Y002399D02*
X006900Y002399D01*
X006900Y002241D02*
X007862Y002241D01*
X007862Y002082D02*
X006900Y002082D01*
X006900Y001924D02*
X007921Y001924D01*
X005507Y001290D02*
X000550Y001290D01*
X000550Y001448D02*
X005349Y001448D01*
X020164Y002716D02*
X020801Y002716D01*
X020740Y002558D02*
X020385Y002558D01*
X020479Y002399D02*
X020664Y002399D01*
X020740Y001825D02*
X020559Y001644D01*
X020802Y001644D01*
X020740Y001705D01*
X020740Y001825D01*
X020740Y001765D02*
X020680Y001765D01*
X026400Y002065D02*
X026400Y002655D01*
X026355Y002699D01*
X027773Y004117D01*
X027773Y003438D01*
X026400Y002065D01*
X026400Y002082D02*
X026417Y002082D01*
X026400Y002241D02*
X026576Y002241D01*
X026734Y002399D02*
X026400Y002399D01*
X026400Y002558D02*
X026893Y002558D01*
X027051Y002716D02*
X026372Y002716D01*
X026530Y002875D02*
X027210Y002875D01*
X027368Y003033D02*
X026689Y003033D01*
X026847Y003192D02*
X027527Y003192D01*
X027685Y003350D02*
X027006Y003350D01*
X027164Y003509D02*
X027773Y003509D01*
X027773Y003667D02*
X027323Y003667D01*
X027481Y003826D02*
X027773Y003826D01*
X027773Y003984D02*
X027640Y003984D01*
X025680Y013885D02*
X021293Y013885D01*
X021370Y014071D01*
X021370Y014289D01*
X021286Y014492D01*
X021132Y014646D01*
X021045Y014682D01*
X025472Y014682D01*
X025570Y014585D01*
X025570Y014585D01*
X025705Y014450D01*
X025772Y014450D01*
X026042Y014180D01*
X025772Y013910D01*
X025705Y013910D01*
X025680Y013885D01*
X025832Y013970D02*
X021328Y013970D01*
X021370Y014128D02*
X025990Y014128D01*
X025936Y014287D02*
X021370Y014287D01*
X021306Y014445D02*
X025777Y014445D01*
X025551Y014604D02*
X021174Y014604D01*
X020320Y013950D02*
X020293Y013885D01*
X020347Y013885D01*
X020320Y013950D01*
X019347Y013885D02*
X019293Y013885D01*
X019320Y013950D01*
X019347Y013885D01*
X019320Y014410D02*
X019347Y014475D01*
X019293Y014475D01*
X019320Y014410D01*
X019306Y014445D02*
X019334Y014445D01*
X018347Y014475D02*
X018320Y014410D01*
X018293Y014475D01*
X018347Y014475D01*
X018334Y014445D02*
X018306Y014445D01*
X018320Y013950D02*
X018293Y013885D01*
X018347Y013885D01*
X018320Y013950D01*
X017347Y013885D02*
X017293Y013885D01*
X017320Y013950D01*
X017347Y013885D01*
X017320Y014410D02*
X017293Y014475D01*
X017347Y014475D01*
X017320Y014410D01*
X017306Y014445D02*
X017334Y014445D01*
X016347Y014475D02*
X016320Y014410D01*
X016293Y014475D01*
X016347Y014475D01*
X016334Y014445D02*
X016306Y014445D01*
X016320Y013950D02*
X016293Y013885D01*
X016347Y013885D01*
X016320Y013950D01*
X025726Y015079D02*
X025941Y015079D01*
X028320Y018408D02*
X000550Y018408D01*
X000550Y018566D02*
X028320Y018566D01*
X028320Y018725D02*
X000550Y018725D01*
X000550Y018883D02*
X028320Y018883D01*
X028320Y019042D02*
X000550Y019042D01*
X000320Y019656D02*
X000320Y019680D01*
X028320Y019680D01*
X028320Y019656D01*
X000320Y019656D01*
X000320Y019676D02*
X028320Y019676D01*
M02*
