G75*
G70*
%OFA0B0*%
%FSLAX24Y24*%
%IPPOS*%
%LPD*%
%AMOC8*
5,1,8,0,0,1.08239X$1,22.5*
%
%ADD10C,0.0000*%
%ADD11C,0.0060*%
%ADD12C,0.0160*%
%ADD13C,0.0070*%
%ADD14C,0.0050*%
%ADD15C,0.0080*%
%ADD16R,0.0340X0.0240*%
%ADD17R,0.0256X0.0551*%
D10*
X000320Y000430D02*
X000320Y019426D01*
X028690Y019426D01*
X028690Y000430D01*
X000320Y000430D01*
D11*
X011649Y003817D02*
X011756Y003710D01*
X011649Y003817D02*
X011649Y004030D01*
X011756Y004137D01*
X011863Y004137D01*
X011970Y004030D01*
X012076Y004137D01*
X012183Y004137D01*
X012290Y004030D01*
X012290Y003817D01*
X012183Y003710D01*
X011970Y003924D02*
X011970Y004030D01*
X014649Y004030D02*
X014649Y003817D01*
X014756Y003710D01*
X015183Y003710D01*
X015290Y003817D01*
X015290Y004030D01*
X015183Y004137D01*
X014970Y004137D01*
X014970Y003924D01*
X014756Y004137D02*
X014649Y004030D01*
X016649Y004030D02*
X016649Y003817D01*
X016756Y003710D01*
X016970Y003924D02*
X016970Y004030D01*
X017076Y004137D01*
X017183Y004137D01*
X017290Y004030D01*
X017290Y003817D01*
X017183Y003710D01*
X016970Y004030D02*
X016863Y004137D01*
X016756Y004137D01*
X016649Y004030D01*
X018149Y004030D02*
X018149Y003710D01*
X018790Y003710D01*
X018576Y003710D02*
X018576Y004030D01*
X018470Y004137D01*
X018256Y004137D01*
X018149Y004030D01*
X018576Y003924D02*
X018790Y004137D01*
X019649Y003924D02*
X019863Y003710D01*
X019649Y003924D02*
X020290Y003924D01*
X020290Y004137D02*
X020290Y003710D01*
X020290Y004355D02*
X019863Y004782D01*
X019756Y004782D01*
X019649Y004675D01*
X019649Y004461D01*
X019756Y004355D01*
X020290Y004355D02*
X020290Y004782D01*
X021149Y004030D02*
X021149Y003817D01*
X021256Y003710D01*
X021683Y003710D01*
X021790Y003817D01*
X021790Y004030D01*
X021683Y004137D01*
X021470Y004137D01*
X021470Y003924D01*
X021256Y004137D02*
X021149Y004030D01*
X023113Y003681D02*
X023113Y003467D01*
X023220Y003360D01*
X023433Y003360D01*
X023540Y003467D01*
X023540Y003681D01*
X023326Y003788D02*
X023326Y003360D01*
X023113Y003144D02*
X023113Y003037D01*
X023326Y002823D01*
X023113Y002823D02*
X023540Y002823D01*
X023540Y002607D02*
X023540Y002394D01*
X023540Y002500D02*
X023113Y002500D01*
X023113Y002394D01*
X022899Y002500D02*
X022793Y002500D01*
X022683Y002426D02*
X022790Y002319D01*
X022790Y001999D01*
X022149Y001999D01*
X022149Y002319D01*
X022256Y002426D01*
X022683Y002426D01*
X022899Y002176D02*
X023540Y002176D01*
X023326Y001963D01*
X023540Y001749D01*
X022899Y001749D01*
X022790Y001782D02*
X022149Y001782D01*
X022149Y001355D02*
X022790Y001782D01*
X023220Y001532D02*
X023220Y001105D01*
X023540Y000887D02*
X023540Y000460D01*
X023540Y000674D02*
X022899Y000674D01*
X023113Y000460D01*
X022790Y000817D02*
X022790Y001030D01*
X022683Y001137D01*
X022470Y001137D01*
X022470Y000924D01*
X022256Y001137D02*
X022149Y001030D01*
X022149Y000817D01*
X022256Y000710D01*
X022683Y000710D01*
X022790Y000817D01*
X022790Y001355D02*
X022149Y001355D01*
X023113Y003681D02*
X023220Y003788D01*
X023326Y003788D01*
X024070Y004330D02*
X024070Y005030D01*
X024072Y005047D01*
X024076Y005064D01*
X024083Y005080D01*
X024093Y005094D01*
X024106Y005107D01*
X024120Y005117D01*
X024136Y005124D01*
X024153Y005128D01*
X024170Y005130D01*
X024320Y005130D01*
X024370Y005080D01*
X026270Y005080D01*
X026320Y005130D01*
X026470Y005130D01*
X026487Y005128D01*
X026504Y005124D01*
X026520Y005117D01*
X026534Y005107D01*
X026547Y005094D01*
X026557Y005080D01*
X026564Y005064D01*
X026568Y005047D01*
X026570Y005030D01*
X026570Y004330D01*
X026568Y004313D01*
X026564Y004296D01*
X026557Y004280D01*
X026547Y004266D01*
X026534Y004253D01*
X026520Y004243D01*
X026504Y004236D01*
X026487Y004232D01*
X026470Y004230D01*
X026320Y004230D01*
X026270Y004280D01*
X024370Y004280D01*
X024320Y004230D01*
X024170Y004230D01*
X024153Y004232D01*
X024136Y004236D01*
X024120Y004243D01*
X024106Y004253D01*
X024093Y004266D01*
X024083Y004280D01*
X024076Y004296D01*
X024072Y004313D01*
X024070Y004330D01*
X026649Y002319D02*
X026756Y002426D01*
X027183Y002426D01*
X027290Y002319D01*
X027290Y001999D01*
X026649Y001999D01*
X026649Y002319D01*
X026649Y001782D02*
X027290Y001782D01*
X026649Y001355D01*
X027290Y001355D01*
X027183Y001137D02*
X026970Y001137D01*
X026970Y000924D01*
X027183Y001137D02*
X027290Y001030D01*
X027290Y000817D01*
X027183Y000710D01*
X026756Y000710D01*
X026649Y000817D01*
X026649Y001030D01*
X026756Y001137D01*
X026070Y007180D02*
X027570Y007180D01*
X027820Y007430D01*
X027820Y007930D01*
X027570Y008180D01*
X026070Y008180D01*
X025820Y007930D01*
X025820Y007430D01*
X026070Y007180D01*
X026070Y008180D02*
X025820Y008430D01*
X025820Y008930D01*
X026070Y009180D01*
X027570Y009180D01*
X027820Y008930D01*
X027820Y008430D01*
X027570Y008180D01*
X027570Y009180D02*
X027820Y009430D01*
X027820Y009930D01*
X027570Y010180D01*
X026070Y010180D01*
X025820Y010430D01*
X025820Y010930D01*
X026070Y011180D01*
X027570Y011180D01*
X027820Y010930D01*
X027820Y010430D01*
X027570Y010180D01*
X027570Y011180D02*
X027820Y011430D01*
X027820Y011930D01*
X027570Y012180D01*
X026070Y012180D01*
X025820Y011930D01*
X025820Y011430D01*
X026070Y011180D01*
X026070Y010180D02*
X025820Y009930D01*
X025820Y009430D01*
X026070Y009180D01*
X026070Y012180D02*
X025820Y012430D01*
X025820Y012930D01*
X026070Y013180D01*
X027570Y013180D01*
X027820Y012930D01*
X027820Y012430D01*
X027570Y012180D01*
X027570Y013180D02*
X027820Y013430D01*
X027820Y013930D01*
X027570Y014180D01*
X026070Y014180D01*
X025820Y013930D01*
X025820Y013430D01*
X026070Y013180D01*
X026070Y014180D02*
X025820Y014430D01*
X025820Y014930D01*
X026070Y015180D01*
X027570Y015180D01*
X027820Y014930D01*
X027820Y014430D01*
X027570Y014180D01*
X027570Y015180D02*
X027820Y015430D01*
X027820Y015930D01*
X027570Y016180D01*
X026070Y016180D01*
X025820Y015930D01*
X025820Y015430D01*
X026070Y015180D01*
X026070Y016180D02*
X025820Y016430D01*
X025820Y016930D01*
X026070Y017180D01*
X027570Y017180D01*
X027820Y016930D01*
X027820Y016430D01*
X027570Y016180D01*
D12*
X023820Y013680D02*
X023820Y019180D01*
X023820Y013680D02*
X023320Y013180D01*
X013070Y013180D01*
X013070Y019180D01*
X013070Y013180D02*
X002820Y013180D01*
X002320Y013680D01*
X002320Y019180D01*
X004820Y005680D02*
X003820Y004680D01*
X003820Y000680D01*
X004820Y005680D02*
X015820Y005680D01*
X021320Y005680D01*
X022820Y004180D01*
X022820Y000680D01*
X015820Y000680D02*
X015820Y005680D01*
D13*
X016355Y005506D02*
X016750Y005506D01*
X016882Y005374D01*
X016882Y005110D01*
X016750Y004979D01*
X016355Y004979D01*
X016355Y004715D02*
X016355Y005506D01*
X017147Y005506D02*
X017410Y005506D01*
X017279Y005506D02*
X017279Y004715D01*
X017410Y004715D02*
X017147Y004715D01*
X017675Y004715D02*
X017675Y005506D01*
X018070Y005506D01*
X018202Y005374D01*
X018202Y005110D01*
X018070Y004979D01*
X017675Y004979D01*
X017938Y004979D02*
X018202Y004715D01*
D14*
X021845Y007557D02*
X021947Y007455D01*
X022150Y007455D01*
X022252Y007557D01*
X022252Y007760D01*
X022049Y007760D01*
X022252Y007964D02*
X022150Y008066D01*
X021947Y008066D01*
X021845Y007964D01*
X021845Y007557D01*
X022049Y008455D02*
X022252Y008659D01*
X022252Y009066D01*
X022453Y008964D02*
X022554Y009066D01*
X022758Y009066D01*
X022860Y008964D01*
X022860Y008862D01*
X022758Y008760D01*
X022860Y008659D01*
X022860Y008557D01*
X022758Y008455D01*
X022554Y008455D01*
X022453Y008557D01*
X022656Y008760D02*
X022758Y008760D01*
X022049Y008455D02*
X021845Y008659D01*
X021845Y009066D01*
X021947Y010455D02*
X022150Y010455D01*
X022252Y010557D01*
X022252Y010760D01*
X022049Y010760D01*
X022252Y010964D02*
X022150Y011066D01*
X021947Y011066D01*
X021845Y010964D01*
X021845Y010557D01*
X021947Y010455D01*
X022049Y011455D02*
X022252Y011659D01*
X022252Y012066D01*
X022453Y011964D02*
X022554Y012066D01*
X022758Y012066D01*
X022860Y011964D01*
X022860Y011862D01*
X022758Y011760D01*
X022860Y011659D01*
X022860Y011557D01*
X022758Y011455D01*
X022554Y011455D01*
X022453Y011557D01*
X022656Y011760D02*
X022758Y011760D01*
X022049Y011455D02*
X021845Y011659D01*
X021845Y012066D01*
X021684Y013955D02*
X022091Y013955D01*
X022295Y014159D01*
X022091Y014362D01*
X021684Y014362D01*
X020509Y014925D02*
X020509Y015225D01*
X020359Y015375D01*
X020209Y015225D01*
X020209Y014925D01*
X020048Y015000D02*
X020048Y015150D01*
X019898Y015150D01*
X019748Y015000D02*
X019823Y014925D01*
X019973Y014925D01*
X020048Y015000D01*
X020209Y015150D02*
X020509Y015150D01*
X020048Y015300D02*
X019973Y015375D01*
X019823Y015375D01*
X019748Y015300D01*
X019748Y015000D01*
X019588Y014925D02*
X019288Y014925D01*
X019288Y015375D01*
X019588Y015375D01*
X019438Y015150D02*
X019288Y015150D01*
X019128Y015375D02*
X019128Y014925D01*
X018827Y014925D02*
X018827Y015375D01*
X018977Y015225D01*
X019128Y015375D01*
X018667Y014850D02*
X018367Y014850D01*
X018057Y014925D02*
X018057Y015150D01*
X018207Y015300D01*
X018207Y015375D01*
X018057Y015150D02*
X017907Y015300D01*
X017907Y015375D01*
X017746Y015225D02*
X017746Y014925D01*
X017746Y015150D02*
X017446Y015150D01*
X017446Y015225D02*
X017596Y015375D01*
X017746Y015225D01*
X017446Y015225D02*
X017446Y014925D01*
X017286Y014925D02*
X016986Y014925D01*
X016986Y015375D01*
X016826Y015375D02*
X016525Y015375D01*
X016525Y014925D01*
X016826Y014925D01*
X016676Y015150D02*
X016525Y015150D01*
X016365Y015150D02*
X016290Y015075D01*
X016065Y015075D01*
X016065Y014925D02*
X016065Y015375D01*
X016290Y015375D01*
X016365Y015300D01*
X016365Y015150D01*
X016215Y015075D02*
X016365Y014925D01*
X015045Y014260D02*
X014943Y014362D01*
X014740Y014362D01*
X014740Y014159D01*
X014740Y014362D01*
X014943Y014362D01*
X015045Y014260D01*
X015045Y014057D01*
X014943Y013955D01*
X014536Y013955D01*
X014434Y014057D01*
X014434Y014260D01*
X014536Y014362D01*
X014434Y014260D01*
X014434Y014057D01*
X014536Y013955D01*
X014943Y013955D01*
X015045Y014057D01*
X015045Y014260D01*
X012045Y014159D02*
X011841Y013955D01*
X011434Y013955D01*
X011434Y014362D02*
X011841Y014362D01*
X012045Y014159D01*
X010298Y014925D02*
X009998Y014925D01*
X009998Y015375D01*
X010298Y015375D01*
X010148Y015150D02*
X009998Y015150D01*
X009838Y015375D02*
X009538Y015375D01*
X009538Y014925D01*
X009378Y014925D02*
X009227Y015075D01*
X009303Y015075D02*
X009077Y015075D01*
X009077Y014925D02*
X009077Y015375D01*
X009303Y015375D01*
X009378Y015300D01*
X009378Y015150D01*
X009303Y015075D01*
X009538Y015150D02*
X009688Y015150D01*
X008917Y014850D02*
X008617Y014850D01*
X008307Y014925D02*
X008307Y015150D01*
X008457Y015300D01*
X008457Y015375D01*
X008307Y015150D02*
X008157Y015300D01*
X008157Y015375D01*
X007996Y015225D02*
X007996Y014925D01*
X007996Y015150D02*
X007696Y015150D01*
X007696Y015225D02*
X007846Y015375D01*
X007996Y015225D01*
X007696Y015225D02*
X007696Y014925D01*
X007536Y014925D02*
X007236Y014925D01*
X007236Y015375D01*
X007076Y015375D02*
X006775Y015375D01*
X006775Y014925D01*
X007076Y014925D01*
X006926Y015150D02*
X006775Y015150D01*
X006615Y015150D02*
X006540Y015075D01*
X006315Y015075D01*
X006315Y014925D02*
X006315Y015375D01*
X006540Y015375D01*
X006615Y015300D01*
X006615Y015150D01*
X006465Y015075D02*
X006615Y014925D01*
X005045Y014260D02*
X005045Y014057D01*
X004943Y013955D01*
X004536Y013955D01*
X004434Y014057D01*
X004434Y014260D01*
X004536Y014362D01*
X004740Y014362D02*
X004740Y014159D01*
X004740Y014362D02*
X004943Y014362D01*
X005045Y014260D01*
X001967Y012214D02*
X001967Y012112D01*
X001560Y011705D01*
X001967Y011705D01*
X001360Y011705D02*
X000953Y011705D01*
X001156Y011705D02*
X001156Y012316D01*
X000953Y012112D01*
X000752Y011909D02*
X000752Y012316D01*
X000345Y012316D02*
X000345Y011909D01*
X000549Y011705D01*
X000752Y011909D01*
X001560Y012214D02*
X001662Y012316D01*
X001866Y012316D01*
X001967Y012214D01*
X001400Y010816D02*
X001197Y010816D01*
X001095Y010714D01*
X001095Y010307D01*
X001197Y010205D01*
X001400Y010205D01*
X001502Y010307D01*
X001502Y010510D01*
X001299Y010510D01*
X001502Y010714D02*
X001400Y010816D01*
X001156Y009316D02*
X001156Y008705D01*
X000953Y008705D02*
X001360Y008705D01*
X001560Y008705D02*
X001967Y009112D01*
X001967Y009214D01*
X001866Y009316D01*
X001662Y009316D01*
X001560Y009214D01*
X001156Y009316D02*
X000953Y009112D01*
X000752Y008909D02*
X000752Y009316D01*
X000345Y009316D02*
X000345Y008909D01*
X000549Y008705D01*
X000752Y008909D01*
X001560Y008705D02*
X001967Y008705D01*
X001400Y007816D02*
X001197Y007816D01*
X001095Y007714D01*
X001095Y007307D01*
X001197Y007205D01*
X001400Y007205D01*
X001502Y007307D01*
X001502Y007510D01*
X001299Y007510D01*
X001502Y007714D02*
X001400Y007816D01*
X005295Y004720D02*
X005295Y004313D01*
X005295Y004112D02*
X004888Y004112D01*
X004684Y003909D01*
X004888Y003705D01*
X005295Y003705D01*
X004990Y003705D02*
X004990Y004112D01*
X004888Y004313D02*
X004684Y004516D01*
X005295Y004516D01*
X006184Y004414D02*
X006286Y004313D01*
X006693Y004313D01*
X006286Y004720D01*
X006693Y004720D01*
X006795Y004618D01*
X006795Y004414D01*
X006693Y004313D01*
X006795Y004112D02*
X006388Y004112D01*
X006184Y003909D01*
X006388Y003705D01*
X006795Y003705D01*
X006490Y003705D02*
X006490Y004112D01*
X006184Y004414D02*
X006184Y004618D01*
X006286Y004720D01*
X008184Y004927D02*
X008184Y005131D01*
X008286Y005233D01*
X008388Y005233D01*
X008490Y005131D01*
X008591Y005233D01*
X008693Y005233D01*
X008795Y005131D01*
X008795Y004927D01*
X008693Y004826D01*
X008795Y004625D02*
X008795Y004218D01*
X008795Y004421D02*
X008184Y004421D01*
X008388Y004218D01*
X008286Y004017D02*
X008184Y003915D01*
X008184Y003712D01*
X008286Y003610D01*
X008693Y003610D01*
X008795Y003712D01*
X008795Y003915D01*
X008693Y004017D01*
X008286Y004017D01*
X008184Y003409D02*
X008184Y003205D01*
X008184Y003307D02*
X008795Y003307D01*
X008795Y003205D02*
X008795Y003409D01*
X009684Y003409D02*
X009684Y003205D01*
X009684Y003307D02*
X010295Y003307D01*
X010295Y003205D02*
X010295Y003409D01*
X010193Y003610D02*
X010295Y003712D01*
X010295Y003915D01*
X010193Y004017D01*
X009786Y004017D01*
X009684Y003915D01*
X009684Y003712D01*
X009786Y003610D01*
X010193Y003610D01*
X010295Y004218D02*
X010295Y004625D01*
X010295Y004421D02*
X009684Y004421D01*
X009888Y004218D01*
X009990Y004826D02*
X009990Y005233D01*
X010295Y005131D02*
X009684Y005131D01*
X009990Y004826D01*
X008490Y005029D02*
X008490Y005131D01*
X008286Y004826D02*
X008184Y004927D01*
X008549Y007455D02*
X008752Y007659D01*
X008752Y008066D01*
X008953Y008066D02*
X008953Y007760D01*
X009156Y007862D01*
X009258Y007862D01*
X009360Y007760D01*
X009360Y007557D01*
X009258Y007455D01*
X009054Y007455D01*
X008953Y007557D01*
X008549Y007455D02*
X008345Y007659D01*
X008345Y008066D01*
X008953Y008066D02*
X009360Y008066D01*
X009360Y008955D02*
X009360Y009566D01*
X009560Y009566D02*
X009866Y009566D01*
X009967Y009464D01*
X009967Y009057D01*
X009866Y008955D01*
X009560Y008955D01*
X009560Y009566D01*
X008953Y009566D02*
X009360Y008955D01*
X008953Y008955D02*
X008953Y009566D01*
X008752Y009464D02*
X008650Y009566D01*
X008447Y009566D01*
X008345Y009464D01*
X008345Y009057D01*
X008447Y008955D01*
X008650Y008955D01*
X008752Y009057D01*
X008752Y009260D01*
X008549Y009260D01*
X008549Y010455D02*
X008752Y010659D01*
X008752Y011066D01*
X008953Y011066D02*
X008953Y010760D01*
X009156Y010862D01*
X009258Y010862D01*
X009360Y010760D01*
X009360Y010557D01*
X009258Y010455D01*
X009054Y010455D01*
X008953Y010557D01*
X008549Y010455D02*
X008345Y010659D01*
X008345Y011066D01*
X008953Y011066D02*
X009360Y011066D01*
X009360Y011955D02*
X009360Y012566D01*
X009560Y012566D02*
X009866Y012566D01*
X009967Y012464D01*
X009967Y012057D01*
X009866Y011955D01*
X009560Y011955D01*
X009560Y012566D01*
X008953Y012566D02*
X009360Y011955D01*
X008953Y011955D02*
X008953Y012566D01*
X008752Y012464D02*
X008650Y012566D01*
X008447Y012566D01*
X008345Y012464D01*
X008345Y012057D01*
X008447Y011955D01*
X008650Y011955D01*
X008752Y012057D01*
X008752Y012260D01*
X008549Y012260D01*
X011434Y018455D02*
X011841Y018455D01*
X012045Y018659D01*
X011841Y018862D01*
X011434Y018862D01*
X010545Y019010D02*
X009934Y019010D01*
X010240Y018705D01*
X010240Y019112D01*
X009045Y019010D02*
X009045Y018807D01*
X008943Y018705D01*
X008740Y018909D02*
X008740Y019010D01*
X008841Y019112D01*
X008943Y019112D01*
X009045Y019010D01*
X008740Y019010D02*
X008638Y019112D01*
X008536Y019112D01*
X008434Y019010D01*
X008434Y018807D01*
X008536Y018705D01*
X007045Y018705D02*
X006638Y019112D01*
X006536Y019112D01*
X006434Y019010D01*
X006434Y018807D01*
X006536Y018705D01*
X007045Y018705D02*
X007045Y019112D01*
X005545Y019112D02*
X005545Y018705D01*
X005545Y018909D02*
X004934Y018909D01*
X005138Y018705D01*
X004045Y018760D02*
X004045Y018557D01*
X003943Y018455D01*
X003536Y018455D01*
X003434Y018557D01*
X003434Y018760D01*
X003536Y018862D01*
X003740Y018862D02*
X003740Y018659D01*
X003740Y018862D02*
X003943Y018862D01*
X004045Y018760D01*
X013934Y018760D02*
X013934Y018557D01*
X014036Y018455D01*
X014443Y018455D01*
X014545Y018557D01*
X014545Y018760D01*
X014443Y018862D01*
X014240Y018862D01*
X014240Y018659D01*
X014036Y018862D02*
X013934Y018760D01*
X015434Y018909D02*
X016045Y018909D01*
X016045Y019112D02*
X016045Y018705D01*
X015638Y018705D02*
X015434Y018909D01*
X016934Y019010D02*
X016934Y018807D01*
X017036Y018705D01*
X016934Y019010D02*
X017036Y019112D01*
X017138Y019112D01*
X017545Y018705D01*
X017545Y019112D01*
X018934Y019010D02*
X018934Y018807D01*
X019036Y018705D01*
X019240Y018909D02*
X019240Y019010D01*
X019341Y019112D01*
X019443Y019112D01*
X019545Y019010D01*
X019545Y018807D01*
X019443Y018705D01*
X019240Y019010D02*
X019138Y019112D01*
X019036Y019112D01*
X018934Y019010D01*
X020434Y019010D02*
X020740Y018705D01*
X020740Y019112D01*
X021045Y019010D02*
X020434Y019010D01*
X021934Y018862D02*
X022341Y018862D01*
X022545Y018659D01*
X022341Y018455D01*
X021934Y018455D01*
X025374Y005555D02*
X025599Y005555D01*
X025674Y005480D01*
X025674Y005330D01*
X025599Y005255D01*
X025374Y005255D01*
X025374Y005105D02*
X025374Y005555D01*
X025524Y005255D02*
X025674Y005105D01*
X025835Y005105D02*
X026135Y005105D01*
X025985Y005105D02*
X025985Y005555D01*
X025835Y005405D01*
X013795Y004631D02*
X013795Y004427D01*
X013693Y004326D01*
X013490Y004326D01*
X013490Y004631D01*
X013591Y004733D01*
X013693Y004733D01*
X013795Y004631D01*
X013490Y004326D02*
X013286Y004529D01*
X013184Y004733D01*
X013795Y004125D02*
X013795Y003718D01*
X013795Y003921D02*
X013184Y003921D01*
X013388Y003718D01*
X013286Y003517D02*
X013184Y003415D01*
X013184Y003212D01*
X013286Y003110D01*
X013693Y003110D01*
X013795Y003212D01*
X013795Y003415D01*
X013693Y003517D01*
X013286Y003517D01*
X013184Y002909D02*
X013184Y002705D01*
X013184Y002807D02*
X013795Y002807D01*
X013795Y002705D02*
X013795Y002909D01*
D15*
X015726Y003282D02*
X011159Y003282D01*
X011159Y003597D01*
X015726Y003597D01*
X015726Y003282D01*
X015726Y000841D01*
X011159Y000841D01*
X011159Y003282D01*
X010509Y003282D02*
X010509Y003597D01*
X007753Y003597D01*
X007753Y003282D01*
X010509Y003282D01*
X010509Y000841D01*
X007753Y000841D01*
X007753Y003282D01*
X007009Y003282D02*
X007009Y003597D01*
X004253Y003597D01*
X004253Y003282D01*
X007009Y003282D01*
X007009Y000841D01*
X004253Y000841D01*
X004253Y003282D01*
X004422Y006991D02*
X001981Y006991D01*
X001981Y009747D01*
X004422Y009747D01*
X004422Y006991D01*
X004737Y006991D01*
X004737Y009747D01*
X004422Y009747D01*
X004422Y009991D02*
X004422Y012747D01*
X004737Y012747D01*
X004737Y009991D01*
X004422Y009991D01*
X001981Y009991D01*
X001981Y012747D01*
X004422Y012747D01*
X005403Y012869D02*
X005718Y012869D01*
X005718Y010113D01*
X005403Y010113D01*
X005403Y012869D01*
X005718Y012869D02*
X008159Y012869D01*
X008159Y010113D01*
X005718Y010113D01*
X005718Y009869D02*
X005403Y009869D01*
X005403Y007113D01*
X005718Y007113D01*
X005718Y009869D01*
X008159Y009869D01*
X008159Y007113D01*
X005718Y007113D01*
X005570Y013680D02*
X006070Y013680D01*
X006320Y013930D01*
X006570Y013680D01*
X007070Y013680D01*
X007320Y013930D01*
X007570Y013680D01*
X008070Y013680D01*
X008320Y013930D01*
X008570Y013680D01*
X009070Y013680D01*
X009320Y013930D01*
X009570Y013680D01*
X010070Y013680D01*
X010320Y013930D01*
X010570Y013680D01*
X011070Y013680D01*
X011320Y013930D01*
X011320Y014430D01*
X011070Y014680D01*
X010570Y014680D01*
X010320Y014430D01*
X010070Y014680D01*
X009570Y014680D01*
X009320Y014430D01*
X009070Y014680D01*
X008570Y014680D01*
X008320Y014430D01*
X008070Y014680D01*
X007570Y014680D01*
X007320Y014430D01*
X007070Y014680D01*
X006570Y014680D01*
X006320Y014430D01*
X006070Y014680D01*
X005570Y014680D01*
X005320Y014430D01*
X005320Y013930D01*
X005570Y013680D01*
X007481Y015763D02*
X002914Y015763D01*
X002914Y016078D01*
X007481Y016078D01*
X007481Y015763D01*
X007481Y016078D02*
X007481Y018519D01*
X002914Y018519D01*
X002914Y016078D01*
X007914Y016078D02*
X007914Y015763D01*
X012481Y015763D01*
X012481Y016078D01*
X007914Y016078D01*
X007914Y018519D01*
X012481Y018519D01*
X012481Y016078D01*
X013414Y016078D02*
X013414Y015763D01*
X017981Y015763D01*
X017981Y016078D01*
X013414Y016078D01*
X013414Y018519D01*
X017981Y018519D01*
X017981Y016078D01*
X018414Y016078D02*
X018414Y015763D01*
X022981Y015763D01*
X022981Y016078D01*
X018414Y016078D01*
X018414Y018519D01*
X022981Y018519D01*
X022981Y016078D01*
X021320Y014430D02*
X021070Y014680D01*
X020570Y014680D01*
X020320Y014430D01*
X020070Y014680D01*
X019570Y014680D01*
X019320Y014430D01*
X019070Y014680D01*
X018570Y014680D01*
X018320Y014430D01*
X018070Y014680D01*
X017570Y014680D01*
X017320Y014430D01*
X017070Y014680D01*
X016570Y014680D01*
X016320Y014430D01*
X016070Y014680D01*
X015570Y014680D01*
X015320Y014430D01*
X015320Y013930D01*
X015570Y013680D01*
X016070Y013680D01*
X016320Y013930D01*
X016570Y013680D01*
X017070Y013680D01*
X017320Y013930D01*
X017570Y013680D01*
X018070Y013680D01*
X018320Y013930D01*
X018570Y013680D01*
X019070Y013680D01*
X019320Y013930D01*
X019570Y013680D01*
X020070Y013680D01*
X020320Y013930D01*
X020570Y013680D01*
X021070Y013680D01*
X021320Y013930D01*
X021320Y014430D01*
X021422Y012747D02*
X018981Y012747D01*
X018981Y009991D01*
X021422Y009991D01*
X021422Y012747D01*
X021737Y012747D01*
X021737Y009991D01*
X021422Y009991D01*
X021422Y009747D02*
X021422Y006991D01*
X018981Y006991D01*
X018981Y009747D01*
X021422Y009747D01*
X021737Y009747D01*
X021737Y006991D01*
X021422Y006991D01*
X022009Y003597D02*
X019253Y003597D01*
X019253Y003282D01*
X022009Y003282D01*
X022009Y000841D01*
X019253Y000841D01*
X019253Y003282D01*
X019009Y003282D02*
X016253Y003282D01*
X016253Y003597D01*
X019009Y003597D01*
X019009Y003282D01*
X019009Y000841D01*
X016253Y000841D01*
X016253Y003282D01*
X022009Y003282D02*
X022009Y003597D01*
X023753Y003597D02*
X023753Y003282D01*
X026509Y003282D01*
X026509Y000841D01*
X023753Y000841D01*
X023753Y003282D01*
X023753Y003597D02*
X026509Y003597D01*
X026509Y003282D01*
D16*
X026740Y004680D03*
X023900Y004680D03*
D17*
X025032Y004679D03*
X025612Y004679D03*
M02*
