%
M48
M72
T01C0.0130
T02C0.0320
T03C0.0400
T04C0.0472
%
T01
X20272Y9727
X24204Y17516
T02
X23320Y4680
X27320Y4680
T03
X27320Y7680
X26320Y7680
X26320Y8680
X27320Y8680
X27320Y9680
X26320Y9680
X26320Y10680
X27320Y10680
X27320Y11680
X26320Y11680
X26320Y12680
X27320Y12680
X27320Y13680
X26320Y13680
X26320Y14680
X27320Y14680
X27320Y15680
X26320Y15680
X26320Y16680
X27320Y16680
X20820Y14180
X19820Y14180
X18820Y14180
X17820Y14180
X16820Y14180
X15820Y14180
X10820Y14180
X9820Y14180
X8820Y14180
X7820Y14180
X6820Y14180
X5820Y14180
T04
X4942Y2180
X6320Y2180
X8442Y2180
X9820Y2180
X12064Y2180
X13442Y2180
X14820Y2180
X16942Y2180
X18320Y2180
X19942Y2180
X21320Y2180
X24442Y2180
X25820Y2180
X20320Y7680
X20320Y9058
X20320Y10680
X20320Y12058
X20698Y17180
X22076Y17180
X19320Y17180
X17076Y17180
X15698Y17180
X14320Y17180
X11576Y17180
X10198Y17180
X8820Y17180
X6576Y17180
X5198Y17180
X3820Y17180
X6820Y12180
X6820Y10802
X6820Y9180
X6820Y7802
X3320Y7680
X3320Y9058
X3320Y10680
X3320Y12058
M30
