G75*
G70*
%OFA0B0*%
%FSLAX24Y24*%
%IPPOS*%
%LPD*%
%AMOC8*
5,1,8,0,0,1.08239X$1,22.5*
%
%ADD10R,0.0800X0.0800*%
%ADD11C,0.0800*%
%ADD12OC8,0.0740*%
%ADD13R,0.0950X0.0950*%
%ADD14C,0.0950*%
%ADD15C,0.0740*%
%ADD16C,0.0120*%
%ADD17OC8,0.0660*%
%ADD18R,0.0472X0.0551*%
%ADD19C,0.0100*%
%ADD20C,0.0270*%
%ADD21C,0.0200*%
%ADD22C,0.0160*%
D10*
X006320Y002180D03*
X009820Y002180D03*
X003320Y007680D03*
X006820Y009180D03*
X003320Y010680D03*
X006820Y012180D03*
X020320Y010680D03*
X020320Y007680D03*
X021320Y002180D03*
X018320Y002180D03*
X025820Y002180D03*
D11*
X024442Y002180D03*
X019942Y002180D03*
X016942Y002180D03*
X008442Y002180D03*
X004942Y002180D03*
X006820Y007802D03*
X003320Y009058D03*
X006820Y010802D03*
X003320Y012058D03*
X020320Y012058D03*
X020320Y009058D03*
D12*
X026320Y008680D03*
X027320Y008680D03*
X027320Y007680D03*
X026320Y007680D03*
X026320Y009680D03*
X027320Y009680D03*
X027320Y010680D03*
X026320Y010680D03*
X026320Y011680D03*
X027320Y011680D03*
X027320Y012680D03*
X026320Y012680D03*
X026320Y013680D03*
X027320Y013680D03*
X027320Y014680D03*
X026320Y014680D03*
X026320Y015680D03*
X027320Y015680D03*
X027320Y016680D03*
X026320Y016680D03*
D13*
X019320Y017180D03*
X014320Y017180D03*
X008820Y017180D03*
X003820Y017180D03*
X014820Y002180D03*
D14*
X013442Y002180D03*
X012064Y002180D03*
X011576Y017180D03*
X010198Y017180D03*
X006576Y017180D03*
X005198Y017180D03*
X015698Y017180D03*
X017076Y017180D03*
X020698Y017180D03*
X022076Y017180D03*
D15*
X020820Y014180D03*
X019820Y014180D03*
X018820Y014180D03*
X017820Y014180D03*
X016820Y014180D03*
X015820Y014180D03*
X010820Y014180D03*
X009820Y014180D03*
X008820Y014180D03*
X007820Y014180D03*
X006820Y014180D03*
X005820Y014180D03*
D16*
X023312Y004680D02*
X024926Y004680D01*
X025753Y004680D02*
X027092Y004680D01*
D17*
X027320Y004680D03*
X023320Y004680D03*
D18*
X024916Y004680D03*
X025724Y004680D03*
D19*
X024586Y004680D02*
X024442Y004680D01*
X024442Y002180D01*
X024670Y001630D02*
X018320Y001630D01*
X018320Y002180D01*
X016942Y002180D02*
X016942Y005680D01*
X020320Y009058D01*
X020870Y008780D02*
X020870Y009580D01*
X020320Y010130D01*
X020320Y010680D01*
X019320Y010680D01*
X015820Y014180D01*
X014320Y015680D01*
X014320Y017180D01*
X013695Y017180D01*
X013051Y017824D01*
X008152Y017824D01*
X005820Y015493D01*
X004133Y017180D01*
X003820Y017180D01*
X005820Y015493D02*
X005820Y014180D01*
X005820Y013730D01*
X006820Y012730D01*
X006820Y012180D01*
X006820Y010802D02*
X007378Y010802D01*
X007378Y008360D01*
X006820Y007802D01*
X007378Y010802D02*
X007442Y010802D01*
X010820Y014180D01*
X010820Y016424D01*
X011576Y017180D01*
X010198Y017180D02*
X010198Y014558D01*
X009820Y014180D01*
X015698Y015302D02*
X016820Y014180D01*
X017076Y014924D02*
X017820Y014180D01*
X018820Y014180D02*
X018820Y016055D01*
X019320Y016555D01*
X019320Y017180D01*
X020698Y017180D02*
X020698Y015058D01*
X019820Y014180D01*
X020820Y014180D02*
X022076Y015436D01*
X022076Y017180D01*
X022099Y017203D01*
X026797Y017203D01*
X027320Y016680D01*
X027845Y016891D02*
X027220Y017516D01*
X024204Y017516D01*
X025800Y016680D02*
X026320Y016680D01*
X025800Y016680D02*
X021178Y012058D01*
X020320Y012058D01*
X020272Y009727D02*
X020207Y009727D01*
X013442Y002961D01*
X013442Y002180D01*
X016520Y000200D02*
X016520Y000180D01*
X016520Y000200D01*
X016520Y000180D01*
X016520Y000200D01*
X016520Y000180D01*
X016520Y000200D01*
X023320Y004680D02*
X024442Y004680D01*
X024586Y004680D02*
X027850Y006944D01*
X027850Y008150D01*
X027320Y008680D01*
X028060Y008940D02*
X028060Y004740D01*
X026050Y002730D01*
X025000Y002730D01*
X025000Y001960D01*
X024670Y001630D01*
X025887Y001232D02*
X007818Y001232D01*
X006870Y002180D01*
X006320Y002180D01*
X006220Y000200D02*
X006220Y000180D01*
X006220Y000200D01*
X006220Y000180D01*
X006220Y000200D01*
X006220Y000180D01*
X006220Y000200D01*
X006220Y000180D01*
X006220Y000200D01*
X020320Y007680D02*
X020320Y008230D01*
X020870Y008780D01*
X027320Y009680D02*
X028060Y008940D01*
X028274Y009726D02*
X028274Y003619D01*
X025887Y001232D01*
X028274Y009726D02*
X027320Y010680D01*
X027320Y012680D02*
X028045Y013405D01*
X028045Y016998D01*
X027237Y017806D01*
X021324Y017806D01*
X020698Y017180D01*
X017076Y017180D02*
X017076Y014924D01*
X015698Y015302D02*
X015698Y017180D01*
X027320Y013680D02*
X027845Y014205D01*
X027845Y016891D01*
D20*
X024204Y017516D03*
X020272Y009727D03*
D21*
X026320Y008680D02*
X019942Y002302D01*
X019464Y002780D01*
X017835Y002780D01*
X017720Y002665D01*
X017720Y002107D01*
X017095Y001482D01*
X011796Y001482D01*
X003770Y009508D01*
X003929Y009667D01*
X003929Y011449D01*
X003320Y012058D01*
X003770Y009508D02*
X003320Y009058D01*
X019942Y002302D02*
X019942Y002180D01*
D22*
X028320Y000180D02*
X000320Y000180D01*
X028320Y000180D01*
X028320Y000200D01*
X000320Y000200D01*
X000320Y000180D01*
X000550Y000660D02*
X000550Y019196D01*
X028320Y019196D01*
X028320Y010005D01*
X027870Y010455D01*
X027870Y010908D01*
X027598Y011180D01*
X027870Y011452D01*
X027870Y011908D01*
X027598Y012180D01*
X027870Y012452D01*
X027870Y012905D01*
X028140Y013175D01*
X028275Y013310D01*
X028275Y017093D01*
X027467Y017901D01*
X027332Y018036D01*
X021229Y018036D01*
X020969Y017777D01*
X020828Y017835D01*
X020568Y017835D01*
X020327Y017735D01*
X020143Y017551D01*
X020043Y017310D01*
X020043Y017050D01*
X020143Y016809D01*
X020327Y016625D01*
X020468Y016566D01*
X020468Y015153D01*
X020011Y014696D01*
X019929Y014730D01*
X019711Y014730D01*
X019508Y014646D01*
X019354Y014492D01*
X019320Y014410D01*
X019286Y014492D01*
X019132Y014646D01*
X019050Y014680D01*
X019050Y015960D01*
X019550Y016460D01*
X019550Y016525D01*
X019870Y016525D01*
X019975Y016630D01*
X019975Y017730D01*
X019870Y017835D01*
X018770Y017835D01*
X018665Y017730D01*
X018665Y016630D01*
X018770Y016525D01*
X018965Y016525D01*
X018725Y016285D01*
X018590Y016150D01*
X018590Y014680D01*
X018508Y014646D01*
X018354Y014492D01*
X018320Y014410D01*
X018286Y014492D01*
X018132Y014646D01*
X017929Y014730D01*
X017711Y014730D01*
X017629Y014696D01*
X017306Y015019D01*
X017306Y016566D01*
X017447Y016625D01*
X017631Y016809D01*
X017731Y017050D01*
X017731Y017310D01*
X017631Y017551D01*
X017447Y017735D01*
X017206Y017835D01*
X016946Y017835D01*
X016705Y017735D01*
X016521Y017551D01*
X016421Y017310D01*
X016421Y017050D01*
X016521Y016809D01*
X016705Y016625D01*
X016846Y016566D01*
X016846Y014829D01*
X016956Y014719D01*
X016929Y014730D01*
X016711Y014730D01*
X016629Y014696D01*
X015928Y015397D01*
X015928Y016566D01*
X016069Y016625D01*
X016253Y016809D01*
X016353Y017050D01*
X016353Y017310D01*
X016253Y017551D01*
X016069Y017735D01*
X015828Y017835D01*
X015568Y017835D01*
X015327Y017735D01*
X015143Y017551D01*
X015043Y017310D01*
X015043Y017050D01*
X015143Y016809D01*
X015327Y016625D01*
X015468Y016566D01*
X015468Y015207D01*
X015956Y014719D01*
X015929Y014730D01*
X015711Y014730D01*
X015629Y014696D01*
X014550Y015775D01*
X014550Y016525D01*
X014870Y016525D01*
X014975Y016630D01*
X014975Y017730D01*
X014870Y017835D01*
X013770Y017835D01*
X013665Y017730D01*
X013665Y017535D01*
X013281Y017919D01*
X013146Y018054D01*
X008056Y018054D01*
X007231Y017229D01*
X007231Y017310D01*
X007131Y017551D01*
X006947Y017735D01*
X006706Y017835D01*
X006446Y017835D01*
X006205Y017735D01*
X006021Y017551D01*
X005921Y017310D01*
X005921Y017050D01*
X006021Y016809D01*
X006205Y016625D01*
X006446Y016525D01*
X006527Y016525D01*
X005820Y015818D01*
X005113Y016525D01*
X005328Y016525D01*
X005569Y016625D01*
X005753Y016809D01*
X005853Y017050D01*
X005853Y017310D01*
X005753Y017551D01*
X005569Y017735D01*
X005328Y017835D01*
X005068Y017835D01*
X004827Y017735D01*
X004643Y017551D01*
X004543Y017310D01*
X004543Y017095D01*
X004475Y017163D01*
X004475Y017730D01*
X004370Y017835D01*
X003270Y017835D01*
X003165Y017730D01*
X003165Y016630D01*
X003270Y016525D01*
X004370Y016525D01*
X004416Y016571D01*
X005590Y015397D01*
X005590Y014680D01*
X005508Y014646D01*
X005354Y014492D01*
X005270Y014289D01*
X005270Y014071D01*
X005354Y013868D01*
X005508Y013714D01*
X005590Y013680D01*
X005590Y013635D01*
X006465Y012760D01*
X006345Y012760D01*
X006240Y012655D01*
X006240Y011705D01*
X006345Y011600D01*
X007295Y011600D01*
X007400Y011705D01*
X007400Y012655D01*
X007295Y012760D01*
X007050Y012760D01*
X007050Y012825D01*
X006147Y013729D01*
X006286Y013868D01*
X006320Y013950D01*
X006354Y013868D01*
X006508Y013714D01*
X006711Y013630D01*
X006929Y013630D01*
X007132Y013714D01*
X007286Y013868D01*
X007320Y013950D01*
X007354Y013868D01*
X007508Y013714D01*
X007711Y013630D01*
X007929Y013630D01*
X008132Y013714D01*
X008286Y013868D01*
X008320Y013950D01*
X008354Y013868D01*
X008508Y013714D01*
X008711Y013630D01*
X008929Y013630D01*
X009132Y013714D01*
X009286Y013868D01*
X009320Y013950D01*
X009354Y013868D01*
X009508Y013714D01*
X009711Y013630D01*
X009929Y013630D01*
X009956Y013641D01*
X007351Y011036D01*
X007312Y011131D01*
X007149Y011294D01*
X006935Y011382D01*
X006705Y011382D01*
X006491Y011294D01*
X006328Y011131D01*
X006240Y010917D01*
X006240Y010687D01*
X006328Y010474D01*
X006491Y010310D01*
X006705Y010222D01*
X006935Y010222D01*
X007148Y010310D01*
X007148Y009760D01*
X006345Y009760D01*
X006240Y009655D01*
X006240Y008705D01*
X006345Y008600D01*
X007148Y008600D01*
X007148Y008455D01*
X007034Y008341D01*
X006935Y008382D01*
X006705Y008382D01*
X006491Y008294D01*
X006328Y008131D01*
X006240Y007917D01*
X006240Y007687D01*
X006328Y007474D01*
X006491Y007310D01*
X006705Y007222D01*
X006935Y007222D01*
X007149Y007310D01*
X007312Y007474D01*
X007400Y007687D01*
X007400Y007917D01*
X007359Y008016D01*
X007608Y008265D01*
X007608Y010643D01*
X007672Y010707D01*
X010629Y013664D01*
X010711Y013630D01*
X010929Y013630D01*
X011132Y013714D01*
X011286Y013868D01*
X011370Y014071D01*
X011370Y014289D01*
X011286Y014492D01*
X011132Y014646D01*
X011050Y014680D01*
X011050Y016329D01*
X011305Y016583D01*
X011446Y016525D01*
X011706Y016525D01*
X011947Y016625D01*
X012131Y016809D01*
X012231Y017050D01*
X012231Y017310D01*
X012131Y017551D01*
X012088Y017594D01*
X012956Y017594D01*
X013600Y016950D01*
X013665Y016950D01*
X013665Y016630D01*
X013770Y016525D01*
X014090Y016525D01*
X014090Y015585D01*
X015304Y014371D01*
X015270Y014289D01*
X015270Y014071D01*
X015354Y013868D01*
X015508Y013714D01*
X015711Y013630D01*
X015929Y013630D01*
X016011Y013664D01*
X019225Y010450D01*
X019740Y010450D01*
X019740Y010205D01*
X019845Y010100D01*
X020090Y010100D01*
X020090Y010035D01*
X020120Y010005D01*
X020094Y009994D01*
X020005Y009905D01*
X019966Y009810D01*
X013347Y003191D01*
X013212Y003056D01*
X013212Y002794D01*
X013071Y002735D01*
X012887Y002551D01*
X012787Y002310D01*
X012787Y002050D01*
X012887Y001809D01*
X012934Y001762D01*
X012572Y001762D01*
X012619Y001809D01*
X012719Y002050D01*
X012719Y002310D01*
X012619Y002551D01*
X012435Y002735D01*
X012194Y002835D01*
X011934Y002835D01*
X011693Y002735D01*
X011509Y002551D01*
X011409Y002310D01*
X011409Y002265D01*
X004166Y009508D01*
X004167Y009509D01*
X004209Y009612D01*
X004209Y011504D01*
X004167Y011607D01*
X004088Y011686D01*
X003880Y011894D01*
X003900Y011943D01*
X003900Y012173D01*
X003812Y012386D01*
X003649Y012550D01*
X003435Y012638D01*
X003205Y012638D01*
X002991Y012550D01*
X002828Y012386D01*
X002740Y012173D01*
X002740Y011943D01*
X002828Y011729D01*
X002991Y011566D01*
X003205Y011478D01*
X003435Y011478D01*
X003484Y011498D01*
X003649Y011333D01*
X003649Y011260D01*
X002845Y011260D01*
X002740Y011155D01*
X002740Y010205D01*
X002845Y010100D01*
X003649Y010100D01*
X003649Y009783D01*
X003533Y009667D01*
X003484Y009618D01*
X003435Y009638D01*
X003205Y009638D01*
X002991Y009550D01*
X002828Y009386D01*
X002740Y009173D01*
X002740Y008943D01*
X002828Y008729D01*
X002991Y008566D01*
X003205Y008478D01*
X003435Y008478D01*
X003649Y008566D01*
X003812Y008729D01*
X003900Y008943D01*
X003900Y008982D01*
X010122Y002760D01*
X009345Y002760D01*
X009240Y002655D01*
X009240Y001705D01*
X009345Y001600D01*
X010295Y001600D01*
X010400Y001705D01*
X010400Y002482D01*
X011420Y001462D01*
X007913Y001462D01*
X006965Y002410D01*
X006900Y002410D01*
X006900Y002655D01*
X006795Y002760D01*
X005845Y002760D01*
X005740Y002655D01*
X005740Y001705D01*
X005845Y001600D01*
X006795Y001600D01*
X006900Y001705D01*
X006900Y001825D01*
X007723Y001002D01*
X025983Y001002D01*
X026117Y001137D01*
X028320Y003339D01*
X028320Y000660D01*
X000550Y000660D01*
X000550Y000814D02*
X028320Y000814D01*
X028320Y000973D02*
X000550Y000973D01*
X000550Y001131D02*
X007594Y001131D01*
X007435Y001290D02*
X000550Y001290D01*
X000550Y001448D02*
X007277Y001448D01*
X007118Y001607D02*
X006801Y001607D01*
X006900Y001765D02*
X006960Y001765D01*
X007452Y001924D02*
X007921Y001924D01*
X007950Y001851D02*
X008114Y001688D01*
X008327Y001600D01*
X008557Y001600D01*
X008771Y001688D01*
X008934Y001851D01*
X009022Y002065D01*
X009022Y002295D01*
X008934Y002509D01*
X008771Y002672D01*
X008557Y002760D01*
X008327Y002760D01*
X008114Y002672D01*
X007950Y002509D01*
X007862Y002295D01*
X007862Y002065D01*
X007950Y001851D01*
X008037Y001765D02*
X007610Y001765D01*
X007769Y001607D02*
X008311Y001607D01*
X008573Y001607D02*
X009339Y001607D01*
X009240Y001765D02*
X008847Y001765D01*
X008964Y001924D02*
X009240Y001924D01*
X009240Y002082D02*
X009022Y002082D01*
X009022Y002241D02*
X009240Y002241D01*
X009240Y002399D02*
X008979Y002399D01*
X008885Y002558D02*
X009240Y002558D01*
X009301Y002716D02*
X008664Y002716D01*
X008220Y002716D02*
X006839Y002716D01*
X006900Y002558D02*
X007999Y002558D01*
X007905Y002399D02*
X006976Y002399D01*
X007135Y002241D02*
X007862Y002241D01*
X007862Y002082D02*
X007293Y002082D01*
X005839Y001607D02*
X005073Y001607D01*
X005057Y001600D02*
X005271Y001688D01*
X005434Y001851D01*
X005522Y002065D01*
X005522Y002295D01*
X005434Y002509D01*
X005271Y002672D01*
X005057Y002760D01*
X004827Y002760D01*
X004614Y002672D01*
X004450Y002509D01*
X004362Y002295D01*
X004362Y002065D01*
X004450Y001851D01*
X004614Y001688D01*
X004827Y001600D01*
X005057Y001600D01*
X004811Y001607D02*
X000550Y001607D01*
X000550Y001765D02*
X004537Y001765D01*
X004421Y001924D02*
X000550Y001924D01*
X000550Y002082D02*
X004362Y002082D01*
X004362Y002241D02*
X000550Y002241D01*
X000550Y002399D02*
X004405Y002399D01*
X004499Y002558D02*
X000550Y002558D01*
X000550Y002716D02*
X004720Y002716D01*
X005164Y002716D02*
X005801Y002716D01*
X005740Y002558D02*
X005385Y002558D01*
X005479Y002399D02*
X005740Y002399D01*
X005740Y002241D02*
X005522Y002241D01*
X005522Y002082D02*
X005740Y002082D01*
X005740Y001924D02*
X005464Y001924D01*
X005347Y001765D02*
X005740Y001765D01*
X008739Y004143D02*
X000550Y004143D01*
X000550Y004301D02*
X008581Y004301D01*
X008422Y004460D02*
X000550Y004460D01*
X000550Y004618D02*
X008264Y004618D01*
X008105Y004777D02*
X000550Y004777D01*
X000550Y004935D02*
X007947Y004935D01*
X007788Y005094D02*
X000550Y005094D01*
X000550Y005252D02*
X007630Y005252D01*
X007471Y005411D02*
X000550Y005411D01*
X000550Y005569D02*
X007313Y005569D01*
X007154Y005728D02*
X000550Y005728D01*
X000550Y005886D02*
X006996Y005886D01*
X006837Y006045D02*
X000550Y006045D01*
X000550Y006203D02*
X006679Y006203D01*
X006520Y006362D02*
X000550Y006362D01*
X000550Y006520D02*
X006362Y006520D01*
X006203Y006679D02*
X000550Y006679D01*
X000550Y006837D02*
X006045Y006837D01*
X005886Y006996D02*
X000550Y006996D01*
X000550Y007154D02*
X002791Y007154D01*
X002740Y007205D02*
X002845Y007100D01*
X003795Y007100D01*
X003900Y007205D01*
X003900Y008155D01*
X003795Y008260D01*
X002845Y008260D01*
X002740Y008155D01*
X002740Y007205D01*
X002740Y007313D02*
X000550Y007313D01*
X000550Y007471D02*
X002740Y007471D01*
X002740Y007630D02*
X000550Y007630D01*
X000550Y007788D02*
X002740Y007788D01*
X002740Y007947D02*
X000550Y007947D01*
X000550Y008105D02*
X002740Y008105D01*
X002977Y008581D02*
X000550Y008581D01*
X000550Y008739D02*
X002824Y008739D01*
X002759Y008898D02*
X000550Y008898D01*
X000550Y009056D02*
X002740Y009056D01*
X002757Y009215D02*
X000550Y009215D01*
X000550Y009373D02*
X002823Y009373D01*
X002973Y009532D02*
X000550Y009532D01*
X000550Y009690D02*
X003556Y009690D01*
X003649Y009849D02*
X000550Y009849D01*
X000550Y010007D02*
X003649Y010007D01*
X004209Y010007D02*
X007148Y010007D01*
X007148Y009849D02*
X004209Y009849D01*
X004209Y009690D02*
X006275Y009690D01*
X006240Y009532D02*
X004176Y009532D01*
X004301Y009373D02*
X006240Y009373D01*
X006240Y009215D02*
X004459Y009215D01*
X004618Y009056D02*
X006240Y009056D01*
X006240Y008898D02*
X004776Y008898D01*
X004935Y008739D02*
X006240Y008739D01*
X006461Y008264D02*
X005410Y008264D01*
X005252Y008422D02*
X007115Y008422D01*
X007148Y008581D02*
X005093Y008581D01*
X004618Y008264D02*
X000550Y008264D01*
X000550Y008422D02*
X004460Y008422D01*
X004301Y008581D02*
X003663Y008581D01*
X003816Y008739D02*
X004143Y008739D01*
X003984Y008898D02*
X003881Y008898D01*
X003900Y008105D02*
X004777Y008105D01*
X004935Y007947D02*
X003900Y007947D01*
X003900Y007788D02*
X005094Y007788D01*
X005252Y007630D02*
X003900Y007630D01*
X003900Y007471D02*
X005411Y007471D01*
X005569Y007313D02*
X003900Y007313D01*
X003849Y007154D02*
X005728Y007154D01*
X006203Y007471D02*
X006331Y007471D01*
X006361Y007313D02*
X006489Y007313D01*
X006520Y007154D02*
X017310Y007154D01*
X017468Y007313D02*
X007151Y007313D01*
X007309Y007471D02*
X017627Y007471D01*
X017785Y007630D02*
X007376Y007630D01*
X007400Y007788D02*
X017944Y007788D01*
X018102Y007947D02*
X007388Y007947D01*
X007448Y008105D02*
X018261Y008105D01*
X018419Y008264D02*
X007607Y008264D01*
X007608Y008422D02*
X018578Y008422D01*
X018736Y008581D02*
X007608Y008581D01*
X007608Y008739D02*
X018895Y008739D01*
X019053Y008898D02*
X007608Y008898D01*
X007608Y009056D02*
X019212Y009056D01*
X019370Y009215D02*
X007608Y009215D01*
X007608Y009373D02*
X019529Y009373D01*
X019687Y009532D02*
X007608Y009532D01*
X007608Y009690D02*
X019846Y009690D01*
X019982Y009849D02*
X007608Y009849D01*
X007608Y010007D02*
X020118Y010007D01*
X019780Y010166D02*
X007608Y010166D01*
X007608Y010324D02*
X019740Y010324D01*
X019192Y010483D02*
X007608Y010483D01*
X007608Y010641D02*
X019034Y010641D01*
X018875Y010800D02*
X007765Y010800D01*
X007672Y010707D02*
X007672Y010707D01*
X007923Y010958D02*
X018717Y010958D01*
X018558Y011117D02*
X008082Y011117D01*
X008240Y011275D02*
X018400Y011275D01*
X018241Y011434D02*
X008399Y011434D01*
X008557Y011592D02*
X018083Y011592D01*
X017924Y011751D02*
X008716Y011751D01*
X008874Y011909D02*
X017766Y011909D01*
X017607Y012068D02*
X009033Y012068D01*
X009191Y012226D02*
X017449Y012226D01*
X017290Y012385D02*
X009350Y012385D01*
X009508Y012543D02*
X017132Y012543D01*
X016973Y012702D02*
X009667Y012702D01*
X009825Y012860D02*
X016815Y012860D01*
X016656Y013019D02*
X009984Y013019D01*
X010142Y013177D02*
X016498Y013177D01*
X016339Y013336D02*
X010301Y013336D01*
X010459Y013494D02*
X016181Y013494D01*
X016022Y013653D02*
X015984Y013653D01*
X015656Y013653D02*
X010984Y013653D01*
X011229Y013811D02*
X015411Y013811D01*
X015312Y013970D02*
X011328Y013970D01*
X011370Y014128D02*
X015270Y014128D01*
X015270Y014287D02*
X011370Y014287D01*
X011306Y014445D02*
X015230Y014445D01*
X015071Y014604D02*
X011174Y014604D01*
X011050Y014762D02*
X014913Y014762D01*
X014754Y014921D02*
X011050Y014921D01*
X011050Y015079D02*
X014596Y015079D01*
X014437Y015238D02*
X011050Y015238D01*
X011050Y015396D02*
X014279Y015396D01*
X014120Y015555D02*
X011050Y015555D01*
X011050Y015713D02*
X014090Y015713D01*
X014090Y015872D02*
X011050Y015872D01*
X011050Y016030D02*
X014090Y016030D01*
X014090Y016189D02*
X011050Y016189D01*
X011068Y016347D02*
X014090Y016347D01*
X014090Y016506D02*
X011227Y016506D01*
X010893Y016823D02*
X010759Y016823D01*
X010753Y016809D02*
X010853Y017050D01*
X010853Y017310D01*
X010753Y017551D01*
X010710Y017594D01*
X011064Y017594D01*
X011021Y017551D01*
X010921Y017310D01*
X010921Y017050D01*
X010979Y016909D01*
X010725Y016654D01*
X010590Y016519D01*
X010590Y014680D01*
X010508Y014646D01*
X010428Y014566D01*
X010428Y016566D01*
X010569Y016625D01*
X010753Y016809D01*
X010735Y016664D02*
X010608Y016664D01*
X010590Y016506D02*
X010428Y016506D01*
X010428Y016347D02*
X010590Y016347D01*
X010590Y016189D02*
X010428Y016189D01*
X010428Y016030D02*
X010590Y016030D01*
X010590Y015872D02*
X010428Y015872D01*
X010428Y015713D02*
X010590Y015713D01*
X010590Y015555D02*
X010428Y015555D01*
X010428Y015396D02*
X010590Y015396D01*
X010590Y015238D02*
X010428Y015238D01*
X010428Y015079D02*
X010590Y015079D01*
X010590Y014921D02*
X010428Y014921D01*
X010428Y014762D02*
X010590Y014762D01*
X010466Y014604D02*
X010428Y014604D01*
X009968Y014714D02*
X009929Y014730D01*
X009711Y014730D01*
X009508Y014646D01*
X009354Y014492D01*
X009320Y014410D01*
X009286Y014492D01*
X009132Y014646D01*
X008929Y014730D01*
X008711Y014730D01*
X008508Y014646D01*
X008354Y014492D01*
X008320Y014410D01*
X008286Y014492D01*
X008132Y014646D01*
X007929Y014730D01*
X007711Y014730D01*
X007508Y014646D01*
X007354Y014492D01*
X007320Y014410D01*
X007286Y014492D01*
X007132Y014646D01*
X006929Y014730D01*
X006711Y014730D01*
X006508Y014646D01*
X006354Y014492D01*
X006320Y014410D01*
X006286Y014492D01*
X006132Y014646D01*
X006050Y014680D01*
X006050Y015397D01*
X008165Y017512D01*
X008165Y016630D01*
X008270Y016525D01*
X009370Y016525D01*
X009475Y016630D01*
X009475Y017594D01*
X009686Y017594D01*
X009643Y017551D01*
X009543Y017310D01*
X009543Y017050D01*
X009643Y016809D01*
X009827Y016625D01*
X009968Y016566D01*
X009968Y014714D01*
X009968Y014762D02*
X006050Y014762D01*
X006050Y014921D02*
X009968Y014921D01*
X009968Y015079D02*
X006050Y015079D01*
X006050Y015238D02*
X009968Y015238D01*
X009968Y015396D02*
X006050Y015396D01*
X006207Y015555D02*
X009968Y015555D01*
X009968Y015713D02*
X006366Y015713D01*
X006524Y015872D02*
X009968Y015872D01*
X009968Y016030D02*
X006683Y016030D01*
X006841Y016189D02*
X009968Y016189D01*
X009968Y016347D02*
X007000Y016347D01*
X007158Y016506D02*
X009968Y016506D01*
X009788Y016664D02*
X009475Y016664D01*
X009475Y016823D02*
X009637Y016823D01*
X009571Y016981D02*
X009475Y016981D01*
X009475Y017140D02*
X009543Y017140D01*
X009543Y017298D02*
X009475Y017298D01*
X009475Y017457D02*
X009604Y017457D01*
X010792Y017457D02*
X010981Y017457D01*
X010921Y017298D02*
X010853Y017298D01*
X010853Y017140D02*
X010921Y017140D01*
X010949Y016981D02*
X010825Y016981D01*
X011986Y016664D02*
X013665Y016664D01*
X013665Y016823D02*
X012137Y016823D01*
X012202Y016981D02*
X013569Y016981D01*
X013410Y017140D02*
X012231Y017140D01*
X012231Y017298D02*
X013252Y017298D01*
X013093Y017457D02*
X012170Y017457D01*
X013268Y017932D02*
X021125Y017932D01*
X021419Y017576D02*
X021546Y017576D01*
X021521Y017551D01*
X021421Y017310D01*
X021421Y017050D01*
X021521Y016809D01*
X021705Y016625D01*
X021846Y016566D01*
X021846Y015531D01*
X021011Y014696D01*
X020929Y014730D01*
X020711Y014730D01*
X020684Y014719D01*
X020793Y014828D01*
X020928Y014963D01*
X020928Y016566D01*
X021069Y016625D01*
X021253Y016809D01*
X021353Y017050D01*
X021353Y017310D01*
X021295Y017451D01*
X021419Y017576D01*
X021481Y017457D02*
X021300Y017457D01*
X021353Y017298D02*
X021421Y017298D01*
X021421Y017140D02*
X021353Y017140D01*
X021325Y016981D02*
X021449Y016981D01*
X021515Y016823D02*
X021259Y016823D01*
X021108Y016664D02*
X021666Y016664D01*
X021846Y016506D02*
X020928Y016506D01*
X020928Y016347D02*
X021846Y016347D01*
X021846Y016189D02*
X020928Y016189D01*
X020928Y016030D02*
X021846Y016030D01*
X021846Y015872D02*
X020928Y015872D01*
X020928Y015713D02*
X021846Y015713D01*
X021846Y015555D02*
X020928Y015555D01*
X020928Y015396D02*
X021711Y015396D01*
X021552Y015238D02*
X020928Y015238D01*
X020928Y015079D02*
X021394Y015079D01*
X021235Y014921D02*
X020886Y014921D01*
X020727Y014762D02*
X021077Y014762D01*
X021569Y014604D02*
X023398Y014604D01*
X023557Y014762D02*
X021727Y014762D01*
X021886Y014921D02*
X023715Y014921D01*
X023874Y015079D02*
X022044Y015079D01*
X022203Y015238D02*
X024032Y015238D01*
X024191Y015396D02*
X022306Y015396D01*
X022306Y015341D02*
X022306Y016566D01*
X022447Y016625D01*
X022631Y016809D01*
X022699Y016973D01*
X025835Y016973D01*
X025772Y016910D01*
X025705Y016910D01*
X025570Y016775D01*
X021083Y012288D01*
X020853Y012288D01*
X020812Y012386D01*
X020649Y012550D01*
X020435Y012638D01*
X020205Y012638D01*
X019991Y012550D01*
X019828Y012386D01*
X019740Y012173D01*
X019740Y011943D01*
X019828Y011729D01*
X019991Y011566D01*
X020205Y011478D01*
X020435Y011478D01*
X020649Y011566D01*
X020812Y011729D01*
X020853Y011828D01*
X021273Y011828D01*
X021408Y011963D01*
X025834Y016388D01*
X026042Y016180D01*
X025770Y015908D01*
X025770Y015452D01*
X026042Y015180D01*
X025770Y014908D01*
X025770Y014452D01*
X026042Y014180D01*
X025770Y013908D01*
X025770Y013452D01*
X026042Y013180D01*
X025770Y012908D01*
X025770Y012452D01*
X026042Y012180D01*
X025770Y011908D01*
X025770Y011452D01*
X026042Y011180D01*
X025770Y010908D01*
X025770Y010452D01*
X026042Y010180D01*
X025770Y009908D01*
X025770Y009452D01*
X026042Y009180D01*
X025770Y008908D01*
X025770Y008526D01*
X020004Y002760D01*
X019880Y002760D01*
X019701Y002939D01*
X019623Y003017D01*
X019520Y003060D01*
X017779Y003060D01*
X017676Y003017D01*
X017561Y002903D01*
X017483Y002824D01*
X017440Y002721D01*
X017440Y002494D01*
X017434Y002509D01*
X017271Y002672D01*
X017172Y002713D01*
X017172Y005585D01*
X019740Y008153D01*
X019740Y007205D01*
X019845Y007100D01*
X020795Y007100D01*
X020900Y007205D01*
X020900Y008155D01*
X020795Y008260D01*
X020675Y008260D01*
X020965Y008550D01*
X021100Y008685D01*
X021100Y009675D01*
X020675Y010100D01*
X020795Y010100D01*
X020900Y010205D01*
X020900Y011155D01*
X020795Y011260D01*
X019845Y011260D01*
X019740Y011155D01*
X019740Y010910D01*
X019415Y010910D01*
X016684Y013641D01*
X016711Y013630D01*
X016929Y013630D01*
X017132Y013714D01*
X017286Y013868D01*
X017320Y013950D01*
X017354Y013868D01*
X017508Y013714D01*
X017711Y013630D01*
X017929Y013630D01*
X018132Y013714D01*
X018286Y013868D01*
X018320Y013950D01*
X018354Y013868D01*
X018508Y013714D01*
X018711Y013630D01*
X018929Y013630D01*
X019132Y013714D01*
X019286Y013868D01*
X019320Y013950D01*
X019354Y013868D01*
X019508Y013714D01*
X019711Y013630D01*
X019929Y013630D01*
X020132Y013714D01*
X020286Y013868D01*
X020320Y013950D01*
X020354Y013868D01*
X020508Y013714D01*
X020711Y013630D01*
X020929Y013630D01*
X021132Y013714D01*
X021286Y013868D01*
X021370Y014071D01*
X021370Y014289D01*
X021336Y014371D01*
X022306Y015341D01*
X022306Y015555D02*
X024349Y015555D01*
X024508Y015713D02*
X022306Y015713D01*
X022306Y015872D02*
X024666Y015872D01*
X024825Y016030D02*
X022306Y016030D01*
X022306Y016189D02*
X024983Y016189D01*
X025142Y016347D02*
X022306Y016347D01*
X022306Y016506D02*
X025300Y016506D01*
X025459Y016664D02*
X022486Y016664D01*
X022637Y016823D02*
X025617Y016823D01*
X025792Y016347D02*
X025875Y016347D01*
X026034Y016189D02*
X025634Y016189D01*
X025475Y016030D02*
X025892Y016030D01*
X025770Y015872D02*
X025317Y015872D01*
X025158Y015713D02*
X025770Y015713D01*
X025770Y015555D02*
X025000Y015555D01*
X024841Y015396D02*
X025826Y015396D01*
X025985Y015238D02*
X024683Y015238D01*
X024524Y015079D02*
X025941Y015079D01*
X025783Y014921D02*
X024366Y014921D01*
X024207Y014762D02*
X025770Y014762D01*
X025770Y014604D02*
X024049Y014604D01*
X023890Y014445D02*
X025777Y014445D01*
X025936Y014287D02*
X023732Y014287D01*
X023573Y014128D02*
X025990Y014128D01*
X025832Y013970D02*
X023415Y013970D01*
X023256Y013811D02*
X025770Y013811D01*
X025770Y013653D02*
X023098Y013653D01*
X022939Y013494D02*
X025770Y013494D01*
X025887Y013336D02*
X022781Y013336D01*
X022622Y013177D02*
X026039Y013177D01*
X025881Y013019D02*
X022464Y013019D01*
X022305Y012860D02*
X025770Y012860D01*
X025770Y012702D02*
X022147Y012702D01*
X021988Y012543D02*
X025770Y012543D01*
X025838Y012385D02*
X021830Y012385D01*
X021671Y012226D02*
X025996Y012226D01*
X025930Y012068D02*
X021513Y012068D01*
X021354Y011909D02*
X025771Y011909D01*
X025770Y011751D02*
X020820Y011751D01*
X020674Y011592D02*
X025770Y011592D01*
X025789Y011434D02*
X018892Y011434D01*
X018733Y011592D02*
X019966Y011592D01*
X019820Y011751D02*
X018575Y011751D01*
X018416Y011909D02*
X019754Y011909D01*
X019740Y012068D02*
X018258Y012068D01*
X018099Y012226D02*
X019762Y012226D01*
X019827Y012385D02*
X017941Y012385D01*
X017782Y012543D02*
X019985Y012543D01*
X020655Y012543D02*
X021338Y012543D01*
X021496Y012702D02*
X017624Y012702D01*
X017465Y012860D02*
X021655Y012860D01*
X021813Y013019D02*
X017307Y013019D01*
X017148Y013177D02*
X021972Y013177D01*
X022130Y013336D02*
X016990Y013336D01*
X016831Y013494D02*
X022289Y013494D01*
X022447Y013653D02*
X020984Y013653D01*
X021229Y013811D02*
X022606Y013811D01*
X022764Y013970D02*
X021328Y013970D01*
X021370Y014128D02*
X022923Y014128D01*
X023081Y014287D02*
X021370Y014287D01*
X021410Y014445D02*
X023240Y014445D01*
X020656Y013653D02*
X019984Y013653D01*
X020229Y013811D02*
X020411Y013811D01*
X019656Y013653D02*
X018984Y013653D01*
X019229Y013811D02*
X019411Y013811D01*
X019334Y014445D02*
X019306Y014445D01*
X019174Y014604D02*
X019466Y014604D01*
X019050Y014762D02*
X020077Y014762D01*
X020235Y014921D02*
X019050Y014921D01*
X019050Y015079D02*
X020394Y015079D01*
X020468Y015238D02*
X019050Y015238D01*
X019050Y015396D02*
X020468Y015396D01*
X020468Y015555D02*
X019050Y015555D01*
X019050Y015713D02*
X020468Y015713D01*
X020468Y015872D02*
X019050Y015872D01*
X019120Y016030D02*
X020468Y016030D01*
X020468Y016189D02*
X019279Y016189D01*
X019437Y016347D02*
X020468Y016347D01*
X020468Y016506D02*
X019550Y016506D01*
X019975Y016664D02*
X020288Y016664D01*
X020137Y016823D02*
X019975Y016823D01*
X019975Y016981D02*
X020071Y016981D01*
X020043Y017140D02*
X019975Y017140D01*
X019975Y017298D02*
X020043Y017298D01*
X020104Y017457D02*
X019975Y017457D01*
X019975Y017615D02*
X020207Y017615D01*
X020419Y017774D02*
X019931Y017774D01*
X018709Y017774D02*
X017355Y017774D01*
X017567Y017615D02*
X018665Y017615D01*
X018665Y017457D02*
X017670Y017457D01*
X017731Y017298D02*
X018665Y017298D01*
X018665Y017140D02*
X017731Y017140D01*
X017702Y016981D02*
X018665Y016981D01*
X018665Y016823D02*
X017637Y016823D01*
X017486Y016664D02*
X018665Y016664D01*
X018945Y016506D02*
X017306Y016506D01*
X017306Y016347D02*
X018787Y016347D01*
X018628Y016189D02*
X017306Y016189D01*
X017306Y016030D02*
X018590Y016030D01*
X018590Y015872D02*
X017306Y015872D01*
X017306Y015713D02*
X018590Y015713D01*
X018590Y015555D02*
X017306Y015555D01*
X017306Y015396D02*
X018590Y015396D01*
X018590Y015238D02*
X017306Y015238D01*
X017306Y015079D02*
X018590Y015079D01*
X018590Y014921D02*
X017405Y014921D01*
X017563Y014762D02*
X018590Y014762D01*
X018466Y014604D02*
X018174Y014604D01*
X018306Y014445D02*
X018334Y014445D01*
X018411Y013811D02*
X018229Y013811D01*
X017984Y013653D02*
X018656Y013653D01*
X017656Y013653D02*
X016984Y013653D01*
X017229Y013811D02*
X017411Y013811D01*
X016913Y014762D02*
X016563Y014762D01*
X016405Y014921D02*
X016846Y014921D01*
X016846Y015079D02*
X016246Y015079D01*
X016088Y015238D02*
X016846Y015238D01*
X016846Y015396D02*
X015929Y015396D01*
X015928Y015555D02*
X016846Y015555D01*
X016846Y015713D02*
X015928Y015713D01*
X015928Y015872D02*
X016846Y015872D01*
X016846Y016030D02*
X015928Y016030D01*
X015928Y016189D02*
X016846Y016189D01*
X016846Y016347D02*
X015928Y016347D01*
X015928Y016506D02*
X016846Y016506D01*
X016666Y016664D02*
X016108Y016664D01*
X016259Y016823D02*
X016515Y016823D01*
X016449Y016981D02*
X016325Y016981D01*
X016353Y017140D02*
X016421Y017140D01*
X016421Y017298D02*
X016353Y017298D01*
X016292Y017457D02*
X016481Y017457D01*
X016585Y017615D02*
X016189Y017615D01*
X015977Y017774D02*
X016797Y017774D01*
X015419Y017774D02*
X014931Y017774D01*
X014975Y017615D02*
X015207Y017615D01*
X015104Y017457D02*
X014975Y017457D01*
X014975Y017298D02*
X015043Y017298D01*
X015043Y017140D02*
X014975Y017140D01*
X014975Y016981D02*
X015071Y016981D01*
X015137Y016823D02*
X014975Y016823D01*
X014975Y016664D02*
X015288Y016664D01*
X015468Y016506D02*
X014550Y016506D01*
X014550Y016347D02*
X015468Y016347D01*
X015468Y016189D02*
X014550Y016189D01*
X014550Y016030D02*
X015468Y016030D01*
X015468Y015872D02*
X014550Y015872D01*
X014612Y015713D02*
X015468Y015713D01*
X015468Y015555D02*
X014771Y015555D01*
X014929Y015396D02*
X015468Y015396D01*
X015468Y015238D02*
X015088Y015238D01*
X015246Y015079D02*
X015596Y015079D01*
X015754Y014921D02*
X015405Y014921D01*
X015563Y014762D02*
X015913Y014762D01*
X013665Y017615D02*
X013585Y017615D01*
X013709Y017774D02*
X013427Y017774D01*
X009466Y014604D02*
X009174Y014604D01*
X009306Y014445D02*
X009334Y014445D01*
X009411Y013811D02*
X009229Y013811D01*
X008984Y013653D02*
X009656Y013653D01*
X009809Y013494D02*
X006381Y013494D01*
X006223Y013653D02*
X006656Y013653D01*
X006411Y013811D02*
X006229Y013811D01*
X006540Y013336D02*
X009650Y013336D01*
X009492Y013177D02*
X006698Y013177D01*
X006857Y013019D02*
X009333Y013019D01*
X009175Y012860D02*
X007015Y012860D01*
X007353Y012702D02*
X009016Y012702D01*
X008858Y012543D02*
X007400Y012543D01*
X007400Y012385D02*
X008699Y012385D01*
X008541Y012226D02*
X007400Y012226D01*
X007400Y012068D02*
X008382Y012068D01*
X008224Y011909D02*
X007400Y011909D01*
X007400Y011751D02*
X008065Y011751D01*
X007907Y011592D02*
X004173Y011592D01*
X004209Y011434D02*
X007748Y011434D01*
X007590Y011275D02*
X007167Y011275D01*
X007318Y011117D02*
X007431Y011117D01*
X006473Y011275D02*
X004209Y011275D01*
X004209Y011117D02*
X006322Y011117D01*
X006257Y010958D02*
X004209Y010958D01*
X004209Y010800D02*
X006240Y010800D01*
X006259Y010641D02*
X004209Y010641D01*
X004209Y010483D02*
X006325Y010483D01*
X006478Y010324D02*
X004209Y010324D01*
X004209Y010166D02*
X007148Y010166D01*
X006240Y011751D02*
X004023Y011751D01*
X003886Y011909D02*
X006240Y011909D01*
X006240Y012068D02*
X003900Y012068D01*
X003878Y012226D02*
X006240Y012226D01*
X006240Y012385D02*
X003813Y012385D01*
X003655Y012543D02*
X006240Y012543D01*
X006287Y012702D02*
X000550Y012702D01*
X000550Y012860D02*
X006365Y012860D01*
X006206Y013019D02*
X000550Y013019D01*
X000550Y013177D02*
X006048Y013177D01*
X005889Y013336D02*
X000550Y013336D01*
X000550Y013494D02*
X005731Y013494D01*
X005590Y013653D02*
X000550Y013653D01*
X000550Y013811D02*
X005411Y013811D01*
X005312Y013970D02*
X000550Y013970D01*
X000550Y014128D02*
X005270Y014128D01*
X005270Y014287D02*
X000550Y014287D01*
X000550Y014445D02*
X005334Y014445D01*
X005466Y014604D02*
X000550Y014604D01*
X000550Y014762D02*
X005590Y014762D01*
X005590Y014921D02*
X000550Y014921D01*
X000550Y015079D02*
X005590Y015079D01*
X005590Y015238D02*
X000550Y015238D01*
X000550Y015396D02*
X005590Y015396D01*
X005433Y015555D02*
X000550Y015555D01*
X000550Y015713D02*
X005274Y015713D01*
X005116Y015872D02*
X000550Y015872D01*
X000550Y016030D02*
X004957Y016030D01*
X004799Y016189D02*
X000550Y016189D01*
X000550Y016347D02*
X004640Y016347D01*
X004482Y016506D02*
X000550Y016506D01*
X000550Y016664D02*
X003165Y016664D01*
X003165Y016823D02*
X000550Y016823D01*
X000550Y016981D02*
X003165Y016981D01*
X003165Y017140D02*
X000550Y017140D01*
X000550Y017298D02*
X003165Y017298D01*
X003165Y017457D02*
X000550Y017457D01*
X000550Y017615D02*
X003165Y017615D01*
X003209Y017774D02*
X000550Y017774D01*
X000550Y017932D02*
X007934Y017932D01*
X007776Y017774D02*
X006855Y017774D01*
X007067Y017615D02*
X007617Y017615D01*
X007459Y017457D02*
X007170Y017457D01*
X007231Y017298D02*
X007300Y017298D01*
X007634Y016981D02*
X008165Y016981D01*
X008165Y016823D02*
X007475Y016823D01*
X007317Y016664D02*
X008165Y016664D01*
X008165Y017140D02*
X007792Y017140D01*
X007951Y017298D02*
X008165Y017298D01*
X008165Y017457D02*
X008109Y017457D01*
X006508Y016506D02*
X005132Y016506D01*
X005291Y016347D02*
X006349Y016347D01*
X006191Y016189D02*
X005449Y016189D01*
X005608Y016030D02*
X006032Y016030D01*
X005874Y015872D02*
X005766Y015872D01*
X005608Y016664D02*
X006166Y016664D01*
X006015Y016823D02*
X005759Y016823D01*
X005825Y016981D02*
X005949Y016981D01*
X005921Y017140D02*
X005853Y017140D01*
X005853Y017298D02*
X005921Y017298D01*
X005981Y017457D02*
X005792Y017457D01*
X005689Y017615D02*
X006085Y017615D01*
X006297Y017774D02*
X005477Y017774D01*
X004919Y017774D02*
X004431Y017774D01*
X004475Y017615D02*
X004707Y017615D01*
X004604Y017457D02*
X004475Y017457D01*
X004475Y017298D02*
X004543Y017298D01*
X004543Y017140D02*
X004498Y017140D01*
X006174Y014604D02*
X006466Y014604D01*
X006334Y014445D02*
X006306Y014445D01*
X007174Y014604D02*
X007466Y014604D01*
X007334Y014445D02*
X007306Y014445D01*
X007229Y013811D02*
X007411Y013811D01*
X007656Y013653D02*
X006984Y013653D01*
X007984Y013653D02*
X008656Y013653D01*
X008411Y013811D02*
X008229Y013811D01*
X008306Y014445D02*
X008334Y014445D01*
X008466Y014604D02*
X008174Y014604D01*
X010618Y013653D02*
X010656Y013653D01*
X003649Y011275D02*
X000550Y011275D01*
X000550Y011117D02*
X002740Y011117D01*
X002740Y010958D02*
X000550Y010958D01*
X000550Y010800D02*
X002740Y010800D01*
X002740Y010641D02*
X000550Y010641D01*
X000550Y010483D02*
X002740Y010483D01*
X002740Y010324D02*
X000550Y010324D01*
X000550Y010166D02*
X002780Y010166D01*
X003548Y011434D02*
X000550Y011434D01*
X000550Y011592D02*
X002966Y011592D01*
X002820Y011751D02*
X000550Y011751D01*
X000550Y011909D02*
X002754Y011909D01*
X002740Y012068D02*
X000550Y012068D01*
X000550Y012226D02*
X002762Y012226D01*
X002827Y012385D02*
X000550Y012385D01*
X000550Y012543D02*
X002985Y012543D01*
X005569Y008105D02*
X006318Y008105D01*
X006252Y007947D02*
X005727Y007947D01*
X005886Y007788D02*
X006240Y007788D01*
X006264Y007630D02*
X006044Y007630D01*
X006678Y006996D02*
X017151Y006996D01*
X016993Y006837D02*
X006837Y006837D01*
X006995Y006679D02*
X016834Y006679D01*
X016676Y006520D02*
X007154Y006520D01*
X007312Y006362D02*
X016517Y006362D01*
X016359Y006203D02*
X007471Y006203D01*
X007629Y006045D02*
X016200Y006045D01*
X016042Y005886D02*
X007788Y005886D01*
X007946Y005728D02*
X015883Y005728D01*
X015725Y005569D02*
X008105Y005569D01*
X008263Y005411D02*
X015566Y005411D01*
X015408Y005252D02*
X008422Y005252D01*
X008580Y005094D02*
X015249Y005094D01*
X015091Y004935D02*
X008739Y004935D01*
X008897Y004777D02*
X014932Y004777D01*
X014774Y004618D02*
X009056Y004618D01*
X009214Y004460D02*
X014615Y004460D01*
X014457Y004301D02*
X009373Y004301D01*
X009531Y004143D02*
X014298Y004143D01*
X014140Y003984D02*
X009690Y003984D01*
X009848Y003826D02*
X013981Y003826D01*
X013823Y003667D02*
X010007Y003667D01*
X010165Y003509D02*
X013664Y003509D01*
X013506Y003350D02*
X010324Y003350D01*
X010482Y003192D02*
X013347Y003192D01*
X013212Y003033D02*
X010641Y003033D01*
X010799Y002875D02*
X013212Y002875D01*
X013052Y002716D02*
X012454Y002716D01*
X012613Y002558D02*
X012893Y002558D01*
X012824Y002399D02*
X012682Y002399D01*
X012719Y002241D02*
X012787Y002241D01*
X012787Y002082D02*
X012719Y002082D01*
X012667Y001924D02*
X012839Y001924D01*
X012931Y001765D02*
X012575Y001765D01*
X011446Y002399D02*
X011275Y002399D01*
X011116Y002558D02*
X011515Y002558D01*
X011674Y002716D02*
X010958Y002716D01*
X010483Y002399D02*
X010400Y002399D01*
X010400Y002241D02*
X010641Y002241D01*
X010800Y002082D02*
X010400Y002082D01*
X010400Y001924D02*
X010958Y001924D01*
X011117Y001765D02*
X010400Y001765D01*
X010301Y001607D02*
X011275Y001607D01*
X010007Y002875D02*
X000550Y002875D01*
X000550Y003033D02*
X009849Y003033D01*
X009690Y003192D02*
X000550Y003192D01*
X000550Y003350D02*
X009532Y003350D01*
X009373Y003509D02*
X000550Y003509D01*
X000550Y003667D02*
X009215Y003667D01*
X009056Y003826D02*
X000550Y003826D01*
X000550Y003984D02*
X008898Y003984D01*
X013672Y002866D02*
X019743Y008936D01*
X019781Y008844D01*
X016847Y005910D01*
X016712Y005775D01*
X016712Y002713D01*
X016614Y002672D01*
X016450Y002509D01*
X016362Y002295D01*
X016362Y002065D01*
X016450Y001851D01*
X016540Y001762D01*
X015475Y001762D01*
X015475Y002730D01*
X015370Y002835D01*
X014270Y002835D01*
X014165Y002730D01*
X014165Y001762D01*
X013950Y001762D01*
X013997Y001809D01*
X014097Y002050D01*
X014097Y002310D01*
X013997Y002551D01*
X013813Y002735D01*
X013672Y002794D01*
X013672Y002866D01*
X013681Y002875D02*
X016712Y002875D01*
X016712Y003033D02*
X013839Y003033D01*
X013998Y003192D02*
X016712Y003192D01*
X016712Y003350D02*
X014156Y003350D01*
X014315Y003509D02*
X016712Y003509D01*
X016712Y003667D02*
X014473Y003667D01*
X014632Y003826D02*
X016712Y003826D01*
X016712Y003984D02*
X014790Y003984D01*
X014949Y004143D02*
X016712Y004143D01*
X016712Y004301D02*
X015107Y004301D01*
X015266Y004460D02*
X016712Y004460D01*
X016712Y004618D02*
X015424Y004618D01*
X015583Y004777D02*
X016712Y004777D01*
X016712Y004935D02*
X015741Y004935D01*
X015900Y005094D02*
X016712Y005094D01*
X016712Y005252D02*
X016058Y005252D01*
X016217Y005411D02*
X016712Y005411D01*
X016712Y005569D02*
X016375Y005569D01*
X016534Y005728D02*
X016712Y005728D01*
X016692Y005886D02*
X016823Y005886D01*
X016851Y006045D02*
X016981Y006045D01*
X017009Y006203D02*
X017140Y006203D01*
X017168Y006362D02*
X017298Y006362D01*
X017326Y006520D02*
X017457Y006520D01*
X017485Y006679D02*
X017615Y006679D01*
X017643Y006837D02*
X017774Y006837D01*
X017802Y006996D02*
X017932Y006996D01*
X017960Y007154D02*
X018091Y007154D01*
X018119Y007313D02*
X018249Y007313D01*
X018277Y007471D02*
X018408Y007471D01*
X018436Y007630D02*
X018566Y007630D01*
X018594Y007788D02*
X018725Y007788D01*
X018753Y007947D02*
X018883Y007947D01*
X018911Y008105D02*
X019042Y008105D01*
X019070Y008264D02*
X019200Y008264D01*
X019228Y008422D02*
X019359Y008422D01*
X019387Y008581D02*
X019517Y008581D01*
X019545Y008739D02*
X019676Y008739D01*
X019704Y008898D02*
X019759Y008898D01*
X020106Y008519D02*
X020205Y008478D01*
X020243Y008478D01*
X020090Y008325D01*
X020090Y008260D01*
X019847Y008260D01*
X020106Y008519D01*
X020187Y008422D02*
X020009Y008422D01*
X020090Y008264D02*
X019851Y008264D01*
X019740Y008105D02*
X019692Y008105D01*
X019740Y007947D02*
X019534Y007947D01*
X019375Y007788D02*
X019740Y007788D01*
X019740Y007630D02*
X019217Y007630D01*
X019058Y007471D02*
X019740Y007471D01*
X019740Y007313D02*
X018900Y007313D01*
X018741Y007154D02*
X019791Y007154D01*
X020849Y007154D02*
X024398Y007154D01*
X024240Y006996D02*
X018583Y006996D01*
X018424Y006837D02*
X024081Y006837D01*
X023923Y006679D02*
X018266Y006679D01*
X018107Y006520D02*
X023764Y006520D01*
X023606Y006362D02*
X017949Y006362D01*
X017790Y006203D02*
X023447Y006203D01*
X023289Y006045D02*
X017632Y006045D01*
X017473Y005886D02*
X023130Y005886D01*
X022972Y005728D02*
X017315Y005728D01*
X017172Y005569D02*
X022813Y005569D01*
X022655Y005411D02*
X017172Y005411D01*
X017172Y005252D02*
X022496Y005252D01*
X022338Y005094D02*
X017172Y005094D01*
X017172Y004935D02*
X022179Y004935D01*
X022021Y004777D02*
X017172Y004777D01*
X017172Y004618D02*
X021862Y004618D01*
X021704Y004460D02*
X017172Y004460D01*
X017172Y004301D02*
X021545Y004301D01*
X021387Y004143D02*
X017172Y004143D01*
X017172Y003984D02*
X021228Y003984D01*
X021070Y003826D02*
X017172Y003826D01*
X017172Y003667D02*
X020911Y003667D01*
X020753Y003509D02*
X017172Y003509D01*
X017172Y003350D02*
X020594Y003350D01*
X020436Y003192D02*
X017172Y003192D01*
X017172Y003033D02*
X017714Y003033D01*
X017533Y002875D02*
X017172Y002875D01*
X017172Y002716D02*
X017440Y002716D01*
X017440Y002558D02*
X017385Y002558D01*
X016712Y002716D02*
X015475Y002716D01*
X015475Y002558D02*
X016499Y002558D01*
X016405Y002399D02*
X015475Y002399D01*
X015475Y002241D02*
X016362Y002241D01*
X016362Y002082D02*
X015475Y002082D01*
X015475Y001924D02*
X016421Y001924D01*
X016537Y001765D02*
X015475Y001765D01*
X014165Y001765D02*
X013953Y001765D01*
X014045Y001924D02*
X014165Y001924D01*
X014165Y002082D02*
X014097Y002082D01*
X014097Y002241D02*
X014165Y002241D01*
X014165Y002399D02*
X014060Y002399D01*
X013991Y002558D02*
X014165Y002558D01*
X014165Y002716D02*
X013832Y002716D01*
X017471Y001462D02*
X017740Y001732D01*
X017740Y001705D01*
X017845Y001600D01*
X018090Y001600D01*
X018090Y001535D01*
X018163Y001462D01*
X017471Y001462D01*
X017615Y001607D02*
X017839Y001607D01*
X018900Y001860D02*
X018900Y002500D01*
X019348Y002500D01*
X019418Y002430D01*
X019362Y002295D01*
X019362Y002065D01*
X019447Y001860D01*
X018900Y001860D01*
X018900Y001924D02*
X019421Y001924D01*
X019362Y002082D02*
X018900Y002082D01*
X018900Y002241D02*
X019362Y002241D01*
X019405Y002399D02*
X018900Y002399D01*
X019585Y003033D02*
X020277Y003033D01*
X020119Y002875D02*
X019766Y002875D01*
X020466Y002430D02*
X022810Y004774D01*
X022810Y004469D01*
X023109Y004170D01*
X023531Y004170D01*
X023801Y004440D01*
X024212Y004440D01*
X024212Y002713D01*
X024114Y002672D01*
X023950Y002509D01*
X023862Y002295D01*
X023862Y002065D01*
X023947Y001860D01*
X021900Y001860D01*
X021900Y002655D01*
X021795Y002760D01*
X020845Y002760D01*
X020740Y002655D01*
X020740Y001860D01*
X020437Y001860D01*
X020522Y002065D01*
X020522Y002295D01*
X020466Y002430D01*
X020479Y002399D02*
X020740Y002399D01*
X020740Y002241D02*
X020522Y002241D01*
X020522Y002082D02*
X020740Y002082D01*
X020740Y001924D02*
X020464Y001924D01*
X020593Y002558D02*
X020740Y002558D01*
X020752Y002716D02*
X020801Y002716D01*
X020910Y002875D02*
X024212Y002875D01*
X024212Y003033D02*
X021069Y003033D01*
X021227Y003192D02*
X024212Y003192D01*
X024212Y003350D02*
X021386Y003350D01*
X021544Y003509D02*
X024212Y003509D01*
X024212Y003667D02*
X021703Y003667D01*
X021861Y003826D02*
X024212Y003826D01*
X024212Y003984D02*
X022020Y003984D01*
X022178Y004143D02*
X024212Y004143D01*
X024212Y004301D02*
X023662Y004301D01*
X023801Y004920D02*
X023531Y005190D01*
X023226Y005190D01*
X025770Y007734D01*
X025770Y007452D01*
X026092Y007130D01*
X026548Y007130D01*
X026820Y007402D01*
X027092Y007130D01*
X027548Y007130D01*
X027620Y007203D01*
X027620Y007064D01*
X024840Y005136D01*
X024606Y005136D01*
X024500Y005030D01*
X024500Y004920D01*
X023801Y004920D01*
X023786Y004935D02*
X024500Y004935D01*
X024563Y005094D02*
X023628Y005094D01*
X023288Y005252D02*
X025007Y005252D01*
X025236Y005411D02*
X023446Y005411D01*
X023605Y005569D02*
X025464Y005569D01*
X025693Y005728D02*
X023763Y005728D01*
X023922Y005886D02*
X025921Y005886D01*
X026150Y006045D02*
X024080Y006045D01*
X024239Y006203D02*
X026378Y006203D01*
X026607Y006362D02*
X024397Y006362D01*
X024556Y006520D02*
X026835Y006520D01*
X027064Y006679D02*
X024714Y006679D01*
X024873Y006837D02*
X027292Y006837D01*
X027521Y006996D02*
X025031Y006996D01*
X025190Y007154D02*
X026068Y007154D01*
X025910Y007313D02*
X025348Y007313D01*
X025507Y007471D02*
X025770Y007471D01*
X025770Y007630D02*
X025665Y007630D01*
X025191Y007947D02*
X020900Y007947D01*
X020900Y008105D02*
X025349Y008105D01*
X025508Y008264D02*
X020679Y008264D01*
X020837Y008422D02*
X025666Y008422D01*
X025770Y008581D02*
X020996Y008581D01*
X021100Y008739D02*
X025770Y008739D01*
X025770Y008898D02*
X021100Y008898D01*
X021100Y009056D02*
X025918Y009056D01*
X026008Y009215D02*
X021100Y009215D01*
X021100Y009373D02*
X025849Y009373D01*
X025770Y009532D02*
X021100Y009532D01*
X021085Y009690D02*
X025770Y009690D01*
X025770Y009849D02*
X020927Y009849D01*
X020768Y010007D02*
X025869Y010007D01*
X026028Y010166D02*
X020860Y010166D01*
X020900Y010324D02*
X025898Y010324D01*
X025770Y010483D02*
X020900Y010483D01*
X020900Y010641D02*
X025770Y010641D01*
X025770Y010800D02*
X020900Y010800D01*
X020900Y010958D02*
X025820Y010958D01*
X025979Y011117D02*
X020900Y011117D01*
X019740Y011117D02*
X019209Y011117D01*
X019050Y011275D02*
X025947Y011275D01*
X026598Y011180D02*
X026820Y010958D01*
X027042Y011180D01*
X026820Y011402D01*
X026598Y011180D01*
X026661Y011117D02*
X026979Y011117D01*
X026947Y011275D02*
X026693Y011275D01*
X026820Y010958D02*
X026820Y010958D01*
X027661Y011117D02*
X028320Y011117D01*
X028320Y011275D02*
X027693Y011275D01*
X027851Y011434D02*
X028320Y011434D01*
X028320Y011592D02*
X027870Y011592D01*
X027870Y011751D02*
X028320Y011751D01*
X028320Y011909D02*
X027869Y011909D01*
X027710Y012068D02*
X028320Y012068D01*
X028320Y012226D02*
X027644Y012226D01*
X027802Y012385D02*
X028320Y012385D01*
X028320Y012543D02*
X027870Y012543D01*
X027870Y012702D02*
X028320Y012702D01*
X028320Y012860D02*
X027870Y012860D01*
X027984Y013019D02*
X028320Y013019D01*
X028320Y013177D02*
X028142Y013177D01*
X028275Y013336D02*
X028320Y013336D01*
X028320Y013494D02*
X028275Y013494D01*
X028275Y013653D02*
X028320Y013653D01*
X028320Y013811D02*
X028275Y013811D01*
X028275Y013970D02*
X028320Y013970D01*
X028320Y014128D02*
X028275Y014128D01*
X028275Y014287D02*
X028320Y014287D01*
X028320Y014445D02*
X028275Y014445D01*
X028275Y014604D02*
X028320Y014604D01*
X028320Y014762D02*
X028275Y014762D01*
X028275Y014921D02*
X028320Y014921D01*
X028320Y015079D02*
X028275Y015079D01*
X028275Y015238D02*
X028320Y015238D01*
X028320Y015396D02*
X028275Y015396D01*
X028275Y015555D02*
X028320Y015555D01*
X028320Y015713D02*
X028275Y015713D01*
X028275Y015872D02*
X028320Y015872D01*
X028320Y016030D02*
X028275Y016030D01*
X028275Y016189D02*
X028320Y016189D01*
X028320Y016347D02*
X028275Y016347D01*
X028275Y016506D02*
X028320Y016506D01*
X028320Y016664D02*
X028275Y016664D01*
X028275Y016823D02*
X028320Y016823D01*
X028320Y016981D02*
X028275Y016981D01*
X028229Y017140D02*
X028320Y017140D01*
X028320Y017298D02*
X028070Y017298D01*
X027912Y017457D02*
X028320Y017457D01*
X028320Y017615D02*
X027753Y017615D01*
X027595Y017774D02*
X028320Y017774D01*
X028320Y017932D02*
X027436Y017932D01*
X027125Y017286D02*
X027040Y017286D01*
X027095Y017230D01*
X027180Y017230D01*
X027125Y017286D01*
X028320Y018091D02*
X000550Y018091D01*
X000550Y018249D02*
X028320Y018249D01*
X028320Y018408D02*
X000550Y018408D01*
X000550Y018566D02*
X028320Y018566D01*
X028320Y018725D02*
X000550Y018725D01*
X000550Y018883D02*
X028320Y018883D01*
X028320Y019042D02*
X000550Y019042D01*
X000320Y019656D02*
X000320Y019680D01*
X028320Y019680D01*
X028320Y019656D01*
X000320Y019656D01*
X000320Y019676D02*
X028320Y019676D01*
X023889Y017576D02*
X023889Y017453D01*
X023897Y017433D01*
X022680Y017433D01*
X022631Y017551D01*
X022606Y017576D01*
X023889Y017576D01*
X023889Y017457D02*
X022670Y017457D01*
X026598Y016180D02*
X026820Y015958D01*
X027042Y016180D01*
X026820Y016402D01*
X026598Y016180D01*
X026606Y016189D02*
X027034Y016189D01*
X026892Y016030D02*
X026748Y016030D01*
X026765Y016347D02*
X026875Y016347D01*
X027598Y016180D02*
X027615Y016163D01*
X027615Y016197D01*
X027598Y016180D01*
X027606Y016189D02*
X027615Y016189D01*
X026826Y015396D02*
X026814Y015396D01*
X026820Y015402D02*
X026598Y015180D01*
X026820Y014958D01*
X027042Y015180D01*
X026820Y015402D01*
X026655Y015238D02*
X026985Y015238D01*
X026941Y015079D02*
X026699Y015079D01*
X026820Y014402D02*
X027042Y014180D01*
X026820Y013958D01*
X026598Y014180D01*
X026820Y014402D01*
X026704Y014287D02*
X026936Y014287D01*
X026990Y014128D02*
X026650Y014128D01*
X026808Y013970D02*
X026832Y013970D01*
X026820Y013402D02*
X027042Y013180D01*
X026820Y012958D01*
X026598Y013180D01*
X026820Y013402D01*
X026753Y013336D02*
X026887Y013336D01*
X027039Y013177D02*
X026601Y013177D01*
X026759Y013019D02*
X026881Y013019D01*
X026820Y012402D02*
X027042Y012180D01*
X026820Y011958D01*
X026598Y012180D01*
X026820Y012402D01*
X026802Y012385D02*
X026838Y012385D01*
X026996Y012226D02*
X026644Y012226D01*
X026710Y012068D02*
X026930Y012068D01*
X027820Y010958D02*
X028320Y010958D01*
X028320Y010800D02*
X027870Y010800D01*
X027870Y010641D02*
X028320Y010641D01*
X028320Y010483D02*
X027870Y010483D01*
X028001Y010324D02*
X028320Y010324D01*
X028320Y010166D02*
X028160Y010166D01*
X028318Y010007D02*
X028320Y010007D01*
X027985Y009690D02*
X027870Y009690D01*
X027870Y009805D02*
X027870Y009455D01*
X028044Y009281D01*
X028044Y009631D01*
X027870Y009805D01*
X027870Y009532D02*
X028044Y009532D01*
X028044Y009373D02*
X027952Y009373D01*
X027042Y009180D02*
X026820Y008958D01*
X026598Y009180D01*
X026820Y009402D01*
X027042Y009180D01*
X027008Y009215D02*
X026632Y009215D01*
X026722Y009056D02*
X026918Y009056D01*
X026849Y009373D02*
X026791Y009373D01*
X026820Y009958D02*
X026598Y010180D01*
X026820Y010402D01*
X027042Y010180D01*
X026820Y009958D01*
X026771Y010007D02*
X026869Y010007D01*
X027028Y010166D02*
X026612Y010166D01*
X026742Y010324D02*
X026898Y010324D01*
X026820Y008402D02*
X027042Y008180D01*
X026820Y007958D01*
X026598Y008180D01*
X026820Y008402D01*
X026681Y008264D02*
X026959Y008264D01*
X026967Y008105D02*
X026673Y008105D01*
X026730Y007313D02*
X026910Y007313D01*
X027068Y007154D02*
X026572Y007154D01*
X027572Y007154D02*
X027620Y007154D01*
X027830Y006650D02*
X027830Y004835D01*
X027830Y004891D01*
X027531Y005190D01*
X027109Y005190D01*
X026839Y004920D01*
X026140Y004920D01*
X026140Y005030D01*
X026034Y005136D01*
X025647Y005136D01*
X027830Y006650D01*
X027830Y006520D02*
X027643Y006520D01*
X027830Y006362D02*
X027414Y006362D01*
X027185Y006203D02*
X027830Y006203D01*
X027830Y006045D02*
X026957Y006045D01*
X026728Y005886D02*
X027830Y005886D01*
X027830Y005728D02*
X026500Y005728D01*
X026271Y005569D02*
X027830Y005569D01*
X027830Y005411D02*
X026043Y005411D01*
X025814Y005252D02*
X027830Y005252D01*
X027830Y005094D02*
X027628Y005094D01*
X027786Y004935D02*
X027830Y004935D01*
X027830Y004835D02*
X027830Y004835D01*
X028044Y004399D02*
X028044Y003714D01*
X026400Y002070D01*
X026400Y002655D01*
X026350Y002705D01*
X028044Y004399D01*
X028044Y004301D02*
X027946Y004301D01*
X028044Y004143D02*
X027788Y004143D01*
X027629Y003984D02*
X028044Y003984D01*
X028044Y003826D02*
X027471Y003826D01*
X027312Y003667D02*
X027997Y003667D01*
X027839Y003509D02*
X027154Y003509D01*
X026995Y003350D02*
X027680Y003350D01*
X027522Y003192D02*
X026837Y003192D01*
X026678Y003033D02*
X027363Y003033D01*
X027205Y002875D02*
X026520Y002875D01*
X026361Y002716D02*
X027046Y002716D01*
X026888Y002558D02*
X026400Y002558D01*
X026400Y002399D02*
X026729Y002399D01*
X026571Y002241D02*
X026400Y002241D01*
X026400Y002082D02*
X026412Y002082D01*
X026746Y001765D02*
X028320Y001765D01*
X028320Y001607D02*
X026587Y001607D01*
X026429Y001448D02*
X028320Y001448D01*
X028320Y001290D02*
X026270Y001290D01*
X026112Y001131D02*
X028320Y001131D01*
X028320Y001924D02*
X026904Y001924D01*
X027063Y002082D02*
X028320Y002082D01*
X028320Y002241D02*
X027221Y002241D01*
X027380Y002399D02*
X028320Y002399D01*
X028320Y002558D02*
X027538Y002558D01*
X027697Y002716D02*
X028320Y002716D01*
X028320Y002875D02*
X027855Y002875D01*
X028014Y003033D02*
X028320Y003033D01*
X028320Y003192D02*
X028172Y003192D01*
X027165Y004170D02*
X025955Y002960D01*
X024905Y002960D01*
X024770Y002825D01*
X024770Y002672D01*
X024672Y002713D01*
X024672Y004224D01*
X025227Y004224D01*
X025320Y004317D01*
X025413Y004224D01*
X026034Y004224D01*
X026140Y004330D01*
X026140Y004440D01*
X026839Y004440D01*
X027109Y004170D01*
X027165Y004170D01*
X027137Y004143D02*
X024672Y004143D01*
X024672Y003984D02*
X026979Y003984D01*
X026820Y003826D02*
X024672Y003826D01*
X024672Y003667D02*
X026662Y003667D01*
X026503Y003509D02*
X024672Y003509D01*
X024672Y003350D02*
X026345Y003350D01*
X026186Y003192D02*
X024672Y003192D01*
X024672Y003033D02*
X026028Y003033D01*
X025240Y002500D02*
X025240Y001705D01*
X025345Y001600D01*
X025930Y001600D01*
X025792Y001462D01*
X024827Y001462D01*
X024900Y001535D01*
X025230Y001865D01*
X025230Y002500D01*
X025240Y002500D01*
X025230Y002399D02*
X025240Y002399D01*
X025230Y002241D02*
X025240Y002241D01*
X025230Y002082D02*
X025240Y002082D01*
X025230Y001924D02*
X025240Y001924D01*
X025240Y001765D02*
X025130Y001765D01*
X024972Y001607D02*
X025339Y001607D01*
X023999Y002558D02*
X021900Y002558D01*
X021900Y002399D02*
X023905Y002399D01*
X023862Y002241D02*
X021900Y002241D01*
X021900Y002082D02*
X023862Y002082D01*
X023921Y001924D02*
X021900Y001924D01*
X021839Y002716D02*
X024212Y002716D01*
X024672Y002716D02*
X024770Y002716D01*
X024819Y002875D02*
X024672Y002875D01*
X025304Y004301D02*
X025336Y004301D01*
X026111Y004301D02*
X026978Y004301D01*
X026854Y004935D02*
X026140Y004935D01*
X026077Y005094D02*
X027012Y005094D01*
X024557Y007313D02*
X020900Y007313D01*
X020900Y007471D02*
X024715Y007471D01*
X024874Y007630D02*
X020900Y007630D01*
X020900Y007788D02*
X025032Y007788D01*
X022810Y004618D02*
X022654Y004618D01*
X022495Y004460D02*
X022819Y004460D01*
X022978Y004301D02*
X022337Y004301D01*
X019740Y010958D02*
X019367Y010958D01*
X020813Y012385D02*
X021179Y012385D01*
X027598Y015180D02*
X027615Y015163D01*
X027615Y015197D01*
X027598Y015180D01*
M02*
