G75*
G70*
%OFA0B0*%
%FSLAX24Y24*%
%IPPOS*%
%LPD*%
%AMOC8*
5,1,8,0,0,1.08239X$1,22.5*
%
%ADD10R,0.0880X0.0880*%
%ADD11C,0.0880*%
%ADD12OC8,0.0820*%
%ADD13R,0.1030X0.1030*%
%ADD14C,0.1030*%
%ADD15C,0.0820*%
%ADD16OC8,0.0740*%
D10*
X006320Y002180D03*
X009820Y002180D03*
X003320Y007680D03*
X006820Y009180D03*
X003320Y010680D03*
X006820Y012180D03*
X020320Y010680D03*
X020320Y007680D03*
X021320Y002180D03*
X018320Y002180D03*
X025820Y002180D03*
D11*
X004942Y002180D03*
X008442Y002180D03*
X006820Y007802D03*
X003320Y009058D03*
X006820Y010802D03*
X003320Y012058D03*
X016942Y002180D03*
X019942Y002180D03*
X024442Y002180D03*
X020320Y009058D03*
X020320Y012058D03*
D12*
X026320Y011680D03*
X027320Y011680D03*
X027320Y010680D03*
X026320Y010680D03*
X026320Y009680D03*
X027320Y009680D03*
X027320Y008680D03*
X026320Y008680D03*
X026320Y007680D03*
X027320Y007680D03*
X027320Y012680D03*
X026320Y012680D03*
X026320Y013680D03*
X027320Y013680D03*
X027320Y014680D03*
X026320Y014680D03*
X026320Y015680D03*
X027320Y015680D03*
X027320Y016680D03*
X026320Y016680D03*
D13*
X019320Y017180D03*
X014320Y017180D03*
X008820Y017180D03*
X003820Y017180D03*
X014820Y002180D03*
D14*
X013442Y002180D03*
X012064Y002180D03*
X011576Y017180D03*
X010198Y017180D03*
X006576Y017180D03*
X005198Y017180D03*
X015698Y017180D03*
X017076Y017180D03*
X020698Y017180D03*
X022076Y017180D03*
D15*
X020820Y014180D03*
X019820Y014180D03*
X018820Y014180D03*
X017820Y014180D03*
X016820Y014180D03*
X015820Y014180D03*
X010820Y014180D03*
X009820Y014180D03*
X008820Y014180D03*
X007820Y014180D03*
X006820Y014180D03*
X005820Y014180D03*
D16*
X023320Y004680D03*
X027320Y004680D03*
M02*
