G75*
G70*
%OFA0B0*%
%FSLAX24Y24*%
%IPPOS*%
%LPD*%
%AMOC8*
5,1,8,0,0,1.08239X$1,22.5*
%
%ADD10R,0.0350X0.0657*%
%ADD11R,0.0472X0.0315*%
%ADD12R,0.0315X0.0472*%
%ADD13R,0.0236X0.1535*%
%ADD14R,0.0240X0.0870*%
%ADD15R,0.0800X0.0800*%
%ADD16R,0.0197X0.0591*%
%ADD17R,0.0591X0.0197*%
%ADD18R,0.0787X0.0945*%
%ADD19R,0.0197X0.0909*%
%ADD20R,0.0394X0.0433*%
%ADD21R,0.0945X0.0787*%
%ADD22R,0.0315X0.0315*%
%ADD23R,0.1260X0.0472*%
%ADD24R,0.0709X0.0630*%
%ADD25R,0.0256X0.0315*%
%ADD26R,0.0197X0.0315*%
%ADD27R,0.0440X0.0090*%
%ADD28R,0.0154X0.0384*%
%ADD29R,0.0472X0.0472*%
%ADD30R,0.0480X0.0880*%
%ADD31R,0.1417X0.0866*%
%ADD32R,0.0800X0.0260*%
%ADD33R,0.0236X0.0866*%
D10*
X010712Y007377D03*
X011499Y006354D03*
X012287Y007377D03*
X013074Y006354D03*
X013861Y007377D03*
X014649Y006354D03*
X015436Y007377D03*
X016224Y006354D03*
X017011Y007377D03*
X017798Y006354D03*
X018586Y007377D03*
X019373Y006354D03*
X019373Y018637D03*
X018586Y019661D03*
X017798Y018637D03*
X016224Y018637D03*
X017011Y019661D03*
X015436Y019661D03*
X014649Y018637D03*
X013074Y018637D03*
X012287Y019661D03*
X013861Y019661D03*
X011499Y018637D03*
X010712Y019661D03*
D11*
X013812Y017020D03*
X013812Y016311D03*
X014812Y016311D03*
X014812Y017020D03*
X021112Y015270D03*
X021112Y014561D03*
X021112Y013770D03*
X021112Y013061D03*
X021112Y012270D03*
X021112Y011561D03*
X023612Y007870D03*
X023612Y007161D03*
X034612Y013061D03*
X034612Y013770D03*
X034612Y016061D03*
X034612Y016770D03*
X029912Y019061D03*
X029912Y019770D03*
X027612Y016270D03*
X027612Y015561D03*
X022612Y019561D03*
X022612Y020270D03*
D12*
X012466Y020916D03*
X011757Y020916D03*
X011757Y021666D03*
X012466Y021666D03*
X012216Y016366D03*
X011507Y016366D03*
X017257Y010416D03*
X017966Y010416D03*
X018757Y010416D03*
X019466Y010416D03*
X020557Y008716D03*
X021266Y008716D03*
X029257Y011416D03*
X029966Y011416D03*
X032257Y011416D03*
X032966Y011416D03*
D13*
X015412Y011391D03*
X014912Y011391D03*
X014412Y011391D03*
X013912Y011391D03*
X013412Y011391D03*
X012912Y011391D03*
X012412Y011391D03*
X011912Y011391D03*
X011412Y011391D03*
X010912Y011391D03*
X010912Y014540D03*
X011412Y014540D03*
X011912Y014540D03*
X012412Y014540D03*
X012912Y014540D03*
X013412Y014540D03*
X013912Y014540D03*
X014412Y014540D03*
X014912Y014540D03*
X015412Y014540D03*
D14*
X014762Y020886D03*
X014262Y020886D03*
X013762Y020886D03*
X013262Y020886D03*
X013262Y022946D03*
X013762Y022946D03*
X014262Y022946D03*
X014762Y022946D03*
D15*
X011662Y009416D03*
D16*
X029537Y012632D03*
X029852Y012632D03*
X030167Y012632D03*
X030482Y012632D03*
X030797Y012632D03*
X031112Y012632D03*
X031427Y012632D03*
X031742Y012632D03*
X032057Y012632D03*
X032372Y012632D03*
X032687Y012632D03*
X032687Y017199D03*
X032372Y017199D03*
X032057Y017199D03*
X031742Y017199D03*
X031427Y017199D03*
X031112Y017199D03*
X030797Y017199D03*
X030482Y017199D03*
X030167Y017199D03*
X029852Y017199D03*
X029537Y017199D03*
D17*
X028828Y016490D03*
X028828Y016175D03*
X028828Y015860D03*
X028828Y015546D03*
X028828Y015231D03*
X028828Y014916D03*
X028828Y014601D03*
X028828Y014286D03*
X028828Y013971D03*
X028828Y013656D03*
X028828Y013341D03*
X033395Y013341D03*
X033395Y013656D03*
X033395Y013971D03*
X033395Y014286D03*
X033395Y014601D03*
X033395Y014916D03*
X033395Y015231D03*
X033395Y015546D03*
X033395Y015860D03*
X033395Y016175D03*
X033395Y016490D03*
D18*
X032644Y021938D03*
X032644Y024103D03*
X029180Y024103D03*
X029180Y021938D03*
D19*
X030282Y021716D03*
X030597Y021716D03*
X030912Y021716D03*
X031227Y021716D03*
X031542Y021716D03*
D20*
X031482Y019750D03*
X030682Y019750D03*
X030682Y019081D03*
X031482Y019081D03*
X025112Y015500D03*
X025112Y014831D03*
X025112Y013975D03*
X025112Y013306D03*
D21*
X026312Y013628D03*
X026312Y015203D03*
D22*
X022112Y022620D03*
X022112Y023211D03*
X021112Y023211D03*
X021112Y022620D03*
X020112Y022620D03*
X020112Y023211D03*
X019112Y023211D03*
X019112Y022620D03*
D23*
X024273Y022628D03*
X024273Y024203D03*
X026950Y024203D03*
X026950Y022628D03*
X034273Y022628D03*
X034273Y024203D03*
X036950Y024203D03*
X036950Y022628D03*
D24*
X033112Y020467D03*
X033112Y019364D03*
D25*
X021224Y021070D03*
X021224Y021661D03*
X020200Y021661D03*
X020200Y021070D03*
D26*
X020554Y021070D03*
X020869Y021070D03*
X020869Y021661D03*
X020554Y021661D03*
D27*
X017882Y021781D03*
X017882Y022041D03*
X017882Y022291D03*
X017882Y022551D03*
X016142Y022551D03*
X016142Y022291D03*
X016142Y022041D03*
X016142Y021781D03*
D28*
X014718Y023745D03*
X014462Y023745D03*
X014206Y023745D03*
X014206Y024487D03*
X014462Y024487D03*
X014718Y024487D03*
D29*
X031911Y009927D03*
X031911Y008904D03*
X034313Y008904D03*
X034313Y009927D03*
D30*
X022522Y007636D03*
X021612Y007636D03*
X020702Y007636D03*
D31*
X021612Y005196D03*
D32*
X019917Y011666D03*
X019917Y012166D03*
X019917Y012666D03*
X019917Y013166D03*
X019917Y013666D03*
X019917Y014166D03*
X019917Y014666D03*
X019917Y015166D03*
X017307Y015166D03*
X017307Y014666D03*
X017307Y014166D03*
X017307Y013666D03*
X017307Y013166D03*
X017307Y012666D03*
X017307Y012166D03*
X017307Y011666D03*
D33*
X025362Y009939D03*
X025862Y009939D03*
X026362Y009939D03*
X026862Y009939D03*
X027362Y009939D03*
X027862Y009939D03*
X028362Y009939D03*
X028862Y009939D03*
X028862Y007892D03*
X028362Y007892D03*
X027862Y007892D03*
X027362Y007892D03*
X026862Y007892D03*
X026362Y007892D03*
X025862Y007892D03*
X025362Y007892D03*
M02*
