%
M48
M72
T01C0.0130
T02C0.0315
T03C0.0354
T04C0.0394
T05C0.0400
T06C0.1180
T07C0.1260
%
T01
X14262Y9016
X15662Y9266
X16462Y8766
X16862Y9416
X16212Y10066
X16212Y10666
X16862Y11166
X16712Y11566
X18212Y10866
X17612Y10416
X19162Y11116
X19412Y10866
X18612Y11666
X19312Y12466
X19312Y13666
X19112Y13966
X16712Y13916
X16262Y15066
X16512Y16616
X16712Y18066
X18262Y17666
X21212Y17366
X22712Y18416
X21212Y19416
X22012Y19916
X25162Y20316
X25312Y19566
X28062Y21216
X28812Y19716
X29062Y18916
X30562Y18216
X30812Y18666
X31062Y17816
X32562Y17816
X33412Y17016
X32612Y16216
X33912Y15866
X34362Y15416
X34062Y14916
X34312Y14666
X33962Y14566
X32862Y14316
X32112Y13166
X30912Y13166
X30062Y13166
X29362Y14216
X29362Y14566
X29362Y14916
X30362Y15266
X29512Y16466
X27412Y14866
X26812Y14466
X27712Y14216
X27712Y13716
X28162Y14716
X28662Y13016
X27462Y12716
X26762Y11416
X28662Y10916
X30362Y12116
X34612Y13416
X35512Y12216
X36162Y12466
X36162Y13166
X36162Y15166
X35212Y16166
X35062Y17016
X25612Y13716
X19812Y9416
X24362Y7016
X21362Y6066
X27612Y8516
X28762Y9166
X28612Y7266
X14662Y10466
X12412Y10216
X12912Y12766
X12112Y13566
X11162Y13016
X14262Y20216
X12862Y20866
X14262Y22316
X14662Y22316
X15312Y22316
X16612Y22066
X21712Y23166
X33762Y23666
T02
X19373Y19149
X18586Y19149
X17798Y19149
X17011Y19149
X16224Y19149
X15436Y19149
X14649Y19149
X13861Y19149
X13074Y19149
X12287Y19149
X11499Y19149
X10712Y19149
X10712Y6866
X11499Y6866
X12287Y6866
X13074Y6866
X13861Y6866
X14649Y6866
X15436Y6866
X16224Y6866
X17011Y6866
X17798Y6866
X18586Y6866
X19373Y6866
T03
X30046Y22922
X31778Y22922
T04
X31512Y5766
X32512Y5766
X33512Y5766
T05
X28612Y4916
X27612Y4916
X26612Y4916
X25612Y4916
X24612Y4916
X23612Y4916
X18112Y4916
X17112Y4916
X16112Y4916
X14112Y4916
X13112Y4916
X12112Y4916
X25912Y19466
X26912Y19466
X27912Y19466
X27912Y20466
X26912Y20466
X25912Y20466
X38612Y20916
X39612Y20916
X39612Y21916
X38612Y21916
X38612Y19916
X39612Y19916
X39612Y18916
X38612Y18916
X38612Y17916
X39612Y17916
X39612Y16916
X38612Y16916
X38612Y15916
X39612Y15916
X39612Y14916
X38612Y14916
X38612Y13916
X39612Y13916
X39612Y12916
X38612Y12916
T06
X37049Y10766
X35868Y8916
X38230Y8916
T07
X7187Y4990
X8287Y8114
X8287Y17901
X7187Y23888
X39470Y23888
X39470Y4990
M30
