G75*
G70*
%OFA0B0*%
%FSLAX24Y24*%
%IPPOS*%
%LPD*%
%AMOC8*
5,1,8,0,0,1.08239X$1,22.5*
%
%ADD10C,0.0120*%
%ADD11C,0.0000*%
D10*
X007187Y003416D02*
X039470Y003416D01*
X007187Y003416D01*
X007187Y003415D02*
X007110Y003417D01*
X007033Y003423D01*
X006956Y003432D01*
X006880Y003445D01*
X006804Y003462D01*
X006730Y003483D01*
X006656Y003507D01*
X006584Y003535D01*
X006514Y003566D01*
X006445Y003601D01*
X006377Y003639D01*
X006312Y003680D01*
X006249Y003725D01*
X006188Y003773D01*
X006129Y003823D01*
X006073Y003876D01*
X006020Y003932D01*
X005970Y003991D01*
X005922Y004052D01*
X005877Y004115D01*
X005836Y004180D01*
X005798Y004248D01*
X005763Y004317D01*
X005732Y004387D01*
X005704Y004459D01*
X005680Y004533D01*
X005659Y004607D01*
X005642Y004683D01*
X005629Y004759D01*
X005620Y004836D01*
X005614Y004913D01*
X005612Y004990D01*
X005612Y023888D01*
X005612Y004990D01*
X005614Y004913D01*
X005620Y004836D01*
X005629Y004759D01*
X005642Y004683D01*
X005659Y004607D01*
X005680Y004533D01*
X005704Y004459D01*
X005732Y004387D01*
X005763Y004317D01*
X005798Y004248D01*
X005836Y004180D01*
X005877Y004115D01*
X005922Y004052D01*
X005970Y003991D01*
X006020Y003932D01*
X006073Y003876D01*
X006129Y003823D01*
X006188Y003773D01*
X006249Y003725D01*
X006312Y003680D01*
X006377Y003639D01*
X006445Y003601D01*
X006514Y003566D01*
X006584Y003535D01*
X006656Y003507D01*
X006730Y003483D01*
X006804Y003462D01*
X006880Y003445D01*
X006956Y003432D01*
X007033Y003423D01*
X007110Y003417D01*
X007187Y003415D01*
X005612Y023888D02*
X005614Y023965D01*
X005620Y024042D01*
X005629Y024119D01*
X005642Y024195D01*
X005659Y024271D01*
X005680Y024345D01*
X005704Y024419D01*
X005732Y024491D01*
X005763Y024561D01*
X005798Y024630D01*
X005836Y024698D01*
X005877Y024763D01*
X005922Y024826D01*
X005970Y024887D01*
X006020Y024946D01*
X006073Y025002D01*
X006129Y025055D01*
X006188Y025105D01*
X006249Y025153D01*
X006312Y025198D01*
X006377Y025239D01*
X006445Y025277D01*
X006514Y025312D01*
X006584Y025343D01*
X006656Y025371D01*
X006730Y025395D01*
X006804Y025416D01*
X006880Y025433D01*
X006956Y025446D01*
X007033Y025455D01*
X007110Y025461D01*
X007187Y025463D01*
X039470Y025463D01*
X007187Y025463D01*
X007110Y025461D01*
X007033Y025455D01*
X006956Y025446D01*
X006880Y025433D01*
X006804Y025416D01*
X006730Y025395D01*
X006656Y025371D01*
X006584Y025343D01*
X006514Y025312D01*
X006445Y025277D01*
X006377Y025239D01*
X006312Y025198D01*
X006249Y025153D01*
X006188Y025105D01*
X006129Y025055D01*
X006073Y025002D01*
X006020Y024946D01*
X005970Y024887D01*
X005922Y024826D01*
X005877Y024763D01*
X005836Y024698D01*
X005798Y024630D01*
X005763Y024561D01*
X005732Y024491D01*
X005704Y024419D01*
X005680Y024345D01*
X005659Y024271D01*
X005642Y024195D01*
X005629Y024119D01*
X005620Y024042D01*
X005614Y023965D01*
X005612Y023888D01*
X039470Y025463D02*
X039547Y025461D01*
X039624Y025455D01*
X039701Y025446D01*
X039777Y025433D01*
X039853Y025416D01*
X039927Y025395D01*
X040001Y025371D01*
X040073Y025343D01*
X040143Y025312D01*
X040212Y025277D01*
X040280Y025239D01*
X040345Y025198D01*
X040408Y025153D01*
X040469Y025105D01*
X040528Y025055D01*
X040584Y025002D01*
X040637Y024946D01*
X040687Y024887D01*
X040735Y024826D01*
X040780Y024763D01*
X040821Y024698D01*
X040859Y024630D01*
X040894Y024561D01*
X040925Y024491D01*
X040953Y024419D01*
X040977Y024345D01*
X040998Y024271D01*
X041015Y024195D01*
X041028Y024119D01*
X041037Y024042D01*
X041043Y023965D01*
X041045Y023888D01*
X041045Y004990D01*
X041045Y023888D01*
X041043Y023965D01*
X041037Y024042D01*
X041028Y024119D01*
X041015Y024195D01*
X040998Y024271D01*
X040977Y024345D01*
X040953Y024419D01*
X040925Y024491D01*
X040894Y024561D01*
X040859Y024630D01*
X040821Y024698D01*
X040780Y024763D01*
X040735Y024826D01*
X040687Y024887D01*
X040637Y024946D01*
X040584Y025002D01*
X040528Y025055D01*
X040469Y025105D01*
X040408Y025153D01*
X040345Y025198D01*
X040280Y025239D01*
X040212Y025277D01*
X040143Y025312D01*
X040073Y025343D01*
X040001Y025371D01*
X039927Y025395D01*
X039853Y025416D01*
X039777Y025433D01*
X039701Y025446D01*
X039624Y025455D01*
X039547Y025461D01*
X039470Y025463D01*
X041045Y004990D02*
X041043Y004913D01*
X041037Y004836D01*
X041028Y004759D01*
X041015Y004683D01*
X040998Y004607D01*
X040977Y004533D01*
X040953Y004459D01*
X040925Y004387D01*
X040894Y004317D01*
X040859Y004248D01*
X040821Y004180D01*
X040780Y004115D01*
X040735Y004052D01*
X040687Y003991D01*
X040637Y003932D01*
X040584Y003876D01*
X040528Y003823D01*
X040469Y003773D01*
X040408Y003725D01*
X040345Y003680D01*
X040280Y003639D01*
X040212Y003601D01*
X040143Y003566D01*
X040073Y003535D01*
X040001Y003507D01*
X039927Y003483D01*
X039853Y003462D01*
X039777Y003445D01*
X039701Y003432D01*
X039624Y003423D01*
X039547Y003417D01*
X039470Y003415D01*
X039547Y003417D01*
X039624Y003423D01*
X039701Y003432D01*
X039777Y003445D01*
X039853Y003462D01*
X039927Y003483D01*
X040001Y003507D01*
X040073Y003535D01*
X040143Y003566D01*
X040212Y003601D01*
X040280Y003639D01*
X040345Y003680D01*
X040408Y003725D01*
X040469Y003773D01*
X040528Y003823D01*
X040584Y003876D01*
X040637Y003932D01*
X040687Y003991D01*
X040735Y004052D01*
X040780Y004115D01*
X040821Y004180D01*
X040859Y004248D01*
X040894Y004317D01*
X040925Y004387D01*
X040953Y004459D01*
X040977Y004533D01*
X040998Y004607D01*
X041015Y004683D01*
X041028Y004759D01*
X041037Y004836D01*
X041043Y004913D01*
X041045Y004990D01*
D11*
X038840Y004990D02*
X038842Y005040D01*
X038848Y005090D01*
X038858Y005139D01*
X038872Y005187D01*
X038889Y005234D01*
X038910Y005279D01*
X038935Y005323D01*
X038963Y005364D01*
X038995Y005403D01*
X039029Y005440D01*
X039066Y005474D01*
X039106Y005504D01*
X039148Y005531D01*
X039192Y005555D01*
X039238Y005576D01*
X039285Y005592D01*
X039333Y005605D01*
X039383Y005614D01*
X039432Y005619D01*
X039483Y005620D01*
X039533Y005617D01*
X039582Y005610D01*
X039631Y005599D01*
X039679Y005584D01*
X039725Y005566D01*
X039770Y005544D01*
X039813Y005518D01*
X039854Y005489D01*
X039893Y005457D01*
X039929Y005422D01*
X039961Y005384D01*
X039991Y005344D01*
X040018Y005301D01*
X040041Y005257D01*
X040060Y005211D01*
X040076Y005163D01*
X040088Y005114D01*
X040096Y005065D01*
X040100Y005015D01*
X040100Y004965D01*
X040096Y004915D01*
X040088Y004866D01*
X040076Y004817D01*
X040060Y004769D01*
X040041Y004723D01*
X040018Y004679D01*
X039991Y004636D01*
X039961Y004596D01*
X039929Y004558D01*
X039893Y004523D01*
X039854Y004491D01*
X039813Y004462D01*
X039770Y004436D01*
X039725Y004414D01*
X039679Y004396D01*
X039631Y004381D01*
X039582Y004370D01*
X039533Y004363D01*
X039483Y004360D01*
X039432Y004361D01*
X039383Y004366D01*
X039333Y004375D01*
X039285Y004388D01*
X039238Y004404D01*
X039192Y004425D01*
X039148Y004449D01*
X039106Y004476D01*
X039066Y004506D01*
X039029Y004540D01*
X038995Y004577D01*
X038963Y004616D01*
X038935Y004657D01*
X038910Y004701D01*
X038889Y004746D01*
X038872Y004793D01*
X038858Y004841D01*
X038848Y004890D01*
X038842Y004940D01*
X038840Y004990D01*
X031601Y022922D02*
X031603Y022948D01*
X031609Y022974D01*
X031619Y022999D01*
X031632Y023022D01*
X031648Y023042D01*
X031668Y023060D01*
X031690Y023075D01*
X031713Y023087D01*
X031739Y023095D01*
X031765Y023099D01*
X031791Y023099D01*
X031817Y023095D01*
X031843Y023087D01*
X031867Y023075D01*
X031888Y023060D01*
X031908Y023042D01*
X031924Y023022D01*
X031937Y022999D01*
X031947Y022974D01*
X031953Y022948D01*
X031955Y022922D01*
X031953Y022896D01*
X031947Y022870D01*
X031937Y022845D01*
X031924Y022822D01*
X031908Y022802D01*
X031888Y022784D01*
X031866Y022769D01*
X031843Y022757D01*
X031817Y022749D01*
X031791Y022745D01*
X031765Y022745D01*
X031739Y022749D01*
X031713Y022757D01*
X031689Y022769D01*
X031668Y022784D01*
X031648Y022802D01*
X031632Y022822D01*
X031619Y022845D01*
X031609Y022870D01*
X031603Y022896D01*
X031601Y022922D01*
X029869Y022922D02*
X029871Y022948D01*
X029877Y022974D01*
X029887Y022999D01*
X029900Y023022D01*
X029916Y023042D01*
X029936Y023060D01*
X029958Y023075D01*
X029981Y023087D01*
X030007Y023095D01*
X030033Y023099D01*
X030059Y023099D01*
X030085Y023095D01*
X030111Y023087D01*
X030135Y023075D01*
X030156Y023060D01*
X030176Y023042D01*
X030192Y023022D01*
X030205Y022999D01*
X030215Y022974D01*
X030221Y022948D01*
X030223Y022922D01*
X030221Y022896D01*
X030215Y022870D01*
X030205Y022845D01*
X030192Y022822D01*
X030176Y022802D01*
X030156Y022784D01*
X030134Y022769D01*
X030111Y022757D01*
X030085Y022749D01*
X030059Y022745D01*
X030033Y022745D01*
X030007Y022749D01*
X029981Y022757D01*
X029957Y022769D01*
X029936Y022784D01*
X029916Y022802D01*
X029900Y022822D01*
X029887Y022845D01*
X029877Y022870D01*
X029871Y022896D01*
X029869Y022922D01*
X038840Y023888D02*
X038842Y023938D01*
X038848Y023988D01*
X038858Y024037D01*
X038872Y024085D01*
X038889Y024132D01*
X038910Y024177D01*
X038935Y024221D01*
X038963Y024262D01*
X038995Y024301D01*
X039029Y024338D01*
X039066Y024372D01*
X039106Y024402D01*
X039148Y024429D01*
X039192Y024453D01*
X039238Y024474D01*
X039285Y024490D01*
X039333Y024503D01*
X039383Y024512D01*
X039432Y024517D01*
X039483Y024518D01*
X039533Y024515D01*
X039582Y024508D01*
X039631Y024497D01*
X039679Y024482D01*
X039725Y024464D01*
X039770Y024442D01*
X039813Y024416D01*
X039854Y024387D01*
X039893Y024355D01*
X039929Y024320D01*
X039961Y024282D01*
X039991Y024242D01*
X040018Y024199D01*
X040041Y024155D01*
X040060Y024109D01*
X040076Y024061D01*
X040088Y024012D01*
X040096Y023963D01*
X040100Y023913D01*
X040100Y023863D01*
X040096Y023813D01*
X040088Y023764D01*
X040076Y023715D01*
X040060Y023667D01*
X040041Y023621D01*
X040018Y023577D01*
X039991Y023534D01*
X039961Y023494D01*
X039929Y023456D01*
X039893Y023421D01*
X039854Y023389D01*
X039813Y023360D01*
X039770Y023334D01*
X039725Y023312D01*
X039679Y023294D01*
X039631Y023279D01*
X039582Y023268D01*
X039533Y023261D01*
X039483Y023258D01*
X039432Y023259D01*
X039383Y023264D01*
X039333Y023273D01*
X039285Y023286D01*
X039238Y023302D01*
X039192Y023323D01*
X039148Y023347D01*
X039106Y023374D01*
X039066Y023404D01*
X039029Y023438D01*
X038995Y023475D01*
X038963Y023514D01*
X038935Y023555D01*
X038910Y023599D01*
X038889Y023644D01*
X038872Y023691D01*
X038858Y023739D01*
X038848Y023788D01*
X038842Y023838D01*
X038840Y023888D01*
X007657Y017901D02*
X007659Y017951D01*
X007665Y018001D01*
X007675Y018050D01*
X007689Y018098D01*
X007706Y018145D01*
X007727Y018190D01*
X007752Y018234D01*
X007780Y018275D01*
X007812Y018314D01*
X007846Y018351D01*
X007883Y018385D01*
X007923Y018415D01*
X007965Y018442D01*
X008009Y018466D01*
X008055Y018487D01*
X008102Y018503D01*
X008150Y018516D01*
X008200Y018525D01*
X008249Y018530D01*
X008300Y018531D01*
X008350Y018528D01*
X008399Y018521D01*
X008448Y018510D01*
X008496Y018495D01*
X008542Y018477D01*
X008587Y018455D01*
X008630Y018429D01*
X008671Y018400D01*
X008710Y018368D01*
X008746Y018333D01*
X008778Y018295D01*
X008808Y018255D01*
X008835Y018212D01*
X008858Y018168D01*
X008877Y018122D01*
X008893Y018074D01*
X008905Y018025D01*
X008913Y017976D01*
X008917Y017926D01*
X008917Y017876D01*
X008913Y017826D01*
X008905Y017777D01*
X008893Y017728D01*
X008877Y017680D01*
X008858Y017634D01*
X008835Y017590D01*
X008808Y017547D01*
X008778Y017507D01*
X008746Y017469D01*
X008710Y017434D01*
X008671Y017402D01*
X008630Y017373D01*
X008587Y017347D01*
X008542Y017325D01*
X008496Y017307D01*
X008448Y017292D01*
X008399Y017281D01*
X008350Y017274D01*
X008300Y017271D01*
X008249Y017272D01*
X008200Y017277D01*
X008150Y017286D01*
X008102Y017299D01*
X008055Y017315D01*
X008009Y017336D01*
X007965Y017360D01*
X007923Y017387D01*
X007883Y017417D01*
X007846Y017451D01*
X007812Y017488D01*
X007780Y017527D01*
X007752Y017568D01*
X007727Y017612D01*
X007706Y017657D01*
X007689Y017704D01*
X007675Y017752D01*
X007665Y017801D01*
X007659Y017851D01*
X007657Y017901D01*
X006557Y023888D02*
X006559Y023938D01*
X006565Y023988D01*
X006575Y024037D01*
X006589Y024085D01*
X006606Y024132D01*
X006627Y024177D01*
X006652Y024221D01*
X006680Y024262D01*
X006712Y024301D01*
X006746Y024338D01*
X006783Y024372D01*
X006823Y024402D01*
X006865Y024429D01*
X006909Y024453D01*
X006955Y024474D01*
X007002Y024490D01*
X007050Y024503D01*
X007100Y024512D01*
X007149Y024517D01*
X007200Y024518D01*
X007250Y024515D01*
X007299Y024508D01*
X007348Y024497D01*
X007396Y024482D01*
X007442Y024464D01*
X007487Y024442D01*
X007530Y024416D01*
X007571Y024387D01*
X007610Y024355D01*
X007646Y024320D01*
X007678Y024282D01*
X007708Y024242D01*
X007735Y024199D01*
X007758Y024155D01*
X007777Y024109D01*
X007793Y024061D01*
X007805Y024012D01*
X007813Y023963D01*
X007817Y023913D01*
X007817Y023863D01*
X007813Y023813D01*
X007805Y023764D01*
X007793Y023715D01*
X007777Y023667D01*
X007758Y023621D01*
X007735Y023577D01*
X007708Y023534D01*
X007678Y023494D01*
X007646Y023456D01*
X007610Y023421D01*
X007571Y023389D01*
X007530Y023360D01*
X007487Y023334D01*
X007442Y023312D01*
X007396Y023294D01*
X007348Y023279D01*
X007299Y023268D01*
X007250Y023261D01*
X007200Y023258D01*
X007149Y023259D01*
X007100Y023264D01*
X007050Y023273D01*
X007002Y023286D01*
X006955Y023302D01*
X006909Y023323D01*
X006865Y023347D01*
X006823Y023374D01*
X006783Y023404D01*
X006746Y023438D01*
X006712Y023475D01*
X006680Y023514D01*
X006652Y023555D01*
X006627Y023599D01*
X006606Y023644D01*
X006589Y023691D01*
X006575Y023739D01*
X006565Y023788D01*
X006559Y023838D01*
X006557Y023888D01*
X007657Y008114D02*
X007659Y008164D01*
X007665Y008214D01*
X007675Y008263D01*
X007689Y008311D01*
X007706Y008358D01*
X007727Y008403D01*
X007752Y008447D01*
X007780Y008488D01*
X007812Y008527D01*
X007846Y008564D01*
X007883Y008598D01*
X007923Y008628D01*
X007965Y008655D01*
X008009Y008679D01*
X008055Y008700D01*
X008102Y008716D01*
X008150Y008729D01*
X008200Y008738D01*
X008249Y008743D01*
X008300Y008744D01*
X008350Y008741D01*
X008399Y008734D01*
X008448Y008723D01*
X008496Y008708D01*
X008542Y008690D01*
X008587Y008668D01*
X008630Y008642D01*
X008671Y008613D01*
X008710Y008581D01*
X008746Y008546D01*
X008778Y008508D01*
X008808Y008468D01*
X008835Y008425D01*
X008858Y008381D01*
X008877Y008335D01*
X008893Y008287D01*
X008905Y008238D01*
X008913Y008189D01*
X008917Y008139D01*
X008917Y008089D01*
X008913Y008039D01*
X008905Y007990D01*
X008893Y007941D01*
X008877Y007893D01*
X008858Y007847D01*
X008835Y007803D01*
X008808Y007760D01*
X008778Y007720D01*
X008746Y007682D01*
X008710Y007647D01*
X008671Y007615D01*
X008630Y007586D01*
X008587Y007560D01*
X008542Y007538D01*
X008496Y007520D01*
X008448Y007505D01*
X008399Y007494D01*
X008350Y007487D01*
X008300Y007484D01*
X008249Y007485D01*
X008200Y007490D01*
X008150Y007499D01*
X008102Y007512D01*
X008055Y007528D01*
X008009Y007549D01*
X007965Y007573D01*
X007923Y007600D01*
X007883Y007630D01*
X007846Y007664D01*
X007812Y007701D01*
X007780Y007740D01*
X007752Y007781D01*
X007727Y007825D01*
X007706Y007870D01*
X007689Y007917D01*
X007675Y007965D01*
X007665Y008014D01*
X007659Y008064D01*
X007657Y008114D01*
X006557Y004990D02*
X006559Y005040D01*
X006565Y005090D01*
X006575Y005139D01*
X006589Y005187D01*
X006606Y005234D01*
X006627Y005279D01*
X006652Y005323D01*
X006680Y005364D01*
X006712Y005403D01*
X006746Y005440D01*
X006783Y005474D01*
X006823Y005504D01*
X006865Y005531D01*
X006909Y005555D01*
X006955Y005576D01*
X007002Y005592D01*
X007050Y005605D01*
X007100Y005614D01*
X007149Y005619D01*
X007200Y005620D01*
X007250Y005617D01*
X007299Y005610D01*
X007348Y005599D01*
X007396Y005584D01*
X007442Y005566D01*
X007487Y005544D01*
X007530Y005518D01*
X007571Y005489D01*
X007610Y005457D01*
X007646Y005422D01*
X007678Y005384D01*
X007708Y005344D01*
X007735Y005301D01*
X007758Y005257D01*
X007777Y005211D01*
X007793Y005163D01*
X007805Y005114D01*
X007813Y005065D01*
X007817Y005015D01*
X007817Y004965D01*
X007813Y004915D01*
X007805Y004866D01*
X007793Y004817D01*
X007777Y004769D01*
X007758Y004723D01*
X007735Y004679D01*
X007708Y004636D01*
X007678Y004596D01*
X007646Y004558D01*
X007610Y004523D01*
X007571Y004491D01*
X007530Y004462D01*
X007487Y004436D01*
X007442Y004414D01*
X007396Y004396D01*
X007348Y004381D01*
X007299Y004370D01*
X007250Y004363D01*
X007200Y004360D01*
X007149Y004361D01*
X007100Y004366D01*
X007050Y004375D01*
X007002Y004388D01*
X006955Y004404D01*
X006909Y004425D01*
X006865Y004449D01*
X006823Y004476D01*
X006783Y004506D01*
X006746Y004540D01*
X006712Y004577D01*
X006680Y004616D01*
X006652Y004657D01*
X006627Y004701D01*
X006606Y004746D01*
X006589Y004793D01*
X006575Y004841D01*
X006565Y004890D01*
X006559Y004940D01*
X006557Y004990D01*
M02*
