G75*
G70*
%OFA0B0*%
%FSLAX24Y24*%
%IPPOS*%
%LPD*%
%AMOC8*
5,1,8,0,0,1.08239X$1,22.5*
%
%ADD10R,0.0552X0.0552*%
%ADD11OC8,0.0640*%
%ADD12C,0.1340*%
%ADD13C,0.0820*%
%ADD14C,0.0434*%
%ADD15OC8,0.0820*%
%ADD16C,0.1780*%
%ADD17R,0.0820X0.0820*%
D10*
X010712Y006866D03*
X010712Y019149D03*
D11*
X011499Y019149D03*
X012287Y019149D03*
X013074Y019149D03*
X013861Y019149D03*
X014649Y019149D03*
X015436Y019149D03*
X016224Y019149D03*
X017011Y019149D03*
X017798Y019149D03*
X018586Y019149D03*
X019373Y019149D03*
X019373Y006866D03*
X018586Y006866D03*
X017798Y006866D03*
X017011Y006866D03*
X016224Y006866D03*
X015436Y006866D03*
X014649Y006866D03*
X013861Y006866D03*
X013074Y006866D03*
X012287Y006866D03*
X011499Y006866D03*
D12*
X007187Y004990D03*
X008287Y008114D03*
X008287Y017901D03*
X007187Y023888D03*
X039470Y023888D03*
X039470Y004990D03*
D13*
X032512Y005766D03*
X031512Y005766D03*
X028612Y004916D03*
X027612Y004916D03*
X026612Y004916D03*
X025612Y004916D03*
X024612Y004916D03*
X023612Y004916D03*
X018112Y004916D03*
X017112Y004916D03*
X016112Y004916D03*
X014112Y004916D03*
X013112Y004916D03*
X012112Y004916D03*
D14*
X030046Y022922D03*
X031778Y022922D03*
D15*
X027912Y020466D03*
X026912Y020466D03*
X025912Y020466D03*
X025912Y019466D03*
X026912Y019466D03*
X027912Y019466D03*
X038612Y019916D03*
X039612Y019916D03*
X039612Y020916D03*
X038612Y020916D03*
X038612Y021916D03*
X039612Y021916D03*
X039612Y018916D03*
X038612Y018916D03*
X038612Y017916D03*
X039612Y017916D03*
X039612Y016916D03*
X038612Y016916D03*
X038612Y015916D03*
X039612Y015916D03*
X039612Y014916D03*
X038612Y014916D03*
X038612Y013916D03*
X039612Y013916D03*
X039612Y012916D03*
X038612Y012916D03*
D16*
X037049Y010766D03*
X035868Y008916D03*
X038230Y008916D03*
D17*
X033512Y005766D03*
M02*
