G75*
G70*
%OFA0B0*%
%FSLAX24Y24*%
%IPPOS*%
%LPD*%
%AMOC8*
5,1,8,0,0,1.08239X$1,22.5*
%
%ADD10R,0.0472X0.0472*%
%ADD11OC8,0.0560*%
%ADD12C,0.0740*%
%ADD13OC8,0.0740*%
%ADD14C,0.1700*%
%ADD15R,0.0740X0.0740*%
%ADD16C,0.0100*%
%ADD17C,0.0270*%
%ADD18C,0.0060*%
%ADD19C,0.0200*%
D10*
X010712Y006866D03*
X010712Y019149D03*
D11*
X011499Y019149D03*
X012287Y019149D03*
X013074Y019149D03*
X013861Y019149D03*
X014649Y019149D03*
X015436Y019149D03*
X016224Y019149D03*
X017011Y019149D03*
X017798Y019149D03*
X018586Y019149D03*
X019373Y019149D03*
X019373Y006866D03*
X018586Y006866D03*
X017798Y006866D03*
X017011Y006866D03*
X016224Y006866D03*
X015436Y006866D03*
X014649Y006866D03*
X013861Y006866D03*
X013074Y006866D03*
X012287Y006866D03*
X011499Y006866D03*
D12*
X012112Y004916D03*
X013112Y004916D03*
X014112Y004916D03*
X016112Y004916D03*
X017112Y004916D03*
X018112Y004916D03*
X023612Y004916D03*
X024612Y004916D03*
X025612Y004916D03*
X026612Y004916D03*
X027612Y004916D03*
X028612Y004916D03*
X031512Y005766D03*
X032512Y005766D03*
D13*
X038612Y012916D03*
X039612Y012916D03*
X039612Y013916D03*
X038612Y013916D03*
X038612Y014916D03*
X039612Y014916D03*
X039612Y015916D03*
X038612Y015916D03*
X038612Y016916D03*
X039612Y016916D03*
X039612Y017916D03*
X038612Y017916D03*
X038612Y018916D03*
X039612Y018916D03*
X039612Y019916D03*
X038612Y019916D03*
X038612Y020916D03*
X039612Y020916D03*
X039612Y021916D03*
X038612Y021916D03*
X027912Y020466D03*
X026912Y020466D03*
X025912Y020466D03*
X025912Y019466D03*
X026912Y019466D03*
X027912Y019466D03*
D14*
X037049Y010766D03*
X035868Y008916D03*
X038230Y008916D03*
D15*
X033512Y005766D03*
D16*
X032512Y005766D02*
X031162Y004416D01*
X024112Y004416D01*
X023612Y004916D01*
X025112Y005416D02*
X025612Y004916D01*
X025112Y005416D02*
X022012Y005416D01*
X021362Y006066D01*
X018112Y004916D02*
X017612Y005416D01*
X014562Y005416D01*
X014112Y004966D01*
X014112Y004916D01*
X012562Y006466D01*
X011112Y006466D01*
X010712Y006866D01*
X010362Y007166D02*
X010362Y005416D01*
X012612Y005416D01*
X013112Y004916D01*
X012112Y004916D02*
X010162Y004916D01*
X010162Y007216D01*
X012662Y009716D01*
X015262Y009716D01*
X016212Y010666D01*
X015112Y010916D02*
X018162Y010916D01*
X018212Y010866D01*
X019412Y010866D01*
X019162Y011116D02*
X019162Y011166D01*
X034462Y011166D01*
X035512Y012216D01*
X034612Y013416D02*
X038112Y013416D01*
X038612Y012916D01*
X032762Y017566D02*
X024612Y017566D01*
X024112Y018066D01*
X016712Y018066D01*
X014662Y018116D02*
X014662Y019116D01*
X014649Y019149D01*
X013862Y019116D02*
X013861Y019149D01*
X013862Y019116D02*
X013862Y018666D01*
X017612Y014916D01*
X027362Y014916D01*
X027412Y014866D01*
X027762Y015116D02*
X017662Y015116D01*
X014662Y018116D01*
X013612Y019666D02*
X013112Y019166D01*
X013074Y019149D01*
X013612Y019666D02*
X025362Y019666D01*
X025312Y019566D01*
X025712Y019966D01*
X027412Y019966D01*
X027912Y019466D01*
X034412Y019466D01*
X036862Y021916D01*
X038612Y021916D01*
X039112Y019416D02*
X034612Y019416D01*
X032762Y017566D01*
X031062Y017816D02*
X030962Y017816D01*
X030562Y018216D01*
X030812Y018666D02*
X021962Y018666D01*
X021212Y019416D01*
X022012Y019916D02*
X019612Y022316D01*
X015312Y022316D01*
X014662Y022316D01*
X012862Y020866D02*
X011562Y019566D01*
X011112Y019566D01*
X010712Y019166D01*
X010712Y019149D01*
X012112Y013566D02*
X012912Y012766D01*
X015112Y010916D02*
X014662Y010466D01*
X016462Y008766D02*
X015962Y008266D01*
X011462Y008266D01*
X010362Y007166D01*
X017612Y010416D02*
X018612Y009416D01*
X019812Y009416D01*
X019162Y011116D02*
X018612Y011666D01*
X027762Y015116D02*
X028162Y014716D01*
X038612Y017916D02*
X039112Y018416D01*
X039112Y019416D01*
D17*
X035062Y017016D03*
X035212Y016166D03*
X034362Y015416D03*
X033912Y015866D03*
X034062Y014916D03*
X034312Y014666D03*
X033962Y014566D03*
X032862Y014316D03*
X032112Y013166D03*
X030912Y013166D03*
X030062Y013166D03*
X029362Y014216D03*
X029362Y014566D03*
X029362Y014916D03*
X030362Y015266D03*
X029512Y016466D03*
X031062Y017816D03*
X030562Y018216D03*
X030812Y018666D03*
X029062Y018916D03*
X028812Y019716D03*
X028062Y021216D03*
X025312Y019566D03*
X025162Y020316D03*
X022712Y018416D03*
X021212Y019416D03*
X022012Y019916D03*
X018262Y017666D03*
X016712Y018066D03*
X016512Y016616D03*
X016262Y015066D03*
X016712Y013916D03*
X019112Y013966D03*
X019312Y013666D03*
X019312Y012466D03*
X018612Y011666D03*
X019162Y011116D03*
X019412Y010866D03*
X018212Y010866D03*
X017612Y010416D03*
X016862Y011166D03*
X016712Y011566D03*
X016212Y010666D03*
X016212Y010066D03*
X016862Y009416D03*
X016462Y008766D03*
X015662Y009266D03*
X014262Y009016D03*
X012412Y010216D03*
X014662Y010466D03*
X012912Y012766D03*
X012112Y013566D03*
X011162Y013016D03*
X019812Y009416D03*
X024362Y007016D03*
X021362Y006066D03*
X027612Y008516D03*
X028762Y009166D03*
X028662Y010916D03*
X026762Y011416D03*
X027462Y012716D03*
X028662Y013016D03*
X027712Y013716D03*
X027712Y014216D03*
X028162Y014716D03*
X027412Y014866D03*
X026812Y014466D03*
X025612Y013716D03*
X030362Y012116D03*
X034612Y013416D03*
X035512Y012216D03*
X036162Y012466D03*
X036162Y013166D03*
X036162Y015166D03*
X033412Y017016D03*
X032612Y016216D03*
X032562Y017816D03*
X033762Y023666D03*
X021712Y023166D03*
X016612Y022066D03*
X015312Y022316D03*
X014662Y022316D03*
X014262Y022316D03*
X012862Y020866D03*
X014262Y020216D03*
X021212Y017366D03*
X028612Y007266D03*
D18*
X008612Y005916D02*
X008612Y003916D01*
X038112Y003916D01*
X038112Y005416D01*
X038270Y005574D01*
X038277Y005592D01*
X038288Y005597D01*
X038321Y005657D01*
X038319Y005669D01*
X038350Y005710D01*
X038375Y005755D01*
X038386Y005759D01*
X038427Y005814D01*
X034032Y005814D01*
X034032Y005756D02*
X038375Y005756D01*
X038340Y005697D02*
X034032Y005697D01*
X034032Y005639D02*
X038311Y005639D01*
X038273Y005580D02*
X034032Y005580D01*
X034032Y005522D02*
X038218Y005522D01*
X038159Y005463D02*
X034032Y005463D01*
X034032Y005405D02*
X038112Y005405D01*
X038112Y005346D02*
X034032Y005346D01*
X034032Y005333D02*
X034032Y006198D01*
X033944Y006286D01*
X033080Y006286D01*
X032992Y006198D01*
X032992Y005966D01*
X032953Y006060D01*
X032806Y006206D01*
X032615Y006286D01*
X032408Y006286D01*
X032217Y006206D01*
X032071Y006060D01*
X032012Y005917D01*
X031953Y006060D01*
X031806Y006206D01*
X031615Y006286D01*
X031408Y006286D01*
X031364Y006267D01*
X030903Y006728D01*
X030812Y006766D01*
X024965Y006766D01*
X024645Y007086D01*
X028389Y007086D01*
X028450Y007024D01*
X028555Y006981D01*
X028669Y006981D01*
X028773Y007024D01*
X028853Y007104D01*
X028897Y007209D01*
X028897Y007322D01*
X028853Y007427D01*
X028773Y007507D01*
X028669Y007551D01*
X028555Y007551D01*
X028450Y007507D01*
X028389Y007446D01*
X014187Y007446D01*
X014037Y007296D01*
X013796Y007296D01*
X014136Y007636D01*
X033486Y007636D01*
X034868Y009017D01*
X034868Y008717D01*
X035020Y008349D01*
X035302Y008068D01*
X035669Y007916D01*
X036067Y007916D01*
X036435Y008068D01*
X036716Y008349D01*
X036868Y008717D01*
X036868Y009115D01*
X036716Y009482D01*
X036512Y009686D01*
X036537Y009686D01*
X036587Y009636D01*
X037536Y009636D01*
X037383Y009482D01*
X037230Y009115D01*
X037230Y008717D01*
X037383Y008349D01*
X037664Y008068D01*
X038031Y007916D01*
X038429Y007916D01*
X038797Y008068D01*
X039078Y008349D01*
X039230Y008717D01*
X039230Y009115D01*
X039078Y009482D01*
X038797Y009763D01*
X038429Y009916D01*
X038031Y009916D01*
X037664Y009764D01*
X040612Y012711D01*
X040612Y006416D01*
X039112Y006416D01*
X038886Y006190D01*
X038869Y006184D01*
X038864Y006173D01*
X038803Y006140D01*
X038791Y006141D01*
X038750Y006111D01*
X038705Y006086D01*
X038702Y006074D01*
X038647Y006033D01*
X038634Y006033D01*
X038598Y005997D01*
X038557Y005966D01*
X038555Y005954D01*
X038507Y005905D01*
X038495Y005904D01*
X038464Y005862D01*
X038427Y005826D01*
X038427Y005814D01*
X038471Y005873D02*
X034032Y005873D01*
X034032Y005931D02*
X038533Y005931D01*
X038589Y005990D02*
X034032Y005990D01*
X034032Y006048D02*
X038667Y006048D01*
X038743Y006107D02*
X034032Y006107D01*
X034032Y006165D02*
X038850Y006165D01*
X038920Y006224D02*
X034006Y006224D01*
X033947Y006282D02*
X038978Y006282D01*
X039037Y006341D02*
X031290Y006341D01*
X031232Y006399D02*
X039095Y006399D01*
X038112Y005288D02*
X033986Y005288D01*
X033944Y005246D02*
X034032Y005333D01*
X033944Y005246D02*
X033080Y005246D01*
X032992Y005333D01*
X032992Y005566D01*
X032953Y005471D01*
X032806Y005325D01*
X032615Y005246D01*
X032408Y005246D01*
X032314Y005285D01*
X031362Y004333D01*
X031245Y004216D01*
X024029Y004216D01*
X023810Y004435D01*
X023715Y004396D01*
X023508Y004396D01*
X023317Y004475D01*
X023171Y004621D01*
X023092Y004812D01*
X023092Y005019D01*
X023171Y005210D01*
X023176Y005216D01*
X021929Y005216D01*
X021812Y005333D01*
X021364Y005781D01*
X021305Y005781D01*
X021200Y005824D01*
X021120Y005904D01*
X021077Y006009D01*
X021077Y006122D01*
X021082Y006136D01*
X018287Y006136D01*
X017982Y006441D01*
X017977Y006436D01*
X017620Y006436D01*
X017405Y006651D01*
X017189Y006436D01*
X016833Y006436D01*
X016617Y006651D01*
X016402Y006436D01*
X016046Y006436D01*
X015830Y006651D01*
X015614Y006436D01*
X015258Y006436D01*
X015247Y006446D01*
X015192Y006391D01*
X015086Y006286D01*
X013025Y006286D01*
X013914Y005396D01*
X014008Y005436D01*
X014215Y005436D01*
X014274Y005411D01*
X014362Y005498D01*
X014479Y005616D01*
X017695Y005616D01*
X017914Y005396D01*
X018008Y005436D01*
X018215Y005436D01*
X018406Y005356D01*
X018553Y005210D01*
X018632Y005019D01*
X018632Y004812D01*
X018553Y004621D01*
X018406Y004475D01*
X018215Y004396D01*
X018008Y004396D01*
X017817Y004475D01*
X017671Y004621D01*
X017612Y004764D01*
X017553Y004621D01*
X017406Y004475D01*
X017215Y004396D01*
X017008Y004396D01*
X016817Y004475D01*
X016671Y004621D01*
X016612Y004764D01*
X016553Y004621D01*
X016406Y004475D01*
X016215Y004396D01*
X016008Y004396D01*
X015817Y004475D01*
X015671Y004621D01*
X015592Y004812D01*
X015592Y005019D01*
X015671Y005210D01*
X015676Y005216D01*
X014645Y005216D01*
X014578Y005149D01*
X014632Y005019D01*
X014632Y004812D01*
X014553Y004621D01*
X014406Y004475D01*
X014215Y004396D01*
X014008Y004396D01*
X013817Y004475D01*
X013671Y004621D01*
X013612Y004764D01*
X013553Y004621D01*
X013406Y004475D01*
X013215Y004396D01*
X013008Y004396D01*
X012817Y004475D01*
X012671Y004621D01*
X012612Y004764D01*
X012553Y004621D01*
X012406Y004475D01*
X012215Y004396D01*
X012008Y004396D01*
X011817Y004475D01*
X011671Y004621D01*
X011632Y004716D01*
X010079Y004716D01*
X009962Y004833D01*
X009962Y007298D01*
X010079Y007416D01*
X010079Y007416D01*
X012579Y009916D01*
X015179Y009916D01*
X015927Y010663D01*
X015927Y010716D01*
X015195Y010716D01*
X014947Y010468D01*
X014947Y010409D01*
X014903Y010304D01*
X014823Y010224D01*
X014719Y010181D01*
X014605Y010181D01*
X014500Y010224D01*
X014420Y010304D01*
X014377Y010409D01*
X014377Y010522D01*
X014420Y010627D01*
X014500Y010707D01*
X014605Y010751D01*
X014664Y010751D01*
X014912Y010998D01*
X015029Y011116D01*
X016282Y011116D01*
X016282Y011740D01*
X016387Y011846D01*
X016532Y011990D01*
X016532Y013693D01*
X016470Y013754D01*
X016427Y013859D01*
X016427Y013972D01*
X016470Y014077D01*
X016550Y014157D01*
X016655Y014201D01*
X016769Y014201D01*
X016873Y014157D01*
X016953Y014077D01*
X016997Y013972D01*
X016997Y013859D01*
X016953Y013754D01*
X016892Y013693D01*
X016892Y012000D01*
X018827Y013935D01*
X018827Y014022D01*
X018870Y014127D01*
X018950Y014207D01*
X018961Y014212D01*
X018737Y014436D01*
X016637Y014436D01*
X016292Y014781D01*
X016205Y014781D01*
X016100Y014824D01*
X016020Y014904D01*
X015977Y015009D01*
X015977Y015122D01*
X016020Y015227D01*
X016100Y015307D01*
X016111Y015312D01*
X014912Y016511D01*
X012227Y013826D01*
X012273Y013807D01*
X012353Y013727D01*
X012397Y013622D01*
X012397Y013563D01*
X012910Y013051D01*
X012969Y013051D01*
X013073Y013007D01*
X013153Y012927D01*
X013197Y012822D01*
X013197Y012709D01*
X013153Y012604D01*
X013073Y012524D01*
X012969Y012481D01*
X012855Y012481D01*
X012750Y012524D01*
X012670Y012604D01*
X012627Y012709D01*
X012627Y012768D01*
X012114Y013281D01*
X012055Y013281D01*
X011950Y013324D01*
X011870Y013404D01*
X011851Y013450D01*
X011447Y013046D01*
X011447Y012959D01*
X011403Y012854D01*
X011323Y012774D01*
X011219Y012731D01*
X011105Y012731D01*
X011092Y012736D01*
X011092Y010396D01*
X012189Y010396D01*
X012250Y010457D01*
X012355Y010501D01*
X012469Y010501D01*
X012573Y010457D01*
X012653Y010377D01*
X014390Y010377D01*
X014377Y010436D02*
X012595Y010436D01*
X012653Y010377D02*
X012697Y010272D01*
X012697Y010159D01*
X012653Y010054D01*
X012573Y009974D01*
X012469Y009931D01*
X012355Y009931D01*
X012250Y009974D01*
X012189Y010036D01*
X010837Y010036D01*
X010732Y010141D01*
X010732Y013190D01*
X010837Y013296D01*
X011237Y013696D01*
X011282Y013696D01*
X011282Y018758D01*
X011098Y018942D01*
X011098Y018851D01*
X011010Y018763D01*
X010413Y018763D01*
X010326Y018851D01*
X010326Y019447D01*
X010413Y019535D01*
X010799Y019535D01*
X011029Y019766D01*
X011479Y019766D01*
X012577Y020863D01*
X012577Y020922D01*
X012620Y021027D01*
X012700Y021107D01*
X012805Y021151D01*
X012919Y021151D01*
X013023Y021107D01*
X013103Y021027D01*
X013147Y020922D01*
X013147Y020809D01*
X013103Y020704D01*
X013023Y020624D01*
X012919Y020581D01*
X012860Y020581D01*
X012675Y020396D01*
X014039Y020396D01*
X014082Y020439D01*
X012718Y020439D01*
X012777Y020498D02*
X014082Y020498D01*
X014082Y020556D02*
X012835Y020556D01*
X013001Y020615D02*
X014082Y020615D01*
X014082Y020673D02*
X013072Y020673D01*
X013115Y020732D02*
X014082Y020732D01*
X014082Y020790D02*
X013139Y020790D01*
X013147Y020849D02*
X014082Y020849D01*
X014082Y020907D02*
X013147Y020907D01*
X013129Y020966D02*
X014082Y020966D01*
X014082Y021024D02*
X013105Y021024D01*
X013048Y021083D02*
X014082Y021083D01*
X014082Y021141D02*
X012941Y021141D01*
X012782Y021141D02*
X005852Y021141D01*
X005852Y021083D02*
X012676Y021083D01*
X012619Y021024D02*
X005852Y021024D01*
X005852Y020966D02*
X012595Y020966D01*
X012577Y020907D02*
X005852Y020907D01*
X005852Y020849D02*
X012562Y020849D01*
X012504Y020790D02*
X005852Y020790D01*
X005852Y020732D02*
X012445Y020732D01*
X012387Y020673D02*
X005854Y020673D01*
X005852Y020676D02*
X005852Y022416D01*
X007612Y022416D01*
X008612Y023416D01*
X008612Y025223D01*
X038112Y025223D01*
X038112Y023416D01*
X038322Y023205D01*
X038350Y023168D01*
X038375Y023123D01*
X038386Y023120D01*
X038427Y023065D01*
X038427Y023052D01*
X038464Y023016D01*
X038495Y022975D01*
X038507Y022973D01*
X038555Y022925D01*
X038557Y022913D01*
X038598Y022882D01*
X038634Y022845D01*
X038647Y022845D01*
X038702Y022804D01*
X038705Y022793D01*
X038750Y022768D01*
X038787Y022740D01*
X039112Y022416D01*
X039376Y022416D01*
X039112Y022151D01*
X038827Y022436D01*
X038396Y022436D01*
X038092Y022131D01*
X038092Y022116D01*
X036779Y022116D01*
X036662Y021998D01*
X034329Y019666D01*
X029097Y019666D01*
X029097Y019772D01*
X029053Y019877D01*
X028973Y019957D01*
X028869Y020001D01*
X028781Y020001D01*
X028432Y020350D01*
X028432Y020681D01*
X028327Y020786D01*
X031136Y020786D01*
X031242Y020891D01*
X033731Y023381D01*
X033819Y023381D01*
X033923Y023424D01*
X034003Y023504D01*
X034047Y023609D01*
X034047Y023722D01*
X034003Y023827D01*
X033923Y023907D01*
X033819Y023951D01*
X033705Y023951D01*
X033600Y023907D01*
X033520Y023827D01*
X033477Y023722D01*
X033477Y023635D01*
X030987Y021146D01*
X028341Y021146D01*
X028347Y021159D01*
X028347Y021272D01*
X028303Y021377D01*
X028223Y021457D01*
X028119Y021501D01*
X028005Y021501D01*
X027900Y021457D01*
X027839Y021396D01*
X023736Y021396D01*
X021997Y023135D01*
X021997Y023222D01*
X021953Y023327D01*
X021873Y023407D01*
X021769Y023451D01*
X021655Y023451D01*
X021550Y023407D01*
X021470Y023327D01*
X021427Y023222D01*
X021427Y023109D01*
X021470Y023004D01*
X021550Y022924D01*
X021655Y022881D01*
X021742Y022881D01*
X023482Y021141D01*
X023587Y021036D01*
X026227Y021036D01*
X026152Y020961D01*
X026127Y020986D01*
X025696Y020986D01*
X025392Y020681D01*
X025392Y020646D01*
X025237Y020646D01*
X025192Y020601D01*
X025105Y020601D01*
X025000Y020557D01*
X024920Y020477D01*
X024877Y020372D01*
X024877Y020259D01*
X024920Y020154D01*
X025000Y020074D01*
X025105Y020031D01*
X025219Y020031D01*
X025323Y020074D01*
X025403Y020154D01*
X025428Y020214D01*
X025553Y020089D01*
X025512Y020048D01*
X025329Y019866D01*
X022297Y019866D01*
X022297Y019972D01*
X022253Y020077D01*
X022173Y020157D01*
X022069Y020201D01*
X022010Y020201D01*
X019812Y022398D01*
X019695Y022516D01*
X015515Y022516D01*
X015473Y022557D01*
X015369Y022601D01*
X015255Y022601D01*
X015150Y022557D01*
X015109Y022516D01*
X014865Y022516D01*
X014823Y022557D01*
X014719Y022601D01*
X014605Y022601D01*
X014500Y022557D01*
X014462Y022519D01*
X014423Y022557D01*
X014319Y022601D01*
X014205Y022601D01*
X014100Y022557D01*
X014020Y022477D01*
X013977Y022372D01*
X013977Y022259D01*
X014020Y022154D01*
X014082Y022093D01*
X014082Y020439D01*
X014262Y020216D02*
X012662Y020216D01*
X012662Y019016D01*
X014912Y016766D01*
X011162Y013016D01*
X010912Y013116D02*
X010912Y010216D01*
X012412Y010216D01*
X012678Y010319D02*
X014414Y010319D01*
X014464Y010260D02*
X012697Y010260D01*
X012697Y010202D02*
X014554Y010202D01*
X014769Y010202D02*
X015465Y010202D01*
X015523Y010260D02*
X014859Y010260D01*
X014909Y010319D02*
X015582Y010319D01*
X015640Y010377D02*
X014934Y010377D01*
X014947Y010436D02*
X015699Y010436D01*
X015757Y010494D02*
X014973Y010494D01*
X015032Y010553D02*
X015816Y010553D01*
X015874Y010611D02*
X015090Y010611D01*
X015149Y010670D02*
X015927Y010670D01*
X016210Y010381D02*
X016269Y010381D01*
X016373Y010424D01*
X016453Y010504D01*
X016497Y010609D01*
X016497Y010716D01*
X017965Y010716D01*
X017970Y010704D01*
X018050Y010624D01*
X018155Y010581D01*
X018269Y010581D01*
X018373Y010624D01*
X018415Y010666D01*
X019209Y010666D01*
X019250Y010624D01*
X019355Y010581D01*
X019469Y010581D01*
X019573Y010624D01*
X019653Y010704D01*
X019697Y010809D01*
X019697Y010922D01*
X019679Y010966D01*
X028377Y010966D01*
X028377Y010885D01*
X026837Y009346D01*
X020091Y009346D01*
X020097Y009359D01*
X020097Y009472D01*
X020053Y009577D01*
X019973Y009657D01*
X019869Y009701D01*
X019755Y009701D01*
X019650Y009657D01*
X019609Y009616D01*
X018695Y009616D01*
X017897Y010413D01*
X017897Y010472D01*
X017853Y010577D01*
X017773Y010657D01*
X017669Y010701D01*
X017555Y010701D01*
X017450Y010657D01*
X017370Y010577D01*
X017327Y010472D01*
X017327Y010359D01*
X017370Y010254D01*
X017450Y010174D01*
X017555Y010131D01*
X017614Y010131D01*
X018399Y009346D01*
X017141Y009346D01*
X017147Y009359D01*
X017147Y009472D01*
X017103Y009577D01*
X017023Y009657D01*
X016919Y009701D01*
X016831Y009701D01*
X016497Y010035D01*
X016497Y010122D01*
X016453Y010227D01*
X016373Y010307D01*
X016269Y010351D01*
X016180Y010351D01*
X016210Y010381D01*
X016206Y010377D02*
X017327Y010377D01*
X017327Y010436D02*
X016385Y010436D01*
X016443Y010494D02*
X017336Y010494D01*
X017360Y010553D02*
X016473Y010553D01*
X016497Y010611D02*
X017404Y010611D01*
X017480Y010670D02*
X016497Y010670D01*
X016462Y011166D02*
X016862Y011166D01*
X016968Y011430D02*
X018444Y011430D01*
X018450Y011424D02*
X018555Y011381D01*
X018614Y011381D01*
X018877Y011118D01*
X018877Y011066D01*
X018415Y011066D01*
X018373Y011107D01*
X018269Y011151D01*
X018155Y011151D01*
X018071Y011116D01*
X017147Y011116D01*
X017147Y011222D01*
X017103Y011327D01*
X017023Y011407D01*
X016965Y011431D01*
X016997Y011509D01*
X016997Y011596D01*
X019027Y013626D01*
X019027Y013609D01*
X019070Y013504D01*
X019150Y013424D01*
X019255Y013381D01*
X019342Y013381D01*
X019887Y012836D01*
X027203Y012836D01*
X027177Y012772D01*
X027177Y012659D01*
X027182Y012646D01*
X019535Y012646D01*
X019473Y012707D01*
X019369Y012751D01*
X019255Y012751D01*
X019150Y012707D01*
X019070Y012627D01*
X019027Y012522D01*
X019027Y012409D01*
X019070Y012304D01*
X019150Y012224D01*
X019255Y012181D01*
X019369Y012181D01*
X019473Y012224D01*
X019535Y012286D01*
X030129Y012286D01*
X030120Y012277D01*
X030077Y012172D01*
X030077Y012085D01*
X029587Y011596D01*
X026985Y011596D01*
X026923Y011657D01*
X026819Y011701D01*
X026705Y011701D01*
X026600Y011657D01*
X026520Y011577D01*
X026477Y011472D01*
X026477Y011366D01*
X019303Y011366D01*
X019219Y011401D01*
X019160Y011401D01*
X018897Y011663D01*
X018897Y011722D01*
X018853Y011827D01*
X018773Y011907D01*
X018669Y011951D01*
X018555Y011951D01*
X018450Y011907D01*
X018370Y011827D01*
X018327Y011722D01*
X018327Y011609D01*
X018370Y011504D01*
X018450Y011424D01*
X018386Y011489D02*
X016988Y011489D01*
X016997Y011547D02*
X018352Y011547D01*
X018328Y011606D02*
X017006Y011606D01*
X017065Y011664D02*
X018327Y011664D01*
X018327Y011723D02*
X017123Y011723D01*
X017182Y011781D02*
X018351Y011781D01*
X018383Y011840D02*
X017240Y011840D01*
X017299Y011898D02*
X018441Y011898D01*
X018782Y011898D02*
X029890Y011898D01*
X029948Y011957D02*
X017357Y011957D01*
X017416Y012015D02*
X030007Y012015D01*
X030065Y012074D02*
X017474Y012074D01*
X017533Y012132D02*
X030077Y012132D01*
X030084Y012191D02*
X019393Y012191D01*
X019498Y012249D02*
X030109Y012249D01*
X030362Y012116D02*
X029662Y011416D01*
X026762Y011416D01*
X026975Y011606D02*
X029597Y011606D01*
X029656Y011664D02*
X026907Y011664D01*
X026617Y011664D02*
X018897Y011664D01*
X018897Y011723D02*
X029714Y011723D01*
X029773Y011781D02*
X018872Y011781D01*
X018841Y011840D02*
X029831Y011840D01*
X030106Y011606D02*
X034619Y011606D01*
X034678Y011664D02*
X030165Y011664D01*
X030223Y011723D02*
X034736Y011723D01*
X034795Y011781D02*
X030282Y011781D01*
X030331Y011831D02*
X029866Y011366D01*
X034379Y011366D01*
X035227Y012213D01*
X035227Y012272D01*
X035232Y012286D01*
X030595Y012286D01*
X030603Y012277D01*
X030647Y012172D01*
X030647Y012059D01*
X030603Y011954D01*
X030523Y011874D01*
X030419Y011831D01*
X030331Y011831D01*
X030440Y011840D02*
X034853Y011840D01*
X034912Y011898D02*
X030547Y011898D01*
X030604Y011957D02*
X034970Y011957D01*
X035029Y012015D02*
X030629Y012015D01*
X030647Y012074D02*
X035087Y012074D01*
X035146Y012132D02*
X030647Y012132D01*
X030639Y012191D02*
X035204Y012191D01*
X035227Y012249D02*
X030615Y012249D01*
X030792Y012646D02*
X030792Y012907D01*
X030855Y012881D01*
X030969Y012881D01*
X031073Y012924D01*
X031153Y013004D01*
X031197Y013109D01*
X031197Y013196D01*
X031486Y013486D01*
X034332Y013486D01*
X034327Y013472D01*
X034327Y013359D01*
X034332Y013346D01*
X032335Y013346D01*
X032273Y013407D01*
X032169Y013451D01*
X032055Y013451D01*
X031950Y013407D01*
X031870Y013327D01*
X031827Y013222D01*
X031827Y013109D01*
X031870Y013004D01*
X031950Y012924D01*
X032055Y012881D01*
X032169Y012881D01*
X032273Y012924D01*
X032335Y012986D01*
X035939Y012986D01*
X036000Y012924D01*
X036105Y012881D01*
X036219Y012881D01*
X036323Y012924D01*
X036403Y013004D01*
X036447Y013109D01*
X036447Y013216D01*
X038029Y013216D01*
X038103Y013142D01*
X038092Y013131D01*
X038092Y012700D01*
X038196Y012596D01*
X037287Y012596D01*
X037182Y012490D01*
X032837Y008146D01*
X027996Y008146D01*
X028731Y008881D01*
X028819Y008881D01*
X028923Y008924D01*
X029003Y009004D01*
X029047Y009109D01*
X029047Y009222D01*
X029003Y009327D01*
X028923Y009407D01*
X028819Y009451D01*
X028705Y009451D01*
X028600Y009407D01*
X028520Y009327D01*
X028477Y009222D01*
X028477Y009135D01*
X027897Y008555D01*
X027897Y008572D01*
X027853Y008677D01*
X027773Y008757D01*
X027669Y008801D01*
X027581Y008801D01*
X027292Y009090D01*
X028432Y009090D01*
X028477Y009149D02*
X027233Y009149D01*
X027191Y009191D02*
X027292Y009090D01*
X027350Y009032D02*
X028373Y009032D01*
X028315Y008973D02*
X027409Y008973D01*
X027467Y008915D02*
X028256Y008915D01*
X028198Y008856D02*
X027526Y008856D01*
X027676Y008798D02*
X028139Y008798D01*
X028081Y008739D02*
X027791Y008739D01*
X027850Y008681D02*
X028022Y008681D01*
X027964Y008622D02*
X027876Y008622D01*
X027897Y008564D02*
X027905Y008564D01*
X027612Y008516D02*
X027112Y009016D01*
X014262Y009016D01*
X014473Y009207D02*
X015378Y009207D01*
X015377Y009209D02*
X015382Y009196D01*
X014485Y009196D01*
X014423Y009257D01*
X014319Y009301D01*
X014205Y009301D01*
X014100Y009257D01*
X014020Y009177D01*
X013977Y009072D01*
X013977Y008959D01*
X014020Y008854D01*
X014100Y008774D01*
X014205Y008731D01*
X014319Y008731D01*
X014423Y008774D01*
X014485Y008836D01*
X016182Y008836D01*
X016177Y008822D01*
X016177Y008763D01*
X015879Y008466D01*
X011695Y008466D01*
X012745Y009516D01*
X015179Y009516D01*
X015345Y009516D01*
X015927Y010098D01*
X015927Y010009D01*
X015970Y009904D01*
X016050Y009824D01*
X016155Y009781D01*
X016242Y009781D01*
X016577Y009446D01*
X016577Y009359D01*
X016582Y009346D01*
X015937Y009346D01*
X015903Y009427D01*
X015823Y009507D01*
X015719Y009551D01*
X015605Y009551D01*
X015500Y009507D01*
X015420Y009427D01*
X015377Y009322D01*
X015377Y009209D01*
X015377Y009266D02*
X014403Y009266D01*
X014121Y009266D02*
X012495Y009266D01*
X012553Y009324D02*
X015378Y009324D01*
X015402Y009383D02*
X012612Y009383D01*
X012670Y009441D02*
X015434Y009441D01*
X015493Y009500D02*
X012729Y009500D01*
X012455Y009792D02*
X009612Y009792D01*
X009612Y009734D02*
X012397Y009734D01*
X012338Y009675D02*
X009612Y009675D01*
X009612Y009617D02*
X012280Y009617D01*
X012221Y009558D02*
X009612Y009558D01*
X009612Y009500D02*
X012163Y009500D01*
X012104Y009441D02*
X009612Y009441D01*
X009612Y009383D02*
X012046Y009383D01*
X011987Y009324D02*
X009612Y009324D01*
X009612Y009266D02*
X011929Y009266D01*
X011870Y009207D02*
X009612Y009207D01*
X009612Y009149D02*
X011812Y009149D01*
X011753Y009090D02*
X009612Y009090D01*
X009612Y009032D02*
X011695Y009032D01*
X011636Y008973D02*
X009612Y008973D01*
X009612Y008915D02*
X011578Y008915D01*
X011519Y008856D02*
X009612Y008856D01*
X009612Y008798D02*
X011461Y008798D01*
X011402Y008739D02*
X009612Y008739D01*
X009612Y008681D02*
X011344Y008681D01*
X011285Y008622D02*
X009612Y008622D01*
X009612Y008564D02*
X011227Y008564D01*
X011168Y008505D02*
X009612Y008505D01*
X009612Y008447D02*
X011110Y008447D01*
X011051Y008388D02*
X009612Y008388D01*
X009612Y008330D02*
X010993Y008330D01*
X010934Y008271D02*
X009612Y008271D01*
X009612Y008213D02*
X010876Y008213D01*
X010817Y008154D02*
X009612Y008154D01*
X009612Y008096D02*
X010759Y008096D01*
X010700Y008037D02*
X009612Y008037D01*
X009612Y007979D02*
X010642Y007979D01*
X010583Y007920D02*
X009612Y007920D01*
X009612Y007862D02*
X010525Y007862D01*
X010466Y007803D02*
X009612Y007803D01*
X009612Y007745D02*
X010408Y007745D01*
X010349Y007686D02*
X009612Y007686D01*
X009612Y007628D02*
X010291Y007628D01*
X010232Y007569D02*
X009612Y007569D01*
X009612Y007511D02*
X010174Y007511D01*
X010115Y007452D02*
X009612Y007452D01*
X009612Y007394D02*
X010057Y007394D01*
X009998Y007335D02*
X009612Y007335D01*
X009612Y007277D02*
X009962Y007277D01*
X009962Y007218D02*
X009612Y007218D01*
X009612Y007160D02*
X009962Y007160D01*
X009962Y007101D02*
X009612Y007101D01*
X009612Y007043D02*
X009962Y007043D01*
X009962Y006984D02*
X009612Y006984D01*
X009612Y006926D02*
X009962Y006926D01*
X009962Y006867D02*
X009612Y006867D01*
X009612Y006809D02*
X009962Y006809D01*
X009962Y006750D02*
X009612Y006750D01*
X009612Y006692D02*
X009962Y006692D01*
X009962Y006633D02*
X009612Y006633D01*
X009612Y006575D02*
X009962Y006575D01*
X009962Y006516D02*
X009612Y006516D01*
X009612Y006458D02*
X009962Y006458D01*
X009962Y006399D02*
X009595Y006399D01*
X009612Y006416D02*
X009612Y019416D01*
X009112Y019916D01*
X006612Y019916D01*
X005852Y020676D01*
X005913Y020615D02*
X012328Y020615D01*
X012270Y020556D02*
X005971Y020556D01*
X006030Y020498D02*
X012211Y020498D01*
X012153Y020439D02*
X006088Y020439D01*
X006147Y020381D02*
X012094Y020381D01*
X012036Y020322D02*
X006205Y020322D01*
X006264Y020264D02*
X011977Y020264D01*
X011919Y020205D02*
X006322Y020205D01*
X006381Y020147D02*
X011860Y020147D01*
X011802Y020088D02*
X006439Y020088D01*
X006498Y020030D02*
X011743Y020030D01*
X011685Y019971D02*
X006556Y019971D01*
X005852Y021200D02*
X014082Y021200D01*
X014082Y021258D02*
X005852Y021258D01*
X005852Y021317D02*
X014082Y021317D01*
X014082Y021375D02*
X005852Y021375D01*
X005852Y021434D02*
X014082Y021434D01*
X014082Y021492D02*
X005852Y021492D01*
X005852Y021551D02*
X014082Y021551D01*
X014082Y021609D02*
X005852Y021609D01*
X005852Y021668D02*
X014082Y021668D01*
X014082Y021726D02*
X005852Y021726D01*
X005852Y021785D02*
X014082Y021785D01*
X014082Y021843D02*
X005852Y021843D01*
X005852Y021902D02*
X014082Y021902D01*
X014082Y021960D02*
X005852Y021960D01*
X005852Y022019D02*
X014082Y022019D01*
X014082Y022077D02*
X005852Y022077D01*
X005852Y022136D02*
X014039Y022136D01*
X014004Y022194D02*
X005852Y022194D01*
X005852Y022253D02*
X013979Y022253D01*
X013977Y022311D02*
X005852Y022311D01*
X005852Y022370D02*
X013977Y022370D01*
X014000Y022428D02*
X007624Y022428D01*
X007683Y022487D02*
X014030Y022487D01*
X014088Y022545D02*
X007741Y022545D01*
X007800Y022604D02*
X022019Y022604D01*
X021961Y022662D02*
X007858Y022662D01*
X007917Y022721D02*
X021902Y022721D01*
X021844Y022779D02*
X007975Y022779D01*
X008034Y022838D02*
X021785Y022838D01*
X021618Y022896D02*
X008092Y022896D01*
X008151Y022955D02*
X021520Y022955D01*
X021466Y023013D02*
X008209Y023013D01*
X008268Y023072D02*
X021442Y023072D01*
X021427Y023130D02*
X008326Y023130D01*
X008385Y023189D02*
X021427Y023189D01*
X021437Y023247D02*
X008443Y023247D01*
X008502Y023306D02*
X021461Y023306D01*
X021507Y023364D02*
X008560Y023364D01*
X008612Y023423D02*
X021588Y023423D01*
X021836Y023423D02*
X033264Y023423D01*
X033206Y023364D02*
X021916Y023364D01*
X021962Y023306D02*
X033147Y023306D01*
X033089Y023247D02*
X031926Y023247D01*
X031980Y023225D02*
X031849Y023279D01*
X031707Y023279D01*
X031576Y023225D01*
X031475Y023124D01*
X031421Y022993D01*
X031421Y022851D01*
X031475Y022720D01*
X031576Y022619D01*
X031707Y022565D01*
X031849Y022565D01*
X031980Y022619D01*
X032081Y022720D01*
X032135Y022851D01*
X032135Y022993D01*
X032081Y023124D01*
X031980Y023225D01*
X032016Y023189D02*
X033030Y023189D01*
X032972Y023130D02*
X032075Y023130D01*
X032103Y023072D02*
X032913Y023072D01*
X032855Y023013D02*
X032127Y023013D01*
X032135Y022955D02*
X032796Y022955D01*
X032738Y022896D02*
X032135Y022896D01*
X032130Y022838D02*
X032679Y022838D01*
X032621Y022779D02*
X032105Y022779D01*
X032081Y022721D02*
X032562Y022721D01*
X032504Y022662D02*
X032023Y022662D01*
X031943Y022604D02*
X032445Y022604D01*
X032387Y022545D02*
X022587Y022545D01*
X022645Y022487D02*
X032328Y022487D01*
X032270Y022428D02*
X022704Y022428D01*
X022762Y022370D02*
X032211Y022370D01*
X032153Y022311D02*
X022821Y022311D01*
X022879Y022253D02*
X032094Y022253D01*
X032036Y022194D02*
X022938Y022194D01*
X022996Y022136D02*
X031977Y022136D01*
X031919Y022077D02*
X023055Y022077D01*
X023113Y022019D02*
X031860Y022019D01*
X031802Y021960D02*
X023172Y021960D01*
X023230Y021902D02*
X031743Y021902D01*
X031685Y021843D02*
X023289Y021843D01*
X023347Y021785D02*
X031626Y021785D01*
X031568Y021726D02*
X023406Y021726D01*
X023464Y021668D02*
X031509Y021668D01*
X031451Y021609D02*
X023523Y021609D01*
X023581Y021551D02*
X031392Y021551D01*
X031334Y021492D02*
X028139Y021492D01*
X028247Y021434D02*
X031275Y021434D01*
X031217Y021375D02*
X028304Y021375D01*
X028328Y021317D02*
X031158Y021317D01*
X031100Y021258D02*
X028347Y021258D01*
X028347Y021200D02*
X031041Y021200D01*
X031062Y020966D02*
X026412Y020966D01*
X025912Y020466D01*
X025312Y020466D01*
X025162Y020316D01*
X025425Y020205D02*
X025437Y020205D01*
X025396Y020147D02*
X025495Y020147D01*
X025552Y020088D02*
X025337Y020088D01*
X025435Y019971D02*
X022297Y019971D01*
X022297Y019913D02*
X025376Y019913D01*
X025493Y020030D02*
X022273Y020030D01*
X022242Y020088D02*
X024986Y020088D01*
X024928Y020147D02*
X022184Y020147D01*
X022005Y020205D02*
X024899Y020205D01*
X024877Y020264D02*
X021947Y020264D01*
X021888Y020322D02*
X024877Y020322D01*
X024880Y020381D02*
X021830Y020381D01*
X021771Y020439D02*
X024905Y020439D01*
X024941Y020498D02*
X021713Y020498D01*
X021654Y020556D02*
X024999Y020556D01*
X025206Y020615D02*
X021596Y020615D01*
X021537Y020673D02*
X025392Y020673D01*
X025442Y020732D02*
X021479Y020732D01*
X021420Y020790D02*
X025501Y020790D01*
X025559Y020849D02*
X021362Y020849D01*
X021303Y020907D02*
X025618Y020907D01*
X025676Y020966D02*
X021245Y020966D01*
X021186Y021024D02*
X026216Y021024D01*
X026157Y020966D02*
X026147Y020966D01*
X026407Y020706D02*
X026486Y020786D01*
X026496Y020786D01*
X026412Y020701D01*
X026407Y020706D01*
X026432Y020732D02*
X026442Y020732D01*
X026412Y020230D02*
X026347Y020166D01*
X026476Y020166D01*
X026412Y020230D01*
X026387Y020205D02*
X026437Y020205D01*
X026476Y019766D02*
X026412Y019701D01*
X026347Y019766D01*
X026476Y019766D01*
X026448Y019737D02*
X026376Y019737D01*
X026912Y019466D02*
X027412Y018966D01*
X029012Y018966D01*
X029062Y018916D01*
X029347Y018918D02*
X030677Y018918D01*
X030650Y018907D02*
X030609Y018866D01*
X029347Y018866D01*
X029347Y018972D01*
X029303Y019077D01*
X029223Y019157D01*
X029119Y019201D01*
X029005Y019201D01*
X028900Y019157D01*
X028889Y019146D01*
X028327Y019146D01*
X028432Y019250D01*
X028432Y019266D01*
X034179Y019266D01*
X032829Y017916D01*
X032803Y017977D01*
X032723Y018057D01*
X032619Y018101D01*
X032531Y018101D01*
X032142Y018490D01*
X032036Y018596D01*
X031091Y018596D01*
X031097Y018609D01*
X031097Y018722D01*
X031053Y018827D01*
X030973Y018907D01*
X030869Y018951D01*
X030755Y018951D01*
X030650Y018907D01*
X030947Y018918D02*
X033832Y018918D01*
X033890Y018977D02*
X029345Y018977D01*
X029321Y019035D02*
X033949Y019035D01*
X034007Y019094D02*
X029287Y019094D01*
X029228Y019152D02*
X034066Y019152D01*
X034124Y019211D02*
X028392Y019211D01*
X028334Y019152D02*
X028895Y019152D01*
X029097Y019679D02*
X034342Y019679D01*
X034401Y019737D02*
X029097Y019737D01*
X029087Y019796D02*
X034459Y019796D01*
X034518Y019854D02*
X029063Y019854D01*
X029018Y019913D02*
X034576Y019913D01*
X034635Y019971D02*
X028940Y019971D01*
X028752Y020030D02*
X034693Y020030D01*
X034752Y020088D02*
X028694Y020088D01*
X028635Y020147D02*
X034810Y020147D01*
X034869Y020205D02*
X028577Y020205D01*
X028518Y020264D02*
X034927Y020264D01*
X034986Y020322D02*
X028460Y020322D01*
X028432Y020381D02*
X035044Y020381D01*
X035103Y020439D02*
X028432Y020439D01*
X028432Y020498D02*
X035161Y020498D01*
X035220Y020556D02*
X028432Y020556D01*
X028432Y020615D02*
X035278Y020615D01*
X035337Y020673D02*
X028432Y020673D01*
X028381Y020732D02*
X035395Y020732D01*
X035454Y020790D02*
X031141Y020790D01*
X031199Y020849D02*
X035512Y020849D01*
X035571Y020907D02*
X031258Y020907D01*
X031316Y020966D02*
X035629Y020966D01*
X035688Y021024D02*
X031375Y021024D01*
X031433Y021083D02*
X035746Y021083D01*
X035805Y021141D02*
X031492Y021141D01*
X031550Y021200D02*
X035863Y021200D01*
X035922Y021258D02*
X031609Y021258D01*
X031667Y021317D02*
X035980Y021317D01*
X036039Y021375D02*
X031726Y021375D01*
X031784Y021434D02*
X036097Y021434D01*
X036156Y021492D02*
X031843Y021492D01*
X031901Y021551D02*
X036214Y021551D01*
X036273Y021609D02*
X031960Y021609D01*
X032018Y021668D02*
X036331Y021668D01*
X036390Y021726D02*
X032077Y021726D01*
X032135Y021785D02*
X036448Y021785D01*
X036507Y021843D02*
X032194Y021843D01*
X032252Y021902D02*
X036565Y021902D01*
X036624Y021960D02*
X032311Y021960D01*
X032369Y022019D02*
X036682Y022019D01*
X036741Y022077D02*
X032428Y022077D01*
X032486Y022136D02*
X038096Y022136D01*
X038155Y022194D02*
X032545Y022194D01*
X032603Y022253D02*
X038214Y022253D01*
X038272Y022311D02*
X032662Y022311D01*
X032720Y022370D02*
X038331Y022370D01*
X038389Y022428D02*
X032779Y022428D01*
X032837Y022487D02*
X039041Y022487D01*
X038982Y022545D02*
X032896Y022545D01*
X032954Y022604D02*
X038924Y022604D01*
X038865Y022662D02*
X033013Y022662D01*
X033071Y022721D02*
X038807Y022721D01*
X038730Y022779D02*
X033130Y022779D01*
X033188Y022838D02*
X038657Y022838D01*
X038579Y022896D02*
X033247Y022896D01*
X033305Y022955D02*
X038525Y022955D01*
X038466Y023013D02*
X033364Y023013D01*
X033422Y023072D02*
X038422Y023072D01*
X038371Y023130D02*
X033481Y023130D01*
X033539Y023189D02*
X038335Y023189D01*
X038280Y023247D02*
X033598Y023247D01*
X033656Y023306D02*
X038222Y023306D01*
X038163Y023364D02*
X033715Y023364D01*
X033920Y023423D02*
X038112Y023423D01*
X038112Y023481D02*
X033980Y023481D01*
X034018Y023540D02*
X038112Y023540D01*
X038112Y023598D02*
X034042Y023598D01*
X034047Y023657D02*
X038112Y023657D01*
X038112Y023715D02*
X034047Y023715D01*
X034026Y023774D02*
X038112Y023774D01*
X038112Y023832D02*
X033998Y023832D01*
X033940Y023891D02*
X038112Y023891D01*
X038112Y023949D02*
X033822Y023949D01*
X033702Y023949D02*
X008612Y023949D01*
X008612Y023891D02*
X033584Y023891D01*
X033525Y023832D02*
X008612Y023832D01*
X008612Y023774D02*
X033498Y023774D01*
X033477Y023715D02*
X008612Y023715D01*
X008612Y023657D02*
X033477Y023657D01*
X033440Y023598D02*
X008612Y023598D01*
X008612Y023540D02*
X033381Y023540D01*
X033323Y023481D02*
X008612Y023481D01*
X008612Y024008D02*
X038112Y024008D01*
X038112Y024066D02*
X008612Y024066D01*
X008612Y024125D02*
X038112Y024125D01*
X038112Y024183D02*
X008612Y024183D01*
X008612Y024242D02*
X038112Y024242D01*
X038112Y024300D02*
X008612Y024300D01*
X008612Y024359D02*
X038112Y024359D01*
X038112Y024417D02*
X008612Y024417D01*
X008612Y024476D02*
X038112Y024476D01*
X038112Y024534D02*
X008612Y024534D01*
X008612Y024593D02*
X038112Y024593D01*
X038112Y024651D02*
X008612Y024651D01*
X008612Y024710D02*
X038112Y024710D01*
X038112Y024768D02*
X008612Y024768D01*
X008612Y024827D02*
X038112Y024827D01*
X038112Y024885D02*
X008612Y024885D01*
X008612Y024944D02*
X038112Y024944D01*
X038112Y025002D02*
X008612Y025002D01*
X008612Y025061D02*
X038112Y025061D01*
X038112Y025119D02*
X008612Y025119D01*
X008612Y025178D02*
X038112Y025178D01*
X038835Y022428D02*
X039099Y022428D01*
X038952Y022311D02*
X039272Y022311D01*
X039214Y022253D02*
X039010Y022253D01*
X039069Y022194D02*
X039155Y022194D01*
X039331Y022370D02*
X038893Y022370D01*
X039112Y021680D02*
X039376Y021416D01*
X039112Y021151D01*
X038847Y021416D01*
X039112Y021680D01*
X039124Y021668D02*
X039099Y021668D01*
X039041Y021609D02*
X039183Y021609D01*
X039241Y021551D02*
X038982Y021551D01*
X038924Y021492D02*
X039300Y021492D01*
X039358Y021434D02*
X038865Y021434D01*
X038888Y021375D02*
X039336Y021375D01*
X039277Y021317D02*
X038946Y021317D01*
X039005Y021258D02*
X039219Y021258D01*
X039160Y021200D02*
X039063Y021200D01*
X038612Y020916D02*
X039112Y020416D01*
X040562Y020416D01*
X040562Y012916D01*
X037462Y009816D01*
X036662Y009816D01*
X036612Y009866D01*
X035462Y009866D01*
X033412Y007816D01*
X014062Y007816D01*
X013112Y006866D01*
X013074Y006866D01*
X012912Y006466D02*
X012662Y006716D01*
X012662Y007016D01*
X013612Y007966D01*
X032912Y007966D01*
X037362Y012416D01*
X039812Y012416D01*
X040412Y013016D01*
X040412Y019416D01*
X039312Y019416D01*
X038812Y019916D01*
X038612Y019916D01*
X038092Y019913D02*
X035142Y019913D01*
X035200Y019971D02*
X038092Y019971D01*
X038092Y020030D02*
X035259Y020030D01*
X035317Y020088D02*
X038092Y020088D01*
X038092Y020131D02*
X038092Y019700D01*
X038176Y019616D01*
X034845Y019616D01*
X036945Y021716D01*
X038092Y021716D01*
X038092Y021700D01*
X038376Y021416D01*
X038092Y021131D01*
X038092Y020700D01*
X038376Y020416D01*
X038092Y020131D01*
X038107Y020147D02*
X035376Y020147D01*
X035434Y020205D02*
X038166Y020205D01*
X038224Y020264D02*
X035493Y020264D01*
X035551Y020322D02*
X038283Y020322D01*
X038341Y020381D02*
X035610Y020381D01*
X035668Y020439D02*
X038353Y020439D01*
X038294Y020498D02*
X035727Y020498D01*
X035785Y020556D02*
X038236Y020556D01*
X038177Y020615D02*
X035844Y020615D01*
X035902Y020673D02*
X038119Y020673D01*
X038092Y020732D02*
X035961Y020732D01*
X036019Y020790D02*
X038092Y020790D01*
X038092Y020849D02*
X036078Y020849D01*
X036136Y020907D02*
X038092Y020907D01*
X038092Y020966D02*
X036195Y020966D01*
X036253Y021024D02*
X038092Y021024D01*
X038092Y021083D02*
X036312Y021083D01*
X036370Y021141D02*
X038102Y021141D01*
X038160Y021200D02*
X036429Y021200D01*
X036487Y021258D02*
X038219Y021258D01*
X038277Y021317D02*
X036546Y021317D01*
X036604Y021375D02*
X038336Y021375D01*
X038358Y021434D02*
X036663Y021434D01*
X036721Y021492D02*
X038300Y021492D01*
X038241Y021551D02*
X036780Y021551D01*
X036838Y021609D02*
X038183Y021609D01*
X038124Y021668D02*
X036897Y021668D01*
X038847Y020416D02*
X039112Y020151D01*
X039196Y020236D01*
X039037Y020236D01*
X038852Y020421D01*
X038847Y020416D01*
X038882Y020381D02*
X038892Y020381D01*
X038941Y020322D02*
X038951Y020322D01*
X038999Y020264D02*
X039009Y020264D01*
X039058Y020205D02*
X039166Y020205D01*
X039186Y020596D02*
X039107Y020675D01*
X039112Y020680D01*
X039196Y020596D01*
X039186Y020596D01*
X039177Y020615D02*
X039167Y020615D01*
X039119Y020673D02*
X039109Y020673D01*
X040027Y020596D02*
X040132Y020700D01*
X040132Y021131D01*
X039847Y021416D01*
X040132Y021700D01*
X040132Y022131D01*
X039847Y022416D01*
X040612Y022416D01*
X040612Y020596D01*
X040027Y020596D01*
X040046Y020615D02*
X040612Y020615D01*
X040612Y020673D02*
X040105Y020673D01*
X040132Y020732D02*
X040612Y020732D01*
X040612Y020790D02*
X040132Y020790D01*
X040132Y020849D02*
X040612Y020849D01*
X040612Y020907D02*
X040132Y020907D01*
X040132Y020966D02*
X040612Y020966D01*
X040612Y021024D02*
X040132Y021024D01*
X040132Y021083D02*
X040612Y021083D01*
X040612Y021141D02*
X040122Y021141D01*
X040063Y021200D02*
X040612Y021200D01*
X040612Y021258D02*
X040005Y021258D01*
X039946Y021317D02*
X040612Y021317D01*
X040612Y021375D02*
X039888Y021375D01*
X039865Y021434D02*
X040612Y021434D01*
X040612Y021492D02*
X039924Y021492D01*
X039982Y021551D02*
X040612Y021551D01*
X040612Y021609D02*
X040041Y021609D01*
X040099Y021668D02*
X040612Y021668D01*
X040612Y021726D02*
X040132Y021726D01*
X040132Y021785D02*
X040612Y021785D01*
X040612Y021843D02*
X040132Y021843D01*
X040132Y021902D02*
X040612Y021902D01*
X040612Y021960D02*
X040132Y021960D01*
X040132Y022019D02*
X040612Y022019D01*
X040612Y022077D02*
X040132Y022077D01*
X040127Y022136D02*
X040612Y022136D01*
X040612Y022194D02*
X040069Y022194D01*
X040010Y022253D02*
X040612Y022253D01*
X040612Y022311D02*
X039952Y022311D01*
X039893Y022370D02*
X040612Y022370D01*
X040382Y020236D02*
X040027Y020236D01*
X040132Y020131D01*
X040132Y019700D01*
X040027Y019596D01*
X040382Y019596D01*
X040382Y020236D01*
X040382Y020205D02*
X040058Y020205D01*
X040116Y020147D02*
X040382Y020147D01*
X040382Y020088D02*
X040132Y020088D01*
X040132Y020030D02*
X040382Y020030D01*
X040382Y019971D02*
X040132Y019971D01*
X040132Y019913D02*
X040382Y019913D01*
X040382Y019854D02*
X040132Y019854D01*
X040132Y019796D02*
X040382Y019796D01*
X040382Y019737D02*
X040132Y019737D01*
X040110Y019679D02*
X040382Y019679D01*
X040382Y019620D02*
X040052Y019620D01*
X040027Y019236D02*
X040232Y019236D01*
X040232Y018096D01*
X040132Y018096D01*
X040132Y018131D01*
X039847Y018416D01*
X040132Y018700D01*
X040132Y019131D01*
X040027Y019236D01*
X040052Y019211D02*
X040232Y019211D01*
X040232Y019152D02*
X040111Y019152D01*
X040132Y019094D02*
X040232Y019094D01*
X040232Y019035D02*
X040132Y019035D01*
X040132Y018977D02*
X040232Y018977D01*
X040232Y018918D02*
X040132Y018918D01*
X040132Y018860D02*
X040232Y018860D01*
X040232Y018801D02*
X040132Y018801D01*
X040132Y018743D02*
X040232Y018743D01*
X040232Y018684D02*
X040116Y018684D01*
X040057Y018626D02*
X040232Y018626D01*
X040232Y018567D02*
X039999Y018567D01*
X039940Y018509D02*
X040232Y018509D01*
X040232Y018450D02*
X039882Y018450D01*
X039871Y018392D02*
X040232Y018392D01*
X040232Y018333D02*
X039930Y018333D01*
X039988Y018275D02*
X040232Y018275D01*
X040232Y018216D02*
X040047Y018216D01*
X040105Y018158D02*
X040232Y018158D01*
X040232Y018099D02*
X040132Y018099D01*
X040262Y017916D02*
X039612Y017916D01*
X039957Y017525D02*
X040082Y017400D01*
X040082Y017650D01*
X039957Y017525D01*
X039968Y017514D02*
X040082Y017514D01*
X040082Y017456D02*
X040026Y017456D01*
X040004Y017573D02*
X040082Y017573D01*
X040082Y017631D02*
X040063Y017631D01*
X039812Y017416D02*
X040112Y017116D01*
X040112Y016416D01*
X039312Y016416D01*
X038812Y015916D01*
X038612Y015916D01*
X038092Y015935D02*
X035384Y015935D01*
X035373Y015924D02*
X035453Y016004D01*
X035497Y016109D01*
X035497Y016222D01*
X035491Y016236D01*
X038196Y016236D01*
X038092Y016131D01*
X038092Y015700D01*
X038267Y015525D01*
X034726Y015525D01*
X034667Y015467D02*
X038208Y015467D01*
X038232Y015490D02*
X037837Y015096D01*
X036441Y015096D01*
X036447Y015109D01*
X036447Y015222D01*
X036403Y015327D01*
X036323Y015407D01*
X036219Y015451D01*
X036105Y015451D01*
X036000Y015407D01*
X035939Y015346D01*
X034641Y015346D01*
X034647Y015359D01*
X034647Y015446D01*
X035103Y015902D01*
X035155Y015881D01*
X035269Y015881D01*
X035373Y015924D01*
X035442Y015993D02*
X038092Y015993D01*
X038092Y016052D02*
X035473Y016052D01*
X035497Y016110D02*
X038092Y016110D01*
X038129Y016169D02*
X035497Y016169D01*
X035495Y016227D02*
X038188Y016227D01*
X038092Y015876D02*
X035077Y015876D01*
X035018Y015818D02*
X038092Y015818D01*
X038092Y015759D02*
X034960Y015759D01*
X034901Y015701D02*
X038092Y015701D01*
X038150Y015642D02*
X034843Y015642D01*
X034784Y015584D02*
X038208Y015584D01*
X038267Y015525D02*
X038232Y015490D01*
X038232Y015490D01*
X038150Y015408D02*
X036321Y015408D01*
X036381Y015350D02*
X038091Y015350D01*
X038033Y015291D02*
X036418Y015291D01*
X036443Y015233D02*
X037974Y015233D01*
X037916Y015174D02*
X036447Y015174D01*
X036447Y015116D02*
X037857Y015116D01*
X037912Y014916D02*
X038412Y015416D01*
X039112Y015416D01*
X039612Y015916D01*
X039957Y015525D02*
X040082Y015525D01*
X040082Y015467D02*
X039898Y015467D01*
X039847Y015416D02*
X040082Y015181D01*
X040082Y015650D01*
X039847Y015416D01*
X039855Y015408D02*
X040082Y015408D01*
X040082Y015350D02*
X039913Y015350D01*
X039972Y015291D02*
X040082Y015291D01*
X040082Y015233D02*
X040030Y015233D01*
X040015Y015584D02*
X040082Y015584D01*
X040074Y015642D02*
X040082Y015642D01*
X040082Y016181D02*
X040027Y016236D01*
X040082Y016236D01*
X040082Y016181D01*
X040082Y016227D02*
X040036Y016227D01*
X039612Y016916D02*
X039112Y016416D01*
X034962Y016416D01*
X032862Y014316D01*
X032594Y014414D02*
X030792Y014414D01*
X030792Y014472D02*
X032618Y014472D01*
X032620Y014477D02*
X032577Y014372D01*
X032577Y014259D01*
X032620Y014154D01*
X032700Y014074D01*
X032805Y014031D01*
X032919Y014031D01*
X033023Y014074D01*
X033103Y014154D01*
X033147Y014259D01*
X033147Y014346D01*
X033779Y014979D01*
X033777Y014972D01*
X033777Y014859D01*
X033799Y014806D01*
X033720Y014727D01*
X033677Y014622D01*
X033677Y014509D01*
X033720Y014404D01*
X033800Y014324D01*
X033905Y014281D01*
X033992Y014281D01*
X034037Y014236D01*
X038196Y014236D01*
X038092Y014131D01*
X038092Y013846D01*
X031337Y013846D01*
X031232Y013740D01*
X030942Y013451D01*
X030855Y013451D01*
X030792Y013424D01*
X030792Y015440D01*
X030686Y015546D01*
X029797Y016435D01*
X029797Y016522D01*
X029753Y016627D01*
X029673Y016707D01*
X029569Y016751D01*
X029455Y016751D01*
X029350Y016707D01*
X029270Y016627D01*
X029227Y016522D01*
X029227Y016409D01*
X029270Y016304D01*
X029350Y016224D01*
X029455Y016181D01*
X029542Y016181D01*
X030211Y015512D01*
X030200Y015507D01*
X030139Y015446D01*
X023386Y015446D01*
X021497Y017335D01*
X021497Y017422D01*
X021491Y017436D01*
X024087Y017436D01*
X024332Y017191D01*
X024437Y017086D01*
X033132Y017086D01*
X033127Y017072D01*
X033127Y016985D01*
X032642Y016501D01*
X032555Y016501D01*
X032450Y016457D01*
X032370Y016377D01*
X032327Y016272D01*
X032327Y016159D01*
X032370Y016054D01*
X032450Y015974D01*
X032555Y015931D01*
X032669Y015931D01*
X032773Y015974D01*
X032853Y016054D01*
X032897Y016159D01*
X032897Y016246D01*
X033381Y016731D01*
X033469Y016731D01*
X033573Y016774D01*
X033653Y016854D01*
X033697Y016959D01*
X033697Y017072D01*
X033691Y017086D01*
X034782Y017086D01*
X034777Y017072D01*
X034777Y016985D01*
X033942Y016151D01*
X033855Y016151D01*
X033750Y016107D01*
X033670Y016027D01*
X033627Y015922D01*
X033627Y015809D01*
X033670Y015704D01*
X033750Y015624D01*
X033855Y015581D01*
X033872Y015581D01*
X032892Y014601D01*
X032805Y014601D01*
X032700Y014557D01*
X032620Y014477D01*
X032674Y014531D02*
X030792Y014531D01*
X030792Y014589D02*
X032777Y014589D01*
X032939Y014648D02*
X030792Y014648D01*
X030792Y014706D02*
X032998Y014706D01*
X033056Y014765D02*
X030792Y014765D01*
X030792Y014823D02*
X033115Y014823D01*
X033173Y014882D02*
X030792Y014882D01*
X030792Y014940D02*
X033232Y014940D01*
X033290Y014999D02*
X030792Y014999D01*
X030792Y015057D02*
X033349Y015057D01*
X033407Y015116D02*
X030792Y015116D01*
X030792Y015174D02*
X033466Y015174D01*
X033524Y015233D02*
X030792Y015233D01*
X030792Y015291D02*
X033583Y015291D01*
X033641Y015350D02*
X030792Y015350D01*
X030792Y015408D02*
X033700Y015408D01*
X033758Y015467D02*
X030765Y015467D01*
X030707Y015525D02*
X033817Y015525D01*
X033848Y015584D02*
X030648Y015584D01*
X030590Y015642D02*
X033732Y015642D01*
X033674Y015701D02*
X030531Y015701D01*
X030473Y015759D02*
X033647Y015759D01*
X033627Y015818D02*
X030414Y015818D01*
X030356Y015876D02*
X033627Y015876D01*
X033632Y015935D02*
X032678Y015935D01*
X032792Y015993D02*
X033656Y015993D01*
X033695Y016052D02*
X032851Y016052D01*
X032877Y016110D02*
X033757Y016110D01*
X033960Y016169D02*
X032897Y016169D01*
X032897Y016227D02*
X034019Y016227D01*
X034077Y016286D02*
X032936Y016286D01*
X032995Y016344D02*
X034136Y016344D01*
X034194Y016403D02*
X033053Y016403D01*
X033112Y016461D02*
X034253Y016461D01*
X034311Y016520D02*
X033170Y016520D01*
X033229Y016578D02*
X034370Y016578D01*
X034428Y016637D02*
X033287Y016637D01*
X033346Y016695D02*
X034487Y016695D01*
X034545Y016754D02*
X033524Y016754D01*
X033611Y016812D02*
X034604Y016812D01*
X034662Y016871D02*
X033660Y016871D01*
X033684Y016929D02*
X034721Y016929D01*
X034777Y016988D02*
X033697Y016988D01*
X033697Y017046D02*
X034777Y017046D01*
X035062Y017016D02*
X033912Y015866D01*
X034362Y015416D02*
X035112Y016166D01*
X035212Y016166D01*
X034896Y016596D02*
X035031Y016731D01*
X035119Y016731D01*
X035223Y016774D01*
X035303Y016854D01*
X035347Y016959D01*
X035347Y017072D01*
X035341Y017086D01*
X038092Y017086D01*
X038092Y016700D01*
X038196Y016596D01*
X034896Y016596D01*
X034937Y016637D02*
X038155Y016637D01*
X038097Y016695D02*
X034996Y016695D01*
X035174Y016754D02*
X038092Y016754D01*
X038092Y016812D02*
X035261Y016812D01*
X035310Y016871D02*
X038092Y016871D01*
X038092Y016929D02*
X035334Y016929D01*
X035347Y016988D02*
X038092Y016988D01*
X038092Y017046D02*
X035347Y017046D01*
X037037Y017596D02*
X033075Y017596D01*
X034695Y019216D01*
X038176Y019216D01*
X038092Y019131D01*
X038092Y018700D01*
X038117Y018675D01*
X037037Y017596D01*
X037073Y017631D02*
X033110Y017631D01*
X033169Y017690D02*
X037131Y017690D01*
X037190Y017748D02*
X033227Y017748D01*
X033286Y017807D02*
X037248Y017807D01*
X037307Y017865D02*
X033344Y017865D01*
X033403Y017924D02*
X037365Y017924D01*
X037424Y017982D02*
X033461Y017982D01*
X033520Y018041D02*
X037482Y018041D01*
X037541Y018099D02*
X033578Y018099D01*
X033637Y018158D02*
X037599Y018158D01*
X037658Y018216D02*
X033695Y018216D01*
X033754Y018275D02*
X037716Y018275D01*
X037775Y018333D02*
X033812Y018333D01*
X033871Y018392D02*
X037833Y018392D01*
X037892Y018450D02*
X033929Y018450D01*
X033988Y018509D02*
X037950Y018509D01*
X038009Y018567D02*
X034046Y018567D01*
X034105Y018626D02*
X038067Y018626D01*
X038108Y018684D02*
X034163Y018684D01*
X034222Y018743D02*
X038092Y018743D01*
X038092Y018801D02*
X034280Y018801D01*
X034339Y018860D02*
X038092Y018860D01*
X038092Y018918D02*
X034397Y018918D01*
X034456Y018977D02*
X038092Y018977D01*
X038092Y019035D02*
X034514Y019035D01*
X034573Y019094D02*
X038092Y019094D01*
X038113Y019152D02*
X034631Y019152D01*
X034690Y019211D02*
X038171Y019211D01*
X038612Y018916D02*
X037112Y017416D01*
X024562Y017416D01*
X024062Y017916D01*
X017812Y017916D01*
X016512Y016616D01*
X016305Y016812D02*
X016248Y016812D01*
X016277Y016784D02*
X014862Y018198D01*
X014862Y018754D01*
X015043Y018935D01*
X015258Y018719D01*
X015604Y018719D01*
X015987Y018336D01*
X016619Y018336D01*
X016550Y018307D01*
X016470Y018227D01*
X016427Y018122D01*
X016427Y018009D01*
X016470Y017904D01*
X016550Y017824D01*
X016655Y017781D01*
X016769Y017781D01*
X016873Y017824D01*
X016915Y017866D01*
X017507Y017866D01*
X016542Y016901D01*
X016455Y016901D01*
X016350Y016857D01*
X016277Y016784D01*
X016190Y016871D02*
X016383Y016871D01*
X016571Y016929D02*
X016131Y016929D01*
X016073Y016988D02*
X016629Y016988D01*
X016688Y017046D02*
X016014Y017046D01*
X015956Y017105D02*
X016746Y017105D01*
X016805Y017163D02*
X015897Y017163D01*
X015839Y017222D02*
X016863Y017222D01*
X016922Y017280D02*
X015780Y017280D01*
X015722Y017339D02*
X016980Y017339D01*
X017039Y017397D02*
X015663Y017397D01*
X015605Y017456D02*
X017097Y017456D01*
X017156Y017514D02*
X015546Y017514D01*
X015488Y017573D02*
X017214Y017573D01*
X017273Y017631D02*
X015429Y017631D01*
X015371Y017690D02*
X017331Y017690D01*
X017390Y017748D02*
X015312Y017748D01*
X015254Y017807D02*
X016592Y017807D01*
X016509Y017865D02*
X015195Y017865D01*
X015137Y017924D02*
X016462Y017924D01*
X016438Y017982D02*
X015078Y017982D01*
X015020Y018041D02*
X016427Y018041D01*
X016427Y018099D02*
X014961Y018099D01*
X014903Y018158D02*
X016441Y018158D01*
X016466Y018216D02*
X014862Y018216D01*
X014862Y018275D02*
X016518Y018275D01*
X016613Y018333D02*
X014862Y018333D01*
X014862Y018392D02*
X015931Y018392D01*
X015873Y018450D02*
X014862Y018450D01*
X014862Y018509D02*
X015814Y018509D01*
X015756Y018567D02*
X014862Y018567D01*
X014862Y018626D02*
X015697Y018626D01*
X015639Y018684D02*
X014862Y018684D01*
X014862Y018743D02*
X015235Y018743D01*
X015176Y018801D02*
X014909Y018801D01*
X014968Y018860D02*
X015118Y018860D01*
X015059Y018918D02*
X015026Y018918D01*
X015436Y019149D02*
X015462Y019116D01*
X016062Y018516D01*
X022712Y018516D01*
X022712Y018416D01*
X022712Y018516D02*
X030612Y018516D01*
X030712Y018416D01*
X031962Y018416D01*
X032562Y017816D01*
X032826Y017924D02*
X032837Y017924D01*
X032798Y017982D02*
X032896Y017982D01*
X032954Y018041D02*
X032740Y018041D01*
X032622Y018099D02*
X033013Y018099D01*
X033071Y018158D02*
X032474Y018158D01*
X032416Y018216D02*
X033130Y018216D01*
X033188Y018275D02*
X032357Y018275D01*
X032299Y018333D02*
X033247Y018333D01*
X033305Y018392D02*
X032240Y018392D01*
X032182Y018450D02*
X033364Y018450D01*
X033422Y018509D02*
X032123Y018509D01*
X032065Y018567D02*
X033481Y018567D01*
X033539Y018626D02*
X031097Y018626D01*
X031097Y018684D02*
X033598Y018684D01*
X033656Y018743D02*
X031088Y018743D01*
X031064Y018801D02*
X033715Y018801D01*
X033773Y018860D02*
X031021Y018860D01*
X030847Y018236D02*
X031887Y018236D01*
X032277Y017846D01*
X032277Y017766D01*
X031347Y017766D01*
X031347Y017872D01*
X031303Y017977D01*
X031223Y018057D01*
X031119Y018101D01*
X031005Y018101D01*
X030973Y018087D01*
X030847Y018213D01*
X030847Y018236D01*
X030847Y018216D02*
X031907Y018216D01*
X031965Y018158D02*
X030903Y018158D01*
X030961Y018099D02*
X031002Y018099D01*
X031122Y018099D02*
X032024Y018099D01*
X032082Y018041D02*
X031240Y018041D01*
X031298Y017982D02*
X032141Y017982D01*
X032199Y017924D02*
X031326Y017924D01*
X031347Y017865D02*
X032258Y017865D01*
X032277Y017807D02*
X031347Y017807D01*
X030729Y017766D02*
X024695Y017766D01*
X024312Y018148D01*
X024195Y018266D01*
X022958Y018266D01*
X022987Y018336D01*
X030303Y018336D01*
X030277Y018272D01*
X030277Y018159D01*
X030320Y018054D01*
X030400Y017974D01*
X030505Y017931D01*
X030564Y017931D01*
X030729Y017766D01*
X030688Y017807D02*
X024654Y017807D01*
X024595Y017865D02*
X030629Y017865D01*
X030571Y017924D02*
X024537Y017924D01*
X024478Y017982D02*
X030392Y017982D01*
X030334Y018041D02*
X024420Y018041D01*
X024361Y018099D02*
X030302Y018099D01*
X030277Y018158D02*
X024303Y018158D01*
X024244Y018216D02*
X030277Y018216D01*
X030278Y018275D02*
X022962Y018275D01*
X022986Y018333D02*
X030302Y018333D01*
X029685Y016695D02*
X032837Y016695D01*
X032895Y016754D02*
X022078Y016754D01*
X022020Y016812D02*
X032954Y016812D01*
X033012Y016871D02*
X021961Y016871D01*
X021903Y016929D02*
X033071Y016929D01*
X033127Y016988D02*
X021844Y016988D01*
X021786Y017046D02*
X033127Y017046D01*
X033412Y017016D02*
X032612Y016216D01*
X032347Y016110D02*
X030122Y016110D01*
X030180Y016052D02*
X032373Y016052D01*
X032431Y015993D02*
X030239Y015993D01*
X030297Y015935D02*
X032545Y015935D01*
X032327Y016169D02*
X030063Y016169D01*
X030005Y016227D02*
X032327Y016227D01*
X032332Y016286D02*
X029946Y016286D01*
X029888Y016344D02*
X032357Y016344D01*
X032396Y016403D02*
X029829Y016403D01*
X029797Y016461D02*
X032460Y016461D01*
X032661Y016520D02*
X029797Y016520D01*
X029774Y016578D02*
X032720Y016578D01*
X032778Y016637D02*
X029744Y016637D01*
X029512Y016466D02*
X030612Y015366D01*
X030612Y012716D01*
X027462Y012716D01*
X027177Y012717D02*
X019449Y012717D01*
X019522Y012659D02*
X027177Y012659D01*
X027178Y012776D02*
X018176Y012776D01*
X018118Y012717D02*
X019174Y012717D01*
X019102Y012659D02*
X018059Y012659D01*
X018001Y012600D02*
X019059Y012600D01*
X019035Y012542D02*
X017942Y012542D01*
X017884Y012483D02*
X019027Y012483D01*
X019027Y012425D02*
X017825Y012425D01*
X017767Y012366D02*
X019045Y012366D01*
X019069Y012308D02*
X017708Y012308D01*
X017650Y012249D02*
X019125Y012249D01*
X019231Y012191D02*
X017591Y012191D01*
X017316Y012425D02*
X016892Y012425D01*
X016892Y012483D02*
X017375Y012483D01*
X017433Y012542D02*
X016892Y012542D01*
X016892Y012600D02*
X017492Y012600D01*
X017550Y012659D02*
X016892Y012659D01*
X016892Y012717D02*
X017609Y012717D01*
X017667Y012776D02*
X016892Y012776D01*
X016892Y012834D02*
X017726Y012834D01*
X017784Y012893D02*
X016892Y012893D01*
X016892Y012951D02*
X017843Y012951D01*
X017901Y013010D02*
X016892Y013010D01*
X016892Y013068D02*
X017960Y013068D01*
X018018Y013127D02*
X016892Y013127D01*
X016892Y013185D02*
X018077Y013185D01*
X018135Y013244D02*
X016892Y013244D01*
X016892Y013302D02*
X018194Y013302D01*
X018252Y013361D02*
X016892Y013361D01*
X016892Y013419D02*
X018311Y013419D01*
X018369Y013478D02*
X016892Y013478D01*
X016892Y013536D02*
X018428Y013536D01*
X018486Y013595D02*
X016892Y013595D01*
X016892Y013653D02*
X018545Y013653D01*
X018603Y013712D02*
X016911Y013712D01*
X016960Y013770D02*
X018662Y013770D01*
X018720Y013829D02*
X016984Y013829D01*
X016997Y013887D02*
X018779Y013887D01*
X018827Y013946D02*
X016997Y013946D01*
X016984Y014004D02*
X018827Y014004D01*
X018844Y014063D02*
X016959Y014063D01*
X016909Y014121D02*
X018868Y014121D01*
X018923Y014180D02*
X016819Y014180D01*
X016605Y014180D02*
X012580Y014180D01*
X012522Y014121D02*
X016514Y014121D01*
X016464Y014063D02*
X012463Y014063D01*
X012405Y014004D02*
X016440Y014004D01*
X016427Y013946D02*
X012346Y013946D01*
X012288Y013887D02*
X016427Y013887D01*
X016439Y013829D02*
X012229Y013829D01*
X012310Y013770D02*
X016464Y013770D01*
X016513Y013712D02*
X012360Y013712D01*
X012384Y013653D02*
X016532Y013653D01*
X016532Y013595D02*
X012397Y013595D01*
X012424Y013536D02*
X016532Y013536D01*
X016532Y013478D02*
X012483Y013478D01*
X012541Y013419D02*
X016532Y013419D01*
X016532Y013361D02*
X012600Y013361D01*
X012658Y013302D02*
X016532Y013302D01*
X016532Y013244D02*
X012717Y013244D01*
X012775Y013185D02*
X016532Y013185D01*
X016532Y013127D02*
X012834Y013127D01*
X012892Y013068D02*
X016532Y013068D01*
X016532Y013010D02*
X013067Y013010D01*
X013129Y012951D02*
X016532Y012951D01*
X016532Y012893D02*
X013168Y012893D01*
X013192Y012834D02*
X016532Y012834D01*
X016532Y012776D02*
X013197Y012776D01*
X013197Y012717D02*
X016532Y012717D01*
X016532Y012659D02*
X013176Y012659D01*
X013149Y012600D02*
X016532Y012600D01*
X016532Y012542D02*
X013091Y012542D01*
X012975Y012483D02*
X016532Y012483D01*
X016532Y012425D02*
X011092Y012425D01*
X011092Y012483D02*
X012849Y012483D01*
X012733Y012542D02*
X011092Y012542D01*
X011092Y012600D02*
X012674Y012600D01*
X012648Y012659D02*
X011092Y012659D01*
X011092Y012717D02*
X012627Y012717D01*
X012619Y012776D02*
X011325Y012776D01*
X011383Y012834D02*
X012560Y012834D01*
X012502Y012893D02*
X011419Y012893D01*
X011444Y012951D02*
X012443Y012951D01*
X012385Y013010D02*
X011447Y013010D01*
X011469Y013068D02*
X012326Y013068D01*
X012268Y013127D02*
X011527Y013127D01*
X011586Y013185D02*
X012209Y013185D01*
X012151Y013244D02*
X011644Y013244D01*
X011703Y013302D02*
X012003Y013302D01*
X011914Y013361D02*
X011761Y013361D01*
X011820Y013419D02*
X011864Y013419D01*
X011642Y013750D02*
X011642Y018719D01*
X011677Y018719D01*
X011893Y018935D01*
X012109Y018719D01*
X012465Y018719D01*
X012584Y018839D01*
X012587Y018836D01*
X014657Y016766D01*
X011642Y013750D01*
X011642Y013770D02*
X011662Y013770D01*
X011642Y013829D02*
X011720Y013829D01*
X011779Y013887D02*
X011642Y013887D01*
X011642Y013946D02*
X011837Y013946D01*
X011896Y014004D02*
X011642Y014004D01*
X011642Y014063D02*
X011954Y014063D01*
X012013Y014121D02*
X011642Y014121D01*
X011642Y014180D02*
X012071Y014180D01*
X012130Y014238D02*
X011642Y014238D01*
X011642Y014297D02*
X012188Y014297D01*
X012247Y014355D02*
X011642Y014355D01*
X011642Y014414D02*
X012305Y014414D01*
X012364Y014472D02*
X011642Y014472D01*
X011642Y014531D02*
X012422Y014531D01*
X012481Y014589D02*
X011642Y014589D01*
X011642Y014648D02*
X012539Y014648D01*
X012598Y014706D02*
X011642Y014706D01*
X011642Y014765D02*
X012656Y014765D01*
X012715Y014823D02*
X011642Y014823D01*
X011642Y014882D02*
X012773Y014882D01*
X012832Y014940D02*
X011642Y014940D01*
X011642Y014999D02*
X012890Y014999D01*
X012949Y015057D02*
X011642Y015057D01*
X011642Y015116D02*
X013007Y015116D01*
X013066Y015174D02*
X011642Y015174D01*
X011642Y015233D02*
X013124Y015233D01*
X013183Y015291D02*
X011642Y015291D01*
X011642Y015350D02*
X013241Y015350D01*
X013300Y015408D02*
X011642Y015408D01*
X011642Y015467D02*
X013358Y015467D01*
X013417Y015525D02*
X011642Y015525D01*
X011642Y015584D02*
X013475Y015584D01*
X013534Y015642D02*
X011642Y015642D01*
X011642Y015701D02*
X013592Y015701D01*
X013651Y015759D02*
X011642Y015759D01*
X011642Y015818D02*
X013709Y015818D01*
X013768Y015876D02*
X011642Y015876D01*
X011642Y015935D02*
X013826Y015935D01*
X013885Y015993D02*
X011642Y015993D01*
X011642Y016052D02*
X013943Y016052D01*
X014002Y016110D02*
X011642Y016110D01*
X011642Y016169D02*
X014060Y016169D01*
X014119Y016227D02*
X011642Y016227D01*
X011642Y016286D02*
X014177Y016286D01*
X014236Y016344D02*
X011642Y016344D01*
X011642Y016403D02*
X014294Y016403D01*
X014353Y016461D02*
X011642Y016461D01*
X011642Y016520D02*
X014411Y016520D01*
X014470Y016578D02*
X011642Y016578D01*
X011642Y016637D02*
X014528Y016637D01*
X014587Y016695D02*
X011642Y016695D01*
X011642Y016754D02*
X014645Y016754D01*
X014611Y016812D02*
X011642Y016812D01*
X011642Y016871D02*
X014552Y016871D01*
X014494Y016929D02*
X011642Y016929D01*
X011642Y016988D02*
X014435Y016988D01*
X014377Y017046D02*
X011642Y017046D01*
X011642Y017105D02*
X014318Y017105D01*
X014260Y017163D02*
X011642Y017163D01*
X011642Y017222D02*
X014201Y017222D01*
X014143Y017280D02*
X011642Y017280D01*
X011642Y017339D02*
X014084Y017339D01*
X014026Y017397D02*
X011642Y017397D01*
X011642Y017456D02*
X013967Y017456D01*
X013909Y017514D02*
X011642Y017514D01*
X011642Y017573D02*
X013850Y017573D01*
X013792Y017631D02*
X011642Y017631D01*
X011642Y017690D02*
X013733Y017690D01*
X013675Y017748D02*
X011642Y017748D01*
X011642Y017807D02*
X013616Y017807D01*
X013558Y017865D02*
X011642Y017865D01*
X011642Y017924D02*
X013499Y017924D01*
X013441Y017982D02*
X011642Y017982D01*
X011642Y018041D02*
X013382Y018041D01*
X013324Y018099D02*
X011642Y018099D01*
X011642Y018158D02*
X013265Y018158D01*
X013207Y018216D02*
X011642Y018216D01*
X011642Y018275D02*
X013148Y018275D01*
X013090Y018333D02*
X011642Y018333D01*
X011642Y018392D02*
X013031Y018392D01*
X012973Y018450D02*
X011642Y018450D01*
X011642Y018509D02*
X012914Y018509D01*
X012856Y018567D02*
X011642Y018567D01*
X011642Y018626D02*
X012797Y018626D01*
X012739Y018684D02*
X011642Y018684D01*
X011701Y018743D02*
X012085Y018743D01*
X012026Y018801D02*
X011759Y018801D01*
X011818Y018860D02*
X011968Y018860D01*
X011909Y018918D02*
X011876Y018918D01*
X011499Y019149D02*
X011462Y019116D01*
X011462Y013516D01*
X011312Y013516D01*
X010912Y013116D01*
X010785Y013244D02*
X009612Y013244D01*
X009612Y013302D02*
X010844Y013302D01*
X010902Y013361D02*
X009612Y013361D01*
X009612Y013419D02*
X010961Y013419D01*
X011019Y013478D02*
X009612Y013478D01*
X009612Y013536D02*
X011078Y013536D01*
X011136Y013595D02*
X009612Y013595D01*
X009612Y013653D02*
X011195Y013653D01*
X011282Y013712D02*
X009612Y013712D01*
X009612Y013770D02*
X011282Y013770D01*
X011282Y013829D02*
X009612Y013829D01*
X009612Y013887D02*
X011282Y013887D01*
X011282Y013946D02*
X009612Y013946D01*
X009612Y014004D02*
X011282Y014004D01*
X011282Y014063D02*
X009612Y014063D01*
X009612Y014121D02*
X011282Y014121D01*
X011282Y014180D02*
X009612Y014180D01*
X009612Y014238D02*
X011282Y014238D01*
X011282Y014297D02*
X009612Y014297D01*
X009612Y014355D02*
X011282Y014355D01*
X011282Y014414D02*
X009612Y014414D01*
X009612Y014472D02*
X011282Y014472D01*
X011282Y014531D02*
X009612Y014531D01*
X009612Y014589D02*
X011282Y014589D01*
X011282Y014648D02*
X009612Y014648D01*
X009612Y014706D02*
X011282Y014706D01*
X011282Y014765D02*
X009612Y014765D01*
X009612Y014823D02*
X011282Y014823D01*
X011282Y014882D02*
X009612Y014882D01*
X009612Y014940D02*
X011282Y014940D01*
X011282Y014999D02*
X009612Y014999D01*
X009612Y015057D02*
X011282Y015057D01*
X011282Y015116D02*
X009612Y015116D01*
X009612Y015174D02*
X011282Y015174D01*
X011282Y015233D02*
X009612Y015233D01*
X009612Y015291D02*
X011282Y015291D01*
X011282Y015350D02*
X009612Y015350D01*
X009612Y015408D02*
X011282Y015408D01*
X011282Y015467D02*
X009612Y015467D01*
X009612Y015525D02*
X011282Y015525D01*
X011282Y015584D02*
X009612Y015584D01*
X009612Y015642D02*
X011282Y015642D01*
X011282Y015701D02*
X009612Y015701D01*
X009612Y015759D02*
X011282Y015759D01*
X011282Y015818D02*
X009612Y015818D01*
X009612Y015876D02*
X011282Y015876D01*
X011282Y015935D02*
X009612Y015935D01*
X009612Y015993D02*
X011282Y015993D01*
X011282Y016052D02*
X009612Y016052D01*
X009612Y016110D02*
X011282Y016110D01*
X011282Y016169D02*
X009612Y016169D01*
X009612Y016227D02*
X011282Y016227D01*
X011282Y016286D02*
X009612Y016286D01*
X009612Y016344D02*
X011282Y016344D01*
X011282Y016403D02*
X009612Y016403D01*
X009612Y016461D02*
X011282Y016461D01*
X011282Y016520D02*
X009612Y016520D01*
X009612Y016578D02*
X011282Y016578D01*
X011282Y016637D02*
X009612Y016637D01*
X009612Y016695D02*
X011282Y016695D01*
X011282Y016754D02*
X009612Y016754D01*
X009612Y016812D02*
X011282Y016812D01*
X011282Y016871D02*
X009612Y016871D01*
X009612Y016929D02*
X011282Y016929D01*
X011282Y016988D02*
X009612Y016988D01*
X009612Y017046D02*
X011282Y017046D01*
X011282Y017105D02*
X009612Y017105D01*
X009612Y017163D02*
X011282Y017163D01*
X011282Y017222D02*
X009612Y017222D01*
X009612Y017280D02*
X011282Y017280D01*
X011282Y017339D02*
X009612Y017339D01*
X009612Y017397D02*
X011282Y017397D01*
X011282Y017456D02*
X009612Y017456D01*
X009612Y017514D02*
X011282Y017514D01*
X011282Y017573D02*
X009612Y017573D01*
X009612Y017631D02*
X011282Y017631D01*
X011282Y017690D02*
X009612Y017690D01*
X009612Y017748D02*
X011282Y017748D01*
X011282Y017807D02*
X009612Y017807D01*
X009612Y017865D02*
X011282Y017865D01*
X011282Y017924D02*
X009612Y017924D01*
X009612Y017982D02*
X011282Y017982D01*
X011282Y018041D02*
X009612Y018041D01*
X009612Y018099D02*
X011282Y018099D01*
X011282Y018158D02*
X009612Y018158D01*
X009612Y018216D02*
X011282Y018216D01*
X011282Y018275D02*
X009612Y018275D01*
X009612Y018333D02*
X011282Y018333D01*
X011282Y018392D02*
X009612Y018392D01*
X009612Y018450D02*
X011282Y018450D01*
X011282Y018509D02*
X009612Y018509D01*
X009612Y018567D02*
X011282Y018567D01*
X011282Y018626D02*
X009612Y018626D01*
X009612Y018684D02*
X011282Y018684D01*
X011282Y018743D02*
X009612Y018743D01*
X009612Y018801D02*
X010375Y018801D01*
X010326Y018860D02*
X009612Y018860D01*
X009612Y018918D02*
X010326Y018918D01*
X010326Y018977D02*
X009612Y018977D01*
X009612Y019035D02*
X010326Y019035D01*
X010326Y019094D02*
X009612Y019094D01*
X009612Y019152D02*
X010326Y019152D01*
X010326Y019211D02*
X009612Y019211D01*
X009612Y019269D02*
X010326Y019269D01*
X010326Y019328D02*
X009612Y019328D01*
X009612Y019386D02*
X010326Y019386D01*
X010326Y019445D02*
X009583Y019445D01*
X009524Y019503D02*
X010381Y019503D01*
X010825Y019562D02*
X009466Y019562D01*
X009407Y019620D02*
X010884Y019620D01*
X010942Y019679D02*
X009349Y019679D01*
X009290Y019737D02*
X011001Y019737D01*
X011509Y019796D02*
X009232Y019796D01*
X009173Y019854D02*
X011568Y019854D01*
X011626Y019913D02*
X009115Y019913D01*
X011098Y018918D02*
X011122Y018918D01*
X011098Y018860D02*
X011181Y018860D01*
X011239Y018801D02*
X011048Y018801D01*
X011768Y019489D02*
X012482Y020203D01*
X012482Y019562D01*
X012465Y019579D01*
X012109Y019579D01*
X011893Y019363D01*
X011768Y019489D01*
X011782Y019503D02*
X012033Y019503D01*
X012091Y019562D02*
X011841Y019562D01*
X011899Y019620D02*
X012482Y019620D01*
X012482Y019679D02*
X011958Y019679D01*
X012016Y019737D02*
X012482Y019737D01*
X012482Y019796D02*
X012075Y019796D01*
X012133Y019854D02*
X012482Y019854D01*
X012482Y019913D02*
X012192Y019913D01*
X012250Y019971D02*
X012482Y019971D01*
X012482Y020030D02*
X012309Y020030D01*
X012367Y020088D02*
X012482Y020088D01*
X012482Y020147D02*
X012426Y020147D01*
X012842Y020036D02*
X014039Y020036D01*
X014100Y019974D01*
X014205Y019931D01*
X014319Y019931D01*
X014423Y019974D01*
X014503Y020054D01*
X014547Y020159D01*
X014547Y020272D01*
X014503Y020377D01*
X014442Y020439D01*
X021205Y020439D01*
X021147Y020498D02*
X014442Y020498D01*
X014442Y020556D02*
X021088Y020556D01*
X021030Y020615D02*
X014442Y020615D01*
X014442Y020673D02*
X020971Y020673D01*
X020913Y020732D02*
X014442Y020732D01*
X014442Y020790D02*
X020854Y020790D01*
X020796Y020849D02*
X014442Y020849D01*
X014442Y020907D02*
X020737Y020907D01*
X020679Y020966D02*
X014442Y020966D01*
X014442Y021024D02*
X020620Y021024D01*
X020562Y021083D02*
X014442Y021083D01*
X014442Y021141D02*
X020503Y021141D01*
X020445Y021200D02*
X014442Y021200D01*
X014442Y021258D02*
X020386Y021258D01*
X020328Y021317D02*
X014442Y021317D01*
X014442Y021375D02*
X020269Y021375D01*
X020211Y021434D02*
X014442Y021434D01*
X014442Y021492D02*
X020152Y021492D01*
X020094Y021551D02*
X014442Y021551D01*
X014442Y021609D02*
X020035Y021609D01*
X019977Y021668D02*
X014442Y021668D01*
X014442Y021726D02*
X019918Y021726D01*
X019860Y021785D02*
X016678Y021785D01*
X016669Y021781D02*
X016773Y021824D01*
X016853Y021904D01*
X016897Y022009D01*
X016897Y022116D01*
X019529Y022116D01*
X021727Y019918D01*
X021727Y019866D01*
X013529Y019866D01*
X013412Y019748D01*
X013242Y019579D01*
X012896Y019579D01*
X012842Y019525D01*
X012842Y020036D01*
X012842Y020030D02*
X014045Y020030D01*
X014107Y019971D02*
X012842Y019971D01*
X012842Y019913D02*
X021727Y019913D01*
X021673Y019971D02*
X014416Y019971D01*
X014479Y020030D02*
X021615Y020030D01*
X021556Y020088D02*
X014518Y020088D01*
X014542Y020147D02*
X021498Y020147D01*
X021439Y020205D02*
X014547Y020205D01*
X014547Y020264D02*
X021381Y020264D01*
X021322Y020322D02*
X014526Y020322D01*
X014500Y020381D02*
X021264Y020381D01*
X021128Y021083D02*
X023540Y021083D01*
X023482Y021141D02*
X021069Y021141D01*
X021011Y021200D02*
X023423Y021200D01*
X023365Y021258D02*
X020952Y021258D01*
X020894Y021317D02*
X023306Y021317D01*
X023248Y021375D02*
X020835Y021375D01*
X020777Y021434D02*
X023189Y021434D01*
X023131Y021492D02*
X020718Y021492D01*
X020660Y021551D02*
X023072Y021551D01*
X023014Y021609D02*
X020601Y021609D01*
X020543Y021668D02*
X022955Y021668D01*
X022897Y021726D02*
X020484Y021726D01*
X020426Y021785D02*
X022838Y021785D01*
X022780Y021843D02*
X020367Y021843D01*
X020309Y021902D02*
X022721Y021902D01*
X022663Y021960D02*
X020250Y021960D01*
X020192Y022019D02*
X022604Y022019D01*
X022546Y022077D02*
X020133Y022077D01*
X020075Y022136D02*
X022487Y022136D01*
X022429Y022194D02*
X020016Y022194D01*
X019958Y022253D02*
X022370Y022253D01*
X022312Y022311D02*
X019899Y022311D01*
X019841Y022370D02*
X022253Y022370D01*
X022195Y022428D02*
X019782Y022428D01*
X019724Y022487D02*
X022136Y022487D01*
X022078Y022545D02*
X015485Y022545D01*
X015138Y022545D02*
X014835Y022545D01*
X014488Y022545D02*
X014435Y022545D01*
X014262Y022316D02*
X014262Y022066D01*
X016612Y022066D01*
X016877Y021960D02*
X019684Y021960D01*
X019626Y022019D02*
X016897Y022019D01*
X016897Y022077D02*
X019567Y022077D01*
X019743Y021902D02*
X016851Y021902D01*
X016792Y021843D02*
X019801Y021843D01*
X021712Y023166D02*
X023662Y021216D01*
X028062Y021216D01*
X027877Y021434D02*
X023698Y021434D01*
X023640Y021492D02*
X027985Y021492D01*
X027496Y020786D02*
X027327Y020786D01*
X027412Y020701D01*
X027496Y020786D01*
X027442Y020732D02*
X027381Y020732D01*
X027412Y020230D02*
X027347Y020166D01*
X027476Y020166D01*
X027412Y020230D01*
X027387Y020205D02*
X027437Y020205D01*
X027912Y020466D02*
X028062Y020466D01*
X028812Y019716D01*
X028527Y019737D02*
X028376Y019737D01*
X028432Y019681D02*
X028147Y019966D01*
X028227Y020046D01*
X028527Y019746D01*
X028527Y019666D01*
X028432Y019666D01*
X028432Y019681D01*
X028432Y019679D02*
X028527Y019679D01*
X028477Y019796D02*
X028317Y019796D01*
X028259Y019854D02*
X028419Y019854D01*
X028360Y019913D02*
X028200Y019913D01*
X028153Y019971D02*
X028302Y019971D01*
X028243Y020030D02*
X028211Y020030D01*
X027412Y019230D02*
X027407Y019225D01*
X027486Y019146D01*
X027496Y019146D01*
X027412Y019230D01*
X027421Y019211D02*
X027431Y019211D01*
X027480Y019152D02*
X027490Y019152D01*
X027205Y018918D02*
X021992Y018918D01*
X022045Y018866D02*
X021497Y019413D01*
X021497Y019466D01*
X025045Y019466D01*
X025070Y019404D01*
X025150Y019324D01*
X025255Y019281D01*
X025369Y019281D01*
X025392Y019290D01*
X025392Y019250D01*
X025696Y018946D01*
X026127Y018946D01*
X026412Y019230D01*
X026696Y018946D01*
X027127Y018946D01*
X027152Y018971D01*
X027257Y018866D01*
X022045Y018866D01*
X021934Y018977D02*
X025665Y018977D01*
X025607Y019035D02*
X021875Y019035D01*
X021817Y019094D02*
X025548Y019094D01*
X025490Y019152D02*
X021758Y019152D01*
X021700Y019211D02*
X025431Y019211D01*
X025392Y019269D02*
X021641Y019269D01*
X021583Y019328D02*
X025147Y019328D01*
X025088Y019386D02*
X021524Y019386D01*
X021497Y019445D02*
X025053Y019445D01*
X026158Y018977D02*
X026665Y018977D01*
X026607Y019035D02*
X026217Y019035D01*
X026275Y019094D02*
X026548Y019094D01*
X026490Y019152D02*
X026334Y019152D01*
X026392Y019211D02*
X026431Y019211D01*
X024512Y017266D02*
X024162Y017616D01*
X018312Y017616D01*
X018262Y017666D01*
X018358Y017397D02*
X020927Y017397D01*
X020927Y017422D02*
X020927Y017309D01*
X020970Y017204D01*
X021050Y017124D01*
X021155Y017081D01*
X021242Y017081D01*
X023007Y015316D01*
X017745Y015316D01*
X016680Y016381D01*
X016753Y016454D01*
X016797Y016559D01*
X016797Y016646D01*
X017886Y017736D01*
X017982Y017736D01*
X017977Y017722D01*
X017977Y017609D01*
X018020Y017504D01*
X018100Y017424D01*
X018205Y017381D01*
X018319Y017381D01*
X018423Y017424D01*
X018435Y017436D01*
X020932Y017436D01*
X020927Y017422D01*
X020927Y017339D02*
X017489Y017339D01*
X017431Y017280D02*
X020939Y017280D01*
X020963Y017222D02*
X017372Y017222D01*
X017314Y017163D02*
X021011Y017163D01*
X021097Y017105D02*
X017255Y017105D01*
X017197Y017046D02*
X021277Y017046D01*
X021335Y016988D02*
X017138Y016988D01*
X017080Y016929D02*
X021394Y016929D01*
X021452Y016871D02*
X017021Y016871D01*
X016963Y016812D02*
X021511Y016812D01*
X021569Y016754D02*
X016904Y016754D01*
X016846Y016695D02*
X021628Y016695D01*
X021686Y016637D02*
X016797Y016637D01*
X016797Y016578D02*
X021745Y016578D01*
X021803Y016520D02*
X016781Y016520D01*
X016756Y016461D02*
X021862Y016461D01*
X021920Y016403D02*
X016702Y016403D01*
X016716Y016344D02*
X021979Y016344D01*
X022037Y016286D02*
X016775Y016286D01*
X016833Y016227D02*
X022096Y016227D01*
X022154Y016169D02*
X016892Y016169D01*
X016950Y016110D02*
X022213Y016110D01*
X022271Y016052D02*
X017009Y016052D01*
X017067Y015993D02*
X022330Y015993D01*
X022388Y015935D02*
X017126Y015935D01*
X017184Y015876D02*
X022447Y015876D01*
X022505Y015818D02*
X017243Y015818D01*
X017301Y015759D02*
X022564Y015759D01*
X022622Y015701D02*
X017360Y015701D01*
X017418Y015642D02*
X022681Y015642D01*
X022739Y015584D02*
X017477Y015584D01*
X017535Y015525D02*
X022798Y015525D01*
X022856Y015467D02*
X017594Y015467D01*
X017652Y015408D02*
X022915Y015408D01*
X022973Y015350D02*
X017711Y015350D01*
X017299Y014946D02*
X016986Y014946D01*
X015092Y016840D01*
X014986Y016946D01*
X013213Y018719D01*
X013252Y018719D01*
X013468Y018935D01*
X013662Y018741D01*
X013662Y018583D01*
X013779Y018466D01*
X017299Y014946D01*
X017246Y014999D02*
X016933Y014999D01*
X016875Y015057D02*
X017187Y015057D01*
X017129Y015116D02*
X016816Y015116D01*
X016758Y015174D02*
X017070Y015174D01*
X017012Y015233D02*
X016699Y015233D01*
X016641Y015291D02*
X016953Y015291D01*
X016895Y015350D02*
X016582Y015350D01*
X016524Y015408D02*
X016836Y015408D01*
X016778Y015467D02*
X016465Y015467D01*
X016407Y015525D02*
X016719Y015525D01*
X016661Y015584D02*
X016348Y015584D01*
X016290Y015642D02*
X016602Y015642D01*
X016544Y015701D02*
X016231Y015701D01*
X016173Y015759D02*
X016485Y015759D01*
X016427Y015818D02*
X016114Y015818D01*
X016056Y015876D02*
X016368Y015876D01*
X016310Y015935D02*
X015997Y015935D01*
X015939Y015993D02*
X016251Y015993D01*
X016193Y016052D02*
X015880Y016052D01*
X015822Y016110D02*
X016134Y016110D01*
X016076Y016169D02*
X015763Y016169D01*
X015705Y016227D02*
X016017Y016227D01*
X015959Y016286D02*
X015646Y016286D01*
X015588Y016344D02*
X015900Y016344D01*
X015842Y016403D02*
X015529Y016403D01*
X015471Y016461D02*
X015783Y016461D01*
X015725Y016520D02*
X015412Y016520D01*
X015354Y016578D02*
X015666Y016578D01*
X015608Y016637D02*
X015295Y016637D01*
X015237Y016695D02*
X015549Y016695D01*
X015491Y016754D02*
X015178Y016754D01*
X015120Y016812D02*
X015432Y016812D01*
X015374Y016871D02*
X015061Y016871D01*
X015003Y016929D02*
X015315Y016929D01*
X015257Y016988D02*
X014944Y016988D01*
X014886Y017046D02*
X015198Y017046D01*
X015140Y017105D02*
X014827Y017105D01*
X014769Y017163D02*
X015081Y017163D01*
X015023Y017222D02*
X014710Y017222D01*
X014652Y017280D02*
X014964Y017280D01*
X014906Y017339D02*
X014593Y017339D01*
X014535Y017397D02*
X014847Y017397D01*
X014789Y017456D02*
X014476Y017456D01*
X014418Y017514D02*
X014730Y017514D01*
X014672Y017573D02*
X014359Y017573D01*
X014301Y017631D02*
X014613Y017631D01*
X014555Y017690D02*
X014242Y017690D01*
X014184Y017748D02*
X014496Y017748D01*
X014438Y017807D02*
X014125Y017807D01*
X014067Y017865D02*
X014379Y017865D01*
X014321Y017924D02*
X014008Y017924D01*
X013950Y017982D02*
X014262Y017982D01*
X014204Y018041D02*
X013891Y018041D01*
X013833Y018099D02*
X014145Y018099D01*
X014087Y018158D02*
X013774Y018158D01*
X013716Y018216D02*
X014028Y018216D01*
X013970Y018275D02*
X013657Y018275D01*
X013599Y018333D02*
X013911Y018333D01*
X013853Y018392D02*
X013540Y018392D01*
X013482Y018450D02*
X013794Y018450D01*
X013736Y018509D02*
X013423Y018509D01*
X013365Y018567D02*
X013677Y018567D01*
X013662Y018626D02*
X013306Y018626D01*
X013248Y018684D02*
X013662Y018684D01*
X013660Y018743D02*
X013276Y018743D01*
X013334Y018801D02*
X013601Y018801D01*
X013543Y018860D02*
X013393Y018860D01*
X013451Y018918D02*
X013484Y018918D01*
X012680Y018743D02*
X012488Y018743D01*
X012547Y018801D02*
X012622Y018801D01*
X011974Y019445D02*
X011812Y019445D01*
X011870Y019386D02*
X011916Y019386D01*
X012842Y019562D02*
X012879Y019562D01*
X012842Y019620D02*
X013284Y019620D01*
X013342Y019679D02*
X012842Y019679D01*
X012842Y019737D02*
X013401Y019737D01*
X013459Y019796D02*
X012842Y019796D01*
X012842Y019854D02*
X013518Y019854D01*
X014262Y020216D02*
X014262Y022066D01*
X014442Y021886D02*
X016389Y021886D01*
X016450Y021824D01*
X016555Y021781D01*
X016669Y021781D01*
X016545Y021785D02*
X014442Y021785D01*
X014442Y021843D02*
X016431Y021843D01*
X014442Y021886D02*
X014442Y020439D01*
X014357Y019466D02*
X014255Y019363D01*
X014153Y019466D01*
X014357Y019466D01*
X014336Y019445D02*
X014174Y019445D01*
X014232Y019386D02*
X014278Y019386D01*
X014255Y018935D02*
X014065Y018745D01*
X014462Y018348D01*
X014462Y018728D01*
X014255Y018935D01*
X014239Y018918D02*
X014272Y018918D01*
X014330Y018860D02*
X014180Y018860D01*
X014122Y018801D02*
X014389Y018801D01*
X014447Y018743D02*
X014068Y018743D01*
X014126Y018684D02*
X014462Y018684D01*
X014462Y018626D02*
X014185Y018626D01*
X014243Y018567D02*
X014462Y018567D01*
X014462Y018509D02*
X014302Y018509D01*
X014360Y018450D02*
X014462Y018450D01*
X014462Y018392D02*
X014419Y018392D01*
X015043Y019363D02*
X015145Y019466D01*
X014940Y019466D01*
X015043Y019363D01*
X015065Y019386D02*
X015020Y019386D01*
X014961Y019445D02*
X015124Y019445D01*
X015728Y019466D02*
X015932Y019466D01*
X015830Y019363D01*
X015728Y019466D01*
X015749Y019445D02*
X015911Y019445D01*
X015853Y019386D02*
X015807Y019386D01*
X016515Y019466D02*
X016719Y019466D01*
X016617Y019363D01*
X016515Y019466D01*
X016536Y019445D02*
X016699Y019445D01*
X016640Y019386D02*
X016595Y019386D01*
X016617Y018935D02*
X016833Y018719D01*
X017189Y018719D01*
X017405Y018935D01*
X017620Y018719D01*
X017977Y018719D01*
X018192Y018935D01*
X018408Y018719D01*
X018764Y018719D01*
X018980Y018935D01*
X019195Y018719D01*
X019551Y018719D01*
X019803Y018971D01*
X019803Y019327D01*
X019665Y019466D01*
X020927Y019466D01*
X020927Y019359D01*
X020970Y019254D01*
X021050Y019174D01*
X021155Y019131D01*
X021214Y019131D01*
X021649Y018696D01*
X016136Y018696D01*
X016113Y018719D01*
X016402Y018719D01*
X016617Y018935D01*
X016601Y018918D02*
X016634Y018918D01*
X016692Y018860D02*
X016542Y018860D01*
X016484Y018801D02*
X016751Y018801D01*
X016809Y018743D02*
X016425Y018743D01*
X016805Y018336D02*
X022436Y018336D01*
X022465Y018266D01*
X016915Y018266D01*
X016873Y018307D01*
X016805Y018336D01*
X016811Y018333D02*
X022437Y018333D01*
X022462Y018275D02*
X016906Y018275D01*
X016914Y017865D02*
X017507Y017865D01*
X017448Y017807D02*
X016831Y017807D01*
X017548Y017397D02*
X018165Y017397D01*
X018069Y017456D02*
X017606Y017456D01*
X017665Y017514D02*
X018016Y017514D01*
X017992Y017573D02*
X017723Y017573D01*
X017782Y017631D02*
X017977Y017631D01*
X017977Y017690D02*
X017840Y017690D01*
X018000Y018743D02*
X018384Y018743D01*
X018326Y018801D02*
X018059Y018801D01*
X018117Y018860D02*
X018267Y018860D01*
X018209Y018918D02*
X018176Y018918D01*
X017597Y018743D02*
X017213Y018743D01*
X017271Y018801D02*
X017538Y018801D01*
X017480Y018860D02*
X017330Y018860D01*
X017388Y018918D02*
X017421Y018918D01*
X017405Y019363D02*
X017507Y019466D01*
X017303Y019466D01*
X017405Y019363D01*
X017427Y019386D02*
X017382Y019386D01*
X017324Y019445D02*
X017486Y019445D01*
X018090Y019466D02*
X018294Y019466D01*
X018192Y019363D01*
X018090Y019466D01*
X018111Y019445D02*
X018273Y019445D01*
X018215Y019386D02*
X018169Y019386D01*
X018877Y019466D02*
X019082Y019466D01*
X018980Y019363D01*
X018877Y019466D01*
X018898Y019445D02*
X019061Y019445D01*
X019002Y019386D02*
X018957Y019386D01*
X019686Y019445D02*
X020927Y019445D01*
X020927Y019386D02*
X019744Y019386D01*
X019803Y019328D02*
X020940Y019328D01*
X020964Y019269D02*
X019803Y019269D01*
X019803Y019211D02*
X021014Y019211D01*
X021103Y019152D02*
X019803Y019152D01*
X019803Y019094D02*
X021251Y019094D01*
X021309Y019035D02*
X019803Y019035D01*
X019803Y018977D02*
X021368Y018977D01*
X021426Y018918D02*
X019750Y018918D01*
X019692Y018860D02*
X021485Y018860D01*
X021543Y018801D02*
X019633Y018801D01*
X019575Y018743D02*
X021602Y018743D01*
X021497Y017397D02*
X024126Y017397D01*
X024184Y017339D02*
X021497Y017339D01*
X021552Y017280D02*
X024243Y017280D01*
X024301Y017222D02*
X021610Y017222D01*
X021669Y017163D02*
X024360Y017163D01*
X024418Y017105D02*
X021727Y017105D01*
X021212Y017366D02*
X023312Y015266D01*
X030362Y015266D01*
X030160Y015467D02*
X023365Y015467D01*
X023307Y015525D02*
X030198Y015525D01*
X030139Y015584D02*
X023248Y015584D01*
X023190Y015642D02*
X030081Y015642D01*
X030022Y015701D02*
X023131Y015701D01*
X023073Y015759D02*
X029964Y015759D01*
X029905Y015818D02*
X023014Y015818D01*
X022956Y015876D02*
X029847Y015876D01*
X029788Y015935D02*
X022897Y015935D01*
X022839Y015993D02*
X029730Y015993D01*
X029671Y016052D02*
X022780Y016052D01*
X022722Y016110D02*
X029613Y016110D01*
X029554Y016169D02*
X022663Y016169D01*
X022605Y016227D02*
X029347Y016227D01*
X029289Y016286D02*
X022546Y016286D01*
X022488Y016344D02*
X029254Y016344D01*
X029229Y016403D02*
X022429Y016403D01*
X022371Y016461D02*
X029227Y016461D01*
X029227Y016520D02*
X022312Y016520D01*
X022254Y016578D02*
X029250Y016578D01*
X029280Y016637D02*
X022195Y016637D01*
X022137Y016695D02*
X029338Y016695D01*
X029129Y015086D02*
X028075Y015086D01*
X028160Y015001D01*
X028219Y015001D01*
X028323Y014957D01*
X028403Y014877D01*
X028447Y014772D01*
X028447Y014659D01*
X028441Y014646D01*
X028837Y014646D01*
X029077Y014885D01*
X029077Y014972D01*
X029120Y015077D01*
X029129Y015086D01*
X029112Y015057D02*
X028103Y015057D01*
X028223Y014999D02*
X029088Y014999D01*
X029077Y014940D02*
X028340Y014940D01*
X028399Y014882D02*
X029073Y014882D01*
X029015Y014823D02*
X028426Y014823D01*
X028447Y014765D02*
X028956Y014765D01*
X028898Y014706D02*
X028447Y014706D01*
X028442Y014648D02*
X028839Y014648D01*
X028912Y014466D02*
X026812Y014466D01*
X026527Y014472D02*
X025110Y014472D01*
X025168Y014414D02*
X026527Y014414D01*
X026527Y014409D02*
X026570Y014304D01*
X026650Y014224D01*
X026755Y014181D01*
X026869Y014181D01*
X026973Y014224D01*
X027035Y014286D01*
X027432Y014286D01*
X027427Y014272D01*
X027427Y014159D01*
X027470Y014054D01*
X027550Y013974D01*
X027571Y013966D01*
X027550Y013957D01*
X027470Y013877D01*
X027427Y013772D01*
X027427Y013659D01*
X027432Y013646D01*
X025891Y013646D01*
X025897Y013659D01*
X025897Y013772D01*
X025853Y013877D01*
X025773Y013957D01*
X025669Y014001D01*
X025581Y014001D01*
X024866Y014716D01*
X026671Y014716D01*
X026650Y014707D01*
X026570Y014627D01*
X026527Y014522D01*
X026527Y014409D01*
X026549Y014355D02*
X025227Y014355D01*
X025285Y014297D02*
X026578Y014297D01*
X026636Y014238D02*
X025344Y014238D01*
X025402Y014180D02*
X027427Y014180D01*
X027427Y014238D02*
X026987Y014238D01*
X027035Y014646D02*
X026973Y014707D01*
X026953Y014716D01*
X027165Y014716D01*
X027170Y014704D01*
X027229Y014646D01*
X027035Y014646D01*
X027033Y014648D02*
X027227Y014648D01*
X027169Y014706D02*
X026974Y014706D01*
X026649Y014706D02*
X024876Y014706D01*
X024934Y014648D02*
X026591Y014648D01*
X026555Y014589D02*
X024993Y014589D01*
X025051Y014531D02*
X026530Y014531D01*
X025785Y013946D02*
X027539Y013946D01*
X027520Y014004D02*
X025578Y014004D01*
X025519Y014063D02*
X027467Y014063D01*
X027442Y014121D02*
X025461Y014121D01*
X025186Y013887D02*
X019795Y013887D01*
X019853Y013829D02*
X025244Y013829D01*
X025303Y013770D02*
X019912Y013770D01*
X019970Y013712D02*
X025327Y013712D01*
X025327Y013746D02*
X025327Y013659D01*
X025332Y013646D01*
X020036Y013646D01*
X019096Y014586D01*
X024487Y014586D01*
X025327Y013746D01*
X025329Y013653D02*
X020029Y013653D01*
X019962Y013466D02*
X018812Y014616D01*
X016712Y014616D01*
X016262Y015066D01*
X015998Y015174D02*
X013575Y015174D01*
X013516Y015116D02*
X015977Y015116D01*
X015977Y015057D02*
X013458Y015057D01*
X013399Y014999D02*
X015981Y014999D01*
X016005Y014940D02*
X013341Y014940D01*
X013282Y014882D02*
X016043Y014882D01*
X016102Y014823D02*
X013224Y014823D01*
X013165Y014765D02*
X016308Y014765D01*
X016367Y014706D02*
X013107Y014706D01*
X013048Y014648D02*
X016425Y014648D01*
X016484Y014589D02*
X012990Y014589D01*
X012931Y014531D02*
X016542Y014531D01*
X016601Y014472D02*
X012873Y014472D01*
X012814Y014414D02*
X018759Y014414D01*
X018818Y014355D02*
X012756Y014355D01*
X012697Y014297D02*
X018876Y014297D01*
X018935Y014238D02*
X012639Y014238D01*
X013633Y015233D02*
X016026Y015233D01*
X016084Y015291D02*
X013692Y015291D01*
X013750Y015350D02*
X016073Y015350D01*
X016015Y015408D02*
X013809Y015408D01*
X013867Y015467D02*
X015956Y015467D01*
X015898Y015525D02*
X013926Y015525D01*
X013984Y015584D02*
X015839Y015584D01*
X015781Y015642D02*
X014043Y015642D01*
X014101Y015701D02*
X015722Y015701D01*
X015664Y015759D02*
X014160Y015759D01*
X014218Y015818D02*
X015605Y015818D01*
X015547Y015876D02*
X014277Y015876D01*
X014335Y015935D02*
X015488Y015935D01*
X015430Y015993D02*
X014394Y015993D01*
X014452Y016052D02*
X015371Y016052D01*
X015313Y016110D02*
X014511Y016110D01*
X014569Y016169D02*
X015254Y016169D01*
X015196Y016227D02*
X014628Y016227D01*
X014686Y016286D02*
X015137Y016286D01*
X015079Y016344D02*
X014745Y016344D01*
X014803Y016403D02*
X015020Y016403D01*
X014962Y016461D02*
X014862Y016461D01*
X014912Y016766D02*
X016912Y014766D01*
X024562Y014766D01*
X025612Y013716D01*
X025873Y013829D02*
X027450Y013829D01*
X027427Y013770D02*
X025897Y013770D01*
X025897Y013712D02*
X027427Y013712D01*
X027429Y013653D02*
X025894Y013653D01*
X025843Y013887D02*
X027480Y013887D01*
X027712Y013716D02*
X028862Y013716D01*
X029362Y014216D01*
X029631Y014121D02*
X030432Y014121D01*
X030432Y014063D02*
X029607Y014063D01*
X029603Y014054D02*
X029647Y014159D01*
X029647Y014272D01*
X029603Y014377D01*
X029590Y014391D01*
X029603Y014404D01*
X029647Y014509D01*
X029647Y014622D01*
X029603Y014727D01*
X029590Y014741D01*
X029603Y014754D01*
X029647Y014859D01*
X029647Y014972D01*
X029603Y015077D01*
X029595Y015086D01*
X030139Y015086D01*
X030200Y015024D01*
X030305Y014981D01*
X030419Y014981D01*
X030432Y014986D01*
X030432Y012896D01*
X030155Y012896D01*
X030223Y012924D01*
X030303Y013004D01*
X030347Y013109D01*
X030347Y013222D01*
X030303Y013327D01*
X030223Y013407D01*
X030119Y013451D01*
X030031Y013451D01*
X029942Y013540D01*
X029942Y013540D01*
X029836Y013646D01*
X029046Y013646D01*
X029331Y013931D01*
X029419Y013931D01*
X029523Y013974D01*
X029603Y014054D01*
X029553Y014004D02*
X030432Y014004D01*
X030432Y013946D02*
X029455Y013946D01*
X029288Y013887D02*
X030432Y013887D01*
X030432Y013829D02*
X029229Y013829D01*
X029171Y013770D02*
X030432Y013770D01*
X030432Y013712D02*
X029112Y013712D01*
X029054Y013653D02*
X030432Y013653D01*
X030432Y013595D02*
X029887Y013595D01*
X029946Y013536D02*
X030432Y013536D01*
X030432Y013478D02*
X030004Y013478D01*
X030194Y013419D02*
X030432Y013419D01*
X030432Y013361D02*
X030270Y013361D01*
X030314Y013302D02*
X030432Y013302D01*
X030432Y013244D02*
X030338Y013244D01*
X030347Y013185D02*
X030432Y013185D01*
X030432Y013127D02*
X030347Y013127D01*
X030330Y013068D02*
X030432Y013068D01*
X030432Y013010D02*
X030306Y013010D01*
X030250Y012951D02*
X030432Y012951D01*
X030792Y012893D02*
X030826Y012893D01*
X030792Y012834D02*
X038092Y012834D01*
X038092Y012776D02*
X030792Y012776D01*
X030792Y012717D02*
X036024Y012717D01*
X036000Y012707D02*
X036105Y012751D01*
X036219Y012751D01*
X036323Y012707D01*
X036403Y012627D01*
X036447Y012522D01*
X036447Y012409D01*
X036403Y012304D01*
X036323Y012224D01*
X036219Y012181D01*
X036105Y012181D01*
X036000Y012224D01*
X035939Y012286D01*
X035791Y012286D01*
X035797Y012272D01*
X035797Y012159D01*
X035753Y012054D01*
X035673Y011974D01*
X035569Y011931D01*
X035510Y011931D01*
X034662Y011083D01*
X034545Y010966D01*
X028947Y010966D01*
X028947Y010859D01*
X028903Y010754D01*
X028823Y010674D01*
X028719Y010631D01*
X028631Y010631D01*
X027191Y009191D01*
X027208Y009207D02*
X028477Y009207D01*
X028495Y009266D02*
X027266Y009266D01*
X027325Y009324D02*
X028519Y009324D01*
X028576Y009383D02*
X027383Y009383D01*
X027442Y009441D02*
X028682Y009441D01*
X028841Y009441D02*
X034133Y009441D01*
X034191Y009500D02*
X027500Y009500D01*
X027559Y009558D02*
X034250Y009558D01*
X034308Y009617D02*
X027617Y009617D01*
X027676Y009675D02*
X034367Y009675D01*
X034425Y009734D02*
X027734Y009734D01*
X027793Y009792D02*
X034484Y009792D01*
X034542Y009851D02*
X027851Y009851D01*
X027910Y009909D02*
X034601Y009909D01*
X034659Y009968D02*
X027968Y009968D01*
X028027Y010026D02*
X034718Y010026D01*
X034776Y010085D02*
X028085Y010085D01*
X028144Y010143D02*
X034835Y010143D01*
X034893Y010202D02*
X028202Y010202D01*
X028261Y010260D02*
X034952Y010260D01*
X035010Y010319D02*
X028319Y010319D01*
X028378Y010377D02*
X035069Y010377D01*
X035127Y010436D02*
X028436Y010436D01*
X028495Y010494D02*
X035186Y010494D01*
X035244Y010553D02*
X028553Y010553D01*
X028612Y010611D02*
X035303Y010611D01*
X035361Y010670D02*
X028813Y010670D01*
X028877Y010728D02*
X035420Y010728D01*
X035478Y010787D02*
X028917Y010787D01*
X028941Y010845D02*
X035537Y010845D01*
X035595Y010904D02*
X028947Y010904D01*
X028947Y010962D02*
X035654Y010962D01*
X035712Y011021D02*
X034600Y011021D01*
X034658Y011079D02*
X035771Y011079D01*
X035829Y011138D02*
X034717Y011138D01*
X034775Y011196D02*
X035888Y011196D01*
X035946Y011255D02*
X034834Y011255D01*
X034892Y011313D02*
X036005Y011313D01*
X036063Y011372D02*
X034951Y011372D01*
X035009Y011430D02*
X036122Y011430D01*
X036180Y011489D02*
X035068Y011489D01*
X035126Y011547D02*
X036239Y011547D01*
X036297Y011606D02*
X035185Y011606D01*
X035243Y011664D02*
X036356Y011664D01*
X036414Y011723D02*
X035302Y011723D01*
X035360Y011781D02*
X036473Y011781D01*
X036531Y011840D02*
X035419Y011840D01*
X035477Y011898D02*
X036590Y011898D01*
X036648Y011957D02*
X035631Y011957D01*
X035714Y012015D02*
X036707Y012015D01*
X036765Y012074D02*
X035761Y012074D01*
X035786Y012132D02*
X036824Y012132D01*
X036882Y012191D02*
X036243Y012191D01*
X036348Y012249D02*
X036941Y012249D01*
X036999Y012308D02*
X036405Y012308D01*
X036429Y012366D02*
X037058Y012366D01*
X037116Y012425D02*
X036447Y012425D01*
X036447Y012483D02*
X037175Y012483D01*
X037233Y012542D02*
X036439Y012542D01*
X036415Y012600D02*
X038192Y012600D01*
X038133Y012659D02*
X036372Y012659D01*
X036299Y012717D02*
X038092Y012717D01*
X038092Y012893D02*
X036248Y012893D01*
X036350Y012951D02*
X038092Y012951D01*
X038092Y013010D02*
X036406Y013010D01*
X036430Y013068D02*
X038092Y013068D01*
X038092Y013127D02*
X036447Y013127D01*
X036447Y013185D02*
X038059Y013185D01*
X038412Y013416D02*
X039112Y013416D01*
X039612Y013916D01*
X039968Y013536D02*
X040232Y013536D01*
X040232Y013478D02*
X039909Y013478D01*
X039851Y013419D02*
X040232Y013419D01*
X040232Y013361D02*
X039902Y013361D01*
X039847Y013416D02*
X040132Y013700D01*
X040132Y014131D01*
X039957Y014306D01*
X040232Y014581D01*
X040232Y013090D01*
X040132Y012990D01*
X040132Y013131D01*
X039847Y013416D01*
X039961Y013302D02*
X040232Y013302D01*
X040232Y013244D02*
X040019Y013244D01*
X040078Y013185D02*
X040232Y013185D01*
X040232Y013127D02*
X040132Y013127D01*
X040132Y013068D02*
X040210Y013068D01*
X040151Y013010D02*
X040132Y013010D01*
X040501Y012600D02*
X040612Y012600D01*
X040612Y012542D02*
X040442Y012542D01*
X040384Y012483D02*
X040612Y012483D01*
X040612Y012425D02*
X040325Y012425D01*
X040267Y012366D02*
X040612Y012366D01*
X040612Y012308D02*
X040208Y012308D01*
X040150Y012249D02*
X040612Y012249D01*
X040612Y012191D02*
X040091Y012191D01*
X040033Y012132D02*
X040612Y012132D01*
X040612Y012074D02*
X039974Y012074D01*
X039916Y012015D02*
X040612Y012015D01*
X040612Y011957D02*
X039857Y011957D01*
X039799Y011898D02*
X040612Y011898D01*
X040612Y011840D02*
X039740Y011840D01*
X039682Y011781D02*
X040612Y011781D01*
X040612Y011723D02*
X039623Y011723D01*
X039565Y011664D02*
X040612Y011664D01*
X040612Y011606D02*
X039506Y011606D01*
X039448Y011547D02*
X040612Y011547D01*
X040612Y011489D02*
X039389Y011489D01*
X039331Y011430D02*
X040612Y011430D01*
X040612Y011372D02*
X039272Y011372D01*
X039214Y011313D02*
X040612Y011313D01*
X040612Y011255D02*
X039155Y011255D01*
X039097Y011196D02*
X040612Y011196D01*
X040612Y011138D02*
X039038Y011138D01*
X038980Y011079D02*
X040612Y011079D01*
X040612Y011021D02*
X038921Y011021D01*
X038863Y010962D02*
X040612Y010962D01*
X040612Y010904D02*
X038804Y010904D01*
X038746Y010845D02*
X040612Y010845D01*
X040612Y010787D02*
X038687Y010787D01*
X038629Y010728D02*
X040612Y010728D01*
X040612Y010670D02*
X038570Y010670D01*
X038512Y010611D02*
X040612Y010611D01*
X040612Y010553D02*
X038453Y010553D01*
X038395Y010494D02*
X040612Y010494D01*
X040612Y010436D02*
X038336Y010436D01*
X038278Y010377D02*
X040612Y010377D01*
X040612Y010319D02*
X038219Y010319D01*
X038161Y010260D02*
X040612Y010260D01*
X040612Y010202D02*
X038102Y010202D01*
X038044Y010143D02*
X040612Y010143D01*
X040612Y010085D02*
X037985Y010085D01*
X037927Y010026D02*
X040612Y010026D01*
X040612Y009968D02*
X037868Y009968D01*
X037810Y009909D02*
X038016Y009909D01*
X037875Y009851D02*
X037751Y009851D01*
X037733Y009792D02*
X037693Y009792D01*
X037517Y009617D02*
X036581Y009617D01*
X036548Y009675D02*
X036523Y009675D01*
X036640Y009558D02*
X037459Y009558D01*
X037400Y009500D02*
X036698Y009500D01*
X036733Y009441D02*
X037366Y009441D01*
X037341Y009383D02*
X036757Y009383D01*
X036781Y009324D02*
X037317Y009324D01*
X037293Y009266D02*
X036806Y009266D01*
X036830Y009207D02*
X037269Y009207D01*
X037244Y009149D02*
X036854Y009149D01*
X036868Y009090D02*
X037230Y009090D01*
X037230Y009032D02*
X036868Y009032D01*
X036868Y008973D02*
X037230Y008973D01*
X037230Y008915D02*
X036868Y008915D01*
X036868Y008856D02*
X037230Y008856D01*
X037230Y008798D02*
X036868Y008798D01*
X036868Y008739D02*
X037230Y008739D01*
X037245Y008681D02*
X036853Y008681D01*
X036829Y008622D02*
X037269Y008622D01*
X037294Y008564D02*
X036805Y008564D01*
X036780Y008505D02*
X037318Y008505D01*
X037342Y008447D02*
X036756Y008447D01*
X036732Y008388D02*
X037366Y008388D01*
X037402Y008330D02*
X036696Y008330D01*
X036638Y008271D02*
X037461Y008271D01*
X037519Y008213D02*
X036579Y008213D01*
X036521Y008154D02*
X037578Y008154D01*
X037636Y008096D02*
X036462Y008096D01*
X036360Y008037D02*
X037738Y008037D01*
X037879Y007979D02*
X036219Y007979D01*
X036078Y007920D02*
X038020Y007920D01*
X038440Y007920D02*
X040612Y007920D01*
X040612Y007862D02*
X033712Y007862D01*
X033654Y007803D02*
X040612Y007803D01*
X040612Y007745D02*
X033595Y007745D01*
X033537Y007686D02*
X040612Y007686D01*
X040612Y007628D02*
X014128Y007628D01*
X014070Y007569D02*
X040612Y007569D01*
X040612Y007511D02*
X028765Y007511D01*
X028828Y007452D02*
X040612Y007452D01*
X040612Y007394D02*
X028867Y007394D01*
X028891Y007335D02*
X040612Y007335D01*
X040612Y007277D02*
X028897Y007277D01*
X028897Y007218D02*
X040612Y007218D01*
X040612Y007160D02*
X028876Y007160D01*
X028850Y007101D02*
X040612Y007101D01*
X040612Y007043D02*
X028792Y007043D01*
X028677Y006984D02*
X040612Y006984D01*
X040612Y006926D02*
X024805Y006926D01*
X024747Y006984D02*
X028547Y006984D01*
X028432Y007043D02*
X024688Y007043D01*
X024864Y006867D02*
X040612Y006867D01*
X040612Y006809D02*
X024922Y006809D01*
X024528Y006496D02*
X019611Y006496D01*
X019803Y006688D01*
X019803Y007044D01*
X019761Y007086D01*
X024082Y007086D01*
X024077Y007072D01*
X024077Y006959D01*
X024120Y006854D01*
X024200Y006774D01*
X024285Y006739D01*
X024528Y006496D01*
X024508Y006516D02*
X019632Y006516D01*
X019690Y006575D02*
X024449Y006575D01*
X024391Y006633D02*
X019749Y006633D01*
X019803Y006692D02*
X024332Y006692D01*
X024258Y006750D02*
X019803Y006750D01*
X019803Y006809D02*
X024166Y006809D01*
X024115Y006867D02*
X019803Y006867D01*
X019803Y006926D02*
X024091Y006926D01*
X024077Y006984D02*
X019803Y006984D01*
X019803Y007043D02*
X024077Y007043D01*
X022072Y005639D02*
X026634Y005639D01*
X026576Y005697D02*
X022013Y005697D01*
X021955Y005756D02*
X026517Y005756D01*
X026459Y005814D02*
X021896Y005814D01*
X021838Y005873D02*
X026400Y005873D01*
X026342Y005931D02*
X021779Y005931D01*
X021721Y005990D02*
X026283Y005990D01*
X026225Y006048D02*
X021662Y006048D01*
X021647Y006063D02*
X021647Y006122D01*
X021641Y006136D01*
X026137Y006136D01*
X027139Y005134D01*
X027112Y005067D01*
X027053Y005210D01*
X026906Y005356D01*
X026715Y005436D01*
X026508Y005436D01*
X026317Y005356D01*
X026171Y005210D01*
X026112Y005067D01*
X026053Y005210D01*
X025906Y005356D01*
X025715Y005436D01*
X025508Y005436D01*
X025414Y005396D01*
X025195Y005616D01*
X022095Y005616D01*
X021647Y006063D01*
X021647Y006107D02*
X026166Y006107D01*
X026212Y006316D02*
X018362Y006316D01*
X017812Y006866D01*
X017798Y006866D01*
X017481Y006575D02*
X017328Y006575D01*
X017387Y006633D02*
X017423Y006633D01*
X017540Y006516D02*
X017270Y006516D01*
X017211Y006458D02*
X017598Y006458D01*
X018024Y006399D02*
X015200Y006399D01*
X015141Y006341D02*
X018082Y006341D01*
X018141Y006282D02*
X013028Y006282D01*
X013087Y006224D02*
X018199Y006224D01*
X018258Y006165D02*
X013145Y006165D01*
X013204Y006107D02*
X021077Y006107D01*
X021077Y006048D02*
X013262Y006048D01*
X013321Y005990D02*
X021085Y005990D01*
X021109Y005931D02*
X013379Y005931D01*
X013438Y005873D02*
X021152Y005873D01*
X021224Y005814D02*
X013496Y005814D01*
X013555Y005756D02*
X021389Y005756D01*
X021447Y005697D02*
X013613Y005697D01*
X013672Y005639D02*
X021506Y005639D01*
X021564Y005580D02*
X017730Y005580D01*
X017789Y005522D02*
X021623Y005522D01*
X021681Y005463D02*
X017847Y005463D01*
X017906Y005405D02*
X017934Y005405D01*
X018290Y005405D02*
X021740Y005405D01*
X021798Y005346D02*
X018417Y005346D01*
X018475Y005288D02*
X021857Y005288D01*
X021915Y005229D02*
X018534Y005229D01*
X018569Y005171D02*
X023155Y005171D01*
X023130Y005112D02*
X018593Y005112D01*
X018617Y005054D02*
X023106Y005054D01*
X023092Y004995D02*
X018632Y004995D01*
X018632Y004937D02*
X023092Y004937D01*
X023092Y004878D02*
X018632Y004878D01*
X018632Y004820D02*
X023092Y004820D01*
X023113Y004761D02*
X018611Y004761D01*
X018586Y004703D02*
X023137Y004703D01*
X023161Y004644D02*
X018562Y004644D01*
X018517Y004586D02*
X023206Y004586D01*
X023265Y004527D02*
X018459Y004527D01*
X018391Y004469D02*
X023332Y004469D01*
X023473Y004410D02*
X018250Y004410D01*
X017973Y004410D02*
X017250Y004410D01*
X017391Y004469D02*
X017832Y004469D01*
X017765Y004527D02*
X017459Y004527D01*
X017517Y004586D02*
X017706Y004586D01*
X017661Y004644D02*
X017562Y004644D01*
X017586Y004703D02*
X017637Y004703D01*
X017613Y004761D02*
X017611Y004761D01*
X017612Y005067D02*
X017631Y005114D01*
X017566Y005179D01*
X017612Y005067D01*
X017593Y005112D02*
X017630Y005112D01*
X017574Y005171D02*
X017569Y005171D01*
X016676Y005216D02*
X016671Y005210D01*
X016612Y005067D01*
X016553Y005210D01*
X016547Y005216D01*
X016676Y005216D01*
X016655Y005171D02*
X016569Y005171D01*
X016593Y005112D02*
X016630Y005112D01*
X016611Y004761D02*
X016613Y004761D01*
X016637Y004703D02*
X016586Y004703D01*
X016562Y004644D02*
X016661Y004644D01*
X016706Y004586D02*
X016517Y004586D01*
X016459Y004527D02*
X016765Y004527D01*
X016832Y004469D02*
X016391Y004469D01*
X016250Y004410D02*
X016973Y004410D01*
X015973Y004410D02*
X014250Y004410D01*
X014391Y004469D02*
X015832Y004469D01*
X015765Y004527D02*
X014459Y004527D01*
X014517Y004586D02*
X015706Y004586D01*
X015661Y004644D02*
X014562Y004644D01*
X014586Y004703D02*
X015637Y004703D01*
X015613Y004761D02*
X014611Y004761D01*
X014632Y004820D02*
X015592Y004820D01*
X015592Y004878D02*
X014632Y004878D01*
X014632Y004937D02*
X015592Y004937D01*
X015592Y004995D02*
X014632Y004995D01*
X014617Y005054D02*
X015606Y005054D01*
X015630Y005112D02*
X014593Y005112D01*
X014600Y005171D02*
X015655Y005171D01*
X014443Y005580D02*
X013730Y005580D01*
X013789Y005522D02*
X014385Y005522D01*
X014326Y005463D02*
X013847Y005463D01*
X013906Y005405D02*
X013934Y005405D01*
X013631Y005114D02*
X013612Y005067D01*
X013566Y005179D01*
X013631Y005114D01*
X013630Y005112D02*
X013593Y005112D01*
X013574Y005171D02*
X013569Y005171D01*
X013375Y005369D02*
X013215Y005436D01*
X013008Y005436D01*
X012914Y005396D01*
X012695Y005616D01*
X010562Y005616D01*
X010562Y006479D01*
X010815Y006479D01*
X011029Y006266D01*
X012479Y006266D01*
X013375Y005369D01*
X013340Y005405D02*
X013290Y005405D01*
X013281Y005463D02*
X012847Y005463D01*
X012789Y005522D02*
X013223Y005522D01*
X013164Y005580D02*
X012730Y005580D01*
X012906Y005405D02*
X012934Y005405D01*
X013106Y005639D02*
X010562Y005639D01*
X010562Y005697D02*
X013047Y005697D01*
X012989Y005756D02*
X010562Y005756D01*
X010562Y005814D02*
X012930Y005814D01*
X012872Y005873D02*
X010562Y005873D01*
X010562Y005931D02*
X012813Y005931D01*
X012755Y005990D02*
X010562Y005990D01*
X010562Y006048D02*
X012696Y006048D01*
X012638Y006107D02*
X010562Y006107D01*
X010562Y006165D02*
X012579Y006165D01*
X012521Y006224D02*
X010562Y006224D01*
X010562Y006282D02*
X011012Y006282D01*
X010954Y006341D02*
X010562Y006341D01*
X010562Y006399D02*
X010895Y006399D01*
X010837Y006458D02*
X010562Y006458D01*
X009962Y006341D02*
X009537Y006341D01*
X009478Y006282D02*
X009962Y006282D01*
X009962Y006224D02*
X009420Y006224D01*
X009361Y006165D02*
X009962Y006165D01*
X009962Y006107D02*
X009303Y006107D01*
X009244Y006048D02*
X009962Y006048D01*
X009962Y005990D02*
X009186Y005990D01*
X009127Y005931D02*
X009962Y005931D01*
X009962Y005873D02*
X008612Y005873D01*
X008612Y005916D02*
X009112Y005916D01*
X009612Y006416D01*
X009962Y005814D02*
X008612Y005814D01*
X008612Y005756D02*
X009962Y005756D01*
X009962Y005697D02*
X008612Y005697D01*
X008612Y005639D02*
X009962Y005639D01*
X009962Y005580D02*
X008612Y005580D01*
X008612Y005522D02*
X009962Y005522D01*
X009962Y005463D02*
X008612Y005463D01*
X008612Y005405D02*
X009962Y005405D01*
X009962Y005346D02*
X008612Y005346D01*
X008612Y005288D02*
X009962Y005288D01*
X009962Y005229D02*
X008612Y005229D01*
X008612Y005171D02*
X009962Y005171D01*
X009962Y005112D02*
X008612Y005112D01*
X008612Y005054D02*
X009962Y005054D01*
X009962Y004995D02*
X008612Y004995D01*
X008612Y004937D02*
X009962Y004937D01*
X009962Y004878D02*
X008612Y004878D01*
X008612Y004820D02*
X009975Y004820D01*
X010033Y004761D02*
X008612Y004761D01*
X008612Y004703D02*
X011637Y004703D01*
X011661Y004644D02*
X008612Y004644D01*
X008612Y004586D02*
X011706Y004586D01*
X011765Y004527D02*
X008612Y004527D01*
X008612Y004469D02*
X011832Y004469D01*
X011973Y004410D02*
X008612Y004410D01*
X008612Y004352D02*
X023893Y004352D01*
X023834Y004410D02*
X023750Y004410D01*
X023951Y004293D02*
X008612Y004293D01*
X008612Y004235D02*
X024010Y004235D01*
X024158Y004652D02*
X024093Y004718D01*
X024112Y004764D01*
X024158Y004652D01*
X024137Y004703D02*
X024108Y004703D01*
X024111Y004761D02*
X024113Y004761D01*
X024112Y005067D02*
X024053Y005210D01*
X024047Y005216D01*
X024176Y005216D01*
X024171Y005210D01*
X024112Y005067D01*
X024093Y005112D02*
X024130Y005112D01*
X024155Y005171D02*
X024069Y005171D01*
X025066Y005179D02*
X025131Y005114D01*
X025112Y005067D01*
X025066Y005179D01*
X025069Y005171D02*
X025074Y005171D01*
X025093Y005112D02*
X025130Y005112D01*
X025112Y004764D02*
X025171Y004621D01*
X025176Y004616D01*
X025047Y004616D01*
X025053Y004621D01*
X025112Y004764D01*
X025111Y004761D02*
X025113Y004761D01*
X025137Y004703D02*
X025086Y004703D01*
X025062Y004644D02*
X025161Y004644D01*
X026047Y004616D02*
X026053Y004621D01*
X026112Y004764D01*
X026171Y004621D01*
X026176Y004616D01*
X026047Y004616D01*
X026062Y004644D02*
X026161Y004644D01*
X026137Y004703D02*
X026086Y004703D01*
X026111Y004761D02*
X026113Y004761D01*
X026093Y005112D02*
X026130Y005112D01*
X026155Y005171D02*
X026069Y005171D01*
X026034Y005229D02*
X026190Y005229D01*
X026248Y005288D02*
X025975Y005288D01*
X025917Y005346D02*
X026307Y005346D01*
X026434Y005405D02*
X025790Y005405D01*
X025434Y005405D02*
X025406Y005405D01*
X025347Y005463D02*
X026810Y005463D01*
X026790Y005405D02*
X026868Y005405D01*
X026917Y005346D02*
X026927Y005346D01*
X026975Y005288D02*
X026985Y005288D01*
X027034Y005229D02*
X027044Y005229D01*
X027069Y005171D02*
X027102Y005171D01*
X027093Y005112D02*
X027130Y005112D01*
X027112Y004764D02*
X027171Y004621D01*
X027176Y004616D01*
X027047Y004616D01*
X027053Y004621D01*
X027112Y004764D01*
X027111Y004761D02*
X027113Y004761D01*
X027137Y004703D02*
X027086Y004703D01*
X027062Y004644D02*
X027161Y004644D01*
X027612Y004916D02*
X026212Y006316D01*
X026516Y006266D02*
X030658Y006266D01*
X031010Y005914D01*
X030992Y005869D01*
X030992Y005662D01*
X031071Y005471D01*
X031217Y005325D01*
X031408Y005246D01*
X031615Y005246D01*
X031775Y005312D01*
X031079Y004616D01*
X029047Y004616D01*
X029053Y004621D01*
X029132Y004812D01*
X029132Y005019D01*
X029053Y005210D01*
X028906Y005356D01*
X028715Y005436D01*
X028508Y005436D01*
X028317Y005356D01*
X028171Y005210D01*
X028112Y005067D01*
X028053Y005210D01*
X027906Y005356D01*
X027715Y005436D01*
X027508Y005436D01*
X027394Y005388D01*
X026516Y006266D01*
X026558Y006224D02*
X030700Y006224D01*
X030759Y006165D02*
X026617Y006165D01*
X026675Y006107D02*
X030817Y006107D01*
X030876Y006048D02*
X026734Y006048D01*
X026792Y005990D02*
X030934Y005990D01*
X030993Y005931D02*
X026851Y005931D01*
X026909Y005873D02*
X030993Y005873D01*
X030992Y005814D02*
X026968Y005814D01*
X027026Y005756D02*
X030992Y005756D01*
X030992Y005697D02*
X027085Y005697D01*
X027143Y005639D02*
X031002Y005639D01*
X031026Y005580D02*
X027202Y005580D01*
X027260Y005522D02*
X031050Y005522D01*
X031079Y005463D02*
X027319Y005463D01*
X027377Y005405D02*
X027434Y005405D01*
X027790Y005405D02*
X028434Y005405D01*
X028307Y005346D02*
X027917Y005346D01*
X027975Y005288D02*
X028248Y005288D01*
X028190Y005229D02*
X028034Y005229D01*
X028069Y005171D02*
X028155Y005171D01*
X028130Y005112D02*
X028093Y005112D01*
X028112Y004764D02*
X028171Y004621D01*
X028176Y004616D01*
X028047Y004616D01*
X028053Y004621D01*
X028112Y004764D01*
X028111Y004761D02*
X028113Y004761D01*
X028137Y004703D02*
X028086Y004703D01*
X028062Y004644D02*
X028161Y004644D01*
X029062Y004644D02*
X031107Y004644D01*
X031166Y004703D02*
X029086Y004703D01*
X029111Y004761D02*
X031224Y004761D01*
X031283Y004820D02*
X029132Y004820D01*
X029132Y004878D02*
X031341Y004878D01*
X031400Y004937D02*
X029132Y004937D01*
X029132Y004995D02*
X031458Y004995D01*
X031517Y005054D02*
X029117Y005054D01*
X029093Y005112D02*
X031575Y005112D01*
X031634Y005171D02*
X029069Y005171D01*
X029034Y005229D02*
X031692Y005229D01*
X031717Y005288D02*
X031751Y005288D01*
X031966Y005502D02*
X032012Y005614D01*
X032031Y005568D01*
X031966Y005502D01*
X031974Y005522D02*
X031985Y005522D01*
X031998Y005580D02*
X032026Y005580D01*
X032258Y005229D02*
X038112Y005229D01*
X038112Y005171D02*
X032200Y005171D01*
X032141Y005112D02*
X038112Y005112D01*
X038112Y005054D02*
X032083Y005054D01*
X032024Y004995D02*
X038112Y004995D01*
X038112Y004937D02*
X031966Y004937D01*
X031907Y004878D02*
X038112Y004878D01*
X038112Y004820D02*
X031849Y004820D01*
X031790Y004761D02*
X038112Y004761D01*
X038112Y004703D02*
X031732Y004703D01*
X031673Y004644D02*
X038112Y004644D01*
X038112Y004586D02*
X031615Y004586D01*
X031556Y004527D02*
X038112Y004527D01*
X038112Y004469D02*
X031498Y004469D01*
X031439Y004410D02*
X038112Y004410D01*
X038112Y004352D02*
X031381Y004352D01*
X031322Y004293D02*
X038112Y004293D01*
X038112Y004235D02*
X031264Y004235D01*
X031307Y005288D02*
X028975Y005288D01*
X028917Y005346D02*
X031196Y005346D01*
X031137Y005405D02*
X028790Y005405D01*
X026751Y005522D02*
X025289Y005522D01*
X025230Y005580D02*
X026693Y005580D01*
X028612Y007266D02*
X014262Y007266D01*
X013862Y006866D01*
X013861Y006866D01*
X013473Y006646D02*
X013462Y006646D01*
X013468Y006651D01*
X013473Y006646D01*
X012912Y006466D02*
X015012Y006466D01*
X015412Y006866D01*
X015436Y006866D01*
X015753Y006575D02*
X015906Y006575D01*
X015848Y006633D02*
X015812Y006633D01*
X015695Y006516D02*
X015965Y006516D01*
X016023Y006458D02*
X015636Y006458D01*
X015830Y007080D02*
X015836Y007086D01*
X015824Y007086D01*
X015830Y007080D01*
X016612Y007086D02*
X016623Y007086D01*
X016617Y007080D01*
X016612Y007086D01*
X016599Y006633D02*
X016635Y006633D01*
X016694Y006575D02*
X016541Y006575D01*
X016482Y006516D02*
X016752Y006516D01*
X016811Y006458D02*
X016424Y006458D01*
X017399Y007086D02*
X017410Y007086D01*
X017405Y007080D01*
X017399Y007086D01*
X018187Y007086D02*
X018198Y007086D01*
X018192Y007080D01*
X018187Y007086D01*
X018903Y006575D02*
X019056Y006575D01*
X018998Y006633D02*
X018961Y006633D01*
X018980Y006651D02*
X018824Y006496D01*
X019135Y006496D01*
X018980Y006651D01*
X019115Y006516D02*
X018844Y006516D01*
X018980Y007080D02*
X018985Y007086D01*
X018974Y007086D01*
X018980Y007080D01*
X016663Y008564D02*
X027309Y008564D01*
X027327Y008546D02*
X027327Y008459D01*
X027370Y008354D01*
X027429Y008296D01*
X016275Y008296D01*
X016460Y008481D01*
X016519Y008481D01*
X016623Y008524D01*
X016703Y008604D01*
X016747Y008709D01*
X016747Y008822D01*
X016741Y008836D01*
X027037Y008836D01*
X027327Y008546D01*
X027327Y008505D02*
X016578Y008505D01*
X016426Y008447D02*
X027332Y008447D01*
X027356Y008388D02*
X016367Y008388D01*
X016309Y008330D02*
X027395Y008330D01*
X027251Y008622D02*
X016711Y008622D01*
X016735Y008681D02*
X027192Y008681D01*
X027134Y008739D02*
X016747Y008739D01*
X016747Y008798D02*
X027075Y008798D01*
X026912Y009166D02*
X015762Y009166D01*
X015662Y009266D01*
X015922Y009383D02*
X016577Y009383D01*
X016577Y009441D02*
X015889Y009441D01*
X015831Y009500D02*
X016523Y009500D01*
X016465Y009558D02*
X015387Y009558D01*
X015446Y009617D02*
X016406Y009617D01*
X016348Y009675D02*
X015504Y009675D01*
X015563Y009734D02*
X016289Y009734D01*
X016127Y009792D02*
X015621Y009792D01*
X015680Y009851D02*
X016024Y009851D01*
X015968Y009909D02*
X015738Y009909D01*
X015797Y009968D02*
X015944Y009968D01*
X015927Y010026D02*
X015855Y010026D01*
X015914Y010085D02*
X015927Y010085D01*
X016212Y010066D02*
X016862Y009416D01*
X017064Y009617D02*
X018128Y009617D01*
X018069Y009675D02*
X016980Y009675D01*
X017111Y009558D02*
X018186Y009558D01*
X018245Y009500D02*
X017135Y009500D01*
X017147Y009441D02*
X018303Y009441D01*
X018362Y009383D02*
X017147Y009383D01*
X016798Y009734D02*
X018011Y009734D01*
X017952Y009792D02*
X016740Y009792D01*
X016681Y009851D02*
X017894Y009851D01*
X017835Y009909D02*
X016623Y009909D01*
X016564Y009968D02*
X017777Y009968D01*
X017718Y010026D02*
X016506Y010026D01*
X016497Y010085D02*
X017660Y010085D01*
X017525Y010143D02*
X016488Y010143D01*
X016464Y010202D02*
X017423Y010202D01*
X017368Y010260D02*
X016420Y010260D01*
X016346Y010319D02*
X017343Y010319D01*
X017819Y010611D02*
X018081Y010611D01*
X018005Y010670D02*
X017743Y010670D01*
X017864Y010553D02*
X028044Y010553D01*
X028103Y010611D02*
X019542Y010611D01*
X019619Y010670D02*
X028161Y010670D01*
X028220Y010728D02*
X019663Y010728D01*
X019688Y010787D02*
X028278Y010787D01*
X028337Y010845D02*
X019697Y010845D01*
X019697Y010904D02*
X028377Y010904D01*
X028377Y010962D02*
X019680Y010962D01*
X019281Y010611D02*
X018342Y010611D01*
X017992Y010319D02*
X027810Y010319D01*
X027869Y010377D02*
X017933Y010377D01*
X017897Y010436D02*
X027927Y010436D01*
X027986Y010494D02*
X017888Y010494D01*
X018050Y010260D02*
X027752Y010260D01*
X027693Y010202D02*
X018109Y010202D01*
X018167Y010143D02*
X027635Y010143D01*
X027576Y010085D02*
X018226Y010085D01*
X018284Y010026D02*
X027518Y010026D01*
X027459Y009968D02*
X018343Y009968D01*
X018401Y009909D02*
X027401Y009909D01*
X027342Y009851D02*
X018460Y009851D01*
X018518Y009792D02*
X027284Y009792D01*
X027225Y009734D02*
X018577Y009734D01*
X018635Y009675D02*
X019694Y009675D01*
X019610Y009617D02*
X018694Y009617D01*
X019930Y009675D02*
X027167Y009675D01*
X027108Y009617D02*
X020014Y009617D01*
X020061Y009558D02*
X027050Y009558D01*
X026991Y009500D02*
X020085Y009500D01*
X020097Y009441D02*
X026933Y009441D01*
X026874Y009383D02*
X020097Y009383D01*
X018877Y011079D02*
X018401Y011079D01*
X018300Y011138D02*
X018857Y011138D01*
X018798Y011196D02*
X017147Y011196D01*
X017147Y011138D02*
X018124Y011138D01*
X018623Y011372D02*
X017059Y011372D01*
X017109Y011313D02*
X018681Y011313D01*
X018740Y011255D02*
X017133Y011255D01*
X016712Y011566D02*
X019112Y013966D01*
X019312Y013666D02*
X019962Y013016D01*
X028662Y013016D01*
X028924Y013127D02*
X029777Y013127D01*
X029777Y013109D02*
X029820Y013004D01*
X029900Y012924D01*
X029969Y012896D01*
X028921Y012896D01*
X028947Y012959D01*
X028947Y013072D01*
X028903Y013177D01*
X028823Y013257D01*
X028755Y013286D01*
X029687Y013286D01*
X029777Y013196D01*
X029777Y013109D01*
X029794Y013068D02*
X028947Y013068D01*
X028947Y013010D02*
X029818Y013010D01*
X029873Y012951D02*
X028944Y012951D01*
X028895Y013185D02*
X029777Y013185D01*
X029729Y013244D02*
X028837Y013244D01*
X028569Y013286D02*
X028500Y013257D01*
X028439Y013196D01*
X020036Y013196D01*
X019946Y013286D01*
X028569Y013286D01*
X028487Y013244D02*
X019988Y013244D01*
X019962Y013466D02*
X029762Y013466D01*
X030062Y013166D01*
X030792Y013478D02*
X030969Y013478D01*
X031028Y013536D02*
X030792Y013536D01*
X030792Y013595D02*
X031086Y013595D01*
X031145Y013653D02*
X030792Y013653D01*
X030792Y013712D02*
X031203Y013712D01*
X031262Y013770D02*
X030792Y013770D01*
X030792Y013829D02*
X031320Y013829D01*
X031412Y013666D02*
X038162Y013666D01*
X038412Y013416D01*
X038092Y013887D02*
X030792Y013887D01*
X030792Y013946D02*
X038092Y013946D01*
X038092Y014004D02*
X030792Y014004D01*
X030792Y014063D02*
X032728Y014063D01*
X032653Y014121D02*
X030792Y014121D01*
X030792Y014180D02*
X032610Y014180D01*
X032585Y014238D02*
X030792Y014238D01*
X030792Y014297D02*
X032577Y014297D01*
X032577Y014355D02*
X030792Y014355D01*
X030432Y014355D02*
X029612Y014355D01*
X029607Y014414D02*
X030432Y014414D01*
X030432Y014472D02*
X029632Y014472D01*
X029647Y014531D02*
X030432Y014531D01*
X030432Y014589D02*
X029647Y014589D01*
X029636Y014648D02*
X030432Y014648D01*
X030432Y014706D02*
X029612Y014706D01*
X029608Y014765D02*
X030432Y014765D01*
X030432Y014823D02*
X029632Y014823D01*
X029647Y014882D02*
X030432Y014882D01*
X030432Y014940D02*
X029647Y014940D01*
X029636Y014999D02*
X030262Y014999D01*
X030167Y015057D02*
X029612Y015057D01*
X029362Y014916D02*
X028912Y014466D01*
X029012Y014216D02*
X027712Y014216D01*
X027903Y014004D02*
X028896Y014004D01*
X028927Y014036D02*
X027935Y014036D01*
X027873Y013974D01*
X027853Y013966D01*
X027873Y013957D01*
X027935Y013896D01*
X028787Y013896D01*
X028927Y014036D01*
X028837Y013946D02*
X027885Y013946D01*
X027882Y014646D02*
X027595Y014646D01*
X027653Y014704D01*
X027697Y014809D01*
X027697Y014898D01*
X027877Y014718D01*
X027877Y014659D01*
X027882Y014646D01*
X027881Y014648D02*
X027597Y014648D01*
X027654Y014706D02*
X027877Y014706D01*
X027830Y014765D02*
X027678Y014765D01*
X027697Y014823D02*
X027771Y014823D01*
X027713Y014882D02*
X027697Y014882D01*
X029012Y014216D02*
X029362Y014566D01*
X029637Y014297D02*
X030432Y014297D01*
X030432Y014238D02*
X029647Y014238D01*
X029647Y014180D02*
X030432Y014180D01*
X031412Y013666D02*
X030912Y013166D01*
X031180Y013068D02*
X031844Y013068D01*
X031827Y013127D02*
X031197Y013127D01*
X031197Y013185D02*
X031827Y013185D01*
X031836Y013244D02*
X031244Y013244D01*
X031303Y013302D02*
X031860Y013302D01*
X031904Y013361D02*
X031361Y013361D01*
X031420Y013419D02*
X031979Y013419D01*
X032244Y013419D02*
X034327Y013419D01*
X034327Y013361D02*
X032320Y013361D01*
X032112Y013166D02*
X036162Y013166D01*
X035973Y012951D02*
X032300Y012951D01*
X032198Y012893D02*
X036076Y012893D01*
X036000Y012707D02*
X035939Y012646D01*
X030792Y012646D01*
X030792Y012659D02*
X035952Y012659D01*
X036162Y012466D02*
X019312Y012466D01*
X019772Y012951D02*
X018352Y012951D01*
X018293Y012893D02*
X019830Y012893D01*
X019713Y013010D02*
X018410Y013010D01*
X018469Y013068D02*
X019655Y013068D01*
X019596Y013127D02*
X018527Y013127D01*
X018586Y013185D02*
X019538Y013185D01*
X019479Y013244D02*
X018644Y013244D01*
X018703Y013302D02*
X019421Y013302D01*
X019362Y013361D02*
X018761Y013361D01*
X018820Y013419D02*
X019162Y013419D01*
X019097Y013478D02*
X018878Y013478D01*
X018937Y013536D02*
X019057Y013536D01*
X019033Y013595D02*
X018995Y013595D01*
X019561Y014121D02*
X024952Y014121D01*
X025010Y014063D02*
X019619Y014063D01*
X019678Y014004D02*
X025069Y014004D01*
X025127Y013946D02*
X019736Y013946D01*
X019502Y014180D02*
X024893Y014180D01*
X024835Y014238D02*
X019444Y014238D01*
X019385Y014297D02*
X024776Y014297D01*
X024718Y014355D02*
X019327Y014355D01*
X019268Y014414D02*
X024659Y014414D01*
X024601Y014472D02*
X019210Y014472D01*
X019151Y014531D02*
X024542Y014531D01*
X027202Y012834D02*
X018235Y012834D01*
X017258Y012366D02*
X016892Y012366D01*
X016892Y012308D02*
X017199Y012308D01*
X017141Y012249D02*
X016892Y012249D01*
X016892Y012191D02*
X017082Y012191D01*
X017024Y012132D02*
X016892Y012132D01*
X016892Y012074D02*
X016965Y012074D01*
X016907Y012015D02*
X016892Y012015D01*
X016712Y011816D02*
X016612Y011816D01*
X016462Y011666D01*
X016462Y011166D01*
X016282Y011138D02*
X011092Y011138D01*
X011092Y011196D02*
X016282Y011196D01*
X016282Y011255D02*
X011092Y011255D01*
X011092Y011313D02*
X016282Y011313D01*
X016282Y011372D02*
X011092Y011372D01*
X011092Y011430D02*
X016282Y011430D01*
X016282Y011489D02*
X011092Y011489D01*
X011092Y011547D02*
X016282Y011547D01*
X016282Y011606D02*
X011092Y011606D01*
X011092Y011664D02*
X016282Y011664D01*
X016282Y011723D02*
X011092Y011723D01*
X011092Y011781D02*
X016323Y011781D01*
X016381Y011840D02*
X011092Y011840D01*
X011092Y011898D02*
X016440Y011898D01*
X016498Y011957D02*
X011092Y011957D01*
X011092Y012015D02*
X016532Y012015D01*
X016532Y012074D02*
X011092Y012074D01*
X011092Y012132D02*
X016532Y012132D01*
X016532Y012191D02*
X011092Y012191D01*
X011092Y012249D02*
X016532Y012249D01*
X016532Y012308D02*
X011092Y012308D01*
X011092Y012366D02*
X016532Y012366D01*
X016712Y011816D02*
X016712Y013916D01*
X018955Y011606D02*
X026549Y011606D01*
X026508Y011547D02*
X019013Y011547D01*
X019072Y011489D02*
X026484Y011489D01*
X026477Y011430D02*
X019130Y011430D01*
X019288Y011372D02*
X026477Y011372D01*
X028662Y010916D02*
X026912Y009166D01*
X027712Y008116D02*
X013562Y008116D01*
X012312Y006866D01*
X012287Y006866D01*
X011973Y007160D02*
X011813Y007160D01*
X011755Y007218D02*
X012031Y007218D01*
X012090Y007277D02*
X011696Y007277D01*
X011677Y007296D02*
X011321Y007296D01*
X011098Y007073D01*
X011098Y007164D01*
X011010Y007252D01*
X010731Y007252D01*
X011545Y008066D01*
X013257Y008066D01*
X012476Y007284D01*
X012465Y007296D01*
X012109Y007296D01*
X011893Y007080D01*
X011677Y007296D01*
X011872Y007101D02*
X011914Y007101D01*
X011302Y007277D02*
X010756Y007277D01*
X010814Y007335D02*
X012527Y007335D01*
X012585Y007394D02*
X010873Y007394D01*
X010931Y007452D02*
X012644Y007452D01*
X012702Y007511D02*
X010990Y007511D01*
X011048Y007569D02*
X012761Y007569D01*
X012819Y007628D02*
X011107Y007628D01*
X011165Y007686D02*
X012878Y007686D01*
X012936Y007745D02*
X011224Y007745D01*
X011282Y007803D02*
X012995Y007803D01*
X013053Y007862D02*
X011341Y007862D01*
X011399Y007920D02*
X013112Y007920D01*
X013170Y007979D02*
X011458Y007979D01*
X011516Y008037D02*
X013229Y008037D01*
X013645Y007745D02*
X013736Y007745D01*
X013777Y007786D02*
X013270Y007278D01*
X013252Y007296D01*
X013196Y007296D01*
X013686Y007786D01*
X013777Y007786D01*
X013678Y007686D02*
X013587Y007686D01*
X013619Y007628D02*
X013528Y007628D01*
X013561Y007569D02*
X013470Y007569D01*
X013502Y007511D02*
X013411Y007511D01*
X013444Y007452D02*
X013353Y007452D01*
X013385Y007394D02*
X013294Y007394D01*
X013327Y007335D02*
X013236Y007335D01*
X013836Y007335D02*
X014077Y007335D01*
X014135Y007394D02*
X013894Y007394D01*
X013953Y007452D02*
X028395Y007452D01*
X028459Y007511D02*
X014011Y007511D01*
X015037Y007086D02*
X015048Y007086D01*
X015043Y007080D01*
X015037Y007086D01*
X014261Y006646D02*
X014250Y006646D01*
X014255Y006651D01*
X014261Y006646D01*
X012631Y005114D02*
X012566Y005179D01*
X012612Y005067D01*
X012631Y005114D01*
X012630Y005112D02*
X012593Y005112D01*
X012574Y005171D02*
X012569Y005171D01*
X012611Y004761D02*
X012613Y004761D01*
X012637Y004703D02*
X012586Y004703D01*
X012562Y004644D02*
X012661Y004644D01*
X012706Y004586D02*
X012517Y004586D01*
X012459Y004527D02*
X012765Y004527D01*
X012832Y004469D02*
X012391Y004469D01*
X012250Y004410D02*
X012973Y004410D01*
X013250Y004410D02*
X013973Y004410D01*
X013832Y004469D02*
X013391Y004469D01*
X013459Y004527D02*
X013765Y004527D01*
X013706Y004586D02*
X013517Y004586D01*
X013562Y004644D02*
X013661Y004644D01*
X013637Y004703D02*
X013586Y004703D01*
X013611Y004761D02*
X013613Y004761D01*
X011676Y005216D02*
X011671Y005210D01*
X011632Y005116D01*
X010362Y005116D01*
X010362Y005216D01*
X011676Y005216D01*
X011655Y005171D02*
X010362Y005171D01*
X008612Y004176D02*
X038112Y004176D01*
X038112Y004118D02*
X008612Y004118D01*
X008612Y004059D02*
X038112Y004059D01*
X038112Y004001D02*
X008612Y004001D01*
X008612Y003942D02*
X038112Y003942D01*
X040612Y006458D02*
X031173Y006458D01*
X031115Y006516D02*
X040612Y006516D01*
X040612Y006575D02*
X031056Y006575D01*
X030998Y006633D02*
X040612Y006633D01*
X040612Y006692D02*
X030939Y006692D01*
X030849Y006750D02*
X040612Y006750D01*
X040612Y007979D02*
X038581Y007979D01*
X038723Y008037D02*
X040612Y008037D01*
X040612Y008096D02*
X038825Y008096D01*
X038883Y008154D02*
X040612Y008154D01*
X040612Y008213D02*
X038942Y008213D01*
X039000Y008271D02*
X040612Y008271D01*
X040612Y008330D02*
X039059Y008330D01*
X039094Y008388D02*
X040612Y008388D01*
X040612Y008447D02*
X039118Y008447D01*
X039143Y008505D02*
X040612Y008505D01*
X040612Y008564D02*
X039167Y008564D01*
X039191Y008622D02*
X040612Y008622D01*
X040612Y008681D02*
X039215Y008681D01*
X039230Y008739D02*
X040612Y008739D01*
X040612Y008798D02*
X039230Y008798D01*
X039230Y008856D02*
X040612Y008856D01*
X040612Y008915D02*
X039230Y008915D01*
X039230Y008973D02*
X040612Y008973D01*
X040612Y009032D02*
X039230Y009032D01*
X039230Y009090D02*
X040612Y009090D01*
X040612Y009149D02*
X039216Y009149D01*
X039192Y009207D02*
X040612Y009207D01*
X040612Y009266D02*
X039168Y009266D01*
X039143Y009324D02*
X040612Y009324D01*
X040612Y009383D02*
X039119Y009383D01*
X039095Y009441D02*
X040612Y009441D01*
X040612Y009500D02*
X039061Y009500D01*
X039002Y009558D02*
X040612Y009558D01*
X040612Y009617D02*
X038944Y009617D01*
X038885Y009675D02*
X040612Y009675D01*
X040612Y009734D02*
X038827Y009734D01*
X038727Y009792D02*
X040612Y009792D01*
X040612Y009851D02*
X038586Y009851D01*
X038445Y009909D02*
X040612Y009909D01*
X038939Y011547D02*
X037682Y011547D01*
X037624Y011606D02*
X038997Y011606D01*
X039056Y011664D02*
X037494Y011664D01*
X037616Y011614D02*
X037248Y011766D01*
X036967Y011766D01*
X037436Y012236D01*
X039627Y012236D01*
X038049Y010658D01*
X038049Y010965D01*
X037897Y011332D01*
X037616Y011614D01*
X037741Y011489D02*
X038880Y011489D01*
X038822Y011430D02*
X037799Y011430D01*
X037858Y011372D02*
X038763Y011372D01*
X038705Y011313D02*
X037905Y011313D01*
X037929Y011255D02*
X038646Y011255D01*
X038588Y011196D02*
X037953Y011196D01*
X037978Y011138D02*
X038529Y011138D01*
X038471Y011079D02*
X038002Y011079D01*
X038026Y011021D02*
X038412Y011021D01*
X038354Y010962D02*
X038049Y010962D01*
X038049Y010904D02*
X038295Y010904D01*
X038237Y010845D02*
X038049Y010845D01*
X038049Y010787D02*
X038178Y010787D01*
X038120Y010728D02*
X038049Y010728D01*
X038049Y010670D02*
X038061Y010670D01*
X037353Y011723D02*
X039114Y011723D01*
X039173Y011781D02*
X036982Y011781D01*
X037040Y011840D02*
X039231Y011840D01*
X039290Y011898D02*
X037099Y011898D01*
X037157Y011957D02*
X039348Y011957D01*
X039407Y012015D02*
X037216Y012015D01*
X037274Y012074D02*
X039465Y012074D01*
X039524Y012132D02*
X037333Y012132D01*
X037391Y012191D02*
X039582Y012191D01*
X039196Y012596D02*
X039027Y012596D01*
X039112Y012680D01*
X039196Y012596D01*
X039192Y012600D02*
X039032Y012600D01*
X039090Y012659D02*
X039133Y012659D01*
X039112Y013151D02*
X039027Y013236D01*
X039186Y013236D01*
X039371Y013421D01*
X039376Y013416D01*
X039112Y013151D01*
X039078Y013185D02*
X039146Y013185D01*
X039194Y013244D02*
X039204Y013244D01*
X039253Y013302D02*
X039263Y013302D01*
X039311Y013361D02*
X039321Y013361D01*
X039370Y013419D02*
X039373Y013419D01*
X039117Y013675D02*
X039037Y013596D01*
X039027Y013596D01*
X039112Y013680D01*
X039117Y013675D01*
X039095Y013653D02*
X039085Y013653D01*
X039112Y014151D02*
X039196Y014236D01*
X039027Y014236D01*
X039112Y014151D01*
X039140Y014180D02*
X039083Y014180D01*
X039027Y014596D02*
X039112Y014680D01*
X039196Y014596D01*
X039027Y014596D01*
X039079Y014648D02*
X039144Y014648D01*
X039112Y015151D02*
X039027Y015236D01*
X039186Y015236D01*
X039371Y015421D01*
X039376Y015416D01*
X039112Y015151D01*
X039089Y015174D02*
X039135Y015174D01*
X039193Y015233D02*
X039030Y015233D01*
X039242Y015291D02*
X039252Y015291D01*
X039300Y015350D02*
X039310Y015350D01*
X039359Y015408D02*
X039369Y015408D01*
X039117Y015675D02*
X039037Y015596D01*
X039027Y015596D01*
X039112Y015680D01*
X039117Y015675D01*
X039084Y015642D02*
X039074Y015642D01*
X038092Y014841D02*
X038092Y014700D01*
X038196Y014596D01*
X034591Y014596D01*
X034597Y014609D01*
X034597Y014696D01*
X034636Y014736D01*
X037986Y014736D01*
X038092Y014841D01*
X038092Y014841D01*
X038092Y014841D01*
X038092Y014823D02*
X038074Y014823D01*
X038092Y014765D02*
X038015Y014765D01*
X038092Y014706D02*
X034607Y014706D01*
X034597Y014648D02*
X038144Y014648D01*
X037912Y014916D02*
X034562Y014916D01*
X034312Y014666D01*
X034112Y014416D02*
X039812Y014416D01*
X040262Y014866D01*
X040262Y017916D01*
X039812Y017416D02*
X038412Y017416D01*
X038262Y017266D01*
X024512Y017266D01*
X019172Y018743D02*
X018788Y018743D01*
X018846Y018801D02*
X019113Y018801D01*
X019055Y018860D02*
X018905Y018860D01*
X018963Y018918D02*
X018996Y018918D01*
X022528Y022604D02*
X029881Y022604D01*
X029843Y022619D02*
X029975Y022565D01*
X030117Y022565D01*
X030248Y022619D01*
X030348Y022720D01*
X030403Y022851D01*
X030403Y022993D01*
X030348Y023124D01*
X030248Y023225D01*
X030117Y023279D01*
X029975Y023279D01*
X029843Y023225D01*
X029743Y023124D01*
X029689Y022993D01*
X029689Y022851D01*
X029743Y022720D01*
X029843Y022619D01*
X029800Y022662D02*
X022470Y022662D01*
X022411Y022721D02*
X029742Y022721D01*
X029718Y022779D02*
X022353Y022779D01*
X022294Y022838D02*
X029694Y022838D01*
X029689Y022896D02*
X022236Y022896D01*
X022177Y022955D02*
X029689Y022955D01*
X029697Y023013D02*
X022119Y023013D01*
X022060Y023072D02*
X029721Y023072D01*
X029749Y023130D02*
X022002Y023130D01*
X021997Y023189D02*
X029807Y023189D01*
X029898Y023247D02*
X021986Y023247D01*
X030194Y023247D02*
X031630Y023247D01*
X031540Y023189D02*
X030284Y023189D01*
X030342Y023130D02*
X031481Y023130D01*
X031453Y023072D02*
X030370Y023072D01*
X030394Y023013D02*
X031429Y023013D01*
X031421Y022955D02*
X030403Y022955D01*
X030403Y022896D02*
X031421Y022896D01*
X031426Y022838D02*
X030397Y022838D01*
X030373Y022779D02*
X031450Y022779D01*
X031475Y022721D02*
X030349Y022721D01*
X030291Y022662D02*
X031533Y022662D01*
X031613Y022604D02*
X030211Y022604D01*
X031062Y020966D02*
X033762Y023666D01*
X035083Y019854D02*
X038092Y019854D01*
X038092Y019796D02*
X035025Y019796D01*
X034966Y019737D02*
X038092Y019737D01*
X038113Y019679D02*
X034908Y019679D01*
X034849Y019620D02*
X038172Y019620D01*
X038371Y018421D02*
X037396Y017446D01*
X038187Y017446D01*
X038232Y017490D01*
X038267Y017525D01*
X038092Y017700D01*
X038092Y018131D01*
X038376Y018416D01*
X038371Y018421D01*
X038352Y018392D02*
X038342Y018392D01*
X038294Y018333D02*
X038284Y018333D01*
X038235Y018275D02*
X038225Y018275D01*
X038177Y018216D02*
X038167Y018216D01*
X038118Y018158D02*
X038108Y018158D01*
X038092Y018099D02*
X038050Y018099D01*
X038092Y018041D02*
X037991Y018041D01*
X037933Y017982D02*
X038092Y017982D01*
X038092Y017924D02*
X037874Y017924D01*
X037816Y017865D02*
X038092Y017865D01*
X038092Y017807D02*
X037757Y017807D01*
X037699Y017748D02*
X038092Y017748D01*
X038102Y017690D02*
X037640Y017690D01*
X037582Y017631D02*
X038161Y017631D01*
X038219Y017573D02*
X037523Y017573D01*
X037465Y017514D02*
X038256Y017514D01*
X038197Y017456D02*
X037406Y017456D01*
X039027Y017596D02*
X039112Y017680D01*
X039196Y017596D01*
X039027Y017596D01*
X039063Y017631D02*
X039161Y017631D01*
X039196Y017236D02*
X039027Y017236D01*
X039112Y017151D01*
X039196Y017236D01*
X039182Y017222D02*
X039041Y017222D01*
X039100Y017163D02*
X039124Y017163D01*
X039112Y016680D02*
X039027Y016596D01*
X039037Y016596D01*
X039117Y016675D01*
X039112Y016680D01*
X039078Y016637D02*
X039068Y016637D01*
X039312Y018351D02*
X039312Y018480D01*
X039376Y018416D01*
X039312Y018351D01*
X039312Y018392D02*
X039352Y018392D01*
X039342Y018450D02*
X039312Y018450D01*
X036003Y015408D02*
X034647Y015408D01*
X034643Y015350D02*
X035943Y015350D01*
X036162Y015166D02*
X034312Y015166D01*
X034062Y014916D01*
X033792Y014823D02*
X033624Y014823D01*
X033565Y014765D02*
X033758Y014765D01*
X033712Y014706D02*
X033507Y014706D01*
X033448Y014648D02*
X033687Y014648D01*
X033677Y014589D02*
X033390Y014589D01*
X033331Y014531D02*
X033677Y014531D01*
X033692Y014472D02*
X033273Y014472D01*
X033214Y014414D02*
X033716Y014414D01*
X033769Y014355D02*
X033156Y014355D01*
X033147Y014297D02*
X033866Y014297D01*
X034035Y014238D02*
X033138Y014238D01*
X033114Y014180D02*
X038140Y014180D01*
X038092Y014121D02*
X033070Y014121D01*
X032996Y014063D02*
X038092Y014063D01*
X039966Y014297D02*
X040232Y014297D01*
X040232Y014355D02*
X040006Y014355D01*
X040064Y014414D02*
X040232Y014414D01*
X040232Y014472D02*
X040123Y014472D01*
X040181Y014531D02*
X040232Y014531D01*
X040232Y014238D02*
X040025Y014238D01*
X040083Y014180D02*
X040232Y014180D01*
X040232Y014121D02*
X040132Y014121D01*
X040132Y014063D02*
X040232Y014063D01*
X040232Y014004D02*
X040132Y014004D01*
X040132Y013946D02*
X040232Y013946D01*
X040232Y013887D02*
X040132Y013887D01*
X040132Y013829D02*
X040232Y013829D01*
X040232Y013770D02*
X040132Y013770D01*
X040132Y013712D02*
X040232Y013712D01*
X040232Y013653D02*
X040085Y013653D01*
X040026Y013595D02*
X040232Y013595D01*
X040559Y012659D02*
X040612Y012659D01*
X036081Y012191D02*
X035797Y012191D01*
X035797Y012249D02*
X035975Y012249D01*
X034561Y011547D02*
X030048Y011547D01*
X029989Y011489D02*
X034502Y011489D01*
X034444Y011430D02*
X029931Y011430D01*
X029872Y011372D02*
X034385Y011372D01*
X035578Y010377D02*
X036128Y010377D01*
X036152Y010319D02*
X035519Y010319D01*
X035461Y010260D02*
X036176Y010260D01*
X036201Y010202D02*
X035402Y010202D01*
X035344Y010143D02*
X036258Y010143D01*
X036201Y010200D02*
X036355Y010046D01*
X035387Y010046D01*
X035282Y009940D01*
X033337Y007996D01*
X033196Y007996D01*
X036049Y010848D01*
X036049Y010567D01*
X036201Y010200D01*
X036316Y010085D02*
X035285Y010085D01*
X035227Y010026D02*
X035368Y010026D01*
X035309Y009968D02*
X035168Y009968D01*
X035110Y009909D02*
X035251Y009909D01*
X035192Y009851D02*
X035051Y009851D01*
X034993Y009792D02*
X035134Y009792D01*
X035075Y009734D02*
X034934Y009734D01*
X034876Y009675D02*
X035017Y009675D01*
X034958Y009617D02*
X034817Y009617D01*
X034759Y009558D02*
X034900Y009558D01*
X034841Y009500D02*
X034700Y009500D01*
X034642Y009441D02*
X034783Y009441D01*
X034724Y009383D02*
X034583Y009383D01*
X034525Y009324D02*
X034666Y009324D01*
X034607Y009266D02*
X034466Y009266D01*
X034408Y009207D02*
X034549Y009207D01*
X034490Y009149D02*
X034349Y009149D01*
X034291Y009090D02*
X034432Y009090D01*
X034373Y009032D02*
X034232Y009032D01*
X034174Y008973D02*
X034315Y008973D01*
X034256Y008915D02*
X034115Y008915D01*
X034057Y008856D02*
X034198Y008856D01*
X034139Y008798D02*
X033998Y008798D01*
X033940Y008739D02*
X034081Y008739D01*
X034022Y008681D02*
X033881Y008681D01*
X033823Y008622D02*
X033964Y008622D01*
X033905Y008564D02*
X033764Y008564D01*
X033706Y008505D02*
X033847Y008505D01*
X033788Y008447D02*
X033647Y008447D01*
X033589Y008388D02*
X033730Y008388D01*
X033671Y008330D02*
X033530Y008330D01*
X033472Y008271D02*
X033613Y008271D01*
X033554Y008213D02*
X033413Y008213D01*
X033355Y008154D02*
X033496Y008154D01*
X033437Y008096D02*
X033296Y008096D01*
X033238Y008037D02*
X033379Y008037D01*
X033771Y007920D02*
X035658Y007920D01*
X035517Y007979D02*
X033829Y007979D01*
X033888Y008037D02*
X035376Y008037D01*
X035274Y008096D02*
X033946Y008096D01*
X034005Y008154D02*
X035215Y008154D01*
X035157Y008213D02*
X034063Y008213D01*
X034122Y008271D02*
X035098Y008271D01*
X035040Y008330D02*
X034180Y008330D01*
X034239Y008388D02*
X035004Y008388D01*
X034980Y008447D02*
X034297Y008447D01*
X034356Y008505D02*
X034956Y008505D01*
X034932Y008564D02*
X034414Y008564D01*
X034473Y008622D02*
X034907Y008622D01*
X034883Y008681D02*
X034531Y008681D01*
X034590Y008739D02*
X034868Y008739D01*
X034868Y008798D02*
X034648Y008798D01*
X034707Y008856D02*
X034868Y008856D01*
X034868Y008915D02*
X034765Y008915D01*
X034824Y008973D02*
X034868Y008973D01*
X034074Y009383D02*
X028948Y009383D01*
X029005Y009324D02*
X034016Y009324D01*
X033957Y009266D02*
X029029Y009266D01*
X029047Y009207D02*
X033899Y009207D01*
X033840Y009149D02*
X029047Y009149D01*
X029039Y009090D02*
X033782Y009090D01*
X033723Y009032D02*
X029015Y009032D01*
X028972Y008973D02*
X033665Y008973D01*
X033606Y008915D02*
X028901Y008915D01*
X028707Y008856D02*
X033548Y008856D01*
X033489Y008798D02*
X028648Y008798D01*
X028590Y008739D02*
X033431Y008739D01*
X033372Y008681D02*
X028531Y008681D01*
X028473Y008622D02*
X033314Y008622D01*
X033255Y008564D02*
X028414Y008564D01*
X028356Y008505D02*
X033197Y008505D01*
X033138Y008447D02*
X028297Y008447D01*
X028239Y008388D02*
X033080Y008388D01*
X033021Y008330D02*
X028180Y008330D01*
X028122Y008271D02*
X032963Y008271D01*
X032904Y008213D02*
X028063Y008213D01*
X028005Y008154D02*
X032846Y008154D01*
X032624Y006282D02*
X033076Y006282D01*
X033018Y006224D02*
X032765Y006224D01*
X032848Y006165D02*
X032992Y006165D01*
X032992Y006107D02*
X032906Y006107D01*
X032958Y006048D02*
X032992Y006048D01*
X032982Y005990D02*
X032992Y005990D01*
X032974Y005522D02*
X032992Y005522D01*
X032992Y005463D02*
X032945Y005463D01*
X032992Y005405D02*
X032886Y005405D01*
X032828Y005346D02*
X032992Y005346D01*
X033038Y005288D02*
X032717Y005288D01*
X032018Y005931D02*
X032006Y005931D01*
X031982Y005990D02*
X032042Y005990D01*
X032066Y006048D02*
X031958Y006048D01*
X031906Y006107D02*
X032117Y006107D01*
X032176Y006165D02*
X031848Y006165D01*
X031765Y006224D02*
X032259Y006224D01*
X032400Y006282D02*
X031624Y006282D01*
X031400Y006282D02*
X031349Y006282D01*
X028762Y009166D02*
X027712Y008116D01*
X030998Y012893D02*
X032026Y012893D01*
X031923Y012951D02*
X031100Y012951D01*
X031156Y013010D02*
X031868Y013010D01*
X031478Y013478D02*
X034329Y013478D01*
X034112Y014416D02*
X033962Y014566D01*
X033777Y014882D02*
X033682Y014882D01*
X033741Y014940D02*
X033777Y014940D01*
X033999Y015198D02*
X034101Y015300D01*
X034120Y015254D01*
X034133Y015241D01*
X034132Y015240D01*
X034092Y015201D01*
X034005Y015201D01*
X033999Y015198D01*
X034033Y015233D02*
X034124Y015233D01*
X034105Y015291D02*
X034092Y015291D01*
X036046Y010845D02*
X036049Y010845D01*
X036049Y010787D02*
X035987Y010787D01*
X035929Y010728D02*
X036049Y010728D01*
X036049Y010670D02*
X035870Y010670D01*
X035812Y010611D02*
X036049Y010611D01*
X036055Y010553D02*
X035753Y010553D01*
X035695Y010494D02*
X036079Y010494D01*
X036104Y010436D02*
X035636Y010436D01*
X016177Y008798D02*
X014447Y008798D01*
X014339Y008739D02*
X016152Y008739D01*
X016094Y008681D02*
X011910Y008681D01*
X011968Y008739D02*
X014185Y008739D01*
X014077Y008798D02*
X012027Y008798D01*
X012085Y008856D02*
X014019Y008856D01*
X013995Y008915D02*
X012144Y008915D01*
X012202Y008973D02*
X013977Y008973D01*
X013977Y009032D02*
X012261Y009032D01*
X012319Y009090D02*
X013984Y009090D01*
X014008Y009149D02*
X012378Y009149D01*
X012436Y009207D02*
X014050Y009207D01*
X015231Y009968D02*
X012558Y009968D01*
X012572Y009909D02*
X009612Y009909D01*
X009612Y009851D02*
X012514Y009851D01*
X012625Y010026D02*
X015289Y010026D01*
X015348Y010085D02*
X012666Y010085D01*
X012690Y010143D02*
X015406Y010143D01*
X014759Y010845D02*
X011092Y010845D01*
X011092Y010787D02*
X014700Y010787D01*
X014551Y010728D02*
X011092Y010728D01*
X011092Y010670D02*
X014463Y010670D01*
X014414Y010611D02*
X011092Y010611D01*
X011092Y010553D02*
X014389Y010553D01*
X014377Y010494D02*
X012484Y010494D01*
X012340Y010494D02*
X011092Y010494D01*
X011092Y010436D02*
X012229Y010436D01*
X012198Y010026D02*
X009612Y010026D01*
X009612Y009968D02*
X012266Y009968D01*
X011092Y010904D02*
X014817Y010904D01*
X014876Y010962D02*
X011092Y010962D01*
X011092Y011021D02*
X014934Y011021D01*
X014993Y011079D02*
X011092Y011079D01*
X010732Y011079D02*
X009612Y011079D01*
X009612Y011021D02*
X010732Y011021D01*
X010732Y010962D02*
X009612Y010962D01*
X009612Y010904D02*
X010732Y010904D01*
X010732Y010845D02*
X009612Y010845D01*
X009612Y010787D02*
X010732Y010787D01*
X010732Y010728D02*
X009612Y010728D01*
X009612Y010670D02*
X010732Y010670D01*
X010732Y010611D02*
X009612Y010611D01*
X009612Y010553D02*
X010732Y010553D01*
X010732Y010494D02*
X009612Y010494D01*
X009612Y010436D02*
X010732Y010436D01*
X010732Y010377D02*
X009612Y010377D01*
X009612Y010319D02*
X010732Y010319D01*
X010732Y010260D02*
X009612Y010260D01*
X009612Y010202D02*
X010732Y010202D01*
X010732Y010143D02*
X009612Y010143D01*
X009612Y010085D02*
X010788Y010085D01*
X010732Y011138D02*
X009612Y011138D01*
X009612Y011196D02*
X010732Y011196D01*
X010732Y011255D02*
X009612Y011255D01*
X009612Y011313D02*
X010732Y011313D01*
X010732Y011372D02*
X009612Y011372D01*
X009612Y011430D02*
X010732Y011430D01*
X010732Y011489D02*
X009612Y011489D01*
X009612Y011547D02*
X010732Y011547D01*
X010732Y011606D02*
X009612Y011606D01*
X009612Y011664D02*
X010732Y011664D01*
X010732Y011723D02*
X009612Y011723D01*
X009612Y011781D02*
X010732Y011781D01*
X010732Y011840D02*
X009612Y011840D01*
X009612Y011898D02*
X010732Y011898D01*
X010732Y011957D02*
X009612Y011957D01*
X009612Y012015D02*
X010732Y012015D01*
X010732Y012074D02*
X009612Y012074D01*
X009612Y012132D02*
X010732Y012132D01*
X010732Y012191D02*
X009612Y012191D01*
X009612Y012249D02*
X010732Y012249D01*
X010732Y012308D02*
X009612Y012308D01*
X009612Y012366D02*
X010732Y012366D01*
X010732Y012425D02*
X009612Y012425D01*
X009612Y012483D02*
X010732Y012483D01*
X010732Y012542D02*
X009612Y012542D01*
X009612Y012600D02*
X010732Y012600D01*
X010732Y012659D02*
X009612Y012659D01*
X009612Y012717D02*
X010732Y012717D01*
X010732Y012776D02*
X009612Y012776D01*
X009612Y012834D02*
X010732Y012834D01*
X010732Y012893D02*
X009612Y012893D01*
X009612Y012951D02*
X010732Y012951D01*
X010732Y013010D02*
X009612Y013010D01*
X009612Y013068D02*
X010732Y013068D01*
X010732Y013127D02*
X009612Y013127D01*
X009612Y013185D02*
X010732Y013185D01*
X011851Y008622D02*
X016035Y008622D01*
X015977Y008564D02*
X011793Y008564D01*
X011734Y008505D02*
X015918Y008505D01*
X011244Y007218D02*
X011044Y007218D01*
X011098Y007160D02*
X011185Y007160D01*
X011127Y007101D02*
X011098Y007101D01*
D19*
X024362Y007016D02*
X024862Y006516D01*
X030762Y006516D01*
X031512Y005766D01*
M02*
