G75*
G70*
%OFA0B0*%
%FSLAX24Y24*%
%IPPOS*%
%LPD*%
%AMOC8*
5,1,8,0,0,1.08239X$1,22.5*
%
%ADD10C,0.0070*%
%ADD11C,0.0060*%
%ADD12C,0.0120*%
%ADD13C,0.0050*%
%ADD14C,0.0000*%
%ADD15R,0.0156X0.0039*%
%ADD16R,0.1289X0.0039*%
%ADD17R,0.0781X0.0039*%
%ADD18R,0.0743X0.0039*%
%ADD19R,0.0352X0.0039*%
%ADD20R,0.1641X0.0039*%
%ADD21R,0.0820X0.0039*%
%ADD22R,0.1367X0.0039*%
%ADD23R,0.0547X0.0039*%
%ADD24R,0.1289X0.0039*%
%ADD25R,0.0078X0.0039*%
%ADD26R,0.0274X0.0039*%
%ADD27R,0.0039X0.0039*%
%ADD28R,0.0273X0.0039*%
%ADD29R,0.0586X0.0039*%
%ADD30R,0.1602X0.0039*%
%ADD31R,0.0117X0.0039*%
%ADD32R,0.0078X0.0039*%
%ADD33R,0.0039X0.0039*%
%ADD34R,0.0586X0.0039*%
%ADD35R,0.1602X0.0039*%
%ADD36R,0.0039X0.0039*%
%ADD37R,0.0039X0.0039*%
%ADD38R,0.0079X0.0039*%
%ADD39R,0.0274X0.0039*%
%ADD40R,0.0079X0.0039*%
%ADD41R,0.0234X0.0039*%
%ADD42R,0.0040X0.0039*%
%ADD43R,0.0117X0.0039*%
%ADD44R,0.0078X0.0039*%
%ADD45R,0.0039X0.0039*%
%ADD46R,0.0040X0.0039*%
%ADD47R,0.1602X0.0039*%
%ADD48R,0.0508X0.0039*%
%ADD49R,0.0430X0.0039*%
%ADD50R,0.0508X0.0039*%
%ADD51R,0.0040X0.0039*%
%ADD52R,0.0351X0.0039*%
%ADD53R,0.0312X0.0039*%
%ADD54R,0.0234X0.0039*%
%ADD55R,0.0195X0.0039*%
%ADD56R,0.1328X0.0039*%
%ADD57R,0.0860X0.0039*%
%ADD58R,0.0391X0.0039*%
%ADD59R,0.0117X0.0039*%
%ADD60R,0.0157X0.0039*%
%ADD61R,0.0235X0.0039*%
%ADD62R,0.0821X0.0039*%
%ADD63R,0.0039X0.0039*%
%ADD64R,0.0079X0.0039*%
%ADD65R,0.0821X0.0039*%
%ADD66R,0.0430X0.0039*%
%ADD67R,0.0429X0.0039*%
%ADD68R,0.0976X0.0039*%
%ADD69R,0.0469X0.0039*%
%ADD70R,0.0352X0.0039*%
%ADD71R,0.0195X0.0039*%
%ADD72R,0.0469X0.0039*%
%ADD73R,0.1289X0.0039*%
%ADD74R,0.0235X0.0039*%
%ADD75R,0.0430X0.0039*%
%ADD76R,0.0391X0.0039*%
%ADD77R,0.0351X0.0039*%
%ADD78R,0.0117X0.0039*%
%ADD79R,0.0156X0.0039*%
%ADD80R,0.0195X0.0039*%
%ADD81R,0.0312X0.0039*%
%ADD82R,0.1289X0.0039*%
%ADD83R,0.0196X0.0039*%
%ADD84R,0.1211X0.0039*%
%ADD85R,0.0117X0.0039*%
%ADD86R,0.0156X0.0039*%
%ADD87R,0.1016X0.0039*%
%ADD88R,0.0547X0.0039*%
%ADD89R,0.0313X0.0039*%
%ADD90R,0.0313X0.0039*%
%ADD91R,0.0547X0.0039*%
%ADD92R,0.1094X0.0039*%
%ADD93R,0.1368X0.0039*%
%ADD94R,0.1563X0.0039*%
%ADD95R,0.0391X0.0039*%
%ADD96R,0.1563X0.0039*%
%ADD97R,0.0312X0.0039*%
%ADD98R,0.0234X0.0039*%
%ADD99R,0.1563X0.0039*%
%ADD100R,0.0313X0.0039*%
%ADD101R,0.1562X0.0039*%
%ADD102R,0.1133X0.0039*%
%ADD103R,0.1485X0.0039*%
%ADD104R,0.1133X0.0039*%
%ADD105R,0.0938X0.0039*%
%ADD106R,0.0742X0.0039*%
%ADD107R,0.0352X0.0039*%
%ADD108R,0.1172X0.0039*%
%ADD109R,0.0742X0.0039*%
%ADD110R,0.0898X0.0039*%
%ADD111R,0.1172X0.0039*%
%ADD112R,0.1132X0.0039*%
%ADD113R,0.1211X0.0039*%
%ADD114R,0.0274X0.0039*%
%ADD115R,0.0312X0.0039*%
%ADD116R,0.0273X0.0039*%
%ADD117R,0.1054X0.0039*%
%ADD118R,0.1250X0.0039*%
%ADD119R,0.0235X0.0039*%
%ADD120R,0.0274X0.0039*%
%ADD121R,0.1172X0.0039*%
%ADD122R,0.0429X0.0039*%
%ADD123R,0.1172X0.0039*%
%ADD124R,0.0274X0.0039*%
%ADD125R,0.0468X0.0039*%
%ADD126R,0.1054X0.0039*%
%ADD127R,0.1055X0.0039*%
%ADD128R,0.1054X0.0039*%
%ADD129R,0.0507X0.0039*%
%ADD130R,0.0977X0.0039*%
%ADD131R,0.0274X0.0039*%
%ADD132R,0.0547X0.0039*%
%ADD133R,0.0625X0.0039*%
%ADD134R,0.0664X0.0039*%
%ADD135R,0.0665X0.0039*%
%ADD136R,0.0704X0.0039*%
%ADD137R,0.0352X0.0039*%
%ADD138R,0.0859X0.0039*%
%ADD139R,0.0703X0.0039*%
%ADD140R,0.0899X0.0039*%
%ADD141R,0.0742X0.0039*%
%ADD142R,0.0273X0.0039*%
%ADD143R,0.0742X0.0039*%
%ADD144R,0.0937X0.0039*%
%ADD145R,0.0742X0.0039*%
%ADD146R,0.0938X0.0039*%
%ADD147R,0.0937X0.0039*%
%ADD148R,0.0742X0.0039*%
%ADD149R,0.0118X0.0039*%
%ADD150R,0.0390X0.0039*%
%ADD151R,0.0352X0.0039*%
%ADD152R,0.0390X0.0039*%
%ADD153R,0.0157X0.0039*%
%ADD154R,0.0664X0.0039*%
%ADD155R,0.0469X0.0039*%
%ADD156R,0.0547X0.0039*%
%ADD157R,0.0977X0.0039*%
%ADD158R,0.1055X0.0039*%
%ADD159R,0.1015X0.0039*%
%ADD160R,0.0938X0.0039*%
%ADD161R,0.0312X0.0039*%
%ADD162R,0.1211X0.0039*%
%ADD163R,0.0312X0.0039*%
%ADD164R,0.1015X0.0039*%
%ADD165R,0.1172X0.0039*%
%ADD166R,0.0196X0.0039*%
%ADD167R,0.0820X0.0039*%
%ADD168R,0.0157X0.0039*%
D10*
X006712Y009001D02*
X006712Y009421D01*
X006502Y009645D02*
X006502Y009750D01*
X006397Y009750D01*
X006397Y009645D01*
X006502Y009645D01*
X006502Y009967D02*
X006607Y010073D01*
X006607Y010388D01*
X006712Y010388D02*
X006397Y010388D01*
X006397Y010073D01*
X006502Y009967D01*
X006817Y010073D02*
X006817Y010283D01*
X006712Y010388D01*
X006922Y011257D02*
X007027Y011362D01*
X007027Y011572D01*
X006922Y011677D01*
X006817Y011677D01*
X006397Y011257D01*
X006397Y011677D01*
X006502Y011901D02*
X006922Y012321D01*
X006502Y012321D01*
X006397Y012216D01*
X006397Y012006D01*
X006502Y011901D01*
X006922Y011901D01*
X007027Y012006D01*
X007027Y012216D01*
X006922Y012321D01*
X006817Y012546D02*
X007027Y012756D01*
X006397Y012756D01*
X006397Y012546D02*
X006397Y012966D01*
X006502Y013190D02*
X006397Y013295D01*
X006397Y013505D01*
X006502Y013611D01*
X006607Y013611D01*
X006712Y013505D01*
X006712Y013400D01*
X006712Y013505D02*
X006817Y013611D01*
X006922Y013611D01*
X007027Y013505D01*
X007027Y013295D01*
X006922Y013190D01*
X006817Y013835D02*
X007027Y014045D01*
X006397Y014045D01*
X006397Y013835D02*
X006397Y014255D01*
X006397Y014479D02*
X006817Y014900D01*
X006922Y014900D01*
X007027Y014795D01*
X007027Y014584D01*
X006922Y014479D01*
X006397Y014479D02*
X006397Y014900D01*
X006502Y015124D02*
X006397Y015229D01*
X006397Y015439D01*
X006502Y015544D01*
X006607Y015544D01*
X006712Y015439D01*
X006712Y015334D01*
X006712Y015439D02*
X006817Y015544D01*
X006922Y015544D01*
X007027Y015439D01*
X007027Y015229D01*
X006922Y015124D01*
X006922Y015768D02*
X006502Y015768D01*
X006922Y016189D01*
X006502Y016189D01*
X006397Y016084D01*
X006397Y015873D01*
X006502Y015768D01*
X006922Y015768D02*
X007027Y015873D01*
X007027Y016084D01*
X006922Y016189D01*
X007027Y009316D02*
X006397Y009316D01*
X006712Y009001D02*
X007027Y009316D01*
D11*
X009605Y006586D02*
X009605Y005946D01*
X009499Y005946D02*
X009712Y005946D01*
X009930Y006052D02*
X009930Y006266D01*
X010036Y006373D01*
X010250Y006373D01*
X010357Y006266D01*
X010357Y006052D01*
X010250Y005946D01*
X010036Y005946D01*
X009930Y006052D01*
X010574Y005946D02*
X010574Y006586D01*
X011001Y006586D02*
X011001Y005946D01*
X010788Y006159D01*
X010574Y005946D01*
X009712Y006586D02*
X009605Y006586D01*
X009282Y006373D02*
X009069Y006373D01*
X009176Y006479D02*
X009176Y006052D01*
X009069Y005946D01*
X008853Y005946D02*
X008426Y005946D01*
X008426Y006373D02*
X008853Y005946D01*
X008853Y006373D02*
X008426Y006373D01*
X011861Y006052D02*
X011861Y005946D01*
X011968Y005946D01*
X011968Y006052D01*
X011861Y006052D01*
X012186Y006052D02*
X012292Y005946D01*
X012506Y005946D01*
X012613Y006052D01*
X012613Y006479D01*
X012506Y006586D01*
X012292Y006586D01*
X012186Y006479D01*
X012828Y006052D02*
X012828Y005946D01*
X012935Y005946D01*
X012935Y006052D01*
X012828Y006052D01*
X013259Y006052D02*
X013259Y006586D01*
X013366Y006586D02*
X013152Y006586D01*
X013259Y006052D02*
X013366Y005946D01*
X013473Y005946D01*
X013579Y006052D01*
X014442Y006266D02*
X014869Y006266D01*
X014548Y006586D01*
X014548Y005946D01*
X015086Y005946D02*
X015513Y005946D01*
X015300Y005946D02*
X015300Y006586D01*
X015513Y006373D01*
X015731Y006479D02*
X016158Y006052D01*
X016051Y005946D01*
X015837Y005946D01*
X015731Y006052D01*
X015731Y006479D01*
X015837Y006586D01*
X016051Y006586D01*
X016158Y006479D01*
X016158Y006052D01*
X016375Y005946D02*
X016802Y005946D01*
X016375Y006373D01*
X016375Y006479D01*
X016482Y006586D01*
X016695Y006586D01*
X016802Y006479D01*
X017020Y006266D02*
X017447Y006266D01*
X017664Y006373D02*
X017771Y006266D01*
X017664Y006159D01*
X017664Y006052D01*
X017771Y005946D01*
X017985Y005946D01*
X018091Y006052D01*
X018309Y005946D02*
X018736Y005946D01*
X018522Y005946D02*
X018522Y006586D01*
X018736Y006373D01*
X018953Y006479D02*
X018953Y006052D01*
X019060Y005946D01*
X019274Y005946D01*
X019380Y006052D01*
X018953Y006479D01*
X019060Y006586D01*
X019274Y006586D01*
X019380Y006479D01*
X019380Y006052D01*
X019598Y005946D02*
X020025Y005946D01*
X019598Y006373D01*
X019598Y006479D01*
X019705Y006586D01*
X019918Y006586D01*
X020025Y006479D01*
X020886Y006373D02*
X021099Y006373D01*
X020992Y006479D02*
X020992Y006052D01*
X020886Y005946D01*
X021317Y005946D02*
X021317Y006266D01*
X021423Y006373D01*
X021637Y006373D01*
X021744Y006266D01*
X021961Y006373D02*
X022282Y006373D01*
X022388Y006266D01*
X022388Y006052D01*
X022282Y005946D01*
X021961Y005946D01*
X021961Y005839D02*
X021961Y006373D01*
X021744Y006586D02*
X021744Y005946D01*
X021961Y005839D02*
X022068Y005732D01*
X022175Y005732D01*
X022604Y005946D02*
X022818Y005946D01*
X022711Y005946D02*
X022711Y006373D01*
X022818Y006373D01*
X023035Y006373D02*
X023142Y006373D01*
X023355Y006159D01*
X023355Y005946D02*
X023355Y006373D01*
X023573Y006373D02*
X023573Y005839D01*
X023679Y005732D01*
X023786Y005732D01*
X023893Y005946D02*
X023573Y005946D01*
X023893Y005946D02*
X024000Y006052D01*
X024000Y006373D01*
X024217Y006266D02*
X024217Y006052D01*
X024324Y005946D01*
X024644Y005946D01*
X024644Y005732D02*
X024644Y006373D01*
X024324Y006373D01*
X024217Y006266D01*
X024862Y006266D02*
X024862Y006052D01*
X024968Y005946D01*
X025182Y005946D01*
X025289Y006052D01*
X025289Y006266D01*
X025182Y006373D01*
X024968Y006373D01*
X024862Y006266D01*
X025506Y006479D02*
X025613Y006586D01*
X025827Y006586D01*
X025933Y006479D01*
X025933Y006052D01*
X025827Y005946D01*
X025613Y005946D01*
X025506Y006052D01*
X026794Y006159D02*
X026794Y006373D01*
X027008Y006586D01*
X027225Y006373D02*
X027545Y006373D01*
X027652Y006266D01*
X027652Y006052D01*
X027545Y005946D01*
X027225Y005946D01*
X027008Y005946D02*
X026794Y006159D01*
X027868Y005946D02*
X028082Y006159D01*
X028082Y006373D01*
X027868Y006586D01*
X022711Y006586D02*
X022711Y006693D01*
X018091Y006479D02*
X017985Y006586D01*
X017771Y006586D01*
X017664Y006479D01*
X017664Y006373D01*
X017771Y006266D02*
X017878Y006266D01*
X014082Y023446D02*
X013655Y023446D01*
X013437Y023446D02*
X013437Y023873D01*
X013117Y023873D01*
X013010Y023766D01*
X013010Y023446D01*
X012579Y023446D02*
X012366Y023873D01*
X012148Y023873D02*
X012041Y023873D01*
X012041Y023446D01*
X011935Y023446D02*
X012148Y023446D01*
X012579Y023446D02*
X012793Y023873D01*
X012041Y024086D02*
X012041Y024193D01*
X011612Y023873D02*
X011718Y023766D01*
X011718Y023552D01*
X011612Y023446D01*
X011398Y023446D01*
X011291Y023552D01*
X011291Y023766D01*
X011398Y023873D01*
X011612Y023873D01*
X011074Y023873D02*
X010967Y023766D01*
X010754Y023766D01*
X010647Y023659D01*
X010647Y023552D01*
X010754Y023446D01*
X010967Y023446D01*
X011074Y023552D01*
X011074Y023873D02*
X011074Y023979D01*
X010967Y024086D01*
X010754Y024086D01*
X010647Y023979D01*
X010429Y023979D02*
X010216Y023766D01*
X010216Y023446D01*
X010216Y023766D02*
X010002Y023979D01*
X010002Y024086D01*
X009785Y023979D02*
X009785Y023873D01*
X009678Y023766D01*
X009465Y023766D01*
X009358Y023659D01*
X009358Y023552D01*
X009465Y023446D01*
X009678Y023446D01*
X009785Y023552D01*
X009785Y023979D02*
X009678Y024086D01*
X009465Y024086D01*
X009358Y023979D01*
X010429Y023979D02*
X010429Y024086D01*
X013655Y024086D02*
X014082Y024086D01*
X014082Y023446D01*
X014082Y023766D02*
X013868Y023766D01*
D12*
X007187Y003416D02*
X039470Y003416D01*
X007187Y003416D01*
X007187Y003415D02*
X007110Y003417D01*
X007033Y003423D01*
X006956Y003432D01*
X006880Y003445D01*
X006804Y003462D01*
X006730Y003483D01*
X006656Y003507D01*
X006584Y003535D01*
X006514Y003566D01*
X006445Y003601D01*
X006377Y003639D01*
X006312Y003680D01*
X006249Y003725D01*
X006188Y003773D01*
X006129Y003823D01*
X006073Y003876D01*
X006020Y003932D01*
X005970Y003991D01*
X005922Y004052D01*
X005877Y004115D01*
X005836Y004180D01*
X005798Y004248D01*
X005763Y004317D01*
X005732Y004387D01*
X005704Y004459D01*
X005680Y004533D01*
X005659Y004607D01*
X005642Y004683D01*
X005629Y004759D01*
X005620Y004836D01*
X005614Y004913D01*
X005612Y004990D01*
X005612Y023888D01*
X005612Y004990D01*
X005614Y004913D01*
X005620Y004836D01*
X005629Y004759D01*
X005642Y004683D01*
X005659Y004607D01*
X005680Y004533D01*
X005704Y004459D01*
X005732Y004387D01*
X005763Y004317D01*
X005798Y004248D01*
X005836Y004180D01*
X005877Y004115D01*
X005922Y004052D01*
X005970Y003991D01*
X006020Y003932D01*
X006073Y003876D01*
X006129Y003823D01*
X006188Y003773D01*
X006249Y003725D01*
X006312Y003680D01*
X006377Y003639D01*
X006445Y003601D01*
X006514Y003566D01*
X006584Y003535D01*
X006656Y003507D01*
X006730Y003483D01*
X006804Y003462D01*
X006880Y003445D01*
X006956Y003432D01*
X007033Y003423D01*
X007110Y003417D01*
X007187Y003415D01*
X005612Y023888D02*
X005614Y023965D01*
X005620Y024042D01*
X005629Y024119D01*
X005642Y024195D01*
X005659Y024271D01*
X005680Y024345D01*
X005704Y024419D01*
X005732Y024491D01*
X005763Y024561D01*
X005798Y024630D01*
X005836Y024698D01*
X005877Y024763D01*
X005922Y024826D01*
X005970Y024887D01*
X006020Y024946D01*
X006073Y025002D01*
X006129Y025055D01*
X006188Y025105D01*
X006249Y025153D01*
X006312Y025198D01*
X006377Y025239D01*
X006445Y025277D01*
X006514Y025312D01*
X006584Y025343D01*
X006656Y025371D01*
X006730Y025395D01*
X006804Y025416D01*
X006880Y025433D01*
X006956Y025446D01*
X007033Y025455D01*
X007110Y025461D01*
X007187Y025463D01*
X039470Y025463D01*
X007187Y025463D01*
X007110Y025461D01*
X007033Y025455D01*
X006956Y025446D01*
X006880Y025433D01*
X006804Y025416D01*
X006730Y025395D01*
X006656Y025371D01*
X006584Y025343D01*
X006514Y025312D01*
X006445Y025277D01*
X006377Y025239D01*
X006312Y025198D01*
X006249Y025153D01*
X006188Y025105D01*
X006129Y025055D01*
X006073Y025002D01*
X006020Y024946D01*
X005970Y024887D01*
X005922Y024826D01*
X005877Y024763D01*
X005836Y024698D01*
X005798Y024630D01*
X005763Y024561D01*
X005732Y024491D01*
X005704Y024419D01*
X005680Y024345D01*
X005659Y024271D01*
X005642Y024195D01*
X005629Y024119D01*
X005620Y024042D01*
X005614Y023965D01*
X005612Y023888D01*
X039470Y025463D02*
X039547Y025461D01*
X039624Y025455D01*
X039701Y025446D01*
X039777Y025433D01*
X039853Y025416D01*
X039927Y025395D01*
X040001Y025371D01*
X040073Y025343D01*
X040143Y025312D01*
X040212Y025277D01*
X040280Y025239D01*
X040345Y025198D01*
X040408Y025153D01*
X040469Y025105D01*
X040528Y025055D01*
X040584Y025002D01*
X040637Y024946D01*
X040687Y024887D01*
X040735Y024826D01*
X040780Y024763D01*
X040821Y024698D01*
X040859Y024630D01*
X040894Y024561D01*
X040925Y024491D01*
X040953Y024419D01*
X040977Y024345D01*
X040998Y024271D01*
X041015Y024195D01*
X041028Y024119D01*
X041037Y024042D01*
X041043Y023965D01*
X041045Y023888D01*
X041045Y004990D01*
X041045Y023888D01*
X041043Y023965D01*
X041037Y024042D01*
X041028Y024119D01*
X041015Y024195D01*
X040998Y024271D01*
X040977Y024345D01*
X040953Y024419D01*
X040925Y024491D01*
X040894Y024561D01*
X040859Y024630D01*
X040821Y024698D01*
X040780Y024763D01*
X040735Y024826D01*
X040687Y024887D01*
X040637Y024946D01*
X040584Y025002D01*
X040528Y025055D01*
X040469Y025105D01*
X040408Y025153D01*
X040345Y025198D01*
X040280Y025239D01*
X040212Y025277D01*
X040143Y025312D01*
X040073Y025343D01*
X040001Y025371D01*
X039927Y025395D01*
X039853Y025416D01*
X039777Y025433D01*
X039701Y025446D01*
X039624Y025455D01*
X039547Y025461D01*
X039470Y025463D01*
X041045Y004990D02*
X041043Y004913D01*
X041037Y004836D01*
X041028Y004759D01*
X041015Y004683D01*
X040998Y004607D01*
X040977Y004533D01*
X040953Y004459D01*
X040925Y004387D01*
X040894Y004317D01*
X040859Y004248D01*
X040821Y004180D01*
X040780Y004115D01*
X040735Y004052D01*
X040687Y003991D01*
X040637Y003932D01*
X040584Y003876D01*
X040528Y003823D01*
X040469Y003773D01*
X040408Y003725D01*
X040345Y003680D01*
X040280Y003639D01*
X040212Y003601D01*
X040143Y003566D01*
X040073Y003535D01*
X040001Y003507D01*
X039927Y003483D01*
X039853Y003462D01*
X039777Y003445D01*
X039701Y003432D01*
X039624Y003423D01*
X039547Y003417D01*
X039470Y003415D01*
X039547Y003417D01*
X039624Y003423D01*
X039701Y003432D01*
X039777Y003445D01*
X039853Y003462D01*
X039927Y003483D01*
X040001Y003507D01*
X040073Y003535D01*
X040143Y003566D01*
X040212Y003601D01*
X040280Y003639D01*
X040345Y003680D01*
X040408Y003725D01*
X040469Y003773D01*
X040528Y003823D01*
X040584Y003876D01*
X040637Y003932D01*
X040687Y003991D01*
X040735Y004052D01*
X040780Y004115D01*
X040821Y004180D01*
X040859Y004248D01*
X040894Y004317D01*
X040925Y004387D01*
X040953Y004459D01*
X040977Y004533D01*
X040998Y004607D01*
X041015Y004683D01*
X041028Y004759D01*
X041037Y004836D01*
X041043Y004913D01*
X041045Y004990D01*
D13*
X025587Y011441D02*
X025587Y012051D01*
X025282Y012051D01*
X025180Y011949D01*
X025180Y011746D01*
X025282Y011644D01*
X025587Y011644D01*
X024979Y011542D02*
X024877Y011644D01*
X024572Y011644D01*
X024572Y011746D02*
X024572Y011441D01*
X024877Y011441D01*
X024979Y011542D01*
X024877Y011848D02*
X024674Y011848D01*
X024572Y011746D01*
X024371Y011848D02*
X024168Y011848D01*
X024270Y011949D02*
X024270Y011542D01*
X024168Y011441D01*
X023966Y011542D02*
X023966Y011746D01*
X023864Y011848D01*
X023661Y011848D01*
X023559Y011746D01*
X023559Y011644D01*
X023966Y011644D01*
X023966Y011542D02*
X023864Y011441D01*
X023661Y011441D01*
X023359Y011441D02*
X023359Y011848D01*
X023053Y011848D01*
X022951Y011746D01*
X022951Y011441D01*
X022649Y011542D02*
X022547Y011441D01*
X022649Y011542D02*
X022649Y011949D01*
X022751Y011848D02*
X022547Y011848D01*
X021738Y012051D02*
X021738Y011441D01*
X021738Y011644D02*
X021433Y011644D01*
X021331Y011746D01*
X021331Y011949D01*
X021433Y012051D01*
X021738Y012051D01*
X021130Y011746D02*
X021130Y011542D01*
X021028Y011441D01*
X020825Y011441D01*
X020723Y011644D02*
X021130Y011644D01*
X021130Y011746D02*
X021028Y011848D01*
X020825Y011848D01*
X020723Y011746D01*
X020723Y011644D01*
X020522Y011441D02*
X020522Y011848D01*
X020217Y011848D01*
X020115Y011746D01*
X020115Y011441D01*
X019915Y011542D02*
X019915Y011746D01*
X019813Y011848D01*
X019508Y011848D01*
X019307Y011848D02*
X019205Y011848D01*
X019205Y011441D01*
X019104Y011441D02*
X019307Y011441D01*
X019508Y011441D02*
X019813Y011441D01*
X019915Y011542D01*
X019508Y011441D02*
X019508Y012051D01*
X019205Y012051D02*
X019205Y012153D01*
X018902Y011848D02*
X018597Y011848D01*
X018495Y011746D01*
X018495Y011441D01*
X018294Y011542D02*
X018294Y011746D01*
X018192Y011848D01*
X017887Y011848D01*
X017887Y011339D01*
X017989Y011237D01*
X018091Y011237D01*
X018192Y011441D02*
X017887Y011441D01*
X018192Y011441D02*
X018294Y011542D01*
X018902Y011441D02*
X018902Y011848D01*
D14*
X007657Y008114D02*
X007659Y008164D01*
X007665Y008214D01*
X007675Y008263D01*
X007689Y008311D01*
X007706Y008358D01*
X007727Y008403D01*
X007752Y008447D01*
X007780Y008488D01*
X007812Y008527D01*
X007846Y008564D01*
X007883Y008598D01*
X007923Y008628D01*
X007965Y008655D01*
X008009Y008679D01*
X008055Y008700D01*
X008102Y008716D01*
X008150Y008729D01*
X008200Y008738D01*
X008249Y008743D01*
X008300Y008744D01*
X008350Y008741D01*
X008399Y008734D01*
X008448Y008723D01*
X008496Y008708D01*
X008542Y008690D01*
X008587Y008668D01*
X008630Y008642D01*
X008671Y008613D01*
X008710Y008581D01*
X008746Y008546D01*
X008778Y008508D01*
X008808Y008468D01*
X008835Y008425D01*
X008858Y008381D01*
X008877Y008335D01*
X008893Y008287D01*
X008905Y008238D01*
X008913Y008189D01*
X008917Y008139D01*
X008917Y008089D01*
X008913Y008039D01*
X008905Y007990D01*
X008893Y007941D01*
X008877Y007893D01*
X008858Y007847D01*
X008835Y007803D01*
X008808Y007760D01*
X008778Y007720D01*
X008746Y007682D01*
X008710Y007647D01*
X008671Y007615D01*
X008630Y007586D01*
X008587Y007560D01*
X008542Y007538D01*
X008496Y007520D01*
X008448Y007505D01*
X008399Y007494D01*
X008350Y007487D01*
X008300Y007484D01*
X008249Y007485D01*
X008200Y007490D01*
X008150Y007499D01*
X008102Y007512D01*
X008055Y007528D01*
X008009Y007549D01*
X007965Y007573D01*
X007923Y007600D01*
X007883Y007630D01*
X007846Y007664D01*
X007812Y007701D01*
X007780Y007740D01*
X007752Y007781D01*
X007727Y007825D01*
X007706Y007870D01*
X007689Y007917D01*
X007675Y007965D01*
X007665Y008014D01*
X007659Y008064D01*
X007657Y008114D01*
X006557Y004990D02*
X006559Y005040D01*
X006565Y005090D01*
X006575Y005139D01*
X006589Y005187D01*
X006606Y005234D01*
X006627Y005279D01*
X006652Y005323D01*
X006680Y005364D01*
X006712Y005403D01*
X006746Y005440D01*
X006783Y005474D01*
X006823Y005504D01*
X006865Y005531D01*
X006909Y005555D01*
X006955Y005576D01*
X007002Y005592D01*
X007050Y005605D01*
X007100Y005614D01*
X007149Y005619D01*
X007200Y005620D01*
X007250Y005617D01*
X007299Y005610D01*
X007348Y005599D01*
X007396Y005584D01*
X007442Y005566D01*
X007487Y005544D01*
X007530Y005518D01*
X007571Y005489D01*
X007610Y005457D01*
X007646Y005422D01*
X007678Y005384D01*
X007708Y005344D01*
X007735Y005301D01*
X007758Y005257D01*
X007777Y005211D01*
X007793Y005163D01*
X007805Y005114D01*
X007813Y005065D01*
X007817Y005015D01*
X007817Y004965D01*
X007813Y004915D01*
X007805Y004866D01*
X007793Y004817D01*
X007777Y004769D01*
X007758Y004723D01*
X007735Y004679D01*
X007708Y004636D01*
X007678Y004596D01*
X007646Y004558D01*
X007610Y004523D01*
X007571Y004491D01*
X007530Y004462D01*
X007487Y004436D01*
X007442Y004414D01*
X007396Y004396D01*
X007348Y004381D01*
X007299Y004370D01*
X007250Y004363D01*
X007200Y004360D01*
X007149Y004361D01*
X007100Y004366D01*
X007050Y004375D01*
X007002Y004388D01*
X006955Y004404D01*
X006909Y004425D01*
X006865Y004449D01*
X006823Y004476D01*
X006783Y004506D01*
X006746Y004540D01*
X006712Y004577D01*
X006680Y004616D01*
X006652Y004657D01*
X006627Y004701D01*
X006606Y004746D01*
X006589Y004793D01*
X006575Y004841D01*
X006565Y004890D01*
X006559Y004940D01*
X006557Y004990D01*
X007657Y017901D02*
X007659Y017951D01*
X007665Y018001D01*
X007675Y018050D01*
X007689Y018098D01*
X007706Y018145D01*
X007727Y018190D01*
X007752Y018234D01*
X007780Y018275D01*
X007812Y018314D01*
X007846Y018351D01*
X007883Y018385D01*
X007923Y018415D01*
X007965Y018442D01*
X008009Y018466D01*
X008055Y018487D01*
X008102Y018503D01*
X008150Y018516D01*
X008200Y018525D01*
X008249Y018530D01*
X008300Y018531D01*
X008350Y018528D01*
X008399Y018521D01*
X008448Y018510D01*
X008496Y018495D01*
X008542Y018477D01*
X008587Y018455D01*
X008630Y018429D01*
X008671Y018400D01*
X008710Y018368D01*
X008746Y018333D01*
X008778Y018295D01*
X008808Y018255D01*
X008835Y018212D01*
X008858Y018168D01*
X008877Y018122D01*
X008893Y018074D01*
X008905Y018025D01*
X008913Y017976D01*
X008917Y017926D01*
X008917Y017876D01*
X008913Y017826D01*
X008905Y017777D01*
X008893Y017728D01*
X008877Y017680D01*
X008858Y017634D01*
X008835Y017590D01*
X008808Y017547D01*
X008778Y017507D01*
X008746Y017469D01*
X008710Y017434D01*
X008671Y017402D01*
X008630Y017373D01*
X008587Y017347D01*
X008542Y017325D01*
X008496Y017307D01*
X008448Y017292D01*
X008399Y017281D01*
X008350Y017274D01*
X008300Y017271D01*
X008249Y017272D01*
X008200Y017277D01*
X008150Y017286D01*
X008102Y017299D01*
X008055Y017315D01*
X008009Y017336D01*
X007965Y017360D01*
X007923Y017387D01*
X007883Y017417D01*
X007846Y017451D01*
X007812Y017488D01*
X007780Y017527D01*
X007752Y017568D01*
X007727Y017612D01*
X007706Y017657D01*
X007689Y017704D01*
X007675Y017752D01*
X007665Y017801D01*
X007659Y017851D01*
X007657Y017901D01*
X006557Y023888D02*
X006559Y023938D01*
X006565Y023988D01*
X006575Y024037D01*
X006589Y024085D01*
X006606Y024132D01*
X006627Y024177D01*
X006652Y024221D01*
X006680Y024262D01*
X006712Y024301D01*
X006746Y024338D01*
X006783Y024372D01*
X006823Y024402D01*
X006865Y024429D01*
X006909Y024453D01*
X006955Y024474D01*
X007002Y024490D01*
X007050Y024503D01*
X007100Y024512D01*
X007149Y024517D01*
X007200Y024518D01*
X007250Y024515D01*
X007299Y024508D01*
X007348Y024497D01*
X007396Y024482D01*
X007442Y024464D01*
X007487Y024442D01*
X007530Y024416D01*
X007571Y024387D01*
X007610Y024355D01*
X007646Y024320D01*
X007678Y024282D01*
X007708Y024242D01*
X007735Y024199D01*
X007758Y024155D01*
X007777Y024109D01*
X007793Y024061D01*
X007805Y024012D01*
X007813Y023963D01*
X007817Y023913D01*
X007817Y023863D01*
X007813Y023813D01*
X007805Y023764D01*
X007793Y023715D01*
X007777Y023667D01*
X007758Y023621D01*
X007735Y023577D01*
X007708Y023534D01*
X007678Y023494D01*
X007646Y023456D01*
X007610Y023421D01*
X007571Y023389D01*
X007530Y023360D01*
X007487Y023334D01*
X007442Y023312D01*
X007396Y023294D01*
X007348Y023279D01*
X007299Y023268D01*
X007250Y023261D01*
X007200Y023258D01*
X007149Y023259D01*
X007100Y023264D01*
X007050Y023273D01*
X007002Y023286D01*
X006955Y023302D01*
X006909Y023323D01*
X006865Y023347D01*
X006823Y023374D01*
X006783Y023404D01*
X006746Y023438D01*
X006712Y023475D01*
X006680Y023514D01*
X006652Y023555D01*
X006627Y023599D01*
X006606Y023644D01*
X006589Y023691D01*
X006575Y023739D01*
X006565Y023788D01*
X006559Y023838D01*
X006557Y023888D01*
X029869Y022922D02*
X029871Y022948D01*
X029877Y022974D01*
X029887Y022999D01*
X029900Y023022D01*
X029916Y023042D01*
X029936Y023060D01*
X029958Y023075D01*
X029981Y023087D01*
X030007Y023095D01*
X030033Y023099D01*
X030059Y023099D01*
X030085Y023095D01*
X030111Y023087D01*
X030135Y023075D01*
X030156Y023060D01*
X030176Y023042D01*
X030192Y023022D01*
X030205Y022999D01*
X030215Y022974D01*
X030221Y022948D01*
X030223Y022922D01*
X030221Y022896D01*
X030215Y022870D01*
X030205Y022845D01*
X030192Y022822D01*
X030176Y022802D01*
X030156Y022784D01*
X030134Y022769D01*
X030111Y022757D01*
X030085Y022749D01*
X030059Y022745D01*
X030033Y022745D01*
X030007Y022749D01*
X029981Y022757D01*
X029957Y022769D01*
X029936Y022784D01*
X029916Y022802D01*
X029900Y022822D01*
X029887Y022845D01*
X029877Y022870D01*
X029871Y022896D01*
X029869Y022922D01*
X031601Y022922D02*
X031603Y022948D01*
X031609Y022974D01*
X031619Y022999D01*
X031632Y023022D01*
X031648Y023042D01*
X031668Y023060D01*
X031690Y023075D01*
X031713Y023087D01*
X031739Y023095D01*
X031765Y023099D01*
X031791Y023099D01*
X031817Y023095D01*
X031843Y023087D01*
X031867Y023075D01*
X031888Y023060D01*
X031908Y023042D01*
X031924Y023022D01*
X031937Y022999D01*
X031947Y022974D01*
X031953Y022948D01*
X031955Y022922D01*
X031953Y022896D01*
X031947Y022870D01*
X031937Y022845D01*
X031924Y022822D01*
X031908Y022802D01*
X031888Y022784D01*
X031866Y022769D01*
X031843Y022757D01*
X031817Y022749D01*
X031791Y022745D01*
X031765Y022745D01*
X031739Y022749D01*
X031713Y022757D01*
X031689Y022769D01*
X031668Y022784D01*
X031648Y022802D01*
X031632Y022822D01*
X031619Y022845D01*
X031609Y022870D01*
X031603Y022896D01*
X031601Y022922D01*
X038840Y023888D02*
X038842Y023938D01*
X038848Y023988D01*
X038858Y024037D01*
X038872Y024085D01*
X038889Y024132D01*
X038910Y024177D01*
X038935Y024221D01*
X038963Y024262D01*
X038995Y024301D01*
X039029Y024338D01*
X039066Y024372D01*
X039106Y024402D01*
X039148Y024429D01*
X039192Y024453D01*
X039238Y024474D01*
X039285Y024490D01*
X039333Y024503D01*
X039383Y024512D01*
X039432Y024517D01*
X039483Y024518D01*
X039533Y024515D01*
X039582Y024508D01*
X039631Y024497D01*
X039679Y024482D01*
X039725Y024464D01*
X039770Y024442D01*
X039813Y024416D01*
X039854Y024387D01*
X039893Y024355D01*
X039929Y024320D01*
X039961Y024282D01*
X039991Y024242D01*
X040018Y024199D01*
X040041Y024155D01*
X040060Y024109D01*
X040076Y024061D01*
X040088Y024012D01*
X040096Y023963D01*
X040100Y023913D01*
X040100Y023863D01*
X040096Y023813D01*
X040088Y023764D01*
X040076Y023715D01*
X040060Y023667D01*
X040041Y023621D01*
X040018Y023577D01*
X039991Y023534D01*
X039961Y023494D01*
X039929Y023456D01*
X039893Y023421D01*
X039854Y023389D01*
X039813Y023360D01*
X039770Y023334D01*
X039725Y023312D01*
X039679Y023294D01*
X039631Y023279D01*
X039582Y023268D01*
X039533Y023261D01*
X039483Y023258D01*
X039432Y023259D01*
X039383Y023264D01*
X039333Y023273D01*
X039285Y023286D01*
X039238Y023302D01*
X039192Y023323D01*
X039148Y023347D01*
X039106Y023374D01*
X039066Y023404D01*
X039029Y023438D01*
X038995Y023475D01*
X038963Y023514D01*
X038935Y023555D01*
X038910Y023599D01*
X038889Y023644D01*
X038872Y023691D01*
X038858Y023739D01*
X038848Y023788D01*
X038842Y023838D01*
X038840Y023888D01*
X038840Y004990D02*
X038842Y005040D01*
X038848Y005090D01*
X038858Y005139D01*
X038872Y005187D01*
X038889Y005234D01*
X038910Y005279D01*
X038935Y005323D01*
X038963Y005364D01*
X038995Y005403D01*
X039029Y005440D01*
X039066Y005474D01*
X039106Y005504D01*
X039148Y005531D01*
X039192Y005555D01*
X039238Y005576D01*
X039285Y005592D01*
X039333Y005605D01*
X039383Y005614D01*
X039432Y005619D01*
X039483Y005620D01*
X039533Y005617D01*
X039582Y005610D01*
X039631Y005599D01*
X039679Y005584D01*
X039725Y005566D01*
X039770Y005544D01*
X039813Y005518D01*
X039854Y005489D01*
X039893Y005457D01*
X039929Y005422D01*
X039961Y005384D01*
X039991Y005344D01*
X040018Y005301D01*
X040041Y005257D01*
X040060Y005211D01*
X040076Y005163D01*
X040088Y005114D01*
X040096Y005065D01*
X040100Y005015D01*
X040100Y004965D01*
X040096Y004915D01*
X040088Y004866D01*
X040076Y004817D01*
X040060Y004769D01*
X040041Y004723D01*
X040018Y004679D01*
X039991Y004636D01*
X039961Y004596D01*
X039929Y004558D01*
X039893Y004523D01*
X039854Y004491D01*
X039813Y004462D01*
X039770Y004436D01*
X039725Y004414D01*
X039679Y004396D01*
X039631Y004381D01*
X039582Y004370D01*
X039533Y004363D01*
X039483Y004360D01*
X039432Y004361D01*
X039383Y004366D01*
X039333Y004375D01*
X039285Y004388D01*
X039238Y004404D01*
X039192Y004425D01*
X039148Y004449D01*
X039106Y004476D01*
X039066Y004506D01*
X039029Y004540D01*
X038995Y004577D01*
X038963Y004616D01*
X038935Y004657D01*
X038910Y004701D01*
X038889Y004746D01*
X038872Y004793D01*
X038858Y004841D01*
X038848Y004890D01*
X038842Y004940D01*
X038840Y004990D01*
D15*
X023576Y013564D03*
X023576Y014775D03*
X020451Y015713D03*
X019709Y014893D03*
X019006Y014697D03*
X018928Y014658D03*
X018264Y015010D03*
X017834Y015830D03*
X017639Y016025D03*
X017795Y017822D03*
X012209Y017783D03*
X018264Y013408D03*
X020490Y013564D03*
D16*
X017072Y014502D03*
X017072Y014580D03*
X017072Y014658D03*
X017072Y014697D03*
X017072Y014775D03*
X017072Y014814D03*
X023673Y018252D03*
X024650Y013447D03*
D17*
X022677Y013447D03*
X021388Y013447D03*
X017326Y014971D03*
X028849Y017783D03*
X028849Y017822D03*
D18*
X019689Y013447D03*
D19*
X018166Y013447D03*
X018088Y014385D03*
X018166Y015205D03*
X018088Y015283D03*
X022033Y014189D03*
X024221Y018135D03*
D20*
X024513Y013486D03*
D21*
X022697Y013486D03*
X021408Y013486D03*
D22*
X019689Y013486D03*
D23*
X018068Y013486D03*
X018029Y013799D03*
X017130Y018174D03*
D24*
X016759Y013486D03*
D25*
X018811Y014580D03*
X019514Y014385D03*
X019514Y014346D03*
X019514Y014268D03*
X019514Y014189D03*
X019514Y014150D03*
X019514Y014072D03*
X019514Y014033D03*
X019514Y013955D03*
X019514Y013877D03*
X019514Y013838D03*
X019865Y013838D03*
X019865Y013877D03*
X019865Y013955D03*
X019865Y014033D03*
X019865Y014072D03*
X019865Y014150D03*
X019865Y014189D03*
X019865Y014268D03*
X019865Y014346D03*
X019553Y014463D03*
X019826Y014971D03*
X019865Y015010D03*
X019865Y015088D03*
X019865Y015127D03*
X019865Y015205D03*
X019865Y015283D03*
X019865Y015322D03*
X019865Y015400D03*
X019514Y015400D03*
X019514Y015322D03*
X019514Y015283D03*
X019514Y015205D03*
X019514Y015127D03*
X019514Y015088D03*
X018811Y015635D03*
X017795Y015908D03*
X017795Y015947D03*
X017678Y015088D03*
X017795Y015010D03*
X020490Y014775D03*
X021311Y014775D03*
X021311Y014814D03*
X021350Y014971D03*
X021350Y015010D03*
X021389Y015127D03*
X021389Y015205D03*
X021428Y015322D03*
X021428Y015400D03*
X021467Y015518D03*
X021506Y015713D03*
X021975Y015283D03*
X021975Y015205D03*
X021975Y015127D03*
X022131Y015010D03*
X022131Y014971D03*
X021936Y014893D03*
X021936Y014814D03*
X021936Y014775D03*
X022170Y014697D03*
X022170Y014658D03*
X022209Y014385D03*
X022209Y014346D03*
X022834Y014502D03*
X022834Y014580D03*
X022795Y014658D03*
X022795Y014697D03*
X022756Y014893D03*
X022717Y015088D03*
X022717Y015127D03*
X022678Y015283D03*
X022678Y015322D03*
X022600Y015635D03*
X023420Y015439D03*
X023498Y015596D03*
X024201Y015400D03*
X024514Y015439D03*
X024514Y015322D03*
X024514Y015283D03*
X024514Y015205D03*
X024514Y015127D03*
X024514Y015088D03*
X024514Y015010D03*
X024514Y014971D03*
X024514Y014893D03*
X024201Y014893D03*
X024201Y014502D03*
X024201Y014463D03*
X024514Y014502D03*
X024514Y014385D03*
X024514Y014346D03*
X024514Y014268D03*
X024514Y014189D03*
X024514Y014150D03*
X024514Y014072D03*
X024514Y014033D03*
X024514Y013955D03*
X024514Y013877D03*
X024514Y013838D03*
X024514Y013760D03*
X024240Y013760D03*
X023459Y013643D03*
X023420Y013760D03*
X023420Y013838D03*
X022990Y013760D03*
X022951Y013955D03*
X022912Y014150D03*
X022912Y014189D03*
X022873Y014346D03*
X022873Y014385D03*
X023420Y014463D03*
X022248Y013877D03*
X022287Y013721D03*
X022287Y013643D03*
X021818Y013721D03*
X021818Y013760D03*
X021818Y013838D03*
X021818Y013877D03*
X021779Y013525D03*
X021076Y013721D03*
X021076Y013760D03*
X021115Y013877D03*
X021154Y014072D03*
X021193Y014268D03*
X020568Y013643D03*
X021037Y013564D03*
X021037Y013525D03*
X020568Y015635D03*
X021037Y017314D03*
X020998Y017393D03*
X020959Y017471D03*
X020959Y017510D03*
X020959Y017588D03*
X020959Y017627D03*
X020998Y017705D03*
X021154Y017627D03*
X021154Y017471D03*
X020373Y018018D03*
X020451Y018096D03*
X020490Y018135D03*
X020568Y018213D03*
X020686Y018330D03*
X020412Y018330D03*
X020334Y018252D03*
X020295Y018213D03*
X020217Y018135D03*
X020139Y018018D03*
X020061Y017939D03*
X020256Y017900D03*
X020295Y017939D03*
X020100Y017705D03*
X019787Y017705D03*
X019709Y017783D03*
X019670Y017822D03*
X019592Y017900D03*
X019553Y017939D03*
X019670Y018096D03*
X019631Y018135D03*
X019553Y018213D03*
X019514Y018252D03*
X019436Y018330D03*
X019318Y018213D03*
X019279Y018252D03*
X019201Y018330D03*
X018967Y018213D03*
X018928Y018252D03*
X018967Y018135D03*
X019006Y018018D03*
X018967Y017939D03*
X018967Y017900D03*
X018889Y017822D03*
X018811Y018018D03*
X019436Y018096D03*
X019748Y018018D03*
X018967Y017314D03*
X018967Y017275D03*
X017834Y017471D03*
X017795Y017510D03*
X017795Y017588D03*
X017834Y017627D03*
X017678Y017705D03*
X017639Y017627D03*
X017639Y017588D03*
X017639Y017510D03*
X017639Y017471D03*
X017717Y017314D03*
X016701Y017314D03*
X016701Y017275D03*
X016701Y017393D03*
X016701Y017471D03*
X016701Y017510D03*
X016701Y017588D03*
X016701Y017627D03*
X016701Y017705D03*
X016701Y017783D03*
X016701Y017822D03*
X016701Y017900D03*
X016701Y017939D03*
X016701Y018018D03*
X016701Y018096D03*
X016701Y018135D03*
X015920Y018135D03*
X015920Y018096D03*
X015920Y018018D03*
X015920Y017939D03*
X015920Y017900D03*
X015920Y017822D03*
X015920Y017783D03*
X015920Y017705D03*
X015920Y017627D03*
X015920Y017588D03*
X015920Y017510D03*
X015920Y017471D03*
X015920Y017393D03*
X015920Y017314D03*
X015920Y017275D03*
X015529Y017783D03*
X015529Y017822D03*
X015920Y018213D03*
X015920Y018252D03*
X015920Y018330D03*
X014865Y017822D03*
X014865Y017783D03*
X014436Y017510D03*
X014436Y017471D03*
X014475Y017393D03*
X014514Y017314D03*
X014514Y017275D03*
X014318Y017314D03*
X014279Y017471D03*
X014240Y017588D03*
X014240Y017627D03*
X014201Y017705D03*
X014162Y017822D03*
X014123Y017939D03*
X014084Y018018D03*
X014006Y017900D03*
X013967Y017822D03*
X013850Y017939D03*
X013811Y017900D03*
X013889Y018018D03*
X013928Y018096D03*
X013928Y018135D03*
X013967Y018213D03*
X013967Y018252D03*
X014006Y018330D03*
X014201Y018330D03*
X014240Y018213D03*
X014240Y018135D03*
X014279Y018096D03*
X014279Y018018D03*
X014318Y017939D03*
X014318Y017900D03*
X013889Y017627D03*
X013850Y017588D03*
X013811Y017510D03*
X013811Y017471D03*
X013693Y017627D03*
X013654Y017588D03*
X013537Y017588D03*
X013498Y017627D03*
X013459Y017705D03*
X013420Y017783D03*
X013420Y017822D03*
X013381Y017900D03*
X013342Y017939D03*
X013303Y018018D03*
X013264Y018096D03*
X013264Y018135D03*
X013225Y018213D03*
X013186Y018252D03*
X012990Y018252D03*
X012990Y018330D03*
X012951Y018135D03*
X012912Y018018D03*
X012873Y017939D03*
X012873Y017900D03*
X012834Y017783D03*
X012795Y017627D03*
X012795Y017588D03*
X012756Y017510D03*
X012756Y017471D03*
X012717Y017393D03*
X012678Y017275D03*
X012873Y017275D03*
X012873Y017314D03*
X012912Y017393D03*
X012912Y017471D03*
X012951Y017510D03*
X012951Y017588D03*
X012990Y017705D03*
X013029Y017783D03*
X013029Y017822D03*
X013068Y017939D03*
X013186Y017939D03*
X013186Y017900D03*
X013225Y017822D03*
X013264Y017783D03*
X013303Y017705D03*
X013342Y017588D03*
X013381Y017510D03*
X013498Y017275D03*
X012365Y017275D03*
X012365Y017314D03*
X012365Y017900D03*
X012365Y017939D03*
X012404Y018018D03*
X012404Y018096D03*
X012365Y018213D03*
X012326Y018252D03*
X012170Y018135D03*
X012209Y018018D03*
X012170Y017939D03*
X011115Y018252D03*
X011115Y018330D03*
X011076Y017705D03*
X011076Y017627D03*
X011076Y017588D03*
X011076Y017510D03*
X011076Y017471D03*
X011076Y017393D03*
X011115Y017314D03*
X021037Y018252D03*
X021037Y018330D03*
X022092Y018135D03*
X022131Y018018D03*
X022092Y017939D03*
X022287Y017900D03*
X022326Y018018D03*
X022326Y018096D03*
X022287Y018213D03*
X022248Y018252D03*
X022287Y017314D03*
X022287Y017275D03*
X025295Y015713D03*
X025295Y015635D03*
X025295Y015596D03*
X025295Y015518D03*
X025295Y015439D03*
X025295Y015400D03*
X025295Y015322D03*
X025295Y015283D03*
X025295Y015205D03*
X025295Y015127D03*
X025295Y015088D03*
X025295Y015010D03*
X025295Y014971D03*
X025295Y014893D03*
X025295Y014814D03*
X025295Y014775D03*
X025295Y014697D03*
X025295Y014658D03*
X025295Y014580D03*
X025295Y014502D03*
X025295Y014463D03*
X025295Y014385D03*
X025295Y014346D03*
X025295Y014268D03*
X025295Y014189D03*
X025295Y014150D03*
X025295Y014072D03*
X025295Y014033D03*
X025295Y013955D03*
X025295Y013877D03*
X025295Y013838D03*
X025295Y013760D03*
X025295Y013721D03*
X025295Y013643D03*
X025295Y013564D03*
X025295Y013525D03*
D26*
X023713Y013525D03*
X018205Y015127D03*
X023010Y017588D03*
X023010Y017627D03*
X023010Y017939D03*
X024299Y018018D03*
X024338Y017939D03*
X024338Y017900D03*
X024338Y017822D03*
X024338Y017783D03*
X024338Y017705D03*
X024299Y017588D03*
X026994Y017627D03*
X026994Y017705D03*
X026994Y017783D03*
X026994Y017822D03*
X026994Y017900D03*
X026994Y017939D03*
X026994Y018018D03*
X026994Y018096D03*
X026994Y018135D03*
X026994Y018213D03*
X026994Y018252D03*
X026994Y018330D03*
X026994Y018408D03*
X029494Y018135D03*
X029494Y018096D03*
X029494Y018018D03*
X029494Y017939D03*
X029494Y017900D03*
X029494Y017822D03*
X029494Y017783D03*
X029494Y017705D03*
X029494Y017627D03*
X029494Y017588D03*
X029494Y017510D03*
X029494Y017471D03*
D27*
X024533Y015400D03*
X024220Y015439D03*
X024181Y015322D03*
X024181Y015283D03*
X024181Y015205D03*
X024181Y015127D03*
X024181Y015088D03*
X024181Y015010D03*
X024181Y014971D03*
X024181Y014385D03*
X024181Y014346D03*
X024181Y014268D03*
X024181Y014189D03*
X024181Y014150D03*
X024181Y014072D03*
X024181Y014033D03*
X024181Y013955D03*
X024181Y013877D03*
X024181Y013838D03*
X024533Y014463D03*
X023400Y014385D03*
X023400Y014346D03*
X023400Y014268D03*
X023400Y014189D03*
X023400Y014150D03*
X023400Y014072D03*
X023400Y014033D03*
X023400Y013955D03*
X023400Y013877D03*
X022970Y013877D03*
X022970Y013838D03*
X022931Y014033D03*
X022931Y014072D03*
X022892Y014268D03*
X022853Y014463D03*
X022775Y014775D03*
X022775Y014814D03*
X022736Y014971D03*
X022736Y015010D03*
X022697Y015205D03*
X022658Y015400D03*
X022658Y015439D03*
X022580Y015713D03*
X022111Y015283D03*
X022111Y015205D03*
X022111Y015127D03*
X022111Y015088D03*
X021955Y015088D03*
X021955Y015010D03*
X021955Y014971D03*
X022150Y014893D03*
X022150Y014814D03*
X022150Y014775D03*
X021916Y014697D03*
X021916Y014658D03*
X022228Y014268D03*
X022267Y013838D03*
X022267Y013760D03*
X022306Y013564D03*
X022306Y013525D03*
X021798Y013564D03*
X021798Y013643D03*
X021173Y014150D03*
X021173Y014189D03*
X021212Y014346D03*
X021212Y014385D03*
X021291Y014697D03*
X021330Y014893D03*
X021408Y015283D03*
X021447Y015439D03*
X021486Y015596D03*
X021486Y015635D03*
X020587Y015596D03*
X019845Y015439D03*
X019533Y015439D03*
X018791Y015596D03*
X018322Y014893D03*
X018791Y013643D03*
X021056Y013643D03*
X021095Y013838D03*
X023048Y013564D03*
X023048Y013525D03*
X023400Y014971D03*
X023400Y015010D03*
X023400Y015088D03*
X023400Y015127D03*
X023400Y015205D03*
X023400Y015283D03*
X023400Y015322D03*
X023400Y015400D03*
X019845Y017275D03*
X019845Y017314D03*
X019845Y017393D03*
X019845Y017471D03*
X019845Y017510D03*
X019845Y017588D03*
X019845Y017627D03*
X018986Y018096D03*
X017697Y018252D03*
X017697Y018330D03*
X017658Y017393D03*
X016212Y018252D03*
X016212Y018330D03*
X014806Y018330D03*
X014806Y018252D03*
X014220Y018252D03*
X014103Y018408D03*
X014025Y017939D03*
X014142Y017900D03*
X014181Y017783D03*
X013947Y017783D03*
X013908Y017705D03*
X013595Y017471D03*
X013400Y017471D03*
X013322Y017627D03*
X013478Y017314D03*
X013712Y017275D03*
X014298Y017393D03*
X014337Y017275D03*
X014416Y017588D03*
X014806Y017314D03*
X014806Y017275D03*
X013166Y018330D03*
X013087Y018408D03*
X012970Y018213D03*
X012931Y018096D03*
X013048Y017900D03*
X012853Y017822D03*
X012970Y017627D03*
X012697Y017314D03*
X011212Y017510D03*
X011212Y017588D03*
X022111Y018096D03*
X022306Y018135D03*
X022306Y017939D03*
D28*
X022970Y017900D03*
X022970Y017822D03*
X022970Y017783D03*
X022970Y017705D03*
X024767Y017197D03*
X024767Y017158D03*
X025900Y017197D03*
X027033Y017197D03*
X026642Y018447D03*
X025197Y018447D03*
X024767Y018447D03*
X024767Y018408D03*
X024767Y018330D03*
X024767Y018252D03*
X020314Y015752D03*
X019689Y015518D03*
X019064Y015752D03*
X017892Y015635D03*
X017892Y014775D03*
X019025Y013525D03*
X020353Y013525D03*
D29*
X018049Y013525D03*
X018049Y013564D03*
X018049Y013643D03*
X018049Y013721D03*
X018049Y013760D03*
X023674Y018447D03*
X025900Y017471D03*
X027150Y017471D03*
D30*
X016916Y013955D03*
X016916Y013877D03*
X016916Y013838D03*
X016916Y013760D03*
X016916Y013721D03*
X016916Y013643D03*
X016916Y013564D03*
X016916Y013525D03*
D31*
X017814Y014072D03*
X018869Y013564D03*
X018283Y014971D03*
X017814Y014971D03*
X018908Y015713D03*
X020548Y014814D03*
X021095Y017275D03*
X020158Y017783D03*
X019923Y017822D03*
X019845Y017900D03*
X019494Y018018D03*
X017775Y017275D03*
X013595Y017510D03*
X011173Y017275D03*
X011134Y017783D03*
X022033Y017900D03*
X022228Y017822D03*
D32*
X022131Y017978D03*
X022131Y018057D03*
X022326Y018057D03*
X021193Y017666D03*
X020998Y017744D03*
X021193Y017432D03*
X020998Y017353D03*
X020334Y017978D03*
X020412Y018057D03*
X020373Y018291D03*
X020100Y017978D03*
X020061Y017666D03*
X019826Y017666D03*
X019748Y017744D03*
X019709Y018057D03*
X019475Y018057D03*
X019475Y018291D03*
X019240Y018291D03*
X019006Y018057D03*
X018811Y018057D03*
X018811Y017978D03*
X017873Y017432D03*
X017678Y017353D03*
X017639Y017432D03*
X017678Y017744D03*
X016701Y017744D03*
X016701Y017666D03*
X016701Y017432D03*
X016701Y017353D03*
X016701Y017978D03*
X016701Y018057D03*
X015920Y018057D03*
X015920Y017978D03*
X015920Y017744D03*
X015920Y017666D03*
X015920Y017432D03*
X015920Y017353D03*
X015920Y018291D03*
X014475Y017432D03*
X014475Y017353D03*
X014318Y017353D03*
X014279Y017432D03*
X014201Y017744D03*
X013928Y017744D03*
X013889Y017666D03*
X013693Y017666D03*
X013498Y017666D03*
X013459Y017744D03*
X013303Y017666D03*
X013264Y017744D03*
X013342Y017978D03*
X013303Y018057D03*
X013186Y018291D03*
X012990Y018291D03*
X012912Y018057D03*
X012912Y017978D03*
X012834Y017744D03*
X012795Y017666D03*
X012990Y017666D03*
X012912Y017432D03*
X012717Y017353D03*
X013420Y017432D03*
X013459Y017353D03*
X013850Y017978D03*
X013889Y018057D03*
X014006Y018291D03*
X014201Y018291D03*
X014279Y018057D03*
X012404Y018057D03*
X012209Y018057D03*
X012209Y017978D03*
X011115Y018291D03*
X011076Y017744D03*
X011076Y017666D03*
X011076Y017432D03*
X011076Y017353D03*
X018303Y014932D03*
X018850Y014619D03*
X019514Y014307D03*
X019514Y014228D03*
X019514Y013994D03*
X019514Y013916D03*
X019865Y013916D03*
X019865Y013994D03*
X019865Y014228D03*
X019865Y014307D03*
X021115Y013916D03*
X020529Y013603D03*
X021193Y014228D03*
X021311Y014853D03*
X021389Y015166D03*
X021467Y015557D03*
X021975Y015244D03*
X021975Y015166D03*
X022131Y014932D03*
X021936Y014853D03*
X022170Y014619D03*
X022209Y014307D03*
X022209Y014228D03*
X022873Y014307D03*
X022834Y014541D03*
X022756Y014932D03*
X022639Y015478D03*
X023420Y015478D03*
X023459Y015557D03*
X023420Y014932D03*
X023459Y014853D03*
X023459Y014541D03*
X024240Y014853D03*
X024514Y014853D03*
X024514Y014932D03*
X024514Y015166D03*
X024514Y015244D03*
X025295Y015244D03*
X025295Y015166D03*
X025295Y014932D03*
X025295Y014853D03*
X025295Y014619D03*
X025295Y014541D03*
X025295Y014307D03*
X025295Y014228D03*
X025295Y013994D03*
X025295Y013916D03*
X025295Y013682D03*
X025295Y013603D03*
X024514Y013916D03*
X024514Y013994D03*
X024514Y014228D03*
X024514Y014307D03*
X023459Y013682D03*
X023498Y013603D03*
X023029Y013603D03*
X022951Y013994D03*
X022287Y013682D03*
X022287Y013603D03*
X019865Y015166D03*
X019865Y015244D03*
X019826Y015478D03*
X019553Y015478D03*
X019514Y015244D03*
X019514Y015166D03*
X018811Y013603D03*
X025295Y015478D03*
X025295Y015557D03*
X025920Y017119D03*
X027014Y017119D03*
X021037Y018291D03*
D33*
X020978Y017666D03*
X020978Y017432D03*
X019845Y017432D03*
X019845Y017353D03*
X018986Y017978D03*
X017697Y018291D03*
X017658Y017666D03*
X016212Y018291D03*
X014806Y018291D03*
X014298Y017978D03*
X014220Y017666D03*
X012892Y017353D03*
X012736Y017432D03*
X020587Y014853D03*
X021330Y014932D03*
X021408Y015244D03*
X021447Y015478D03*
X022111Y015244D03*
X022111Y015166D03*
X021955Y014932D03*
X022150Y014853D03*
X021916Y014619D03*
X021212Y014307D03*
X021056Y013682D03*
X021056Y013603D03*
X020587Y013682D03*
X021798Y013682D03*
X021798Y013603D03*
X022970Y013916D03*
X023400Y013916D03*
X023400Y013994D03*
X023400Y014228D03*
X023400Y014307D03*
X022892Y014228D03*
X022775Y014853D03*
X022697Y015166D03*
X022697Y015244D03*
X023400Y015244D03*
X023400Y015166D03*
X024181Y015166D03*
X024181Y015244D03*
X024181Y014932D03*
X024181Y014307D03*
X024181Y014228D03*
X024181Y013994D03*
X024181Y013916D03*
X022306Y017978D03*
D34*
X025900Y017432D03*
X018049Y013682D03*
X018049Y013603D03*
D35*
X016916Y013603D03*
X016916Y013682D03*
X016916Y013916D03*
X016916Y013994D03*
D36*
X021134Y013955D03*
X021134Y014033D03*
X021369Y015088D03*
X022189Y014580D03*
X022189Y014502D03*
X022189Y014463D03*
X023009Y013721D03*
X023009Y013643D03*
X023439Y013721D03*
X023439Y014502D03*
X023439Y014893D03*
X023439Y015518D03*
X022619Y015518D03*
X022619Y015596D03*
X021134Y017510D03*
X021134Y017588D03*
X017384Y018252D03*
X017384Y018330D03*
X015744Y018135D03*
X015744Y018096D03*
X015744Y018018D03*
X015744Y017939D03*
X015744Y017900D03*
X015744Y017822D03*
X015744Y017783D03*
X015744Y017705D03*
X015744Y017627D03*
X015744Y017588D03*
X015744Y017510D03*
X015744Y017471D03*
X014259Y017510D03*
X013439Y017393D03*
X012814Y017705D03*
X012384Y018135D03*
X012189Y018096D03*
D37*
X012384Y017978D03*
X013009Y017744D03*
X015744Y017744D03*
X015744Y017666D03*
X015744Y017432D03*
X015744Y017978D03*
X015744Y018057D03*
X017384Y018291D03*
X022619Y015557D03*
X022814Y014619D03*
X022189Y014541D03*
X021134Y013994D03*
X023009Y013682D03*
D38*
X021896Y014541D03*
X021271Y014619D03*
X020607Y015557D03*
X018771Y015557D03*
X018771Y014541D03*
X018771Y013682D03*
X020021Y017353D03*
X020021Y017432D03*
X020646Y018291D03*
X016896Y018057D03*
X016896Y017978D03*
X016896Y017744D03*
X016896Y017666D03*
X016896Y017432D03*
X016896Y017353D03*
X014396Y017666D03*
X014357Y017744D03*
X013732Y017744D03*
X013771Y017432D03*
X013732Y017353D03*
X011271Y017432D03*
X011271Y017666D03*
D39*
X018127Y014346D03*
X024377Y014814D03*
X024377Y013721D03*
X028127Y017275D03*
X028127Y017314D03*
X028127Y017393D03*
X028127Y017471D03*
X028127Y017510D03*
X028127Y017588D03*
D40*
X023732Y014697D03*
X023732Y014658D03*
X021896Y014580D03*
X021896Y014502D03*
X021896Y014463D03*
X021896Y014385D03*
X021857Y014268D03*
X021232Y014463D03*
X021271Y014658D03*
X020607Y014893D03*
X020607Y015518D03*
X020607Y013721D03*
X020021Y017275D03*
X020021Y017314D03*
X020021Y017393D03*
X020021Y017471D03*
X020021Y017510D03*
X020021Y017588D03*
X020021Y017627D03*
X020021Y017900D03*
X019396Y018135D03*
X018771Y018135D03*
X018771Y018096D03*
X018771Y017939D03*
X020607Y018252D03*
X016896Y018135D03*
X016896Y018096D03*
X016896Y018018D03*
X016896Y017939D03*
X016896Y017900D03*
X016896Y017822D03*
X016896Y017783D03*
X016896Y017705D03*
X016896Y017627D03*
X016896Y017588D03*
X016896Y017510D03*
X016896Y017471D03*
X016896Y017393D03*
X016896Y017314D03*
X016896Y017275D03*
X014396Y017627D03*
X014396Y017705D03*
X014357Y017783D03*
X014357Y017822D03*
X013771Y017822D03*
X013771Y017783D03*
X013732Y017705D03*
X013771Y017393D03*
X013732Y017314D03*
X011232Y017471D03*
X011232Y017627D03*
D41*
X012756Y017197D03*
X017873Y015713D03*
X017873Y014814D03*
X019670Y013721D03*
X019826Y014580D03*
X020139Y014658D03*
X025920Y017158D03*
X027014Y018447D03*
D42*
X021252Y014580D03*
X021252Y014502D03*
X021877Y014346D03*
X020627Y014346D03*
X020627Y014268D03*
X020627Y014189D03*
X020627Y014150D03*
X020627Y014072D03*
X020627Y014033D03*
X020627Y013955D03*
X020627Y013877D03*
X020627Y013838D03*
X020627Y013760D03*
X020627Y014971D03*
X020627Y015010D03*
X020627Y015088D03*
X020627Y015127D03*
X020627Y015205D03*
X020627Y015283D03*
X020627Y015322D03*
X020627Y015400D03*
X020627Y015439D03*
X018752Y015439D03*
X018752Y015400D03*
X018752Y015322D03*
X018752Y015283D03*
X018752Y015205D03*
X018752Y015127D03*
X018752Y015088D03*
X018752Y015518D03*
X018752Y014502D03*
X018752Y014463D03*
X018752Y014385D03*
X018752Y014346D03*
X018752Y014268D03*
X018752Y014189D03*
X018752Y014150D03*
X018752Y014072D03*
X018752Y014033D03*
X018752Y013955D03*
X018752Y013877D03*
X018752Y013838D03*
X018752Y013760D03*
X018752Y013721D03*
D43*
X019572Y013760D03*
X019806Y013760D03*
X019611Y014502D03*
X023517Y014580D03*
X023517Y014814D03*
X023517Y015635D03*
X021056Y017783D03*
X020197Y017822D03*
X020197Y018096D03*
X019806Y017939D03*
X017736Y017783D03*
X012306Y017822D03*
X012111Y017900D03*
D44*
X012326Y017861D03*
X012365Y018174D03*
X012951Y018174D03*
X013225Y018174D03*
X013225Y017861D03*
X013381Y017861D03*
X013537Y017549D03*
X013654Y017549D03*
X013850Y017549D03*
X013811Y017861D03*
X014162Y017861D03*
X014318Y017861D03*
X014240Y017549D03*
X014436Y017549D03*
X014240Y018174D03*
X013537Y017236D03*
X012951Y017549D03*
X012756Y017549D03*
X012873Y017861D03*
X013029Y017861D03*
X011193Y017549D03*
X011076Y017549D03*
X015920Y017549D03*
X015920Y017861D03*
X015920Y018174D03*
X016701Y017861D03*
X016701Y017549D03*
X017639Y017549D03*
X017795Y017549D03*
X018928Y017861D03*
X018967Y018174D03*
X019592Y018174D03*
X019631Y017861D03*
X019865Y017861D03*
X020217Y017861D03*
X020256Y018174D03*
X020529Y018174D03*
X020959Y017549D03*
X022248Y017861D03*
X022287Y018174D03*
X022600Y015674D03*
X022795Y014736D03*
X022912Y014111D03*
X022990Y013799D03*
X023420Y013799D03*
X024201Y013799D03*
X024514Y013799D03*
X024514Y014111D03*
X024514Y014424D03*
X024514Y015049D03*
X024514Y015361D03*
X025295Y015361D03*
X025295Y015049D03*
X025295Y014736D03*
X025295Y014424D03*
X025295Y014111D03*
X025295Y013799D03*
X023420Y014424D03*
X021936Y014736D03*
X021428Y015361D03*
X020529Y015674D03*
X019865Y015361D03*
X019865Y015049D03*
X019514Y015361D03*
X018850Y015674D03*
X019514Y014424D03*
X019514Y014111D03*
X019865Y014111D03*
X019826Y013799D03*
X021154Y014111D03*
X021818Y013799D03*
X025295Y015674D03*
D45*
X024181Y015361D03*
X024181Y015049D03*
X024181Y014424D03*
X024181Y014111D03*
X023400Y014111D03*
X022853Y014424D03*
X022150Y014736D03*
X022111Y015049D03*
X021955Y015049D03*
X021291Y014736D03*
X021095Y013799D03*
X022267Y013799D03*
X022736Y015049D03*
X022658Y015361D03*
X023400Y015361D03*
X023400Y015049D03*
X021486Y015674D03*
X019533Y013799D03*
X017775Y014111D03*
X017775Y015049D03*
X017775Y015986D03*
X019845Y017549D03*
X013986Y017861D03*
X013947Y018174D03*
X013361Y017549D03*
D46*
X018752Y015361D03*
X018752Y014424D03*
X018752Y014111D03*
X018752Y013799D03*
X020627Y013799D03*
X020627Y014111D03*
X020627Y015049D03*
X020627Y015361D03*
D47*
X016916Y013799D03*
D48*
X018010Y013838D03*
X016447Y018213D03*
X023244Y018213D03*
X027111Y017393D03*
D49*
X027072Y017314D03*
X028049Y018213D03*
X022033Y013955D03*
X018010Y014463D03*
X017971Y013877D03*
X017971Y015439D03*
D50*
X022033Y013916D03*
D51*
X021877Y014228D03*
X021877Y014307D03*
X021252Y014541D03*
X020627Y014307D03*
X020627Y014228D03*
X020627Y013994D03*
X020627Y013916D03*
X020627Y014932D03*
X020627Y015166D03*
X020627Y015244D03*
X020627Y015478D03*
X018752Y015478D03*
X018752Y015244D03*
X018752Y015166D03*
X018752Y014307D03*
X018752Y014228D03*
X018752Y013994D03*
X018752Y013916D03*
X013127Y018057D03*
D52*
X017931Y013916D03*
D53*
X017912Y013955D03*
X017912Y015596D03*
X024748Y017275D03*
X024748Y017314D03*
X024748Y017393D03*
X024748Y017471D03*
X024748Y017510D03*
X024748Y017588D03*
X024748Y017627D03*
X024748Y017705D03*
X024748Y017783D03*
X024748Y017822D03*
X024748Y017900D03*
X024748Y017939D03*
X024748Y018018D03*
X024748Y018096D03*
X024748Y018135D03*
X024748Y018213D03*
X025217Y018408D03*
X025373Y018135D03*
X025373Y018096D03*
X025412Y018018D03*
X026428Y018096D03*
D54*
X017873Y014853D03*
X017873Y013994D03*
D55*
X017853Y014033D03*
X017853Y014893D03*
X017853Y015752D03*
X020275Y014697D03*
X022033Y015322D03*
X022150Y017783D03*
X022111Y018330D03*
X021134Y017822D03*
X027033Y017158D03*
X013595Y017197D03*
X012189Y018330D03*
D56*
X017053Y014033D03*
D57*
X017287Y014072D03*
X021623Y017705D03*
D58*
X023146Y018174D03*
X024201Y018174D03*
X027638Y017861D03*
X018029Y015361D03*
X017521Y014111D03*
D59*
X018205Y014228D03*
X019689Y015557D03*
X017814Y015869D03*
X017853Y017666D03*
X018869Y018291D03*
X019533Y017978D03*
X020158Y018057D03*
X020119Y017744D03*
X022189Y018291D03*
D60*
X018810Y017783D03*
X018185Y014268D03*
D61*
X018146Y014307D03*
X019982Y014619D03*
D62*
X020236Y014385D03*
X019142Y015010D03*
X016564Y015322D03*
D63*
X015744Y017549D03*
X015744Y017861D03*
X021134Y017549D03*
X021369Y015049D03*
X022189Y014424D03*
D64*
X021896Y014424D03*
X021232Y014424D03*
X020021Y017549D03*
X019982Y017861D03*
X019357Y018174D03*
X016896Y017861D03*
X016896Y017549D03*
D65*
X019142Y015049D03*
X020236Y014424D03*
D66*
X018049Y014424D03*
D67*
X016642Y014424D03*
D68*
X016916Y014463D03*
D69*
X017990Y014502D03*
X017990Y014580D03*
D70*
X018127Y015244D03*
X023127Y017432D03*
X024377Y015478D03*
X024377Y014541D03*
X026408Y018057D03*
X028088Y018291D03*
D71*
X023634Y014619D03*
X019728Y014541D03*
X019611Y014853D03*
X014103Y018369D03*
D72*
X017990Y014541D03*
X027091Y017353D03*
D73*
X023673Y017353D03*
X017072Y015791D03*
X017072Y014853D03*
X017072Y014619D03*
X017072Y014541D03*
D74*
X018224Y015088D03*
X019943Y017197D03*
X024396Y015518D03*
X024396Y014580D03*
X028146Y017158D03*
X028146Y017197D03*
X028146Y018408D03*
X014435Y017197D03*
D75*
X017971Y014619D03*
D76*
X017951Y014658D03*
X018068Y015322D03*
X017990Y015400D03*
X023185Y017393D03*
X027052Y017275D03*
X027404Y017627D03*
X027482Y017705D03*
X027560Y017783D03*
X027599Y017822D03*
X027677Y017900D03*
X028068Y018252D03*
D77*
X026603Y018408D03*
X026564Y018330D03*
X026525Y018252D03*
X026486Y018213D03*
X026447Y018135D03*
X025314Y018213D03*
X025236Y018330D03*
X025900Y017275D03*
X017931Y015518D03*
X017931Y014697D03*
D78*
X022033Y015361D03*
X023595Y015674D03*
X023673Y014736D03*
X013673Y017236D03*
D79*
X020412Y014736D03*
D80*
X019142Y014736D03*
X018244Y015049D03*
D81*
X017912Y014736D03*
X024748Y017549D03*
X024748Y017861D03*
X024748Y018174D03*
X026467Y018174D03*
X027053Y017236D03*
D82*
X017072Y014736D03*
D83*
X019299Y014775D03*
X019455Y014814D03*
X016799Y017197D03*
X018791Y018330D03*
X011213Y017822D03*
D84*
X017111Y014893D03*
X023673Y017314D03*
X029025Y017314D03*
X029025Y017275D03*
X029025Y017197D03*
X029025Y018330D03*
X029025Y018408D03*
D85*
X019767Y017978D03*
X019806Y014932D03*
X012267Y018291D03*
D86*
X014084Y017978D03*
X017834Y015791D03*
X017834Y014932D03*
D87*
X017209Y014932D03*
D88*
X017443Y015010D03*
X017443Y015947D03*
X028029Y018135D03*
D89*
X028146Y017861D03*
X025724Y017549D03*
X025529Y017861D03*
X024279Y017549D03*
X017560Y015049D03*
D90*
X018185Y015166D03*
X016310Y015244D03*
X019279Y018369D03*
X020568Y018369D03*
X024279Y018057D03*
X024318Y017978D03*
X025607Y017744D03*
X025646Y017666D03*
X026232Y017744D03*
X026349Y017978D03*
X028146Y017978D03*
X028146Y017744D03*
X028146Y017666D03*
D91*
X016427Y015283D03*
D92*
X016701Y015361D03*
X018225Y018174D03*
X021545Y018174D03*
X011623Y018174D03*
D93*
X016838Y015400D03*
D94*
X016935Y015439D03*
X016935Y015518D03*
X016935Y015596D03*
X016935Y015635D03*
X016935Y015713D03*
D95*
X017951Y015478D03*
X024201Y017432D03*
X027443Y017666D03*
X027521Y017744D03*
D96*
X016935Y015557D03*
X016935Y015478D03*
D97*
X017912Y015557D03*
X024748Y017353D03*
X024748Y017432D03*
X024748Y017666D03*
X024748Y017744D03*
X024748Y017978D03*
X024748Y018057D03*
X025256Y018291D03*
X025217Y018369D03*
X025412Y018057D03*
X025451Y017978D03*
D98*
X017873Y015674D03*
X012756Y017236D03*
D99*
X016935Y015674D03*
D100*
X023068Y017510D03*
X023107Y017471D03*
X023029Y018018D03*
X023068Y018096D03*
X023107Y018135D03*
X024279Y017510D03*
X024240Y017471D03*
X024318Y017627D03*
X025490Y017900D03*
X025490Y017939D03*
X025529Y017822D03*
X025568Y017783D03*
X025607Y017705D03*
X025646Y017627D03*
X025685Y017588D03*
X026115Y017588D03*
X026154Y017627D03*
X026193Y017705D03*
X026232Y017783D03*
X026271Y017822D03*
X026310Y017900D03*
X028146Y017900D03*
X028146Y017939D03*
X028146Y017822D03*
X028146Y017783D03*
X028146Y017705D03*
X028146Y017627D03*
X028107Y018330D03*
X029474Y017393D03*
X023771Y015713D03*
D101*
X024553Y015752D03*
D102*
X023673Y017275D03*
X023673Y018330D03*
X021759Y017393D03*
X021759Y017197D03*
X022033Y015752D03*
X018439Y017197D03*
X018439Y017393D03*
X017150Y015830D03*
X029064Y018213D03*
D103*
X016974Y015752D03*
D104*
X019689Y015791D03*
X018244Y018369D03*
X021564Y018369D03*
X011642Y018369D03*
D105*
X015256Y017353D03*
X017248Y015869D03*
X018381Y017744D03*
X021701Y017744D03*
D106*
X017346Y015908D03*
D107*
X017541Y015986D03*
X026096Y017549D03*
X026291Y017861D03*
D108*
X029045Y018252D03*
X029045Y018447D03*
X029045Y017158D03*
D109*
X028869Y017705D03*
X028869Y017900D03*
X023674Y017158D03*
D110*
X023674Y017197D03*
D111*
X015373Y017197D03*
D112*
X011838Y017197D03*
X011838Y017393D03*
D113*
X029025Y017236D03*
D114*
X028127Y017236D03*
X028127Y017549D03*
D115*
X025920Y017236D03*
X025334Y018174D03*
D116*
X024767Y017236D03*
X022970Y017861D03*
D117*
X023674Y017236D03*
D118*
X021701Y017236D03*
X018381Y017236D03*
X011779Y017236D03*
D119*
X014435Y017236D03*
X019943Y017236D03*
D120*
X023049Y017549D03*
X024338Y017861D03*
X026994Y017861D03*
X026994Y018174D03*
X029494Y018174D03*
X029494Y017861D03*
X029494Y017549D03*
X016799Y017236D03*
D121*
X015373Y017236D03*
D122*
X024142Y017393D03*
X025900Y017314D03*
D123*
X029045Y017353D03*
D124*
X028127Y017353D03*
X028127Y017432D03*
X028127Y018369D03*
D125*
X025920Y017353D03*
D126*
X021799Y017353D03*
D127*
X018478Y017353D03*
D128*
X011877Y017353D03*
D129*
X017150Y018213D03*
X024103Y018213D03*
X025900Y017393D03*
D130*
X015275Y017393D03*
D131*
X023010Y017666D03*
X023010Y017978D03*
X023049Y018057D03*
X024338Y017744D03*
X024338Y017666D03*
X026994Y017666D03*
X026994Y017744D03*
X026994Y017978D03*
X026994Y018057D03*
X026994Y018291D03*
X026994Y018369D03*
X029494Y018057D03*
X029494Y017978D03*
X029494Y017744D03*
X029494Y017666D03*
X029494Y017432D03*
D132*
X027130Y017432D03*
D133*
X027169Y017510D03*
X027990Y018096D03*
D134*
X025900Y017510D03*
D135*
X027189Y017549D03*
D136*
X027209Y017588D03*
D137*
X026174Y017666D03*
D138*
X018263Y017705D03*
D139*
X015177Y017705D03*
X027951Y018018D03*
D140*
X011681Y017705D03*
D141*
X028869Y017744D03*
D142*
X024767Y018291D03*
X024767Y018369D03*
X022970Y017744D03*
D143*
X015197Y017744D03*
D144*
X011779Y017744D03*
D145*
X028869Y017861D03*
D146*
X021584Y017861D03*
X011662Y017861D03*
D147*
X018263Y017861D03*
D148*
X015197Y017861D03*
D149*
X013127Y018018D03*
X018713Y017900D03*
D150*
X027717Y017939D03*
D151*
X026369Y018018D03*
X026330Y017939D03*
X024260Y018096D03*
D152*
X027756Y017978D03*
D153*
X013107Y017978D03*
D154*
X027971Y018057D03*
D155*
X028029Y018174D03*
D156*
X016466Y018174D03*
D157*
X015275Y018174D03*
D158*
X011603Y018213D03*
X021525Y018213D03*
D159*
X018185Y018213D03*
D160*
X015256Y018213D03*
D161*
X025295Y018252D03*
D162*
X023673Y018291D03*
X029025Y018291D03*
X029025Y018369D03*
X016798Y018369D03*
D163*
X026545Y018291D03*
X026584Y018369D03*
D164*
X023654Y018369D03*
D165*
X015373Y018369D03*
D166*
X013088Y018369D03*
D167*
X023674Y018408D03*
D168*
X028146Y018447D03*
M02*
